<svg xmlns="http://www.w3.org/2000/svg" viewBox="0 0 270.93 270.93"><defs><clipPath id="d"><path d="M95.757 109.63h33.361v26.068H95.757zm32.145 13.383c-2.882.163-5.643.8-7.538 1.361a30.54 30.54 0 0 0-2.226.75c-.372.141-.706.279-1.004.41-.538.235-.964.45-1.296.634-.51.282-.831.51-1.016.653-.199.154.032.452.23.298a7.56 7.56 0 0 1 .967-.626c.32-.18.735-.39 1.264-.619.292-.127.621-.26.989-.398.55-.207 1.554-.073 2.47-.333 1.835-.52 4.347-1.512 7.185-1.629 1.16-.048 1.156-.568-.025-.501z" class="powerclip" style="paint-order:stroke markers fill"/></clipPath><clipPath id="c"><path fill="none" stroke="#000" stroke-linecap="round" stroke-miterlimit="10" d="M133.13 90.353c-2.022.002-3.962.096-5.679.29-2.288.258-4.153.645-5.437 1.423-1.28.775-1.913 2.259-2.362 3.992-.423 1.636-.622 3.555-.636 5.49a34.46 34.46 0 0 0-7.27-.786 34.46 34.46 0 0 0-34.46 34.46 34.46 34.46 0 0 0 34.46 34.46 34.46 34.46 0 0 0 34.46-34.46 34.46 34.46 0 0 0-8.273-22.384c1.894.107 5.395.241 10.205.102 2.182-.063 3.78-1.486 4.623-3.316.843-1.83 1.111-4.098 1.038-6.389-.074-2.29-.502-4.6-1.182-6.504-.681-1.903-1.523-3.487-3.018-4.111-3.265-1.365-8.93-2.089-14.426-2.24a71.144 71.144 0 0 0-2.043-.028z" style="paint-order:stroke markers fill"/></clipPath><clipPath id="b"><path d="M111.74 101.26a33.961 33.961 0 0 0-8.966 1.245l-3.725-1.14-.66 2.681a33.961 33.961 0 0 0-20.61 31.174 33.961 33.961 0 0 0 33.96 33.961 33.961 33.961 0 0 0 33.961-33.96 33.961 33.961 0 0 0-33.96-33.962z" style="paint-order:markers fill stroke"/></clipPath><clipPath id="a"><path stroke-linecap="round" stroke-linejoin="round" stroke-miterlimit="10" stroke-width=".439" d="m91.938 93.225.3.895c2.363 7.014.75 10.408-1.375 13.64a34.587 34.587 0 0 0-8.148 8.673c-.63-.798-1.29-1.745-2.049-2.985l-.796-1.307-.127 1.525c-.276 3.312-.339 6.125-.08 8.849a34.587 34.587 0 0 0-2.506 12.708c0 19.102 15.485 34.587 34.587 34.587 19.102 0 34.587-15.485 34.587-34.587 0-.529-.014-1.057-.039-1.585 0 0 .049-1.678-.14-1.909a34.587 34.587 0 0 0-21.804-28.705c-1.965-1.666-4.065-3.247-6.3-4.797l-.957-.664.178 1.15c.14.91.197 1.691.214 2.412a34.587 34.587 0 0 0-5.738-.489c-.913.029-1.825.094-2.733.195-4.922-3.327-10.646-5.81-16.163-7.352z" style="paint-order:markers fill stroke"/></clipPath></defs><path fill="#fff" d="M192.28 1.077c-6.705.008-13.167.312-19.003.97-7.697.869-14.435 2.034-20.123 5.48-6.431 3.895-8.915 10.606-10.505 16.75-.093.358-.109.763-.195 1.126a6.442 6.442 0 0 0-8.177 6.316l.535 3.447c-3.791-.375-7.567-.969-11.38-.975a6.442 6.442 0 0 0-.214.006c-2.4.077-4.793.294-7.183.516-16.041-10.477-34.117-18.408-51.732-23.332a6.442 6.442 0 0 0-.007 0l-2.93-.817a6.442 6.442 0 0 0-7.838 8.253l.969 2.881a6.442 6.442 0 0 0 .006.007c6.99 20.753 2.939 28.14-3.378 37.785-7.893 6.091-14.725 13.33-20.827 21.187-.517-.802-.91-1.226-1.465-2.134v-.006l-2.566-4.202a6.442 6.442 0 0 0-11.922 2.817l-.403 4.913c-.858 10.307-.964 19.246-.238 28.061-5.187 13.36-8.024 27.517-8.115 41.856a6.442 6.442 0 0 0 0 .045c0 65.002 52.836 117.83 117.84 117.83 65.002 0 117.83-52.83 117.83-117.83a6.442 6.442 0 0 0 0-.002 6.442 6.442 0 0 0 0-.002 6.442 6.442 0 0 0 0-.002 6.442 6.442 0 0 0 0-.002 6.442 6.442 0 0 0 0-.002 6.442 6.442 0 0 0 0-.002 6.442 6.442 0 0 0 0-.002 6.442 6.442 0 0 0 0-.002 116.56 116.56 0 0 0-.125-5.15v-.008c-.197-22.005-8.609-42.626-20.426-60.344 6.123.157 10.737.46 20.112.188 9.732-.281 17.071-6.871 20.549-14.423 3.345-7.26 4.188-15.46 3.931-23.475-.258-8.035-1.722-16.025-4.182-22.905-2.378-6.649-5.704-13.843-13.298-17.016-12.215-5.104-30.626-7.212-48.768-7.712a235.51 235.51 0 0 0-6.77-.088z" style="paint-order:markers fill stroke"/><circle cx="123.43" cy="152.03" r="109.68" fill="#535d6c" style="paint-order:markers fill stroke"/><g clip-path="url(#a)" transform="translate(-236.46 -283.48) scale(3.2207)"><path fill="#fc0" d="m77.642 132 5.717 1.87c-3.455-7.52-3.768-12.368-3.118-20.163 2.656 4.349 4.09 5.38 7.015 7.587-2.276-12.669 10.465-12.464 5.457-27.336 8.351 2.335 17.237 6.821 22.926 13.124 1.853-1.48 2.858-3.688 2.123-8.446 10.436 7.239 18.02 14.823 21.307 29.934l2.079-5.613c1.732 5.255 3.464 7.81 5.197 9.77l6.964 38.666-76.81 12.992s6.56-44.69 1.143-52.385z"/><path d="M77.521 132.37c.388.13 1.462.5 2.326.78 1.008.327 2.21.658 3.401 1.058l.77.258-.339-.74a49.427 49.427 0 0 1-.451-1.017 36.957 36.957 0 0 1-1.526-4.181 28.338 28.338 0 0 1-.97-4.7c-.188-1.59-.24-3.149-.213-4.735.01-.631.033-1.262.063-1.891a73.93 73.93 0 0 1 .102-1.69c.308.462.602.878.89 1.258.338.446.677.857 1.03 1.24.215.235.436.456.664.668.565.524 1.15.967 1.785 1.417.637.45 1.315.903 2.033 1.426l.576.42-.128-.695a16.114 16.114 0 0 1-.264-2.28 12.586 12.586 0 0 1 .057-1.844c.131-1.23.442-2.287.843-3.224.41-.961.93-1.831 1.493-2.67.553-.824 1.159-1.627 1.767-2.491a23.1 23.1 0 0 0 1.453-2.296c.069-.128.137-.258.204-.39.473-.936.887-1.992 1.138-3.213.241-1.17.333-2.488.194-4.01-.11-1.193-.36-2.507-.789-3.97a60.617 60.617 0 0 1 8.119 3.088 57.874 57.874 0 0 1 3.15 1.584c3.917 2.125 7.573 4.729 10.425 7.838l.277.302.303-.255a8.28 8.28 0 0 0 .397-.356c.3-.286.602-.623.877-1.025.363-.53.653-1.133.858-1.838.23-.79.327-1.616.354-2.432.015-.483.005-.931-.01-1.305-.01-.257-.018-.52-.03-.792 1.72 1.228 4.073 2.966 6.343 4.96 2.13 1.87 4.17 3.938 6.019 6.321a39.202 39.202 0 0 1 4.7 7.774c.244.533.471 1.058.683 1.574 1.113 2.714 1.953 5.523 2.587 8.36l.32 1.425.438-1.372c.177-.551.343-1.082.567-1.741.321-.946.728-2.183 1.133-3.324.273.797.528 1.49.763 2.099.548 1.423 1.079 2.7 1.487 3.536.274.561.615 1.19 1.067 1.866.38.569.834 1.167 1.401 1.818a13574.56 13574.56 0 0 0 6.935 38.07c-25.741 4.395-52.735 9.01-75.927 12.966.298-2.375 1.812-14.036 2.511-22.898.268-3.389.45-6.426.56-9.132.098-2.43.133-4.467.13-6.178 0-.834-.01-1.622-.029-2.366-.075-3.06-.288-5.324-.566-7.02-.184-1.117-.395-1.982-.611-2.66-.306-.961-.63-1.569-.903-1.967zm-.196-.145c.233.322.546.851.857 1.746.22.633.443 1.459.641 2.547.301 1.651.54 3.882.635 6.923.023.74.037 1.523.042 2.352.01 1.702-.02 3.733-.117 6.154a228.94 228.94 0 0 1-.559 9.11c-.79 9.893-2.621 23.29-2.642 23.283l.37.361c23.297-3.906 50.476-8.454 76.83-12.871l.44-.074-.078-.44a13615.038 13615.038 0 0 0-6.887-38.68l-.026-.143-.096-.11a25.316 25.316 0 0 1-1.464-1.81 33.183 33.183 0 0 1-1.168-1.695 20.154 20.154 0 0 1-1.754-3.315c-.31-.74-.64-1.624-.987-2.675l-.2-.612-.226.604c-.48 1.289-1.094 2.769-1.534 3.863-.075.187-.146.363-.216.53-.576-2.47-1.316-4.92-2.274-7.31a43.915 43.915 0 0 0-.684-1.611 40.055 40.055 0 0 0-4.748-7.996c-1.877-2.456-3.95-4.585-6.11-6.496-2.727-2.412-5.555-4.427-7.323-5.634l-.982-.67.203 1.157c.112.641.243 1.251.293 1.799.033.355.056.78.05 1.235-.008.767-.097 1.529-.306 2.234a5.256 5.256 0 0 1-.772 1.6 5.317 5.317 0 0 1-.847.92c-2.837-3.113-6.392-5.794-10.237-7.965a51.405 51.405 0 0 0-3.198-1.658 58.614 58.614 0 0 0-9.375-3.502l-1.103-.307.366 1.084c.619 1.835.955 3.41 1.087 4.787.136 1.408.06 2.61-.146 3.668a12.058 12.058 0 0 1-.993 2.949c-.06.124-.12.246-.183.367a27.6 27.6 0 0 1-1.316 2.247c-.569.89-1.116 1.706-1.646 2.602-.531.897-1.021 1.838-1.407 2.871a12.978 12.978 0 0 0-.778 3.421c-.053.596-.07 1.234-.041 1.923.022.515.07 1.06.149 1.635a27.379 27.379 0 0 1-1.32-1.138 21.215 21.215 0 0 1-1.518-1.553c-.193-.218-.382-.44-.574-.669-.312-.372-.621-.77-.935-1.198a40.788 40.788 0 0 1-1.778-2.663l-.943-1.523-.141 1.78a80.72 80.72 0 0 0-.21 3.494 45.682 45.682 0 0 0-.03 1.933 32.99 32.99 0 0 0 .372 4.871 30.703 30.703 0 0 0 1.155 4.804 44.808 44.808 0 0 0 1.76 4.523c-.925-.315-1.813-.645-2.604-.906-.863-.285-1.947-.621-2.337-.746z" clip-path="none" style="paint-order:markers fill stroke"/></g><g clip-path="url(#b)" transform="translate(-236.46 -283.48) scale(3.2207)"><path fill="#fce402" d="M81.384 151.85c1.03-2.643 2.068-5.277 2.287-8.73 1.98 1.484 5.169 4.332 6.362 6.603-.54-7.712-5.515-16.55-4.659-24.25 2.58 2.604 3.96 2.778 6.067 2.401-2.925-11.784 6.997-15.195 7.91-26.073 16.643 4.688 12.56 10.195 20.597 21.579.523-2.316 7.343-3.007 5.401-7.908 8.513 5.01 9.885 9.267 11.537 23.802.729-2.065 2.838-4.228 3.534-6.964 3.206 5.915 6.136 5.26 4.262 13.824-16.1 46.64-54.26 25.963-63.298 5.716z"/><path d="M81.658 151.96c.226-.586.61-1.637.836-2.223.183-.475.452-1.147.698-1.84a20.67 20.67 0 0 0 .947-3.552 105.21 105.21 0 0 1 1.058.923c.453.4.96.853 1.477 1.338a28.497 28.497 0 0 1 1.687 1.708c.514.572.945 1.122 1.257 1.63l.881-.25c-.184-2.033-.67-4.095-1.205-6.016-.628-2.248-1.324-4.35-1.865-6.154a71.665 71.665 0 0 1-.622-2.182 34.982 34.982 0 0 1-.838-3.966 27.745 27.745 0 0 1-.305-3.934c0-.366.01-.739.032-1.117.41.369.815.692 1.213.962.54.366 1.056.629 1.573.804a5.367 5.367 0 0 0 1.481.277c.486.022.988-.015 1.549-.09l.43-.058-.106-.442c-.348-1.451-.495-2.76-.49-3.961.005-1.22.167-2.323.43-3.341a16.19 16.19 0 0 1 1.094-2.946c.466-.975 1.004-1.905 1.525-2.764.23-.38.465-.76.688-1.12 1.01-1.63 1.874-3.034 2.636-4.636.983-2.066 1.683-4.25 1.928-6.777.93.264 1.8.534 2.61.812 2.45.84 4.429 1.769 5.999 2.821a13.411 13.411 0 0 1 2.49 2.124 13.837 13.837 0 0 1 1.701 2.354c-.01-.018-.1-.166.002-.001.405.652.83 1.43 1.408 2.645.406.854.858 1.871 1.419 3.065.922 1.963 2.218 4.556 4.357 7.553l.533.746.159-.884c.018-.102.055-.205.113-.313.057-.108.136-.217.235-.33.202-.23.476-.456.802-.688.332-.236.712-.474 1.09-.711.414-.262.803-.508 1.183-.779.429-.306.79-.603 1.099-.915.116-.118.221-.234.317-.35.22-.264.393-.527.527-.79.239-.468.366-.956.391-1.464.01-.21.004-.432-.024-.67.726.468 1.477.98 2.193 1.528a20.264 20.264 0 0 1 1.904 1.638 15.029 15.029 0 0 1 1.742 2.036 15.15 15.15 0 0 1 1.358 2.344c.77 1.638 1.38 3.608 1.909 6.208.505 2.482.918 5.438 1.353 9.106l.72.082c.155-.498.4-1.011.688-1.537.298-.542.666-1.137.987-1.664.27-.443.5-.829.73-1.235.109-.192.212-.379.31-.563.198-.376.377-.743.532-1.108a26.938 26.938 0 0 0 1.798 2.795c.323.447.637.865.928 1.28.221.313.434.632.622.959l.105.188c.189.351.363.744.496 1.204.12.417.209.906.243 1.505.064 1.108-.059 2.584-.518 4.768-1.98 5.75-4.3 10.487-6.876 14.323-2.57 3.828-5.372 6.725-8.297 8.842-2.963 2.144-6.042 3.478-9.123 4.176-3.18.721-6.36.763-9.416.324-3.227-.465-6.314-1.466-9.142-2.773-3.088-1.426-5.868-3.216-8.259-5.104a43.11 43.11 0 0 1-6.754-6.65c-2.324-2.868-3.76-5.446-4.639-7.397zm-.544.013c.886 2 2.33 4.633 4.671 7.563a43.79 43.79 0 0 0 6.815 6.804c2.42 1.937 5.233 3.777 8.373 5.254 2.876 1.353 6.032 2.403 9.35 2.904 3.142.474 6.433.455 9.738-.272 3.206-.705 6.412-2.072 9.494-4.277 3.042-2.176 5.938-5.15 8.583-9.057 2.655-3.92 5.034-8.747 7.056-14.579l.01-.028.008-.033c.507-2.24.68-3.83.627-5.086a7.756 7.756 0 0 0-.267-1.768 6.662 6.662 0 0 0-.721-1.668 10.84 10.84 0 0 0-.718-1.042c-.312-.407-.68-.846-1.01-1.248-.737-.898-1.534-1.91-2.347-3.32l-.55-.957-.197 1.05a8.111 8.111 0 0 1-.626 1.916c-.083.18-.174.365-.274.553-.207.391-.441.785-.71 1.212-.334.533-.704 1.085-1.048 1.647-.087.142-.172.285-.255.429-.349-3.105-.692-5.694-1.112-7.922-.498-2.647-1.092-4.703-1.878-6.445a15.767 15.767 0 0 0-1.413-2.514 15.299 15.299 0 0 0-1.846-2.187 19.342 19.342 0 0 0-2.01-1.716c-1.089-.813-2.234-1.516-3.275-2.107l-1.198-.68.54 1.244c.254.586.364 1.073.386 1.482.022.4-.036.796-.205 1.188a3.03 3.03 0 0 1-.414.684 4.159 4.159 0 0 1-.275.312 6.832 6.832 0 0 1-1.017.84 19.83 19.83 0 0 1-1.165.736c-.376.224-.781.462-1.137.697-.35.231-.683.478-.95.752a2.607 2.607 0 0 0-.351.444c-.1.16-.177.334-.223.52l.691-.138c-2.069-2.964-3.301-5.524-4.18-7.478-.537-1.191-.97-2.217-1.367-3.093-.565-1.248-.994-2.07-1.413-2.767-.051-.085-.065-.11.002-.001a14.38 14.38 0 0 0-1.928-2.43 15.07 15.07 0 0 0-2.714-2.153c-1.67-1.052-3.71-1.96-6.195-2.81a63.102 63.102 0 0 0-3.028-.945l-.386-.11-.036.403c-.237 2.598-1.031 4.78-2.102 6.833-.805 1.545-1.662 2.844-2.7 4.495-.228.362-.465.744-.699 1.13a29.793 29.793 0 0 0-1.554 2.869 16.757 16.757 0 0 0-1.112 3.143 14.354 14.354 0 0 0-.392 3.575c.017 1.16.168 2.4.484 3.744-.35.067-.668.11-.974.12a3.309 3.309 0 0 1-1.282-.188c-.445-.158-.892-.416-1.37-.78-.526-.401-1.075-.918-1.665-1.518l-.576-.587-.093.82a15.967 15.967 0 0 0-.097 2.015c.02 1.517.245 2.9.473 4.035.212 1.057.52 2.346.962 3.99.185.688.377 1.382.607 2.197.459 1.622 1.194 4.134 1.69 6.185a39.32 39.32 0 0 1 .753 3.866l-.106-.145a20.674 20.674 0 0 0-1.647-1.923 24.06 24.06 0 0 0-1.835-1.718 20.948 20.948 0 0 0-1.736-1.315l-.978-.658-.027 1.121a22.87 22.87 0 0 1-.573 4.604 20.292 20.292 0 0 1-.516 1.857c-.309.922-.725 1.898-.845 2.203z" clip-path="none" style="paint-order:markers fill stroke"/></g><g clip-path="url(#c)" transform="translate(-236.46 -283.48) scale(3.2207)"><path fill="#214478" d="m123.87 157.07.138-7.325-24.64-.853-3.833-16.964-6.924 2.05-1.143.935-.572.831-.572 4.47-.311 4.937.311 4.625.832 2.339 2.39 1.091 3.43.312-.207 2.65.311.988.572.78 3.17.207.437.234 3.326-.156.499-.13 11.069-.208-.093.163 3.43-.467.69 1.707h4.106l.102-2.475z" style="paint-order:stroke markers fill"/><path fill="#d08418" d="M110.68 110.59c-3.878.097-5.061 2.147-7.494 3.293l-3.27 3.932c-2.645 3.911-4.14 8.125-4.483 12.64l-.735 7.976.33 6.504 1.544 4.667 2.315 2.94 3.748 1.359 3.895-.073 3.381-.368 3.087.588.588 1.47v2.646l.478 1.617 1.176.808c1.322.257 2.622.342 3.858-.073l2.867-1.176.477-1.874.258-.404 2.388.624 3.932-.514 1.801-.956.367-1.433-.772-1.617-2.351-.404-2.021.478-.037-2.022-.808-1.543-1.544-1.066-2.068-.966-.16-.49-1.26-.76 1.3-2.305-.178-3.313-.353-1.94-.441-2.021-.184-2.573.478-2.058 2.94.956 3.6.11c2.84.861 4.383-.697 6.248-1.654l1.229-2.112.792-1.93.22-2.682s-1.47-1.103-1.874-1.103c-.404 0-6.283-.478-6.283-.478l-6.119.845.643-.992c-.022-.988-1.103-5.49-2.535-8.01-1.28-1.873-2.968-3.464-5.807-4.264-1.23-.22-2.268-.302-3.163-.28zm9.913 39.935c.64.593 1.338 1.292 1.626 2.059.187 1.133.084 2.26-.067 3.482l-.156.415-.727-.597c-.674-.076-1.055-.286-2.625.052l-1.169.494c.117-1.457.156-2.896-.415-4.288l2.104-1.377c.652.23.328-1.34.799-.87z" style="paint-order:stroke markers fill"/><path fill="#d7e3f4" d="m98.248 132.96-3.456 3.404c.253 5.496.798 11.747 2.562 13.785 2.183 1.367 4.822 1.512 6.87.903l1.092.324c-5.817-2.632-5.477-5.46-5.822-8.265l2.738-.662c.622 3.438 2.95 5.932 6.16 7.937l1.575-.243c5.884-2.133 6.877-2.143 8.892-2.596 1.44-.156 3.06-.228 2.9-1.363 1.007-4.583-1.69-9.831-1.424-13.017-4.543 2.468-13.911.985-22.087-.207z" style="paint-order:stroke markers fill"/><path d="m108.1 157.84-4.005.184-.235.296c.053.28.252 1.263.35 1.986.042.31.08.65.103 1.021l-.101 2.058-3.966-.798-.004-.002a4.403 4.403 0 0 0-.758-.06c-.515.005-.942.121-1.285.332-.5.305-.8.797-.96 1.351l-.083.287.34.036a1.39 1.39 0 0 0 .184 1.286c-.63.195-1.209.427-1.68.713-.352.214-.643.611-.88.961-.236.35-.4.659-.4.659l-.181.333 2.902.245 7.672-2.23-.902 2.472.203.098c1.63.789 2.69.53 3.752.185l.254-.082-1.044-2.635 6.993 1.775c-.13.26-.205.552-.205.862 0 1.05.84 1.908 1.875 1.908s1.875-.859 1.875-1.908c0-.446-.153-.856-.407-1.182l.524-.058-.045-.262c-.069-.4-.152-.731-.317-1.014a1.59 1.59 0 0 0-.755-.652c-.478-.213-1.148-.32-2.122-.406a1.389 1.389 0 0 0 .067-.832l.328-.004-.074-.304c-.08-.333-.207-.775-.492-1.135a1.412 1.412 0 0 0-1.163-.54 2.04 2.04 0 0 0-.228.022c-1.832.213-2.691.391-3.404.545-.552.12-1.021.224-1.817.324l-.105-2.176c-.001-.442.01-.892.045-1.33.058-.726.178-1.397.397-1.993a.25.25 0 0 0-.246-.336zm-7.997 6.92 2.965.17c-.457.034-.96.079-1.494.14-.478.054-.976.12-1.475.2a1.39 1.39 0 0 0 .004-.51zm12.091.139a1.387 1.387 0 0 0 .031.518l-2.622-.174z"/><path fill="#d08418" stroke="#000" stroke-linecap="round" stroke-miterlimit="10" stroke-width=".5" d="m120.86 138.84 7.644 5.834-2.233 2.085-4.253-2.627c-.147-2.567-.814-4.106-1.158-5.292z" style="paint-order:markers fill stroke"/><path fill="#d7e3f4" stroke="#000" stroke-linecap="round" stroke-miterlimit="10" stroke-width=".5" d="M121.18 139.95c.055-.147 1.304-.746 1.304-.746-.68-1.421-1.863-3.897-2.406-4.83" style="paint-order:markers fill stroke"/><path d="m120.75 117.22-.036-.067a12.33 12.33 0 0 1-.155-.297l-.077-.148-.47-.918a203.681 203.681 0 0 0-.65-1.254 10.87 10.87 0 0 0-.062-.118l-.025-.045a.839.839 0 0 0-.022-.038c-.686-1.057-1.642-2.103-2.988-2.865-1.262-.715-2.84-1.164-4.813-1.166-1.948.002-3.693.402-5.25 1.116-1.564.717-2.93 1.745-4.119 2.991-1.199 1.255-2.22 2.73-3.085 4.33-.877 1.62-1.598 3.372-2.187 5.16-1.21 3.676-1.873 7.537-2.188 10.847a51.883 51.883 0 0 0-.239 4.71c-.004 1.435.064 2.653.178 3.59.026.217.053.425.079.624.105.8.213 1.496.331 2.114.145.756.305 1.394.495 1.976.187.574.402 1.085.657 1.602.252.511.541 1.023.88 1.603.42.722 1.02 1.335 1.695 1.829a8.32 8.32 0 0 0 2.21 1.138c.958.324 2.004.41 3.036.39 1.062-.022 2.16-.157 3.16-.287 1.079-.14 2.026-.27 2.897-.307a7.929 7.929 0 0 1 1.212.029c.357.04.667.112.932.218l.038.016c.28.117.482.27.632.44.16.182.275.396.357.633.087.25.138.527.168.818.032.303.04.62.04.937.001.334-.005.643-.004.977 0 .325.01.646.045.948.035.302.097.597.21.863.056.132.126.26.213.377.085.116.187.223.307.315.484.373 1.096.62 1.791.749.633.117 1.35.139 2.104.056a8.9 8.9 0 0 0 2.071-.486c.615-.228 1.213-.537 1.692-.926a2.13 2.13 0 0 0 .623-.878c.133-.333.201-.706.2-1.082a2.8 2.8 0 0 0-.21-1.074 2.155 2.155 0 0 0-.27-.47 1.797 1.797 0 0 0-.39-.378 1.758 1.758 0 0 0-.493-.236 2.997 2.997 0 0 0-.576-.114 5.385 5.385 0 0 0-1.28.036 6.311 6.311 0 0 0-1.242.3c-.193.069-.37.145-.526.227a2.28 2.28 0 0 0-.424.28l.493.255c0-.005.03-.355.043-.792.01-.356.012-.741-.001-1.133-.008-.24-.021-.47-.039-.692-.067-.836-.199-1.527-.381-2.082a4.212 4.212 0 0 0-.406-.898 2.289 2.289 0 0 0-.63-.686 2.688 2.688 0 0 0-.59-.306 4.244 4.244 0 0 0-.727-.198 8.335 8.335 0 0 0-1.721-.11c-1.218.03-2.604.245-3.94.528-1.39.295-2.644.649-3.429.884-1.267.38-1.434.465-1.458.475l-.008.003a.108.108 90 0 0 .07.204s-.003 0 .007-.003c.024-.006.195-.072 1.463-.425.781-.217 2.043-.55 3.42-.821 1.332-.263 2.696-.452 3.882-.464a7.832 7.832 0 0 1 1.635.133c.25.052.466.116.651.191a2.234 2.234 0 0 1 .506.28c.194.148.344.348.462.557.135.24.24.517.324.807.147.512.254 1.167.303 1.97a19.263 19.263 0 0 1-.032 2.521l.493.257c.075-.064.179-.134.314-.205.127-.067.278-.133.45-.195a5.833 5.833 0 0 1 1.122-.276 4.847 4.847 0 0 1 1.138-.042c.17.017.327.046.464.087.136.041.248.093.334.153.1.069.19.155.269.256.079.101.146.217.201.344a2.375 2.375 0 0 1 .02 1.733c-.108.276-.265.5-.457.657-.42.341-.96.625-1.537.838a8.04 8.04 0 0 1-1.94.448 6.604 6.604 0 0 1-1.939-.067c-.627-.124-1.144-.35-1.53-.659a.969.969 0 0 1-.187-.2 1.258 1.258 0 0 1-.136-.257 2.558 2.558 0 0 1-.15-.696 8.122 8.122 0 0 1-.026-.877c.005-.339.016-.64.021-.977.004-.325 0-.67-.03-1.006a4.306 4.306 0 0 0-.189-.974 2.536 2.536 0 0 0-.482-.87 2.38 2.38 0 0 0-.882-.63l-.05-.02a4.263 4.263 0 0 0-1.114-.27 8.57 8.57 0 0 0-1.322-.038c-.91.036-1.894.17-2.96.306-1.002.128-2.064.257-3.081.276-.99.019-1.943-.066-2.79-.353a7.629 7.629 0 0 1-2.015-1.036c-.613-.446-1.139-.986-1.504-1.606a25.799 25.799 0 0 1-.86-1.556c-.244-.49-.447-.969-.625-1.507a15.264 15.264 0 0 1-.48-1.888 35.65 35.65 0 0 1-.331-2.072 64.707 64.707 0 0 1-.08-.618c-.112-.9-.18-2.09-.178-3.504.002-1.364.07-2.94.23-4.648.307-3.274.957-7.084 2.143-10.702.577-1.76 1.281-3.475 2.134-5.055.842-1.56 1.828-2.988 2.977-4.195 1.14-1.197 2.438-2.176 3.916-2.857 1.471-.678 3.125-1.062 4.984-1.066 1.874-.01 3.35.403 4.522 1.053 1.252.694 2.154 1.657 2.813 2.65a99.659 99.659 0 0 1 .766 1.39l.483.91.078.148a74.463 74.463 0 0 1 .158.3l.038.073a.25.25 90 0 0 .44-.24z" style="paint-order:stroke markers fill"/><path d="M120.4 132.01s-.007.05-.06.277c-.037.154-.115.448-.209.858-.07.306-.143.659-.2 1.004a9.36 9.36 0 0 0-.071.497c-.02.169-.03.322-.031.456-.005.455.026.865.07 1.216.074.582.197 1.106.318 1.545.223.807.475 1.48.732 2.3l.082.26c.249.805.503 1.692.629 2.666a9.93 9.93 0 0 1-.075 3.041 8.42 8.42 0 0 1-1.048 2.541c-.47.76-1.022 1.39-1.56 1.926-.066.056-.13.108-.19.157-.521.418-.961.668-1.248.796-.27.12-.328.107-.336.106-.004 0-.001 0 0 0a.387.387 90 0 0 .278.722c.001 0 .003 0 .013-.005.018-.013.092-.06.369-.247a11.65 11.65 0 0 0 1.45-1.159l.013-.013a11.554 11.554 0 0 0 1.551-2.08 9.97 9.97 0 0 0 1.049-2.673 11.32 11.32 0 0 0 .181-1.704 12.366 12.366 0 0 0-.044-1.452c-.089-1.001-.286-1.95-.481-2.772a41.991 41.991 0 0 0-.066-.27 42.29 42.29 0 0 1-.519-2.32 17 17 0 0 1-.216-1.465 10.23 10.23 0 0 1-.051-1.106 6.69 6.69 0 0 1 .015-.387c.01-.142.022-.296.039-.461.033-.33.077-.673.12-.976.055-.394.108-.722.132-.851.043-.225.06-.269.06-.268a.356.356 90 0 0-.696-.159zm-5.68-.72s-.22-.13 0 0c.302.179.828.446 1.492.504a2.72 2.72 0 0 0 1.406-.237 2.62 2.62 0 0 0 1.228-1.193c.23-.462.277-.935.296-1.227.013-.202 0 0 0 0a.15.15 90 0 0-.3-.042s.042-.183 0 0c-.064.29-.197.643-.434 1.028-.043.07-.09.14-.139.208a2.53 2.53 0 0 1-.873.778 2.446 2.446 0 0 1-1.163.28 3.115 3.115 0 0 1-1.374-.352c-.212-.108 0 0 0 0a.144.144 90 0 0-.14.253z" style="paint-order:stroke markers fill"/><path d="M119.81 150.13s-.133-.04 0 0c.15.045.36.138.613.332.186.141.388.331.59.572.174.207.342.445.488.7.134.236.245.479.318.71.123.378.154.811.139 1.284-.015.466-.073.928-.116 1.392-.021.227-.038.45-.042.663-.003.213.006.42.042.613.035.197.097.385.203.55a1.12 1.12 0 0 0 .454.407c.42.206.917.363 1.452.468.59.115 1.216.167 1.843.162a11.285 11.285 0 0 0 4.345-.92c.294-.128.516-.289.683-.451.186-.182.326-.388.425-.603.091-.199.157-.425.184-.676a2.51 2.51 0 0 0-.022-.69 2.675 2.675 0 0 0-.574-1.251 2.388 2.388 0 0 0-.522-.47 2.17 2.17 0 0 0-.66-.291 4.74 4.74 0 0 0-1.334-.132 6.6 6.6 0 0 0-1.172.153 8.02 8.02 0 0 0-.694.187 4.498 4.498 0 0 0-.008-.725 4.916 4.916 0 0 0-2.1-3.603 5.71 5.71 0 0 0-1.151-.61 7.588 7.588 0 0 0-1.04-.324 12.894 12.894 0 0 0-.423-.093l-.326-.07a.214.214 90 0 0-.09.418c.052.012.152.03.327.068l.151.034a7.058 7.058 0 0 1 1.22.4c.315.14.677.329 1.035.594.328.242.654.548.945.94a4.371 4.371 0 0 1 .865 2.45c.022.502-.059.913-.05.893l.411.336c-.014 0 .413-.204 1.051-.359a5.91 5.91 0 0 1 1.072-.162c.401-.021.804.005 1.189.097.188.045.358.121.51.219.159.102.298.229.414.367.265.315.41.688.46 1.014.031.204.027.388.003.545a1.47 1.47 0 0 1-.498.912 1.81 1.81 0 0 1-.52.311c-.36.147-.772.294-1.23.424-.819.233-1.806.416-2.883.43a8.927 8.927 0 0 1-1.72-.138 5.4 5.4 0 0 1-1.304-.4.543.543 0 0 1-.22-.185.918.918 0 0 1-.128-.334 2.599 2.599 0 0 1-.043-.501c0-.19.01-.398.027-.62.033-.442.085-.939.092-1.427.007-.502-.034-1.002-.193-1.459a4.31 4.31 0 0 0-.386-.79 5.263 5.263 0 0 0-.56-.752 4.163 4.163 0 0 0-.68-.617c-.3-.213-.555-.32-.754-.373-.174-.047 0 0 0 0a.198.198 90 0 0-.108.381zm-14.16 1s.527.146 0 0c-1.015-.282-2.39-.808-3.526-1.847-.802-.735-1.414-1.66-1.792-2.813-.352-1.075-.478-2.28-.422-3.582.055-1.287.285-2.602.592-3.855l.074-.296a.376.372 78.167 0 0-.59-.391c-.344.273-.847.907-.896.951l-.007.005a.164.164 90 0 0 .2.262l.007-.005c.055-.036.798-.357 1.151-.618l-.59-.391c-.027.103-.053.204-.077.304-.316 1.287-.543 2.659-.575 4.01-.033 1.37.133 2.656.553 3.807a6.967 6.967 0 0 0 2.05 2.978c1.25 1.064 2.718 1.564 3.756 1.828.545.14 0 0 0 0z" style="paint-order:stroke markers fill"/><path d="M108.71 150.38a3.15 3.15 0 0 1-.07-.044c-.53-.337-2.55-1.666-4.016-3.517a10.047 10.047 0 0 1-1.809-3.458l-.01-.035a12.811 12.811 0 0 1-.505-4.222c.052-1.087.244-2.375.313-2.892a.25.25 90 0 0-.496-.065 58.74 58.74 0 0 0-.316 2.927c-.018.24-.035.486-.05.735-.06 1.089-.06 2.38.335 3.73l.011.037c.297.993.885 2.273 2.068 3.626 1.626 1.859 3.753 3.106 4.287 3.434l.071.045z" style="paint-order:stroke markers fill"/><path d="M102.03 139.19c.13.014.41.048.708-.006a1.396 1.396 0 0 0 .63-.28 1.266 1.266 0 0 0 .407-.569c.115-.308.116-.627.109-.822-.01-.278 0 0 0 0a.075.075 90 0 0-.15-.004s.026-.262 0 0c-.02.194-.073.47-.22.7a.927.927 0 0 1-.38.342c-.125.061-.25.09-.354.11l-.123.02a2.598 2.598 0 0 1-.575.013.25.25 90 0 0-.052.496z" style="paint-order:stroke markers fill"/><path stroke="#000" stroke-linecap="round" stroke-linejoin="round" stroke-miterlimit="10" stroke-width=".5" d="M99.663 118.23s-10.246 8.33-10.326 14.175c-.026 1.86 1.324 4.3 3.16 4.598 2.9.469 5.708-2.696 7.03-5.321 2.017-4.005.136-13.452.136-13.452z" style="paint-order:stroke markers fill"/><path d="M95.251 131.75s.2-.03 0 0c-.43.064-2.266.335-4.138.89-.733.218-1.526.494-2.252.838a8.514 8.514 0 0 0-.98.54 5.106 5.106 0 0 0-.814.642.962.962 0 0 0-.133.17 1.708 1.708 0 0 0-.103.188 3.79 3.79 0 0 0-.178.47c-.11.355-.218.81-.32 1.342-.201 1.063-.38 2.445-.511 3.944a58.053 58.053 0 0 0-.22 4.706c-.007 1.629.069 3.12.241 4.337.027.215.053.424.089.636.04.239.097.51.183.78.076.237.177.481.316.71.138.228.312.438.532.612.23.19.501.342.782.464.291.126.604.227.917.307.672.172 1.385.262 1.968.31.707.06 1.315.065 1.65.063.353-.002.59-.016.621-.017.084-.004.08-.002.08-.002a.334.334 90 0 0-.019-.667 25.124 25.124 0 0 1-.668-.02c-.316-.016-.92-.05-1.585-.13a11.598 11.598 0 0 1-1.823-.355 5.186 5.186 0 0 1-.776-.29 2.38 2.38 0 0 1-.557-.357 1.452 1.452 0 0 1-.283-.394 2.763 2.763 0 0 1-.195-.523 7.204 7.204 0 0 1-.14-.663c-.033-.188-.064-.395-.1-.61-.172-1.15-.26-2.59-.268-4.192-.008-1.514.054-3.12.167-4.632.11-1.481.267-2.835.442-3.866.087-.517.178-.942.266-1.258a3.48 3.48 0 0 1 .125-.376c.019-.046.035-.08.048-.104.013-.024.02-.034.017-.032a4.26 4.26 0 0 1 .67-.568c.265-.185.562-.36.877-.522.67-.345 1.416-.632 2.126-.867 1.779-.588 3.635-.938 4.029-1.012.197-.037 0 0 0 0a.25.25 90 0 0-.083-.493z" style="paint-order:stroke markers fill"/><path d="M96.823 149.91s0 .008-.096.044c-.057.02-.243.084-.517.197-.307.127-.814.355-1.37.675-.48.277-1.014.633-1.441 1.044-.21.202-.4.421-.545.656a1.93 1.93 0 0 0-.289.781l-.013.094c-.017.119-.04.272-.06.436a20.9 20.9 0 0 0-.079.667 11.22 11.22 0 0 0-.06 1.52c.011.255.035.51.08.754.045.242.111.48.21.696.1.219.237.423.424.586a1.356 1.356 0 0 0 .695.32c.283.044.605.08.954.111.36.032.754.057 1.168.077.877.042 1.86.062 2.841.068a159.565 159.565 0 0 0 6.645-.118c3.041-.116 5.654-.328 6.683-.39a42.71 42.71 0 0 1 1.66-.076.25.25 90 0 0-.025-.5s-.49.044-1.657.077c-1.389.04-3.244.037-6.682.082l-.992.014c-1.519.02-3.655.042-5.623.013a70.807 70.807 0 0 1-2.803-.088 30.01 30.01 0 0 1-1.131-.081 13.453 13.453 0 0 1-.89-.11.438.438 0 0 1-.225-.107.804.804 0 0 1-.188-.27 2.135 2.135 0 0 1-.146-.478 4.727 4.727 0 0 1-.074-.625 11.87 11.87 0 0 1 .02-1.402c.014-.233.032-.461.046-.651a22.84 22.84 0 0 0 .036-.544c.004-.14.045-.3.135-.485a2.79 2.79 0 0 1 .378-.562c.335-.398.783-.777 1.216-1.1a22.215 22.215 0 0 1 1.695-1.116c.088-.05.093-.043.093-.043a.09.09 90 0 0-.073-.166z" style="paint-order:stroke markers fill"/><path d="M94.139 151.57s.06.05 0 0c-.129-.105-.369-.29-.689-.55a8.02 8.02 0 0 1-.735-.663 3.643 3.643 0 0 1-.583-.775 2.223 2.223 0 0 1-.269-.88 94.1 94.1 0 0 1-.18-3.609c-.044-1.387-.063-2.82-.054-4.216.01-1.673.06-3.111.131-4.286.018-.296.037-.568.056-.818.115-1.506.261-2.493.34-2.993a.25.25 90 0 0-.495-.076c-.08.518-.214 1.502-.344 3.03l-.066.823a90.934 90.934 0 0 0-.215 4.31 106.085 106.085 0 0 0-.03 4.242 74.26 74.26 0 0 0 .127 3.642 2.713 2.713 0 0 0 .364 1.186c.197.344.455.645.731.909.286.273.59.504.836.681.349.252.594.413.717.503.058.043 0 0 0 0a.291.291 90 0 0 .358-.46z" style="paint-order:stroke markers fill"/><path stroke="#000" stroke-linecap="round" stroke-linejoin="round" stroke-miterlimit="10" stroke-width=".5" d="M107.5 119.84c-1.951.292-4.047 2.16-4.245 4.123-.209 2.06 1.435 4.963 3.499 5.132 2.296.19 4.77-2.694 4.776-4.998.005-1.954.096-4.874-4.03-4.257z" style="paint-order:stroke markers fill"/><path stroke="#000" stroke-linecap="round" stroke-linejoin="round" stroke-miterlimit="10" stroke-width="1.023" d="M119.62 116.59c-3.206.07-3.535 2.815-3.31 4.72.185 1.55 2.267 3.257 3.519 3.11 4.617-.54 2.487-7.89-.209-7.83z" style="paint-order:stroke markers fill"/><path fill="#fff" stroke="#fff" stroke-linecap="round" stroke-linejoin="round" stroke-miterlimit="10" stroke-width="2.006" d="M104.86 125.88c-.518-1.604.115-3.983 2.074-4.608 2.67-.852 2.97.225 3.322 1.443.538 1.864-.789 4.302-2.514 4.812-1.06.313-2.54-.588-2.882-1.647z" style="paint-order:stroke markers fill"/><ellipse cx="113.24" cy="116.36" rx="2.463" ry="3.505" style="paint-order:stroke markers fill" transform="matrix(.99748 .0709 -.0461 .99894 0 0)"/><path fill="#fff" stroke="#fff" stroke-linecap="round" stroke-linejoin="round" stroke-miterlimit="10" stroke-width="1.603" d="M117.2 121.77c-.63-1.223-.489-3.484 1.038-3.996 2.08-.698 2.781.704 3.055 1.702.419 1.528.347 3.187-.731 3.579-1.128.41-2.812-.219-3.362-1.285z" style="paint-order:stroke markers fill"/><ellipse cx="105.43" cy="129.69" rx="2.79" ry="3.669" style="paint-order:stroke markers fill" transform="matrix(.99721 -.07468 .11312 .99358 0 0)"/><path fill="#d08418" stroke="#000" stroke-linecap="round" stroke-linejoin="round" stroke-miterlimit="10" d="M104.97 117.48c2.15-.053 5.939-1.635 4.403-5.2-1.194-2.773 5.572.094 4.19-1.47-1.381-1.563-7.019-2.037-9.53-.09-1.836 1.421 1.142 4.09-1.674 6.76 0 0 1.407.753 2.611-1.223.16.473.16.88 0 1.223z" style="paint-order:stroke markers fill"/><path d="M117.22 156.29s-.004-.002-.013.015a8.687 8.687 0 0 1-.243.448c-.078.139-.158.284-.234.434a4.7 4.7 0 0 0-.21.468c-.083.22 0 0 0 0a.118.118 90 0 0 .21.107s-.122.182 0 0a4.71 4.71 0 0 1 .292-.384c.1-.122.209-.243.313-.351.238-.249.33-.306.356-.324.014-.01.01-.012.01-.012a.313.313 90 0 0-.48-.4zm8.7-3.23s.174-.168 0 0c-.135.13-.406.397-.606.684a1.88 1.88 0 0 0-.314.683c-.037.166 0 0 0 0a.109.109 90 0 0 .205.072s-.068.13 0 0c.06-.116.167-.285.404-.5a6.46 6.46 0 0 1 .668-.501c.19-.13 0 0 0 0a.282.282 90 0 0-.357-.438z" style="paint-order:stroke markers fill"/><path fill="#fff" stroke="#000" stroke-linecap="round" stroke-miterlimit="10" stroke-width="2" d="M129.72 118.63c1.951-2.802 1.85-4.238 2.286-7.107 0 0-5.634 1.128-9.396-1.15-3.296-1.998-3.432-15.792 0-17.87 4.033-2.444 20.713-1.872 26.682.623 3.851 1.609 6.077 18.189-1.105 18.397-7.182.208-12.319-.208-12.319-.208-1.416 3.492-2.34 5.45-6.148 7.315z" style="paint-order:stroke markers fill" transform="translate(-.078 .416)"/><path d="M136.94 94.533a3 3 0 0 0-.201.006c-.272.011-.532.06-.78.144a2.236 2.236 0 0 0-.654.356c-.192.147-.33.328-.415.543-.068.164-.11.334-.127.509a1.77 1.77 0 0 0 .042.517c.045.17.119.334.22.492.108.153.25.288.425.407.152.108.313.204.483.288.175.085.345.17.509.255.192.096.367.206.526.33s.3.27.424.433a.785.785 0 0 1 .17.602.573.573 0 0 1-.289.416 1.048 1.048 0 0 1-.534.119 1.413 1.413 0 0 1-.568-.162.924.924 0 0 1-.4-.432 1.71 1.71 0 0 0-.1-.204.774.774 0 0 0-.128-.195.669.669 0 0 0-.288-.186.563.563 0 0 0-.306-.017.49.49 0 0 0-.263.144.677.677 0 0 0-.178.288.511.511 0 0 0-.05.195c0 .068.01.133.033.195.057.311.164.591.323.84.164.243.364.447.602.61s.503.286.797.365c.3.085.61.119.933.102a1.968 1.968 0 0 0 1.39-.62c.159-.18.278-.383.357-.61.079-.231.113-.472.101-.72a2.397 2.397 0 0 0-.619-1.459 5.008 5.008 0 0 0-.814-.721l-.814-.568c-.203-.142-.342-.272-.415-.39-.074-.125-.102-.23-.085-.314a.28.28 0 0 1 .152-.204.55.55 0 0 1 .289-.076.729.729 0 0 1 .339.068c.113.05.21.13.288.237a.666.666 0 0 0 .178.178c.074.046.147.088.22.128a.691.691 0 0 0 .484.067.693.693 0 0 0 .509-.424.779.779 0 0 0 .06-.339.777.777 0 0 0-.094-.364 1.257 1.257 0 0 0-.466-.492 1.986 1.986 0 0 0-.687-.272 2.67 2.67 0 0 0-.579-.065zm10.211 0c-.066 0-.134.002-.202.006a2.76 2.76 0 0 0-.78.144c-.243.085-.46.204-.653.356-.192.147-.33.328-.415.543-.068.164-.11.334-.127.509a1.76 1.76 0 0 0 .042.517c.045.17.119.334.22.492.108.153.25.288.424.407.153.108.314.204.484.288.175.085.345.17.509.255.192.096.367.206.525.33.159.125.3.27.424.433a.781.781 0 0 1 .17.602.573.573 0 0 1-.288.416 1.048 1.048 0 0 1-.535.119 1.413 1.413 0 0 1-.568-.162.924.924 0 0 1-.398-.432 1.69 1.69 0 0 0-.102-.204.775.775 0 0 0-.127-.195.669.669 0 0 0-.289-.186.563.563 0 0 0-.305-.017.489.489 0 0 0-.263.144.677.677 0 0 0-.178.288.51.51 0 0 0-.05.195c0 .068.01.133.033.195.057.311.164.591.322.84.164.243.365.447.603.61s.503.286.797.365c.3.085.61.119.933.102a1.969 1.969 0 0 0 1.39-.62c.159-.18.277-.383.357-.61.079-.231.113-.472.101-.72a2.397 2.397 0 0 0-.62-1.459 4.961 4.961 0 0 0-.813-.721l-.814-.568c-.204-.142-.342-.272-.416-.39-.073-.125-.101-.23-.084-.314a.28.28 0 0 1 .152-.204.55.55 0 0 1 .289-.076.729.729 0 0 1 .339.068c.113.05.209.13.288.237a.666.666 0 0 0 .178.178c.074.046.147.088.22.128a.691.691 0 0 0 .484.067.694.694 0 0 0 .509-.424.779.779 0 0 0 .06-.339.778.778 0 0 0-.094-.364 1.256 1.256 0 0 0-.466-.492 1.986 1.986 0 0 0-.687-.272 2.668 2.668 0 0 0-.579-.065zm-18.613.505c-.142.022-.25.116-.321.281a3.367 3.367 0 0 0-.136.45l-.136.797c-.04.26-.07.526-.093.797-.045.435-.073.87-.085 1.306-.006.435.031.87.11 1.306.08.413.164.809.255 1.187a.979.979 0 0 0 .102.263.7.7 0 0 0 .195.212.384.384 0 0 0 .22.077.37.37 0 0 0 .212-.043.457.457 0 0 0 .161-.152.544.544 0 0 0 .085-.348v-1.357a.7.7 0 0 1 .008-.102.596.596 0 0 0 .008-.076h1.485c.04.266.076.534.11.806.04.27.116.548.229.83.062.17.152.314.271.433a.486.486 0 0 0 .33.153.471.471 0 0 0 .34-.094.404.404 0 0 0 .17-.28c.011-.107.006-.24-.017-.398a6.304 6.304 0 0 1-.043-1.111c.017-.413.043-.834.077-1.264.04-.43.076-.848.11-1.255.04-.412.056-.78.05-1.102a2.261 2.261 0 0 1 .009-.34 1.701 1.701 0 0 0 0-.339c-.011-.237-.127-.393-.348-.466a.364.364 0 0 0-.297-.009.595.595 0 0 0-.237.195 3.8 3.8 0 0 0-.136.204c-.04.073-.07.15-.093.229l-.204.67c-.062.22-.121.447-.178.678a6.63 6.63 0 0 0-.085.484c-.016.158-.04.32-.067.483l-.738.034c-.243.006-.49.014-.745.025v-.33c.005-.345.008-.687.008-1.026.005-.345.008-.69.008-1.035 0-.068-.003-.136-.008-.204a.766.766 0 0 0-.042-.195.512.512 0 0 0-.144-.254.378.378 0 0 0-.246-.119.5.5 0 0 0-.154-.001zm5.135.186a.418.418 0 0 0-.216.053.542.542 0 0 0-.23.246c-.039.073-.076.15-.11.229-.028.073-.053.15-.076.229a10.835 10.835 0 0 0-.424 2.128 8.7 8.7 0 0 0 .068 2.163c.034.243.104.472.212.687a.439.439 0 0 0 .246.237c.107.04.22.046.339.017a.393.393 0 0 0 .237-.17.69.69 0 0 0 .12-.347c.033-.288.061-.571.084-.848.028-.277.054-.557.076-.84.028-.356.054-.718.077-1.085.022-.373.047-.778.076-1.213a19.33 19.33 0 0 1-.017-.441 6.37 6.37 0 0 0-.025-.56.553.553 0 0 0-.12-.322.456.456 0 0 0-.317-.163zm10.21 0a.418.418 0 0 0-.215.053.542.542 0 0 0-.23.246c-.04.073-.076.15-.11.229-.028.073-.053.15-.076.229a10.836 10.836 0 0 0-.424 2.128 8.7 8.7 0 0 0 .068 2.163c.034.243.104.472.212.687a.439.439 0 0 0 .246.237c.107.04.22.046.339.017a.393.393 0 0 0 .237-.17.69.69 0 0 0 .119-.347c.034-.288.062-.571.085-.848a58.308 58.308 0 0 0 .153-1.925c.022-.373.048-.778.076-1.213a19.33 19.33 0 0 1-.017-.441 6.37 6.37 0 0 0-.025-.56.553.553 0 0 0-.12-.322.455.455 0 0 0-.317-.163zm-18.861.11c-.3-.004-.598-.004-.895.002a.462.462 0 0 0-.314.11.586.586 0 0 0-.186.272.632.632 0 0 0-.017.322.489.489 0 0 0 .178.263.971.971 0 0 0 .161.127c.062.034.124.062.186.085.102.034.207.065.314.093.113.028.23.06.348.094v.101a.89.89 0 0 1-.008.11c-.04.425-.05.84-.034 1.247.023.407.068.817.136 1.23.045.226.085.452.119.678.04.22.09.438.152.653.028.108.065.212.11.314.051.096.108.192.17.288a.417.417 0 0 0 .272.17.462.462 0 0 0 .305-.034c.186-.102.254-.28.203-.534a4.632 4.632 0 0 1-.06-.272 2.36 2.36 0 0 1-.033-.288c-.012-.186-.02-.373-.025-.56 0-.186-.003-.376-.008-.568v-2.052l-.001-.466a.39.39 0 0 1 .076-.009.427.427 0 0 0 .085-.008c.147-.029.294-.054.44-.077.153-.022.303-.06.45-.11a.528.528 0 0 0 .212-.136.419.419 0 0 0 .093-.203.48.48 0 0 0-.143-.458.595.595 0 0 0-.22-.153.78.78 0 0 0-.255-.076 10.632 10.632 0 0 0-.45-.077 6.297 6.297 0 0 0-.458-.05 27.777 27.777 0 0 0-.903-.028zm3.535 8.087a.756.756 0 0 0-.367.102.704.704 0 0 0-.297.322.919.919 0 0 0-.076.416v.415a5.55 5.55 0 0 1 0 .408c-.022.638-.017 1.275.017 1.908.034.627.076 1.26.127 1.9.017.265.102.503.255.712a.74.74 0 0 0 .229.195.45.45 0 0 0 .254.042.469.469 0 0 0 .238-.085.561.561 0 0 0 .195-.229.957.957 0 0 0 .076-.152.612.612 0 0 0 .042-.178c.012-.096.017-.193.017-.289v-.296a54.996 54.996 0 0 1-.017-.34 9.273 9.273 0 0 0-.025-.356l.187.017c.056.005.116.008.178.008l.17.017c.056 0 .115-.006.177-.017.102-.011.204-.025.306-.042s.198-.048.288-.094a.431.431 0 0 0 .195-.144.327.327 0 0 0 .068-.195.46.46 0 0 0-.204-.399.957.957 0 0 0-.152-.076.404.404 0 0 0-.161-.05 5.603 5.603 0 0 0-.416-.052 73.967 73.967 0 0 0-.415-.05.433.433 0 0 0-.145-.009 1.478 1.478 0 0 1-.16.008l-.018-.924a56.34 56.34 0 0 0-.025-.906c.147 0 .285.003.415.008.13 0 .258-.006.382-.017a4.31 4.31 0 0 0 .365-.034c.124-.017.248-.037.373-.06.096-.022.192-.048.288-.076.102-.034.198-.07.288-.11a.88.88 0 0 0 .424-.399.531.531 0 0 0 .068-.28.476.476 0 0 0-.068-.254.436.436 0 0 0-.178-.187.465.465 0 0 0-.271-.076c-.113 0-.223.011-.33.034a2.97 2.97 0 0 1-.331.034c-.294.011-.586.011-.874 0a4.585 4.585 0 0 1-.865-.136.755.755 0 0 0-.227-.034zm9.193.143a.48.48 0 0 0-.248.06.575.575 0 0 0-.229.289c-.073.141-.124.3-.152.475a16.38 16.38 0 0 0-.12.729 25.774 25.774 0 0 0-.152 1.29c-.011.186-.028.37-.05.55a.039.039 0 0 0-.026.009h-.025c-.096-.175-.195-.35-.297-.526a45.944 45.944 0 0 1-.288-.534c-.13-.232-.258-.464-.382-.696-.119-.231-.24-.46-.365-.687a1.53 1.53 0 0 0-.16-.229 1.221 1.221 0 0 0-.187-.195.571.571 0 0 0-.306-.135.584.584 0 0 0-.551.22.776.776 0 0 0-.153.323 1.387 1.387 0 0 0-.025.27v.272l-.034 1.612a165.81 165.81 0 0 1-.025 1.61 12.3 12.3 0 0 1-.026.484c-.011.153-.02.311-.025.475a.508.508 0 0 0 .068.306.373.373 0 0 0 .475.144.472.472 0 0 0 .212-.22 1.71 1.71 0 0 0 .17-.467c.039-.249.073-.495.1-.738.035-.243.069-.492.103-.746.011-.068.02-.139.025-.212.006-.074.014-.159.026-.255.045.074.079.133.101.178a.61.61 0 0 0 .077.119c.18.305.364.61.55.916l.56.916c.046.08.1.153.162.22.062.068.127.133.195.195.102.09.21.15.322.178a.685.685 0 0 0 .34-.017.68.68 0 0 0 .28-.195.823.823 0 0 0 .186-.347 1.92 1.92 0 0 0 .06-.331c.061-.616.12-1.224.177-1.823.062-.605.119-1.216.17-1.832a6.956 6.956 0 0 0-.035-1.162.518.518 0 0 0-.135-.34.405.405 0 0 0-.272-.143.482.482 0 0 0-.09-.01zm3.71.027h-.112a2.88 2.88 0 0 0-.871.153 2.819 2.819 0 0 0-.77.42 2.56 2.56 0 0 0-.591.658 3.52 3.52 0 0 0-.51 1.207c-.081.412-.09.843-.032 1.295a.072.072 0 0 1 0 .001c.037.326.113.635.23.93.125.285.298.545.518.78.25.272.526.476.825.615.294.136.623.176.996.117a.072.072 0 0 1 .002 0c.457-.066.855-.22 1.199-.46.348-.245.661-.545.943-.901.142-.185.197-.365.176-.557a.072.072 0 0 1 0-.006c-.007-.236-.09-.368-.267-.441a.381.381 0 0 0-.26-.016.504.504 0 0 0-.234.174 1.77 1.77 0 0 1-.637.494c-.23.107-.47.193-.723.254a.072.072 0 0 1-.004 0c-.242.047-.433.04-.57-.043a.072.072 0 0 1-.002-.002c-.129-.083-.232-.245-.332-.484a.072.072 0 0 1 .058-.1 4.85 4.85 0 0 1 .456-.023c.147-.007.289-.024.427-.053a.072.072 0 0 1 .002 0c.79-.155 1.424-.53 1.91-1.127a.072.072 0 0 1 .002-.002c.445-.532.496-1.087.16-1.715a2.073 2.073 0 0 0-1.224-1.037 2.542 2.542 0 0 0-.765-.131zm-8.321.159a.42.42 0 0 0-.216.053.542.542 0 0 0-.23.245c-.039.074-.076.15-.11.23a2.7 2.7 0 0 0-.076.228 10.837 10.837 0 0 0-.424 2.13 8.7 8.7 0 0 0 .068 2.162c.034.243.105.472.212.687a.439.439 0 0 0 .246.237c.107.04.22.045.339.017a.392.392 0 0 0 .238-.17.69.69 0 0 0 .118-.347c.034-.289.063-.571.085-.848a57.815 57.815 0 0 0 .153-1.926c.022-.373.048-.777.076-1.212-.006-.113-.011-.26-.017-.441 0-.181-.009-.368-.025-.56a.553.553 0 0 0-.119-.322.455.455 0 0 0-.318-.163zm8.424 1.334a.072.072 0 0 1 .008 0c.051.007.1.013.146.021.06.008.12.026.178.05a.072.072 0 0 1 .002.003c.157.076.264.175.289.304.025.13-.036.262-.152.395a1.558 1.558 0 0 1-.368.309c-.133.086-.277.15-.433.197a1.824 1.824 0 0 1-.46.084 1.114 1.114 0 0 1-.433-.06.072.072 0 0 1-.049-.079c.055-.395.195-.702.42-.912.225-.216.513-.32.852-.312zm2.73 3.114a.711.711 0 0 0-.547.226.69.69 0 0 0-.202.508c0 .196.071.365.214.508a.694.694 0 0 0 .508.215.695.695 0 0 0 .508-.215.707.707 0 0 0 .011-1.027.663.663 0 0 0-.491-.215z" style="paint-order:stroke markers fill"/><path fill="#a05a2c" d="M104.97 117.48c2.15-.053 5.939-1.635 4.403-5.2-1.194-2.773 5.572.094 4.19-1.47-1.381-1.563-7.019-2.037-9.53-.09-1.836 1.421 1.142 4.09-1.674 6.76 0 0 1.407.753 2.611-1.223.16.473.16.88 0 1.223z"/><path d="M104.97 117.49c.186-.005.486-.022.87-.09.277-.05.6-.125.943-.239.601-.199 1.243-.506 1.776-.95a3.52 3.52 0 0 0 .665-.724 2.703 2.703 0 0 0 .402-.893c.079-.321.102-.674.054-1.058a4.227 4.227 0 0 0-.363-1.224 1.834 1.834 0 0 1-.154-.471.824.824 0 0 1 .019-.379.62.62 0 0 1 .186-.286.953.953 0 0 1 .314-.179c.119-.043.253-.072.399-.091.143-.019.297-.027.46-.027.317 0 .664.03 1.016.071.345.041.677.092.994.137a19.89 19.89 0 0 0 .428.056 4.6 4.6 0 0 0 .346.029c.1.004.176 0 .231-.01.027-.003.044-.01.055-.013l.011-.004c.005.006.007.006.008.003.002-.006.003-.02-.004-.044a.409.409 0 0 0-.044-.092 1.15 1.15 0 0 0-.092-.13 2.46 2.46 0 0 0-.66-.54 5.374 5.374 0 0 0-.993-.447c-.742-.255-1.649-.43-2.613-.496a11.227 11.227 0 0 0-2.868.163 7.589 7.589 0 0 0-1.32.38c-.417.164-.8.367-1.136.612-.266.19-.452.41-.578.656a2.044 2.044 0 0 0-.207.784c-.02.275-.002.558.03.83.031.29.077.576.115.857l.03.228c.026.221.045.434.05.645.01.304-.008.597-.065.888-.06.307-.164.613-.328.92-.17.32-.406.645-.73.974a.11.212 19.789 0 0 .044.334c.026-.021.136-.002.309.01.153.011.384.02.647-.033a2.062 2.062 0 0 0 .833-.366c.269-.194.583-.507.898-1.03a.027.026 50.697 0 1 .048.004c.082.222.13.449.13.67 0 .209-.045.4-.13.574a.05.01 1.054 0 1-.054-.012h.03zm-.002-.002h.03l-.053-.012c.073-.168.109-.35.108-.55 0-.194-.034-.393-.092-.597-.315.496-.63.79-.902.968a1.916 1.916 0 0 1-.359.186c-.182.07-.349.098-.49.103a1.209 1.209 0 0 1-.584-.118c-.136-.069-.194-.142-.17-.163l.046.334c.37-.33.66-.672.88-1.024.21-.34.355-.69.445-1.048.084-.338.118-.678.117-1.021 0-.238-.018-.473-.045-.708a8.61 8.61 0 0 0-.031-.24c-.041-.292-.093-.578-.133-.85a4.715 4.715 0 0 1-.064-.727c.002-.216.032-.415.106-.599.072-.177.19-.354.39-.523a4.693 4.693 0 0 1 1.01-.625 7.24 7.24 0 0 1 1.241-.436 11.046 11.046 0 0 1 2.801-.325c.957.007 1.871.126 2.633.333.39.106.74.234 1.039.383.306.153.559.328.746.524.047.05.087.096.12.14.033.043.06.085.079.127.02.041.033.085.034.13a.238.238 0 0 1-.034.137.257.257 0 0 1-.044.054.312.312 0 0 1-.053.04.47.47 0 0 1-.121.05 1.205 1.205 0 0 1-.297.033 3.837 3.837 0 0 1-.486-.03 12.166 12.166 0 0 1-.327-.042c-.343-.047-.645-.096-.989-.143a10.142 10.142 0 0 0-.983-.095 3.994 3.994 0 0 0-.429.006c-.133.01-.251.03-.353.059a.789.789 0 0 0-.253.117.473.473 0 0 0-.15.187.627.627 0 0 0-.038.299c.011.124.048.27.116.441.188.461.286.882.316 1.266a2.899 2.899 0 0 1-.526 1.955c-.183.26-.41.499-.67.714-.534.439-1.172.747-1.77.948a6.872 6.872 0 0 1-.94.244c-.384.071-.683.09-.87.095z" style="paint-order:stroke markers fill"/><g clip-path="url(#d)" transform="translate(.23)"><g stroke="#000" stroke-linecap="round" stroke-linejoin="round" stroke-miterlimit="10"><path fill="red" d="m111.03 117.98 3.197-.723" style="paint-order:stroke markers fill"/><path fill="none" d="M114.23 117.26c.02 1.897.125 4.85 1.642 6.43 1.228 1.281 4.937.903 7.02-.164.294-.15.542-.465.598-.79.438-2.525-.28-5.765-2.307-7.332-.58-.448-1.473-.235-2.194-.11-1.691.292-4.759 1.966-4.759 1.966zm-12.59 3.84c2.342-2.398 9.389-3.118 9.389-3.118.493.948 2.542 5.086 1.415 7.289-1.593 3.112-8.133 6.19-9.52 4.402-2.019-2.6-1.878-7.965-1.284-8.573z" style="paint-order:stroke markers fill"/></g><path d="M120.58 114.94a1.981 1.981 0 0 0-.152.002c-.413.014-.82.1-1.178.162-.893.154-2.078.65-3.064 1.11-.922.428-1.602.793-1.692.841a.301.301 0 0 1-.076.03l-3.106.703a.212.212 0 0 1-.035.006c-.084.009-1.793.189-3.81.66-2.073.484-4.43 1.241-5.67 2.512-.15.153-.182.28-.248.525a5.28 5.28 0 0 0-.143.826c-.066.645-.076 1.46-.004 2.344.145 1.768.61 3.785 1.664 5.143.416.535 1.158.667 2.026.578.867-.09 1.879-.41 2.898-.885 2.04-.95 4.092-2.49 4.93-4.129.459-.897.434-2.013.203-3.135a.3.3 0 0 1 .1-.289 1.77 1.77 0 0 1 .63-.357c.243-.074.503-.086.768-.033a.3.3 0 0 1 .227.203c.251.784.624 1.504 1.175 2.078.704.733 1.965.929 3.342.86 1.371-.07 2.836-.433 3.914-.985.368-.188.629-.515.701-.934.45-2.593-.26-5.884-2.38-7.523-.3-.231-.655-.305-1.018-.31v-.003h-.002zm-.139.4c.36-.012.673.04.914.227 1.948 1.505 2.661 4.676 2.235 7.14a.8.8 0 0 1-.18.372.92.92 0 0 1-.314.275c-1.01.517-2.434.875-3.748.941a6.604 6.604 0 0 1-1.803-.14c-.523-.122-.953-.302-1.234-.596-1.377-1.435-1.526-4.098-1.561-5.99a.3.3 0 0 1 .158-.272c.192-.102.636-.348 1.445-.724.975-.453 2.157-.937 2.965-1.076.369-.064.76-.144 1.123-.157zm-6.472 2.258a.3.3 0 0 1 .367.287 20.5 20.5 0 0 0 .121 1.944.3.3 0 0 1-.17.306 3.972 3.972 0 0 1-1.414.371.3.3 0 0 1-.307-.197 20.055 20.055 0 0 0-.779-1.842.3.3 0 0 1 .205-.423zm-2.98.653a.3.3 0 0 1 .3.162c.282.556.78 1.549 1.162 2.806.429 1.414.64 2.939.113 3.967-.762 1.49-2.76 3.024-4.742 3.947-.99.461-1.97.77-2.771.852-.802.082-1.374-.043-1.672-.428-.97-1.25-1.437-3.206-1.578-4.928-.07-.86-.06-1.657.004-2.271a5.01 5.01 0 0 1 .129-.764c.03-.112.04-.179.148-.347 1.117-1.144 3.43-1.927 5.474-2.405 1.845-.43 3.154-.56 3.432-.591z" style="paint-order:stroke markers fill" transform="translate(-.23)"/><path stroke="#000" stroke-linecap="round" stroke-linejoin="round" stroke-miterlimit="10" stroke-width=".5" d="M111.87 120.45c1.004.067 1.885-.16 2.64-.682l.206 1.95c-.813-.338-1.522-.122-2.128.649z" style="paint-order:stroke markers fill"/></g><path d="M118.11 130.98s-.168-.117 0 0a16.09 16.09 0 0 0 5.668 2.511c.994.227 2.38.44 3.91.377 1.506-.062 3.19-.396 4.678-1.285a7.34 7.34 0 0 0 1.844-1.553 7.756 7.756 0 0 0 1.312-2.227 6.1 6.1 0 0 0 .41-1.59c.05-.492.016-.942-.099-1.35a2.936 2.936 0 0 0-.57-1.087 3.633 3.633 0 0 0-.95-.798 5.755 5.755 0 0 0-1.244-.539 9.52 9.52 0 0 0-1.477-.321c-1.089-.154-2.282-.171-3.464-.104-2.882.162-5.642.8-7.538 1.36a30.54 30.54 0 0 0-2.225.75c-.373.142-.707.28-1.005.41a15.5 15.5 0 0 0-1.296.634c-.51.283-.83.51-1.016.654a.188.188 90 0 0 .231.298 7.56 7.56 0 0 1 .966-.627c.321-.179.736-.389 1.264-.618.293-.127.622-.26.99-.399a28.44 28.44 0 0 1 2.203-.718c1.835-.52 4.614-1.126 7.45-1.243 1.162-.048 2.318-.012 3.357.155.494.079.958.186 1.381.327.414.138.785.305 1.103.505.312.196.572.422.772.677.198.252.341.536.423.857.082.32.104.684.053 1.1a5.51 5.51 0 0 1-.388 1.4 6.998 6.998 0 0 1-1.224 1.99 6.598 6.598 0 0 1-1.673 1.357c-1.349.774-2.888 1.066-4.302 1.117-1.432.05-2.742-.145-3.695-.341a20.001 20.001 0 0 1-1.143-.27c-2.215-.593-3.773-1.411-4.444-1.814-.17-.102 0 0 0 0a.241.241 90 0 0-.262.405z" style="paint-order:stroke markers fill"/><path fill="#a05a2c" d="m128.24 128.25-4.102 5.81c2.632 1.301 5.068 1.182 7.308-.358l1.018-1.643.824 1.155c1.057-.12 2.613-.962 3.05-2.855l-1.386-2.753c-2.13.677-3.373.856-6.712.644z" style="paint-order:stroke markers fill" transform="translate(10.531 10.628) scale(.91915)"/><path stroke="#000" stroke-linecap="round" stroke-linejoin="round" stroke-miterlimit="10" stroke-width=".5" d="M125.82 126.32c-.35-2.071 2.963-3.49 5.044-3.777 2.08-.286 5.51.205 5.871 2.272.319 1.823-2.38 3.265-4.192 3.64-2.302.476-6.33.183-6.723-2.135z" style="paint-order:stroke markers fill"/><path d="M127.55 129s.212-.282 0 0c-.638.85-2.049 2.672-3.674 4.873a.323.314 31.626 0 0 .119.47c.501.257 1.01.468 1.523.626.155.048.314.092.477.132.6.146 1.259.23 1.96.2a6.552 6.552 0 0 0 1.895-.367 7.714 7.714 0 0 0 1.804-.928.348.4 2.621 0 0 .106-.11c.227-.36.472-.751.726-1.16l.501.69a.374.365 68.249 0 0 .341.151c.304-.035.632-.122.959-.26a4.054 4.054 0 0 0 1.836-1.539c.253-.394.442-.843.556-1.342a.338.358 38.329 0 0-.019-.217c-.352-.807-.643-1.474-.811-1.867a.338.338 90 0 0-.622.265c.16.376.422 1.005.74 1.768-.1.377-.251.713-.442 1.006-.2.306-.44.565-.707.777a3.36 3.36 0 0 1-.811.477c-.19.078-.376.134-.55.169-.228-.325-.46-.656-.688-.977a.376.378 43.247 0 0-.628.02c-.345.556-.678 1.095-.974 1.581a7.026 7.026 0 0 1-1.563.805 5.923 5.923 0 0 1-1.685.344 6.461 6.461 0 0 1-1.768-.154 7.71 7.71 0 0 1-.44-.112 8.909 8.909 0 0 1-1.099-.397c1.44-2.125 2.603-3.92 3.166-4.763.196-.293 0 0 0 0a.14.14 90 0 0-.228-.161z" style="paint-order:stroke markers fill" transform="translate(10.531 10.628) scale(.91915)"/><path d="M110.06 150.37c.029-.017.126-.076.277-.154.142-.073.435-.217.93-.41.423-.163.964-.351 1.657-.563a58.725 58.725 0 0 1 3.873-1.015 78.267 78.267 0 0 1 3.344-.695c.23-.042.42-.075.574-.1a15.885 15.885 0 0 1 .557-.083l.007-.001a1.496 1.496 0 0 1 .108-.009h-.003a.194.194 0 0 1-.045-.01.201.201 0 0 1-.124-.134.225.225 0 0 1-.009-.062c0-.02.004-.04.008-.055a.204.204 0 0 1 .049-.085c.017-.017.033-.026.036-.028a.21.21 90 0 0 .22.357.22.22 0 0 0 .107-.183.211.211 0 0 0-.14-.203.33.33 0 0 0-.067-.015.85.85 0 0 0-.188.011l-.009.001a17.905 17.905 0 0 0-.577.09c-.155.027-.348.062-.58.106-.75.142-1.961.388-3.357.715-1.39.326-2.74.68-3.894 1.038-.7.217-1.248.411-1.68.581-.508.2-.812.35-.964.43-.16.083-.266.146-.297.165a.182.182 90 0 0 .187.311zm-5.57.48c-.08.013-.268.048-.507.081-.362.051-1.007.125-1.666.15a10.8 10.8 0 0 1-1.806-.073 8.667 8.667 0 0 1-2.018-.498 12.62 12.62 0 0 1-1.448-.675.25.25 90 0 0-.237.44c.355.192.894.468 1.507.702.118.045.238.09.36.131.548.189 1.13.335 1.781.397a9.656 9.656 0 0 0 1.889-.03c.673-.068 1.321-.182 1.684-.241l.511-.082a.153.153 90 0 0-.05-.302z" style="paint-order:stroke markers fill"/><path d="m92.958 153.61.01.005c.055.026.722.317 1.467.474a5.952 5.952 0 0 0 1.62.121c.236-.014 0 0 0 0a.123.123 90 0 0 .007-.246s.224.026 0 0a5.17 5.17 0 0 1-1.465-.395c-.635-.273-1.186-.66-1.234-.69l-.01-.005a.417.417 90 0 0-.395.736z" style="paint-order:markers fill stroke"/><path d="m99.109 154.17 5.393-.12"/><path d="M374.6 583.32s-.273.002 0 0l20.388-.17c.273-.001 0 0 0 0a.895.895 90 0 0-.04-1.79s.273-.01 0 0l-20.376.734c-.272.01 0 0 0 0a.613.613 90 0 0 .028 1.226z" style="paint-order:markers fill stroke" transform="scale(.26458)"/><path fill="#37483e" d="M117.37 134.55c-1.305.357-2.002.456-3.282.542l1.66 1.865c.193 2.969-.005 5.133-.2 7.022l1.949 2.609c.457-.593.995-1.523 1.616-2.793-.335-2.404-.957-4.581-2.226-7.022z"/><path d="M117.33 134.41a16.05 16.05 0 0 1-1.635.372c-.461.075-.93.123-1.618.17a.14.14 67.182 0 0-.095.232c.547.613 1.132 1.27 1.626 1.83a34.567 34.567 0 0 1 .028 3.852 44.515 44.515 0 0 1-.286 3.092.216.181 34.619 0 0 .038.139c.264.377.535.758.87 1.208.325.44.688.915 1.07 1.407a.212.205 44.54 0 0 .332.003c.224-.305.468-.697.735-1.181a32.29 32.29 0 0 0 .849-1.674.141.156 51.254 0 0 .014-.085 25.872 25.872 0 0 0-.282-1.593 21.053 21.053 0 0 0-.497-1.924 21.38 21.38 0 0 0-1.45-3.504c.2-.914.395-1.78.48-2.173zm-.103.109c-.087.401-.274 1.293-.474 2.225a.135.137 37.049 0 0 .012.092 20.739 20.739 0 0 1 1.453 3.502c.205.663.361 1.297.484 1.9.1.498.185 1.006.256 1.531a23.263 23.263 0 0 1-.87 1.587c-.212.35-.408.642-.587.883-.307-.424-.604-.83-.884-1.203a54.45 54.45 0 0 0-.866-1.119c.069-.797.155-1.875.196-3.038a38.354 38.354 0 0 0-.06-3.932.139.143 21.434 0 0-.035-.085c-.45-.5-.972-1.086-1.473-1.651.545-.04.955-.084 1.361-.148a15.49 15.49 0 0 0 1.667-.374z" style="paint-order:stroke markers fill"/><path fill="none" stroke="#000" stroke-linecap="round" stroke-miterlimit="10" stroke-width=".3" d="M116.89 136.78c-.311-.038-.69.023-1.14.183" style="paint-order:stroke markers fill"/><path fill="#d7e3f4" d="m108.97 136.02 5.014 3.075c-.154-2.293 1.164-2.986 1.856-4.36l3.48 2.195.517-4.033c-2.863 1.45-7.146 2.135-10.866 3.123z" style="paint-order:stroke markers fill" transform="rotate(7.52 115.61 136.07)"/><path d="M98.596 135.57s-.58.016 0 0c.972-.027 3.092-.032 5.605-.033 2.067 0 4.014-.023 5.925-.149a44.74 44.74 0 0 0 2.035-.178c1.396-.156 2.569-.362 3.547-.6.985-.241 2.344-.65 3.642-1.41.14-.082.283-.17.427-.264-.093.442-.424 2.174-.73 3.82-.398-.371-.79-.76-1.192-1.114a7.922 7.922 0 0 0-.056-.048c-.645-.56-1.27-.963-1.942-1.219a.19.178 22.952 0 0-.235.086c-.19.4-.419.802-.65 1.194-.193.326-.373.618-.54.913a6.045 6.045 0 0 0-.527 1.17 4.061 4.061 0 0 0-.17.864c-1.276-.675-2.896-1.484-3.403-1.757-.191-.103-.307-.17-.368-.204a.17.17 90 0 0-.165.298c.061.034.18.096.368.204.557.317 2.408 1.448 3.703 2.184a.286.29 14.24 0 0 .427-.258c-.003-.26.019-.492.047-.69a5.92 5.92 0 0 1 .093-.496c.092-.398.22-.784.365-1.135.125-.3.27-.6.455-.928.195-.347.404-.685.604-1.034.543.277 1.046.68 1.6 1.188l.051.048c.438.404.961.955 1.532 1.468a.272.273 26.336 0 0 .449-.153c.343-1.778.714-3.75.92-4.936a.26.258 76.363 0 0-.412-.254c-.305.235-.612.44-.909.617-1.225.734-2.535 1.175-3.49 1.437-.96.264-2.088.49-3.481.647-.6.068-1.268.124-2.018.167-1.884.106-3.849.097-5.898.058-2.508-.047-4.638-.092-5.62-.082-.586.006 0 0 0 0a.29.29 90 0 0 .01.58z" style="paint-order:stroke markers fill" transform="rotate(7.52 115.61 136.07)"/><g stroke="#000" stroke-linecap="round" stroke-miterlimit="10" stroke-width=".5"><path fill="#c87137" d="m120.01 136.62-1.406-2.779 1.14-.483.983 3.007z" style="paint-order:stroke markers fill" transform="rotate(11.071 54.974 177.667) scale(.91794)"/><path fill="#b3b3b3" d="m118.6 133.84-.263-.465 1.253-.523.15.505z" style="paint-order:stroke markers fill" transform="rotate(11.071 54.974 177.667) scale(.91794)"/><path fill="#f55" d="m118.34 133.37-.294-.518c.313-.405.518-.778 1.398-.496l.149.491z" style="paint-order:stroke markers fill" transform="rotate(11.071 54.974 177.667) scale(.91794)"/><path fill="#a05a2c" d="m119.22 133.85.96 2.703-.17.06-1.298-2.563z" style="paint-order:stroke markers fill" transform="rotate(11.071 54.974 177.667) scale(.91794)"/></g><path fill="#fff" d="m117.713 136.338.375 2.63 4.395-.651-.548-2.944z"/><path d="M117.61 136.1c.018.06.057.183.108.356.117.404.405 1.382.623 2.199a.113.115 74.729 0 0 .142.079l.552-.152c1.223-.333 2.504-.633 3.752-.958a.237.224 74.592 0 0 .155-.292 26.64 26.64 0 0 0-.16-.533 68.234 68.234 0 0 0-.78-2.31.222.214 69.699 0 0-.282-.137l-.785.306c-1.145.445-2.704 1.07-3.245 1.284zm.171.087c.55-.19 2.139-.735 3.296-1.146l.576-.204c.208.691.43 1.414.667 2.113.035.102.07.203.107.305-1.155.363-2.32.756-3.458 1.097l-.44.13c-.228-.788-.471-1.704-.575-2.092-.046-.174-.077-.3-.092-.36z" style="paint-order:stroke markers fill" transform="rotate(7.52 115.61 136.07)"/><path d="M67.977 168.1a.042.042 0 0 0-.036.005.206.206 0 0 0-.041.036.32.32 0 0 0-.057.106.716.716 0 0 0-.03.13 1.237 1.237 0 0 0-.005.256c.001.024.005.05.012.074.004.017.013.03.025.04a.06.06 0 0 0 .046.01.058.058 0 0 0 .038-.022.072.072 0 0 0 .016-.045.836.836 0 0 0 .002-.074c0-.025.008-.049.026-.07.019-.02.036-.029.053-.025.016.002.03.015.042.037a1.47 1.47 0 0 1 .023.077.257.257 0 0 0 .02.05.126.126 0 0 0 .032.04.08.08 0 0 0 .053.01.057.057 0 0 0 .029-.023.102.102 0 0 0 .014-.04.314.314 0 0 0-.006-.1.348.348 0 0 0-.025-.082.202.202 0 0 0-.08-.083.199.199 0 0 0-.114-.021 1.254 1.254 0 0 1-.06.015 1.29 1.29 0 0 1 .015-.116.368.368 0 0 1 .038-.115.045.045 0 0 0-.017-.065.06.06 0 0 0-.013-.005zm-.365.175a.227.227 0 0 0-.086.004.268.268 0 0 0-.19.212.254.254 0 0 0 .002.102c.008.038.024.07.048.094.025.025.056.04.092.047a.17.17 0 0 0 .088-.009.354.354 0 0 0 .103-.057.643.643 0 0 0 .085-.082.055.055 0 0 0 .01-.014.094.094 0 0 0 .004-.017c.004-.015.001-.028-.009-.038a.04.04 0 0 0-.036-.012.04.04 0 0 0-.013.004 1.644 1.644 0 0 1-.104.053.177.177 0 0 1-.067.024.068.068 0 0 1-.043-.01.047.047 0 0 1-.02-.03.088.088 0 0 1 .002-.042.124.124 0 0 1 .024-.044.142.142 0 0 1 .046-.035.243.243 0 0 1 .049-.018.097.097 0 0 1 .053.003h.01a.043.043 0 0 0 .032-.008.044.044 0 0 0 .017-.029.07.07 0 0 0-.018-.061.124.124 0 0 0-.05-.031.22.22 0 0 0-.029-.006zm-.908-.114a.065.065 0 0 0-.035 0 .06.06 0 0 0-.027.018.1.1 0 0 0-.021.03.483.483 0 0 0-.044.148 1.952 1.952 0 0 1-.013.067.152.152 0 0 0-.016.003l-.016.002a5.833 5.833 0 0 1-.086.022.045.045 0 0 0-.023.016.046.046 0 0 0-.007.028c.001.019.012.032.032.04a.098.098 0 0 0 .024.006.998.998 0 0 0 .091.003v.001c.002.03.006.06.01.092.006.03.014.06.025.086.01.027.025.05.042.069.017.02.039.032.065.038a.06.06 0 0 0 .033-.004.047.047 0 0 0 .034-.042.072.072 0 0 0-.007-.035.368.368 0 0 1-.022-.085.897.897 0 0 1-.008-.127.437.437 0 0 1 .023-.005l.021-.004.037-.01a.293.293 0 0 0 .034-.012c.024-.01.035-.026.033-.052a.046.046 0 0 0-.014-.029.057.057 0 0 0-.032-.016.735.735 0 0 0-.044-.006h-.051v-.04a2.454 2.454 0 0 0 .008-.125v-.016c0-.006 0-.011-.002-.017a.052.052 0 0 0-.045-.044zm.456.157a.214.214 0 0 0-.098.01.19.19 0 0 0-.101.08.26.26 0 0 0-.04.184.201.201 0 0 0 .056.127c.019.02.039.035.061.045.023.01.048.014.075.01a.204.204 0 0 0 .09-.035.33.33 0 0 0 .069-.066.06.06 0 0 0 .014-.044c0-.019-.009-.031-.023-.037-.016-.006-.03-.002-.042.013a.12.12 0 0 1-.044.034.325.325 0 0 1-.051.018c-.017.004-.03.003-.038-.002s-.015-.015-.022-.032a.284.284 0 0 1 .033-.002.246.246 0 0 0 .173-.088c.033-.04.037-.083.012-.13a.155.155 0 0 0-.091-.077.19.19 0 0 0-.033-.008zm-.876-.082h-.012a.054.054 0 0 0-.038.017.055.055 0 0 0-.016.04.053.053 0 0 0 .015.04.088.088 0 0 0 .018.012.064.064 0 0 0 .023.004c.016 0 .03-.005.04-.016a.055.055 0 0 0 .015-.042.053.053 0 0 0-.017-.04.051.051 0 0 0-.028-.015zm.87.2a.07.07 0 0 1 .01.003c.022.01.025.025.009.043a.122.122 0 0 1-.056.035.118.118 0 0 1-.031.006c-.01 0-.02 0-.03-.004a.101.101 0 0 1 .029-.063.077.077 0 0 1 .058-.022l.01.002zm-1.12-.198a.152.152 0 0 0-.03 0 .25.25 0 0 0-.113.038.481.481 0 0 0-.05.039.077.077 0 0 0-.025-.022.037.037 0 0 0-.03-.004.05.05 0 0 0-.027.018.088.088 0 0 0-.012.031l-.002.017-.001.014a6.773 6.773 0 0 0 .003.248.883.883 0 0 0 .006.04.076.076 0 0 0 .018.037.06.06 0 0 0 .034.018.06.06 0 0 0 .05-.014.059.059 0 0 0 .021-.046.921.921 0 0 0-.005-.109.16.16 0 0 1 .005-.063.233.233 0 0 1 .028-.056.143.143 0 0 1 .03-.03.098.098 0 0 1 .037-.017.036.036 0 0 1 .03.007c.01.006.014.02.014.042v.097l.002.054a.8.8 0 0 0 .01.078.11.11 0 0 0 .01.023.053.053 0 0 0 .048.026c.01 0 .018-.002.027-.007a.058.058 0 0 0 .022-.02.138.138 0 0 0 .013-.028.622.622 0 0 0 .016-.284.196.196 0 0 0-.034-.074.124.124 0 0 0-.067-.047.169.169 0 0 0-.029-.006zm-.433-.002h-.011a.054.054 0 0 0-.039.017.055.055 0 0 0-.015.039.054.054 0 0 0 .014.04.088.088 0 0 0 .018.013.064.064 0 0 0 .023.004c.016 0 .03-.005.04-.016a.055.055 0 0 0 .016-.042.053.053 0 0 0-.018-.04.051.051 0 0 0-.028-.015zm.699.151a.054.054 0 0 0-.017 0 .047.047 0 0 0-.03.013.063.063 0 0 0-.017.034.806.806 0 0 0-.005.164.265.265 0 0 0 .011.052c.006.016.014.03.024.04.01.012.022.019.036.022.016.003.028 0 .039-.009a.062.062 0 0 0 .019-.04.966.966 0 0 0 .004-.096.379.379 0 0 0-.025-.146.063.063 0 0 0-.023-.027.05.05 0 0 0-.016-.007zm-.683 0a.054.054 0 0 0-.017 0 .047.047 0 0 0-.03.013.063.063 0 0 0-.016.034.811.811 0 0 0-.006.164.265.265 0 0 0 .011.052c.006.016.014.03.024.04a.07.07 0 0 0 .037.022c.015.003.028 0 .038-.009a.062.062 0 0 0 .019-.04.97.97 0 0 0 .005-.096.378.378 0 0 0-.025-.145.064.064 0 0 0-.024-.028.05.05 0 0 0-.016-.007zm2.626.576-2.652-.04a.077.077 0 0 0-.08.078.077.077 0 0 0 .077.077l2.654.04a.077.077 0 0 0 .077-.076.077.077 0 0 0-.076-.079zm.31.414a.199.199 0 0 0-.062-.004.35.35 0 0 0-.162.058.683.683 0 0 0-.073.057.118.118 0 0 0-.035-.032.05.05 0 0 0-.041-.006.072.072 0 0 0-.04.027.132.132 0 0 0-.017.046.197.197 0 0 0-.005.046 9.834 9.834 0 0 0-.003.304.73.73 0 0 0 .012.115.112.112 0 0 0 .025.056c.014.014.03.022.048.025a.084.084 0 0 0 .07-.02.087.087 0 0 0 .032-.068 1.337 1.337 0 0 0-.006-.159.243.243 0 0 1 .009-.092.353.353 0 0 1 .04-.082.208.208 0 0 1 .044-.044.145.145 0 0 1 .052-.026.047.047 0 0 1 .044.009c.012.01.018.03.018.062 0 .024 0 .048-.002.072v.07l.002.08a1.282 1.282 0 0 0 .013.113.162.162 0 0 0 .015.033.07.07 0 0 0 .03.03.085.085 0 0 0 .077-.001.085.085 0 0 0 .031-.029.289.289 0 0 0 .02-.042.953.953 0 0 0 .037-.305.52.52 0 0 0-.011-.111.29.29 0 0 0-.047-.109.174.174 0 0 0-.116-.073zm-.732.016a.25.25 0 0 0-.217.062l-.028.024a.416.416 0 0 0-.153.298c0 .059.004.108.014.149a.35.35 0 0 0 .049.112c.03.04.063.071.101.092a.283.283 0 0 0 .265-.01.346.346 0 0 0 .105-.097.467.467 0 0 0 .094-.28.425.425 0 0 0-.016-.13.353.353 0 0 0-.057-.117.245.245 0 0 0-.07-.067.239.239 0 0 0-.087-.036zm-.7-.13a.092.092 0 0 0-.05.001.085.085 0 0 0-.038.027.151.151 0 0 0-.03.044l-.023.06a.768.768 0 0 0-.042.157 2.735 2.735 0 0 1-.02.098.206.206 0 0 1-.022.005l-.023.004-.062.015a.674.674 0 0 0-.06.017.065.065 0 0 0-.035.024.069.069 0 0 0-.01.04c.002.028.017.047.045.058a.19.19 0 0 0 .034.01.495.495 0 0 0 .13.005c.003.043.007.088.014.133a.624.624 0 0 0 .034.127.346.346 0 0 0 .058.1.17.17 0 0 0 .092.056c.017.001.033 0 .047-.006a.067.067 0 0 0 .034-.023.073.073 0 0 0 .015-.04.108.108 0 0 0-.009-.051.542.542 0 0 1-.03-.124 1.361 1.361 0 0 1-.01-.186.38.38 0 0 0 .033-.007.242.242 0 0 1 .03-.006 1.62 1.62 0 0 1 .053-.016.329.329 0 0 0 .049-.018c.033-.013.049-.038.047-.076a.067.067 0 0 0-.02-.041.08.08 0 0 0-.044-.024.106.106 0 0 0-.03-.006l-.033-.002h-.073v-.06a4.499 4.499 0 0 0 .014-.182v-.024c0-.008 0-.016-.002-.025a.074.074 0 0 0-.064-.064zm-.545-.027a.096.096 0 0 0-.026-.004c-.035 0-.06.017-.078.052a.075.075 0 0 0-.006.013 1.665 1.665 0 0 0-.044.29 4.248 4.248 0 0 0-.006.3.546.546 0 0 0 .026.17c.01.032.022.06.037.087a.142.142 0 0 0 .054.055.083.083 0 0 0 .041.011.088.088 0 0 0 .04-.007.07.07 0 0 0 .032-.025.09.09 0 0 0 .019-.04.106.106 0 0 0 .001-.028c0-.01 0-.019-.002-.028l-.011-.049a1.625 1.625 0 0 1-.019-.199 4.957 4.957 0 0 1 .002-.308l.001-.155a.328.328 0 0 0-.013-.082.074.074 0 0 0-.048-.053zm1.221.37a.101.101 0 0 1 .022.011.1.1 0 0 1 .036.032c.01.016.017.033.02.05a.586.586 0 0 1 .006.058.316.316 0 0 1-.026.108.22.22 0 0 1-.072.085c-.03.023-.059.031-.086.023-.027-.008-.048-.03-.062-.066a.205.205 0 0 1-.016-.069.306.306 0 0 1 .03-.147.259.259 0 0 1 .04-.061.074.074 0 0 1 .038-.024.092.092 0 0 1 .047-.004.06.06 0 0 1 .023.005zm-1.585-.227a.076.076 0 0 0-.07.024.083.083 0 0 0-.024.058.08.08 0 0 0 .02.06.11.11 0 0 0 .026.017c.01.004.02.006.032.006a.077.077 0 0 0 .057-.024.083.083 0 0 0 .023-.06v-.001a.078.078 0 0 0-.024-.059.072.072 0 0 0-.04-.021zm-.373.028a.182.182 0 0 0-.079.001.23.23 0 0 0-.068.029.416.416 0 0 0-.062.047l-.06.055a.092.092 0 0 1-.007-.01.261.261 0 0 0-.006-.01.255.255 0 0 1-.02-.023.114.114 0 0 0-.02-.021.175.175 0 0 0-.103-.049.189.189 0 0 0-.112.022.06.06 0 0 0-.016.008c-.004.003-.01.001-.019-.005-.02-.012-.038-.015-.055-.009-.017.007-.028.022-.036.046a.223.223 0 0 0-.01.051l-.013.118a1.197 1.197 0 0 0-.007.233c.003.039.01.079.022.12a.16.16 0 0 0 .012.028c.01.014.021.025.036.032a.07.07 0 0 0 .047.004.08.08 0 0 0 .063-.07l.001-.02v-.02a2.68 2.68 0 0 1-.003-.053l-.002-.062a1.576 1.576 0 0 0-.004-.116.15.15 0 0 1 .005-.064c.007-.013.015-.02.024-.02s.018.007.028.022a.146.146 0 0 1 .019.06 1.08 1.08 0 0 1 .01.095l.012.092c.006.03.014.059.027.087.01.021.022.037.04.047.016.01.035.014.055.01a.093.093 0 0 0 .053-.024.094.094 0 0 0 .027-.056.5.5 0 0 0 .011-.102.372.372 0 0 1 .016-.102.488.488 0 0 1 .047-.107.16.16 0 0 1 .047-.053c.015-.009.027-.01.038-.004.012.005.02.018.027.037s.008.043.008.07c0 .02 0 .042-.002.064l-.003.067a1.862 1.862 0 0 0 .001.122.372.372 0 0 0 .01.04.11.11 0 0 0 .046.063.09.09 0 0 0 .04.011.078.078 0 0 0 .058-.026.228.228 0 0 0 .041-.07.708.708 0 0 0 .032-.217.763.763 0 0 0-.03-.23.184.184 0 0 0-.062-.094.229.229 0 0 0-.104-.044zm.394.193a.063.063 0 0 0-.025 0 .068.068 0 0 0-.043.02.094.094 0 0 0-.023.049 1.22 1.22 0 0 0-.01.24.367.367 0 0 0 .015.077.193.193 0 0 0 .033.06.094.094 0 0 0 .052.03c.021.005.04 0 .054-.013a.093.093 0 0 0 .028-.058c.005-.048.008-.095.008-.142a.568.568 0 0 0-.034-.212.09.09 0 0 0-.033-.041.061.061 0 0 0-.022-.01z" style="paint-order:stroke markers fill" transform="rotate(-12.197 -55.933 -94.98)"/><path fill="#d7e3f4" d="M98.931 135.5c-.018.808-1.439 8.165-1.439 8.165l7.184-1.763-.562-5.846z" style="paint-order:stroke markers fill"/><path d="M98.234 141.24s-.051.049 0 0c.122-.116.339-.314.596-.551a387.84 387.84 0 0 0-.473 5.21.277.278 81.917 0 0 .376.281 620.714 620.714 0 0 0 6.828-2.655.224.23 67.049 0 0 .128-.304c-.817-1.795-1.55-3.386-1.862-4.092-.172-.387-.273-.626-.328-.751a.158.158 90 0 0-.29.126c.056.125.162.362.329.751.292.68.919 2.197 1.64 3.926a641.84 641.84 0 0 0-6.234 2.325c.122-1.605.249-3.522.364-5.337a.216.206 67.364 0 0-.369-.162c-.369.458-.703.888-.865 1.085-.045.055 0 0 0 0a.109.109 90 0 0 .16.148z" style="paint-order:stroke markers fill" transform="rotate(7.52 115.61 136.07)"/></g><path fill="red" d="M134.98 143.11s1.278.971 2.928 1.112c.62-.927 1.218-2.117 1.218-2.117l11.92 2.611c.03-.023 3.804-.842 3.804-.842.295-1.143-.212-2.4-1.324-3.529-5.194-5.274-14.64-3.01-18.366-.094-.25.847-.18 2.859-.18 2.859z" style="paint-order:stroke markers fill" transform="translate(-252.6 -268.38) scale(3.0789)"/><path fill="red" d="M134.98 143.11c-.633.78-.424 1.716-.424 1.716 3.923 1.277 15.17 3.39 16.143 3.675 2.3-.401 3.774-.963 4.079-1.693l-.03-1.003s-.294-.48-1.413-.73l-2.41.833-12.567-2.405-.45.719z" style="paint-order:stroke markers fill" transform="translate(-252.6 -268.38) scale(3.0789)"/><path fill="#ccc" d="m137.79 142.62 9.481 1.929 1.83-.632.14-.581-1.878.308-9.05-1.983z" style="paint-order:stroke markers fill" transform="translate(-385.079 -405.308) scale(4.055)"/><path d="M134.87 143.25c.007-.002.16.141.89.49.27.128.626.278 1.038.4a5.53 5.53 0 0 0 1.098.208.13.129 19.049 0 0 .118-.057c.287-.43.582-.935.846-1.416.147-.267.27-.5.333-.623 3.86.849 7.93 1.747 11.82 2.607a.148.148 32.093 0 0 .123-.028l-.015.01-.01.005-.01.005-.006.003h.003l.03-.007.123-.028.434-.094c.367-.08.846-.182 1.307-.28 1.078-.23 1.894-.399 1.895-.39l-.04.004.024-.096a.055.158 31.998 0 0 .185-.149c.066-.282.086-.562.071-.833a3.508 3.508 0 0 0-.195-.962c-.23-.664-.649-1.305-1.192-1.888-1.317-1.353-2.918-2.245-4.66-2.757-1.674-.493-3.487-.639-5.317-.5a19.079 19.079 0 0 0-5.016 1.08c-.735.266-1.449.578-2.11.93a11.42 11.42 0 0 0-1.697 1.086.335.361 77.055 0 0-.121.179 3.299 3.299 0 0 0-.084.41c-.022.144-.038.3-.05.462-.025.315-.034.653-.035.967 0 .628.032 1.127.048 1.13l.002-.041.1.011zm.286-.123.1.011.003-.04c.016.003.014-.495.04-1.095a14.4 14.4 0 0 1 .066-.919 4.421 4.421 0 0 1 .103-.626 11.08 11.08 0 0 1 1.504-.942c.63-.333 1.313-.63 2.02-.887a18.733 18.733 0 0 1 4.826-1.054c1.76-.141 3.491-.013 5.077.437 1.651.468 3.163 1.288 4.414 2.543.53.508.945 1.058 1.187 1.63.113.266.19.544.221.828a2.37 2.37 0 0 1-.03.72l.184-.148a2.71 2.71 0 0 1-.023.1.02.022 42.746 0 0-.04.003c.002.01-.81.192-1.886.435a304.162 304.162 0 0 0-1.74.4 5.987 5.987 0 0 0-.126.031l-.038.011-.016.005-.012.005-.012.005-.01.005-.015.011.123-.028c-3.924-.851-8.034-1.746-11.924-2.594a.026.118 76.931 0 0-.145.07c.002-.001-.157.317-.371.707a19.01 19.01 0 0 1-.794 1.331 5.172 5.172 0 0 1-.968-.199c-.393-.12-.73-.27-.987-.402-.69-.355-.808-.515-.8-.517z" style="paint-order:stroke markers fill" transform="translate(-252.6 -268.38) scale(3.0789)"/><path d="M135.19 140.5c.455-.048 2.09-.225 3.199-.311.234-.019.488-.036.754-.051 1.127-.064 2.357-.077 3.638.064.954.105 1.81.28 2.614.503.346.096.704.205 1.075.332a19.584 19.584 0 0 1 3.472 1.595c.318.188.562.348.669.417a.127.127 90 0 0 .136-.214 56.7 56.7 0 0 0-.675-.42c-.806-.496-2-1.214-3.452-1.786a14.59 14.59 0 0 0-1.092-.383c-.82-.25-1.71-.441-2.691-.551-1.319-.148-2.583-.125-3.723-.057-.27.016-.527.034-.764.052-1.124.086-2.757.265-3.212.313a.25.25 90 0 0 .052.497z" style="paint-order:stroke markers fill" transform="translate(-252.6 -268.38) scale(3.0789)"/><path fill="none" stroke="#000" stroke-linecap="round" stroke-linejoin="round" stroke-miterlimit="10" stroke-width=".5" d="M134.98 143.11c-.633.78-.424 1.716-.424 1.716 3.923 1.277 15.17 3.39 16.143 3.675 2.3-.401 3.774-.963 4.079-1.693l-.03-1.003s-.294-.48-1.413-.73l.184-.765" style="paint-order:stroke markers fill" transform="translate(-252.6 -268.38) scale(3.0789)"/><path d="M138.71 144.61a16.43 16.43 0 0 1 1.471.14c.457.062 1.01.151 1.67.279 1.047.202 2.26.483 3.536.832a43.45 43.45 0 0 1 3.122.972c.45.162.837.314 1.152.452.163.071.305.138.426.2.127.065.228.123.307.174a.172.186 59.021 0 0 .125.026c.136-.02.258-.036.453-.062.16-.021.35-.047.547-.08a7.842 7.842 0 0 0 1.256-.3 5.032 5.032 0 0 0 1.2-.592c.427-.29.704-.587.859-.775a.114.114 90 0 0-.176-.145 3.56 3.56 0 0 1-.927.805c-.286.17-.629.32-1.042.437-.416.12-.83.188-1.218.236-.192.024-.384.044-.543.062a8.682 8.682 0 0 0-.401.052 4 4 0 0 0-.282-.152 8.2 8.2 0 0 0-.448-.204 18.836 18.836 0 0 0-1.178-.444 43.417 43.417 0 0 0-3.158-.938 47.607 47.607 0 0 0-3.567-.785 29.714 29.714 0 0 0-1.687-.253 17.305 17.305 0 0 0-1.33-.111 8.114 8.114 0 0 0-.16-.007.09.09 90 0 0-.007.181z" style="paint-order:stroke markers fill" transform="translate(-252.6 -268.38) scale(3.0789)"/><path d="M150.34 147.54c0 .003 0 .007.003.016.015.06.173.526.218.704.026.106.04.214.049.257a.097.097 90 0 0 .19-.036c-.008-.043-.035-.15-.05-.258-.024-.181-.05-.672-.059-.734l-.003-.016a.177.177 90 0 0-.348.067zm-11.92-4.01c.406.082 1.35.269 2.437.49 2.209.45 6.504 1.352 10.031 2.064a.184.185 8.811 0 0 .22-.162c.04-.375.07-.996.083-1.195.003-.042 0 0 0 0a.147.147 90 0 0-.292-.03s.005-.04 0 0c-.022.166-.093.622-.136.987-3.49-.698-7.682-1.504-9.852-1.935-1.089-.217-2.03-.409-2.437-.49a.139.139 90 0 0-.054.271z" style="paint-order:stroke markers fill" transform="translate(-252.6 -268.38) scale(3.0789)"/><path d="m150.99 146.08.18-.062c.286-.095 1.369-.437 1.77-.57.209-.07.394-.136.473-.164a.221.221 90 0 0-.144-.418c-.079.027-.266.09-.473.163-.399.142-1.462.541-1.745.642-.09.033-.15.052-.18.063a.183.183 90 0 0 .119.346z" style="paint-order:stroke markers fill" transform="translate(-252.6 -268.38) scale(3.0789)"/><path fill="#fff" d="M170.53 104.05a.629.629 0 0 0-.173.073.42.42 0 0 0-.074.058.353.353 0 0 0-.057.077.117.117 0 0 0-.015.098c.01.03.034.059.072.085.015.01.032.018.049.025a.372.372 0 0 1 .05.022c.034.018.055.034.062.05.007.015.002.03-.016.044a.375.375 0 0 1-.12.051 4.948 4.948 0 0 0-.087.026.099.099 0 0 0-.06.107c.004.02.015.037.032.05a.1.1 0 0 0 .071.018.69.69 0 0 0 .073-.012.678.678 0 0 0 .154-.048.428.428 0 0 0 .158-.11.202.202 0 0 0 .049-.085.12.12 0 0 0-.008-.088.205.205 0 0 0-.086-.085.947.947 0 0 0-.114-.052c-.026-.01-.04-.022-.041-.033-.002-.013.004-.025.018-.037a.216.216 0 0 1 .058-.035.825.825 0 0 1 .076-.03.182.182 0 0 0 .068-.038.101.101 0 0 0 .03-.046.056.056 0 0 0-.003-.044.076.076 0 0 0-.032-.035.122.122 0 0 0-.058-.016.187.187 0 0 0-.076.01zm.366.006a.077.077 0 0 0-.062.046.4.4 0 0 0-.028.083 1.107 1.107 0 0 0-.024.14 1.937 1.937 0 0 0-.007.245.369.369 0 0 0 .05.158.314.314 0 0 0 .038.05.173.173 0 0 0 .045.034c.017.008.035.01.054.008a.121.121 0 0 0 .061-.023.241.241 0 0 0 .049-.048.51.51 0 0 0 .039-.06 10.749 10.749 0 0 1 .052-.094.575.575 0 0 0 .087.114c.023.024.05.042.08.057a.181.181 0 0 0 .107.016.168.168 0 0 0 .095-.053.48.48 0 0 0 .041-.056.378.378 0 0 0 .037-.086.883.883 0 0 0-.027-.515.138.138 0 0 0-.012-.024c-.014-.027-.037-.038-.068-.034-.03.003-.049.018-.059.048a.172.172 0 0 0-.008.054 2.542 2.542 0 0 0 .011.243c.004.034.007.068.008.103a.245.245 0 0 1-.011.095c-.009.024-.02.039-.035.044-.014.005-.03 0-.048-.016a.245.245 0 0 1-.052-.084.725.725 0 0 1-.043-.14.142.142 0 0 0-.033-.064.078.078 0 0 0-.058-.028.077.077 0 0 0-.056.019.125.125 0 0 0-.038.06.122.122 0 0 0-.01.026 1.659 1.659 0 0 1-.046.157.161.161 0 0 1-.026.05c-.007.004-.012-.001-.016-.016a.368.368 0 0 1-.007-.062 1.641 1.641 0 0 1 .002-.203 3.221 3.221 0 0 0 .004-.165.074.074 0 0 0-.06-.078.08.08 0 0 0-.026-.001zm.885-.004a.075.075 0 0 0-.039.022.077.077 0 0 0-.021.055.075.075 0 0 0 .02.058.12.12 0 0 0 .026.017c.01.004.02.006.032.006a.077.077 0 0 0 .079-.081.075.075 0 0 0-.025-.057.074.074 0 0 0-.056-.022c-.006 0-.011 0-.016.002zm.562.006a.364.364 0 0 0-.12.05.67.67 0 0 0-.072.054h-.001a.117.117 0 0 0-.035-.03.049.049 0 0 0-.041-.007.07.07 0 0 0-.04.027.133.133 0 0 0-.015.044.215.215 0 0 0-.004.044 10.83 10.83 0 0 0 0 .293 1.547 1.547 0 0 0 .013.11c.003.022.012.04.025.055.014.014.03.022.048.024a.084.084 0 0 0 .07-.018.083.083 0 0 0 .03-.066l-.001-.077-.006-.076a.225.225 0 0 1 .008-.09.33.33 0 0 1 .039-.079.202.202 0 0 1 .043-.041.145.145 0 0 1 .051-.025.048.048 0 0 1 .044.008c.013.01.019.03.019.06l-.001.07v.067c.002.025.002.05.003.077a.915.915 0 0 0 .014.11.23.23 0 0 0 .015.032.072.072 0 0 0 .03.027.086.086 0 0 0 .076 0 .083.083 0 0 0 .03-.027.28.28 0 0 0 .02-.04.876.876 0 0 0 .034-.295.49.49 0 0 0-.013-.107.28.28 0 0 0-.047-.105.175.175 0 0 0-.094-.066.232.232 0 0 0-.121-.003zm-.53.205a.067.067 0 0 0-.044.02.09.09 0 0 0-.023.047 1.035 1.035 0 0 0-.013.151c0 .027.002.054.005.081a.347.347 0 0 0 .016.074c.009.022.02.041.034.058a.097.097 0 0 0 .051.03c.022.003.04 0 .055-.013a.09.09 0 0 0 .026-.057 1.35 1.35 0 0 0 .007-.136.537.537 0 0 0-.036-.205.09.09 0 0 0-.033-.04.067.067 0 0 0-.046-.01zm1.696-.35a.083.083 0 0 0-.052.047.042.042 0 0 0-.006.013l-.003.014c-.02.087-.033.176-.037.265-.004.09-.005.186-.003.29a.509.509 0 0 0 .027.164c.01.03.023.058.037.083a.143.143 0 0 0 .055.053.085.085 0 0 0 .041.012.087.087 0 0 0 .04-.007.068.068 0 0 0 .03-.025.09.09 0 0 0 .02-.065l-.002-.027a1.571 1.571 0 0 0-.012-.047 1.374 1.374 0 0 1-.022-.191 5.462 5.462 0 0 1 0-.298v-.15a.31.31 0 0 0-.014-.078c-.011-.036-.036-.054-.074-.055-.009 0-.017 0-.025.002zm-.48.14a.534.534 0 0 0-.31.192.25.25 0 0 0-.037.079.177.177 0 0 0-.006.082.175.175 0 0 0 .171.142.26.26 0 0 0 .102-.015.376.376 0 0 0 .132-.086l.049-.044h.001l-.006.11a.318.318 0 0 1-.023.105.08.08 0 0 1-.026.038.096.096 0 0 1-.046.006.638.638 0 0 1-.095-.016.324.324 0 0 1-.086-.04c-.028-.018-.053-.017-.075.001a.055.055 0 0 0-.02.036.055.055 0 0 0 .01.04l.021.033a.493.493 0 0 0 .217.135.236.236 0 0 0 .17-.006.244.244 0 0 0 .121-.121.422.422 0 0 0 .032-.087c.007-.03.01-.06.008-.092a4.99 4.99 0 0 0-.004-.1.855.855 0 0 0-.03-.195 2.44 2.44 0 0 0-.024-.096.23.23 0 0 0-.015-.032.076.076 0 0 0-.021-.026.24.24 0 0 0-.17-.05.567.567 0 0 0-.04.008zm.036.167a.33.33 0 0 1 .031-.007.205.205 0 0 1-.04.075.336.336 0 0 1-.067.065.277.277 0 0 1-.076.039.102.102 0 0 1-.067.002.027.027 0 0 1 .005-.022.293.293 0 0 1 .067-.074.383.383 0 0 1 .065-.043.792.792 0 0 1 .082-.035zm.701-.168a.075.075 0 0 0-.038.022.077.077 0 0 0-.022.055.075.075 0 0 0 .021.058.12.12 0 0 0 .025.017c.01.004.021.006.033.006a.077.077 0 0 0 .078-.081.075.075 0 0 0-.025-.057.074.074 0 0 0-.056-.022c-.005 0-.01 0-.016.002zm.563.006a.366.366 0 0 0-.121.05.669.669 0 0 0-.072.054.12.12 0 0 0-.035-.03.049.049 0 0 0-.042-.007.07.07 0 0 0-.039.027.135.135 0 0 0-.016.043.215.215 0 0 0-.004.044v.294a1.546 1.546 0 0 0 .013.11c.004.022.012.04.025.055.014.014.03.022.049.024a.084.084 0 0 0 .069-.018.083.083 0 0 0 .031-.066c0-.026 0-.052-.002-.077l-.006-.076a.225.225 0 0 1 .008-.09.329.329 0 0 1 .04-.079.2.2 0 0 1 .042-.041c.018-.013.035-.022.052-.026s.031 0 .044.01c.012.009.018.029.018.06v.136l.002.077a.911.911 0 0 0 .014.11.172.172 0 0 0 .015.032.072.072 0 0 0 .03.027.086.086 0 0 0 .076 0 .083.083 0 0 0 .031-.027.275.275 0 0 0 .019-.04.876.876 0 0 0 .035-.295.49.49 0 0 0-.013-.107.28.28 0 0 0-.047-.105.175.175 0 0 0-.095-.066.23.23 0 0 0-.121-.003zm-.532.205a.067.067 0 0 0-.042.02.09.09 0 0 0-.023.047 1.044 1.044 0 0 0-.013.151.655.655 0 0 0 .02.155c.009.022.02.041.034.058a.097.097 0 0 0 .052.03c.022.003.04 0 .054-.013a.09.09 0 0 0 .027-.057c.004-.046.007-.091.007-.136a.537.537 0 0 0-.036-.205.09.09 0 0 0-.033-.04.068.068 0 0 0-.047-.01zm1.117-.095a.297.297 0 0 0-.126.056.366.366 0 0 0-.118.33.286.286 0 0 0 .078.179c.027.028.056.05.087.064a.183.183 0 0 0 .106.012.288.288 0 0 0 .126-.048.468.468 0 0 0 .098-.093.088.088 0 0 0 .02-.063c-.001-.026-.012-.043-.033-.052-.022-.008-.042-.002-.059.019a.172.172 0 0 1-.062.048.365.365 0 0 1-.073.026c-.023.005-.041.004-.053-.003a.113.113 0 0 1-.03-.046l-.001-.001a.56.56 0 0 1 .046-.002.33.33 0 0 0 .245-.124.153.153 0 0 0 .017-.183.22.22 0 0 0-.13-.11.274.274 0 0 0-.138-.009zm.045.165a.138.138 0 0 1 .024-.001.854.854 0 0 1 .03.006c.03.015.035.035.012.06a.17.17 0 0 1-.078.05.172.172 0 0 1-.045.008.108.108 0 0 1-.042-.006.143.143 0 0 1 .04-.088.105.105 0 0 1 .06-.029zm.513.103a.198.198 0 0 0-.021.006c-.111.04-.16.17-.113.288.048.117.176.181.287.141.111-.04.16-.167.112-.284-.045-.11-.16-.176-.265-.15zm.012.043c.082-.02.174.032.21.123.04.097 0 .199-.085.23a.158.158 0 0 1-.081.006c0-.003.002-.005.003-.008a.18.18 0 0 0 0-.052.939.939 0 0 0-.012-.07.057.057 0 0 1 .002-.033.052.052 0 0 1 .018-.023.034.034 0 0 1 .025-.005c.01.001.02.007.029.019l.002.002c.005.005.01.007.016.008h.017a.043.043 0 0 0 .026-.024.066.066 0 0 0 .005-.033c-.001-.01-.005-.02-.01-.029s-.013-.014-.023-.02a.066.066 0 0 0-.047-.004.156.156 0 0 0-.049.017.287.287 0 0 0-.031.02.188.188 0 0 1-.011-.016.086.086 0 0 0-.011-.014.032.032 0 0 0-.015-.009.025.025 0 0 0-.013 0 .05.05 0 0 0-.006.002.028.028 0 0 0-.014.009.04.04 0 0 0-.007.015.07.07 0 0 0-.001.017v.017a.727.727 0 0 1 .007.053l.005.052a.46.46 0 0 0 .01.07.208.208 0 0 1-.063-.085c-.04-.096.002-.2.088-.23a.151.151 0 0 1 .016-.005z" style="paint-order:stroke markers fill" transform="rotate(13.505 1518.962 -1828.728) scale(4.05497)"/><g stroke-linecap="round" stroke-miterlimit="10"><path fill="#d08418" stroke="#000" stroke-width="1.61" d="M175.34 184.07s15.437-11.367 17.043.71c2.34 17.597-29.426 3.412-35.881-4.48" style="paint-order:markers fill stroke"/><path d="M123.43 40.387c-4.016 0-7.98.222-11.887.636a145.25 145.25 0 0 1 5.18 3.516c2.22-.136 4.452-.228 6.707-.228 6.836 0 13.515.665 19.997 1.881a40 40 0 0 0 .093-3.966c-6.521-1.187-13.228-1.84-20.09-1.84zM60.212 60.034a112.267 112.267 0 0 0-31.381 32.751 59.483 59.483 0 0 0 2.625 3.13A108.163 108.163 0 0 1 54.048 69.64c2.136-3.137 4.27-6.27 6.164-9.605zm142.9 19.614c14.444 15.893 24.233 36.091 27.115 58.491a65.21 65.21 0 0 0 1.996 2.693l-1.62.336c.357 3.572.544 7.194.544 10.86 0 59.514-48.203 107.72-107.72 107.72-48.132 0-88.855-31.532-102.68-75.073l-.263.055c-.002-.318-.015-.614-.018-.93a107.75 107.75 0 0 1-4.605-37.56c-.678-1.764-1.411-3.364-2.269-4.583l2.553.836a107.192 107.192 0 0 1 5.887-26.904c-.388-2.822-.62-5.668-.769-8.556a111.145 111.145 0 0 0-9.48 45c0 61.634 50.008 111.64 111.64 111.64 61.634 0 111.63-50.008 111.63-111.64 0-27.465-9.941-52.606-26.408-72.05a310.75 310.75 0 0 1-5.545-.33z" style="paint-order:markers fill stroke"/><path d="M123.43 40.387c-4.016 0-7.98.222-11.887.636a145.25 145.25 0 0 1 5.18 3.516c2.22-.136 4.452-.228 6.707-.228 6.836 0 13.515.665 19.997 1.881a40 40 0 0 0 .093-3.966c-6.521-1.187-13.228-1.84-20.09-1.84zM60.212 60.034a112.267 112.267 0 0 0-31.381 32.751 59.483 59.483 0 0 0 2.625 3.13A108.163 108.163 0 0 1 54.048 69.64c2.136-3.137 4.27-6.27 6.164-9.605zm142.9 19.614c14.444 15.893 24.233 36.091 27.115 58.491a65.21 65.21 0 0 0 1.996 2.693l-1.62.336c.357 3.572.544 7.194.544 10.86 0 59.514-48.203 107.72-107.72 107.72-48.132 0-88.855-31.532-102.68-75.073l-.263.055c-.002-.318-.015-.614-.018-.93a107.75 107.75 0 0 1-4.605-37.56c-.678-1.764-1.411-3.364-2.269-4.583l2.553.836a107.192 107.192 0 0 1 5.887-26.904c-.388-2.822-.62-5.668-.769-8.556a111.145 111.145 0 0 0-9.48 45c0 61.634 50.008 111.64 111.64 111.64 61.634 0 111.63-50.008 111.63-111.64 0-27.465-9.941-52.606-26.408-72.05a310.75 310.75 0 0 1-5.545-.33z" style="paint-order:markers fill stroke"/></g></svg>