<svg xmlns="http://www.w3.org/2000/svg" xmlns:xlink="http://www.w3.org/1999/xlink" viewBox="0 0 270.93 270.93"><defs><pattern xlink:href="#a" id="c" patternTransform="matrix(1.8374 .2109 -.2109 1.8374 -24.107 101.37)" preserveAspectRatio="xMidYMid"/><pattern id="a" width="10" height="10" patternTransform="scale(10)" patternUnits="userSpaceOnUse" preserveAspectRatio="xMidYMid"><circle cx="2.567" cy=".81" r=".45"/><circle cx="3.048" cy="2.33" r=".45"/><circle cx="4.418" cy="2.415" r=".45"/><circle cx="1.844" cy="3.029" r=".45"/><circle cx="6.08" cy="1.363" r=".45"/><circle cx="5.819" cy="4.413" r=".45"/><circle cx="4.305" cy="4.048" r=".45"/><circle cx="5.541" cy="3.045" r=".45"/><circle cx="4.785" cy="5.527" r=".45"/><circle cx="2.667" cy="5.184" r=".45"/><circle cx="7.965" cy="1.448" r=".45"/><circle cx="7.047" cy="5.049" r=".45"/><circle cx="4.34" cy=".895" r=".45"/><circle cx="7.125" cy=".34" r=".45"/><circle cx="7.125" cy="10.34" r=".45"/><circle cx="9.55" cy="1.049" r=".45"/><circle cx="7.006" cy="2.689" r=".45"/><circle cx="8.909" cy="2.689" r=".45"/><circle cx="9.315" cy="4.407" r=".45"/><circle cx="7.82" cy="3.87" r=".45"/><circle cx="8.27" cy="5.948" r=".45"/><circle cx="7.973" cy="7.428" r=".45"/><circle cx="9.342" cy="8.072" r=".45"/><circle cx="8.206" cy="9.315" r=".45"/><circle cx="9.682" cy="9.475" r=".45"/><circle cx="-.318" cy="9.475" r=".45"/><circle cx="9.688" cy="6.186" r=".45"/><circle cx="-.312" cy="6.186" r=".45"/><circle cx="3.379" cy="6.296" r=".45"/><circle cx="2.871" cy="8.204" r=".45"/><circle cx="4.59" cy="8.719" r=".45"/><circle cx="3.181" cy="9.671" r=".45"/><circle cx="3.181" cy="-.329" r=".45"/><circle cx="5.734" cy="7.315" r=".45"/><circle cx="6.707" cy="6.513" r=".45"/><circle cx="5.73" cy="9.67" r=".45"/><circle cx="5.73" cy="-.33" r=".45"/><circle cx="6.535" cy="8.373" r=".45"/><circle cx="4.37" cy="7.154" r=".45"/><circle cx=".622" cy="7.25" r=".45"/><circle cx=".831" cy="5.679" r=".45"/><circle cx="1.257" cy="8.519" r=".45"/><circle cx="1.989" cy="6.877" r=".45"/><circle cx=".374" cy="3.181" r=".45"/><circle cx="10.374" cy="3.181" r=".45"/><circle cx="1.166" cy="1.664" r=".45"/><circle cx="1.151" cy=".093" r=".45"/><circle cx="1.151" cy="10.093" r=".45"/><circle cx="1.302" cy="4.451" r=".45"/><circle cx="3.047" cy="3.763" r=".45"/></pattern><clipPath id="b"><path stroke-dashoffset="1.323" stroke-linecap="round" stroke-linejoin="round" stroke-miterlimit="10" stroke-opacity=".989" stroke-width=".588" d="M128 48.122c-.276.735-.646 1.257-.853 2.03-.215.79-.542 1.47-.838 2.277-.268.72-.613 1.398-.973 2.073-.373.607-.737.994-1.198 1.637-.448.716-.785 1.418-1.454 2.086-.463.598-.846 1.23-1.443 1.754-.522.536-1.066 1.057-1.615 1.613-.564.516-1.167.888-1.77 1.467-.555.52-1.056 1.023-1.776 1.455-.64.294-1.2.905-1.882 1.277-.64.429-1.45.639-2.162.99-.697.256-1.434.136-2.126.489-.703.167-1.365.063-2.09.303-.698.265-1.295.686-2.127.944-.75.257-1.546-.063-2.33-.068-.683.071-1.493.061-2.21.035-.709-.022-1.284-.023-1.984-.159-.733-.21-1.158-.174-1.84-.387-.63-.18-1.112-.507-1.785-.759-.655-.321-1.09-.78-1.71-1.036a41.306 41.306 0 0 1-1.508-1.132c-.495-.437-.967-.937-1.403-1.411-.41-.517-.669-.917-1.026-1.336-.362-.523-.646-1.412-.963-1.966-.188-.416-.529-.997-.743-1.463-.132-.543-.464-1.249-.72-1.836-.175-.532-.26-1.053-.395-1.608-.033-.657.127-1.24-.078-1.953-.064-.71-.076-1.331-.151-2.134-.027-.689-.101-1.586.053-2.232.149-.75.323-1.566.558-2.246.21-.74.534-1.381.8-2.105.298-.711.898-1.278 1.138-1.976.363-.687.733-1.404 1.157-2.056.412-.656.834-1.339 1.304-1.872.46-.645.94-1.221 1.462-1.777.568-.527 1.05-1.256 1.631-1.702.567-.51 1.167-.992 1.756-1.459.61-.473 1.304-1.06 1.907-1.304.65-.41 1.274-.93 1.89-1.33.68-.446 1.35-.872 2.071-1.155.73-.282 1.546-.534 2.163-.788a35.358 35.358 0 0 1 2.172-.605c.846-.11 1.717-.183 2.456-.227.816-.071 1.33-.242 2.118-.178.766-.024 1.51-.11 2.137-.06.733-.077 1.483.19 2.18.332.643.104 1.359.375 1.966.569.666.2 1.263.443 1.839.771.575.26 1.193.71 1.666.944.55.198 1.062.426 1.559.739.571.247 1.154.761 1.622 1.146.46.329.82.548 1.216.959.465.48.843.934 1.214 1.471.401.524.696.974.964 1.552.234.47.499 1.03.686 1.562.196.532.307.961.421 1.511.127.59.196 1.188.24 1.816.12.614-.718 3.567-.794 4.285-.064.687-.16 1.536-.399 2.233z" style="paint-order:stroke fill markers"/></clipPath></defs><path fill="#fff" d="M101.09 34.74c-1.615.004-2.995.435-4.267 1.102s-2.5 1.535-3.38 3.215c-1.174 2.242-1.118 4.304-.798 6.318-.454-.08-.87-.204-1.43-.188-2.085.063-3.857 1.14-5.046 2.436-.044.048-.067.108-.11.157-1.363-.567-3.018-.826-4.404-.444-1.512.417-2.546 1.183-3.426 2.101s-1.689 1.985-1.924 3.791c-.236 1.819.183 3.02.654 4.266a15.103 15.103 0 0 0 1.916 3.55c.985 1.355 2.128 2.29 3.268 3.093-.211.051-.45.004-.654.072-1.994.668-3.486 1.864-4.7 3.275-1.213 1.412-2.227 3.04-2.398 5.315-.297 3.936 1.464 7.544 4.139 10.97 1.846 2.367 3.78 3.957 7.701 6.555-.04.066-.076.134-.115.2-.222.011-.44.01-.666.033v.002c-2.134-.067-4.11.09-5.705.139a4.094 4.094 0 0 0-.057.035c-2.781-.11-4.747.356-6.242.488l-.008.006c-2.155.132-4.646.335-7.137.662-.227.029-.45.07-.668.123l-.021.006a97.793 97.793 0 0 0-6.348 1.818c-.176.057-.35.12-.518.192l-.013.007c-1.156.5-3.426 1.245-5.659 2.137l-.038.016-.047.017-.038.016c-.314.13-.517.3-.814.44-.018-.028-.034-.057-.053-.084l-.002-.002-.101-.153-.01-.012a4.72 4.72 0 0 0-.139-.193l-.008-.01-.05-.066-.03-.045c-.043-.065-.11-.107-.156-.17l-.006-.008-.004-.004c-.22-.298-.46-.58-.742-.816l-.002-.024.406.323a4.827 4.827 0 0 0-.068-.112l-.123-.19a3.071 3.071 0 0 0-.02-.028c-.062-.095-.165-.153-.234-.243a6.062 6.062 0 0 0-.006-.043l-.037-.052-.035-.053-.012-.015a3.974 3.974 0 0 0-.054-.075l-.077-.102c-.036-.05-.073-.097-.11-.146-.006-.006-.01-.013-.014-.02l.007.016a4.687 4.687 0 0 0-3.603-2.058h-.002a4.687 4.687 0 0 0-2.088.353l-.006.002c-2.007.841-3.201 3.07-2.762 5.238v.004a4 4 0 0 0 .055.317l.039.162.01.037-.028-.123-.01-.346-.002-.095c.001.226.035.448.069.671v.006l.001.015v.007c.011.067.01.135.023.2 0 .003 0 .006.002.009l.025.125.015.092.014.097.014.084.004.035-.002-.003c.009.09.023.18.037.271l-.002-.047c.004.058.015.116.021.174.008.07.017.14.028.21l.002-.29v-.008l.004-.049c-.014.175.011.349.017.524v.002c.006.177-.008.355.018.53l.003.023.022.142.004.021.002-.12c0 .063.005.127.008.19.009.062.02.123.031.184l-.031-.168c.003.07.003.14.01.21l.006.097c.002.037.006.073.01.11l.015.175c.007.068.017.135.027.201l-.012-.068v.008c.008.144.023.288.043.43l.002-.137c0 .1.014.198.02.297l.004.051.002-.09c-.004.117.009.234.014.35.001.011 0 .022.002.033.004.091 0 .183.01.274l.007.066.012.09-.004-.069.008.12.006.072c-.358.274-.79.629-1.097.843-2.588 1.346-4.398 3.145-5.563 4.135a4.069 4.069 0 0 0-.084.075c-.638.556-1.316 1.217-1.977 1.816-.387-.276-.781-.563-1.166-.836l-.008-.004a4.685 4.685 0 0 0-1.875-.786c-2.029-.364-3.814.91-4.744 2.63-.608-.109-1.221-.218-1.902-.297a.386.386 0 0 1-.02-.004c-.573-.084-1.45-.246-2.58-.288h-.016a66.546 66.546 0 0 0-2.35-.092l-.005.004c-.207-.012-.423-.03-.608-.033h-.003c-.914-.011-1.612.066-1.955.082a4.756 4.756 0 0 0-.133.008l-.072.008a.744.744 0 0 0-.047.004c-.497.03-1.274.047-2.268.187-.474.033-1.434.092-2.608.418-1.35.321-2.371.852-2.773 1.047h-.002c-.062.03-.123.063-.184.096-.02.011-.15.074-.364.184l-.028.013a4.788 4.788 0 0 0-.192.104c.235-.135-.108.03-.542.29a5.076 5.076 0 0 0-.108.067l-.004.002c-.038.025-.286.171-.609.395l-.022.014c-.424.298-.94.709-.486.377l.24-.164c-.45.281-.656.518-.82.681l.146-.117.077-.052.103-.069.291-.172.201-.097L8 113.075l.453.414a3.998 3.998 0 0 0-3.004.58c0 .002-.016.013-.017.014l-.002-.002-.041.04a3.597 3.597 0 0 1-.08.066l-.088.094s-.002 0-.002.002l-.023.02-.006.007-.006.006a5.942 5.942 0 0 1-.252.261s-.56.505-.996 1.16c-.1.13-.21.263-.299.395l-.015.02c-.046.062-.092.131-.143.205-.21.282-.263.437-.389.67l-.027.035s-.002 0-.002.002l-.002.004c-.027.038-.05.102-.076.138l.017-.025c-.02.041-.058.094-.076.13-.164.24-.312.44-.506.915l-.01.027c-.074.185-.256.656-.398 1.197-.116.422-.205.83-.182.735a4.18 4.18 0 0 0-.01.035c-.033.143-.22.762-.128 1.662.085.833.388 1.425.615 1.836.019.037.09.096.111.137-.037.06-.069.107-.111.184-.03.052-.06.164-.09.224a2.64 2.64 0 0 0-.021.051l-.008.027c-.13.263-.27.526-.375.95l-.016.074c-.119.511-.172.576-.135 1.411.01.23.033.418.028.348a4.888 4.888 0 0 0 .045.362c.134.825.692 2.056.379 1.283l.007.021c.148.358.34.695.567 1.006.26.357.403.465.57.623l-.012.059c-.064.359-.101 1.825.255 2.76v.001c.046.123.097.242.154.36a31.358 31.358 0 0 0 1.193 2.223c.015.025.03.05.047.074.454.764.926 1.466 1.398 2.12l.018.023.002.004.021.03.018.023c.367.492.861 1.177 1.486 1.904-1.08 1.106-1.65 2.735-1.416 4.111.322 1.888 2.178 3.736 4.299 3.88l1.31.088c-.014.077-.035.117-.048.195-.524 2.408-.732 4.804-.89 6.896-.393 3.48.415 6.461.673 8.026.016.101.037.203.059.304 0 .004 0 .01.002.014.187.856.332 1.67.484 2.475-1.362.933-2.703 1.877-4.145 2.763l-.002.002c-1.887 1.163-2.62 3.905-1.88 5.729.74 1.824 3.1 3.262 5.261 2.83l.006-.002c1.04-.21 1.913-.453 2.887-.676.415 1.203.814 2.53 1.572 4.201l.006.012c.072.158.151.314.238.467.972 1.719 2.134 3.884 2.293 4.314l-.003-.012a5.976 5.976 0 0 0 .45.96c1 1.703 2.248 3.472 2.62 4.113l-.008-.016c.083.144.172.286.268.424l.01.014c.155.222.834 1.394 1.31 2.238l-.422 1c-.861 2.044.122 4.638 1.72 5.701 1.12.744 2.755.895 4.184.418.206.229.295.337.527.588.082.088.165.176.253.26l.007.006c1.435 1.365 3.068 2.894 4.88 4.326a5.568 5.568 0 0 0 .178.137l.032.025c1.653 1.19 3.142 2.177 4.873 3.324l.012.008c.33.218.686.4 1.057.545.448.175 2.122 1.505 4.916 2.793.149.07.3.133.455.19l.033.013c1.026.363 2.672 1.108 4.457 1.76.649 1.137 1.678 2.042 2.795 2.343 1.208.327 2.673.023 3.846-.748l.015.004.006.002c.152.042.307.077.461.106 2.564.48 4.627.482 6.549.54 1.944.072 4.204.068 6.422-.112l.037.02c.088.001 4.101 1.426 8.574-.13 3.027-.988 4.979-2.282 5.824-2.664.183-.023 2.221.025 5.243-.709v.002c.506-.123.984-.31 1.427-.549-.61.329-.139.09.884-.041.802-.104 2.079-.416 3.349-.795l1.57 2.621.004.006c1.15 1.91 3.777 2.641 5.59 1.996 1.175-.418 2.2-1.555 2.719-2.887.714.82 1.54 1.55 2.566 1.989 5.167 2.211 10.015-.245 14.58-2.645.056-.03.112-.06.166-.092 4.274-2.514 8.934-5.569 12.52-8.344l2.67-2.066a85.689 85.689 0 0 0 5.088 5.91c3.479 3.549 8.802 8.424 14.873 12.115 5.495 3.342 11.794 5.872 19.093 6.846.956 1.093 1.94 2.265 3.568 3.645.013.01.025.022.037.033 2.275 1.88 5.002 3.683 8.473 4.664 3.606 1.02 7.94 1.016 12.478-.695 4.593-1.732 7.64-4.957 10.178-7.285a4 4 0 0 0 .487-.536c2.137-2.826 4.443-5.053 6.9-8 1.814-2.175 4.229-4.565 6.565-7.263.307-.043.3-.052.728-.098 1.254-.111 2.787-.171 3.88-.04 1.077.128 1.463.613 1.095.113 5.329 7.247 13.978 8.601 20.469 5.939 7.666-2.693 11.428-9.72 14.13-15.36 2.935-6.123 4.487-12.85 1.356-18.81-1.01-1.921-2.873-2.84-4.338-3.21-1.464-.371-2.817-.387-4.171-.323l-.063.004c-2.975.189-5.312 1.077-7.082 1.51-.68.166-.851.139-1.455.22-1.404-1.868-2.788-3.744-4.268-5.484-1.985-2.382-4.17-4.703-6.66-6.771-.747-.621-1.593-1.194-2.406-1.782.302-.15.238-.13.554-.287.112-.054.22-.113.327-.177 3.472-2.128 8.323-4.277 12.477-7.399 2.028-1.524 3.873-3.141 5.271-5.168s2.378-4.864 1.554-7.695c-.829-2.853-3.023-4.715-5.341-5.889-2.23-1.128-4.772-1.727-7.465-1.968-1.284-.248-2.528-.336-3.746-.364.147-.726.292-1.455.26-2.246-.053-1.304-.508-2.557-1.157-3.732 7.266-1.665 12.067-5.984 13.518-11.178 1.743-6.24-.173-12.845-5.4-15.996a10.473 10.473 0 0 0-6-1.482c-2.011.117-3.93.8-5.562 1.947-.96.674-1.76 1.55-2.461 2.518-.338-.365-.601-.802-.97-1.134-2.113-1.902-5.07-3.518-8.558-3.076-.934.119-1.812.352-2.633.674 1.386-1.865 2.688-3.444 4.057-5.644 3.025-4.378 4.797-9.61 6.088-12.647.669-1.574 1.246-2.762 1.691-4.072.223-.656.436-1.357.477-2.309.041-.951-.207-2.26-.914-3.287-1.28-1.863-2.99-2.365-4.52-2.682-1.529-.317-3.163-.385-5.101-.328h-.035c-3.32.127-8.794.573-14.108 2.01-2.354.637-4.556 1.546-6.692 2.531.13-.641.178-1.15.315-1.789l.03-.144c.62-3.51 1.49-6.944 1.949-10.187.246-1.744.32-3.462.193-5.07s-.064-3.06-1.703-4.985c-1.668-1.958-3.43-2.144-5.172-2.299-1.695-.15-3.539.03-5.518.488-4.088.592-8.627 2.147-13.076 4.815-2.165 1.298-4.25 2.823-6.218 4.496-.222-1.489-.388-2.688-.635-4.102l-.004-.023c-.724-4.787-1.533-8.12-2.673-11.115-.674-1.773-1.48-3.341-2.728-4.676-.918-.982-2.188-1.663-3.53-2.106a4 4 0 0 0-1.439-.457c-2.868-.326-4.732 1.213-6.191 2.54s-2.827 2.913-4.475 4.745a4.001 4.001 0 0 0-.416.555c-2.116 3.383-6.694 8.547-10.406 14.424-1.853 2.935-3.79 5.747-5.472 8.7-1.146-1.828-2.008-3.534-3.304-5.358l-.002-.004c-2.912-4.105-5.855-7.807-8.95-10.705-1.556-1.457-3.125-2.716-4.852-3.639-.56-.3-1.244-.501-1.899-.729.737-1.104 1.448-2.23 2.024-3.35.68-1.323 1.237-2.58 1.547-4.01.155-.716.273-1.488.13-2.497-.142-1.01-.722-2.443-1.96-3.345l-2.3-1.676c-2.523-1.84-5.688-1.16-7.646-.063-.42.235-.753.57-1.137.846-.07-.087-.109-.192-.181-.277-1.277-1.5-3.337-2.624-5.287-2.788h-.002a7.647 7.647 0 0 0-.658-.027zm-79.535 75.516.33.027-.008-.002a4.009 4.009 0 0 0-.263-.023c-.02 0-.039 0-.059-.002zM42.13 98.517l-.02-.093-.003-.008zm-.134-.644c.006.028-.003.056.004.084v.004l.037.164zm0-.004-.033-.205.004.036c.008.056.018.113.03.169zm2.606 1.162a4 4 0 0 0 .373.815c-.244-.135-.422-.362-.628-.557zm-2.162 2.406.005.04zm.183 1.051c-.026.15-.005.304-.015.456l-.03.02-.006-.192zM2.408 118.251a3.99 3.99 0 0 0-.105.292l-.009.029zm3.3.576.18.163.75-.16c-.014.022-.021.042-.035.063l-.623.182c.064.058.064.06.13.118l-.087.02-.072.04-.016.001a3.993 3.993 0 0 0-.477-.029l-.138.041-.133.09a1.43 1.43 0 0 0-.064.01c-.016.022-.03.044-.045.067l-.682.464-.601.774a4 4 0 0 0-.518 1.147l-.131.384-.002.094-.09.132.036-.193a4 4 0 0 0-.282.623l.272-1.797 1.203-1.475a4.001 4.001 0 0 0-.293.65c.12-.17.293-.42.293-.42l.68-.429c-.196.013-.39.04-.583.08l.03-.037 1.193-.582.106-.021zm-.482.384-.01.015.024-.015h-.014zm.617 1.39-.004.015c-.003 0-.007.003-.01.004-.008 0-.016 0-.025.002.017-.007.023-.012.039-.02zm-2.812 1.953c.031.07.064.14.1.207l-.005.092c-.045.057-.09.111-.136.172a21.12 21.12 0 0 0-.022-.115l.063-.356zm.094.389-.01.32.01.036a3.977 3.977 0 0 0-.08.039L3 123.084l.125-.141zm-.348.123c.027.04.054.081.082.12-.02.03-.042.048-.062.079l-.002-.006-.032.047c-.008.012-.015.017-.023.029l.053-.076-.03-.102.014-.091zm.101.152c.033.05.067.1.102.149-.045.02-.09.042-.135.064-.013-.043-.03-.105-.039-.13l.072-.083zm.198.293c.057.095.118.187.183.276l.084.302-.187-.126-.08-.452zm.861 2.686.086.224.025.026a4 4 0 0 0-.798 2.193l-.114-.433.596-1.971.205-.04zm1.174 1.271.006.006-.01.004.004-.01zm-1.752 1.592a4 4 0 0 0 .258.315c-.035.078-.058.18-.1.286l-.158-.601zm1.549 6.864.054.088.028.038zm2.267 2.95a4 4 0 0 0 .666 1.114c0 .001 0 .003-.002.004l.022.029.025.041.004.008-.007-.006v-.002l-.012-.018c-.003-.003-.003-.006-.006-.01a3.046 3.046 0 0 1-.027-.04l-.002.001-.338-.463c.007.012.194.26.32.43l-.516-.791-.127-.297zm44.374 76.045c.023.007.03.007.054.014l.02.008z"/><path fill="#ffbc01" stroke="#000" stroke-dashoffset="1.323" stroke-linecap="round" stroke-linejoin="round" stroke-miterlimit="10" stroke-opacity=".989" stroke-width="2.537" d="M7.886 6.883c-.15.003-.416-.182-.783-.227-.363-.06-.825-.193-1.373-.253-.554-.084-1.197-.196-1.913-.302-.716-.146-1.505-.415-2.354-.521-.843-.1-1.745-.192-2.692-.283-.955-.094-1.955-.144-2.988-.23a42.24 42.24 0 0 0-3.18-.143c-1.081-.028-2.18-.104-3.284-.013-1.103.058-2.21.151-3.307.251-1.094.016-2.177.27-3.236.442-1.056.2-2.09.325-3.084.6-1 .205-1.962.334-2.872.755-.904.29-1.756.882-2.543 1.391-.224.16-.443.3-.657.442-.216.16-.426.278-.63.437-.206.169-.406.32-.6.493-.191.173-.376.39-.555.555-.17.118-.335.417-.493.594-.155.201-.303.35-.446.572-.147.184-.288.32-.42.601a4.837 4.837 0 0 0-.386.672c-.117.202-.226.387-.328.61-.113.192-.216.476-.31.767-.086.237-.165.278-.235.532-.079.294-.147.535-.203.981-.046.257-.084.7-.115.953a.393.393 0 0 0 .054.24.442.442 0 0 0 .167.178 1.1 1.1 0 0 0 .309.23c.116.081.247.075.389.13.152.057.317.073.489.164.164.048.336.152.51.2.17.062.341.206.512.26.164.06.326.092.484.153.168.051.33.077.483.18.151.042.292.113.42.186.125.091.237.051.33.165.096.084.172.166.225.245.049.082.077.142.08.209.006.14-.014-.065-.054.102-.062.204-.17.462-.314.705-.08.13-.17.19-.267.313-.118.128-.246.35-.382.506-.12.141-.246.323-.375.437-.135.125-.273.365-.412.502-.135.135-.271.208-.404.337-.157.078-.31.335-.453.495-.128.127-.249.332-.359.47-.107.14-.204.284-.287.458-.082.137-.15.342-.203.442-.056.123-.093.165-.107.275-.015.139-.002.137.045.36.032.117.089.196.167.34.075.084.17.153.283.234.116.07.25.136.396.185.146.052.306.013.475.048.174.043.359.045.55.101.184.015.375.058.568.086.193.03.389.058.583.08.195.033.389.1.577.165.184.056.363-.137.534-.107.196.042.382.057.552.177.15.083.288.055.41.14.129.082.24.186.33.328.078.097.141.164.186.278.032.055.041.082.03.17a1.27 1.27 0 0 1-.11.37c-.049.12-.111.28-.184.383-.071.137-.152.207-.24.333-.1.168-.21.27-.326.454-.11.153-.224.308-.34.51-.108.137-.216.2-.323.324-.132.093-.261.121-.383.284-.141.125-.273.49-.385.678-.068.118-.129.336-.181.43-.056.1-.102.218-.137.298a1.095 1.095 0 0 0-.072.275.57.57 0 0 0 .049.277c.554.896 1.153 1.737 1.788 2.602a34.96 34.96 0 0 0 2.045 2.468c.709.766 1.445 1.588 2.198 2.286.74.694 1.497 1.324 2.263 1.986.756.583 1.52 1.005 2.284 1.48.783.475 1.565.903 2.339 1.239.753.333 1.497.36 2.224.622.73.178 1.442.295 2.128.318a7.123 7.123 0 0 0 1.94-.24c.626-.157 1.218-.512 1.768-.877.55-.42 1.056-.806 1.51-1.386.477-.574.897-1.329 1.25-2.197.347-.843.629-1.795.838-2.915.158-.8.318-1.525.481-2.351.165-.852.333-1.637.506-2.459.17-.851.344-1.617.524-2.404.18-.832.368-1.578.563-2.38.195-.804.397-1.613.61-2.415.21-.787.432-1.53.664-2.333.236-.836.483-1.573.744-2.368.258-.78.528-1.495.813-2.26.29-.767.595-1.525.917-2.292.317-.757.651-1.667 1.003-2.405.335-.722.686-1.45 1.055-2.062.398-.74.816-1.381 1.256-2.064.44-.664.901-1.383 1.387-2.053z" style="paint-order:normal" transform="matrix(.67959 .07676 -.078 .6688 28.982 112.64)"/><path fill="#ffbc01" stroke="#000" stroke-dashoffset="1.323" stroke-linecap="round" stroke-linejoin="round" stroke-miterlimit="10" stroke-opacity=".989" stroke-width="4.092" d="M133.75 152.94c-.528 2.078-1.397 3.555-1.716 5.74-.333 2.234-1.027 4.161-1.584 6.443-.51 2.036-1.256 3.952-2.044 5.863-.847 1.717-1.75 2.81-2.836 4.628-1.024 2.025-1.739 4.01-3.41 5.9-1.108 1.692-1.976 3.48-3.491 4.962-1.3 1.515-2.665 2.99-4.032 4.561-1.427 1.46-3.014 2.512-4.53 4.15-1.395 1.47-2.646 2.893-4.546 4.114-1.717.832-3.101 2.56-4.91 3.615-1.673 1.212-3.908 1.806-5.812 2.797-1.895.726-4.04.387-5.887 1.383-1.944.473-3.866.18-5.848.857-1.894.752-3.446 1.941-5.727 2.67-2.045.729-4.427-.177-6.661-.19-1.922.2-4.233.173-6.284.098-2.028-.063-3.667-.065-5.71-.449-2.162-.597-3.36-.492-5.376-1.094-1.86-.512-3.349-1.436-5.354-2.146-1.98-.91-3.383-2.208-5.239-2.932-1.729-1.146-3.144-2.086-4.692-3.2-1.565-1.236-3.084-2.652-4.493-3.992-1.35-1.462-2.23-2.594-3.396-3.78-1.214-1.478-2.338-3.993-3.434-5.559-.683-1.177-1.858-2.819-2.633-4.14-.568-1.533-1.762-3.531-2.7-5.19-.684-1.507-1.112-2.978-1.688-4.55-.326-1.858-.076-3.505-.911-5.522-.432-2.007-.686-3.767-1.182-6.037-.32-1.948-.847-4.485-.635-6.313.16-2.124.37-4.428.8-6.351.339-2.096 1.034-3.907 1.536-5.954.599-2.012 2.109-3.614 2.548-5.589.792-1.943 1.594-3.972 2.573-5.815.943-1.855 1.902-3.788 3.054-5.297a40.495 40.495 0 0 1 3.54-5.025c1.434-1.49 2.551-3.552 4.048-4.813 1.435-1.443 2.975-2.806 4.488-4.126 1.574-1.338 3.343-3 4.976-3.69 1.706-1.16 3.301-2.629 4.912-3.763 1.785-1.26 3.542-2.465 5.497-3.265 1.982-.797 4.215-1.51 5.883-2.23A91.945 91.945 0 0 1 66.82 98c2.37-.31 4.829-.516 6.92-.641 2.297-.202 3.704-.685 5.97-.503 2.175-.068 4.26-.314 6.065-.172 2.064-.217 4.293.538 6.33.942 1.868.293 4.003 1.06 5.8 1.608 1.97.566 3.757 1.254 5.51 2.18 1.733.738 3.652 2.01 5.082 2.671 1.638.56 3.176 1.203 4.7 2.088 1.715.7 3.557 2.154 5.025 3.244 1.426.93 2.531 1.55 3.802 2.71a38.419 38.419 0 0 1 3.978 4.162c1.327 1.482 2.324 2.754 3.291 4.388.834 1.33 1.784 2.917 2.505 4.42.745 1.505 1.214 2.718 1.732 4.273.57 1.67.977 3.36 1.325 5.136.555 1.738-.793 10.09-.755 12.12.06 1.942.085 4.344-.35 6.315z" style="paint-order:stroke fill markers"/><path fill="#fd5" d="M112.05 62.677c.1.363-.18.68-.218 1.055-.038.384-.1.763-.177 1.14a11.33 11.33 0 0 1-.271 1.062c-.107.345-.287.568-.426.902a11.99 11.99 0 0 1-.488 1.047c-.168.314-.332.628-.527.926-.196.3-.406.584-.628.865-.223.283-.474.543-.72.805-.247.262-.47.534-.737.774-.273.244-.508.495-.802.714-.302.225-.653.402-.975.597-.311.188-.69.243-1.017.404-.332.165-.68.173-1.022.316-.36.15-.634.308-1 .441-.38.139-.774.254-1.165.354-.373.096-.755.171-1.136.227a4.885 4.885 0 0 1-1.222.047c-.393-.043-.652.023-1.046-.01-.434-.037-.719-.08-1.147-.161-.424-.08-.758-.176-1.172-.299a11.979 11.979 0 0 1-1.092-.376 13.88 13.88 0 0 1-1.078-.505c-.318-.16-.584-.329-.888-.514-.32-.196-.64-.533-.944-.755a15.02 15.02 0 0 1-.802-.634 15.647 15.647 0 0 1-.818-.757c-.235-.231-.412-.457-.628-.706-.242-.277-.341-.539-.557-.837-.226-.312-.407-.615-.605-.946a12.277 12.277 0 0 1-.506-.952c-.159-.326-.335-.71-.463-1.05-.122-.32-.18-.622-.267-.954-.096-.368.016-.722-.043-1.098-.057-.37-.287-.743-.256-1.127.03-.377.008-.765.045-1.142a11.526 11.526 0 0 1 .412-2.191c.104-.343.231-.679.368-1.01.138-.335.318-.646.488-.966.17-.32.311-.677.51-.98.197-.298.394-.624.617-.903.224-.28.473-.546.723-.803.252-.26.514-.516.79-.752.279-.24.696-.426.995-.638.278-.197.678-.373.97-.548.288-.174.712-.33 1.012-.483.298-.152.6-.295.907-.426.346-.147.718-.268 1.076-.383.36-.115.682-.28 1.051-.36.392-.083.902-.083 1.302-.107.388-.023.717-.073 1.076-.095.397-.024.824.032 1.22.07.38.035.705-.004 1.08.065.404.074.776.143 1.17.255.379.108.77.239 1.137.381.345.134.699.292 1.031.456.33.163.628.297.942.488.33.2.648.414.957.644.295.22.735.462 1.01.707.244.218.473.39.698.628.262.278.678.576.911.88.204.265.391.453.567.738.208.338.381.677.548 1.038.156.34.484.69.606 1.044.115.335.188.641.258.99.075.376.204.765.242 1.147.036.368.195.763.19 1.133-.005.377-.167.765-.066 1.128z" clip-path="url(#b)" style="paint-order:normal" transform="matrix(2.849 0 .35211 2.8284 -247.87 16.835)"/><g fill="#ffbc01"><path stroke="#000" stroke-dashoffset="1.323" stroke-linecap="round" stroke-linejoin="round" stroke-miterlimit="10" stroke-opacity=".989" stroke-width="1.357" d="M36.047 125.58c-1.729-4.028-3.881-8.382-6.08-12.771 3.571 2.531 7.141 5.07 10.61 8.066" style="paint-order:normal"/><path stroke="#000" stroke-dashoffset="1.323" stroke-linecap="round" stroke-linejoin="round" stroke-miterlimit="10" stroke-opacity=".989" stroke-width="2" d="m27.275-3.263-.068-.307.01-.206-.07-.324-.056-.254-.048-.244-.037-.25-.071-.326-.016-.2-.056-.288-.037-.253-.053-.28-.05-.266-.071-.355-.05-.23-.017-.208-.052-.27-.05-.266-.05-.263.025-.264-.067-.39-.027-.159-.052-.267-.009-.238-.063-.316-.053-.26-.058-.28-.06-.266-.053-.295-.049-.223-.054-.257-.062-.337.01-.165-.05-.284-.038-.256-.014-.286-.078-.331-.029-.2-.075-.39-.029-.15-.024-.272-.072-.299-.028-.21-.073-.312-.057-.252-.076-.35-.05-.212-.066-.3-.047-.245-.05-.32-.035-.208-.046-.213.013-.242-.04-.295-.073-.413-.034-.14-.044-.237-.07-.292-.024-.24-.07-.288-.023-.249-.072-.29-.077-.295-.033-.208-.064-.274-.055-.255-.048-.255-.027-.267-.094-.373-.045-.182-.083-.307-.008-.21-.03-.254-.087-.352-.067-.228-.043-.242-.084-.283-.076-.351-.048-.16-.065-.247-.093-.308-.081-.251-.024-.196-.114-.32-.092-.25-.083-.235-.086-.25.182.217.14.133.206.225.237.27.13.072.212.262.172.223.216.249.122.153.212.26.13.167.164.105.206.249.249.262.173.205.148.195.17.215.162.214.155.206.207.231.181.203.186.183.213.209.148.197.155.208.147.196.16.199.196.261.147.198.141.143.196.26.164.221.15.18.184.248.166.225.147.195.186.25.161.22.173.227.135.183.226.232.14.192.144.192.166.227.161.22.166.229.15.203.16.205.158.18.19.26.154.213.154.192.17.234.215.24.132.171.193.264.116.127.247.303.124.174.153.22.159.222.152.217.164.235.148.21.151.08.22.325.136.188.179.266.169.235.126.187.15.206.16.2.159.238.19.26.136.209.156.242.188.231.103.164.15.253.151.24.15.237.174.227" style="paint-order:normal" transform="matrix(.67959 .07676 -.078 .6688 28.982 112.64)"/><path d="m64.866 115.665 2.717-17.14 4.41 16.891"/></g><path d="M53.581-1.48c.035-.858.105-3.068.209-5.149.16-3.207.503-7.302.726-12.219.04-.86.078-1.819.117-2.85 2.114 5.33 4.204 10.562 5.333 13.47.975 2.51 1.752 4.573 2.102 5.488a.929.929 90 0 0 1.735-.665c-.35-.914-1.15-2.968-2.102-5.488-1.461-3.867-4.392-11.898-6.956-18.782a1.145 1.156 35.958 0 0-2.224.365 631.96 631.96 0 0 0-.374 8.367c-.175 4.92-.165 9.028-.264 12.238-.065 2.082-.174 4.29-.209 5.15a.954.954 90 0 0 1.907.076z" style="paint-order:normal" transform="matrix(.67959 .07676 -.078 .6688 28.982 112.64)"/><g fill="#ffbc01" stroke="#000" stroke-dashoffset="1.323" stroke-linecap="round" stroke-linejoin="round" stroke-miterlimit="10" stroke-opacity=".989"><g stroke-width="1.357"><path d="M82.997 108.87c2.093-6.168 4.576-11.87 7.659-16.856-.575 5.493-1.059 9.937-.643 16.715M104.21 108.95c3.285-3.547 6.638-7.007 10.397-9.942l-6.853 12.588M114.94 125.55c4.876-2.17 9.773-4.881 14.606-5.908l-11.864 10.739M126.75 138.6c5.236.784 10.398 2.194 15.558 3.634-4.946 1.191-9.91 2.285-15.102 2.055M123.99 161c3.268 4.285 6.145 7.854 9.637 11.6l-12.632-6.582" style="paint-order:normal"/></g><path stroke-width="1.505" d="M99.619 162.3c3.077 4.286 6.195 8.097 9.19 13.36-4.895-3.18-9.74-6.537-14.898-8.764" style="paint-order:normal"/><g stroke-width="1.357"><path d="M75.276 157.14c1.418 3.595 4.599 6.794 7.36 10.219-1.101-4.258-1.64-9.489-1.983-14.252M56.246 152.76c-.261 4.312-.854 8.587-1.417 12.865 2.414-3.633 4.807-7.276 6.578-11.23M39.582 143.87c-3.112 3.618-6.672 6.785-10.811 9.365 4.842-1.071 9.562-2.617 13.902-5.629M25.642 137.21l-14.608 6.113 16.93 1.151M23.437 163.54c-3.95 3.227-8.159 6.323-12.818 9.188 6.089-1.225 10.924-2.713 15.492-4.256" style="paint-order:normal"/></g></g><g fill="#fd5" stroke="#000" stroke-dashoffset="1.323" stroke-linecap="round" stroke-linejoin="round" stroke-miterlimit="10" stroke-opacity=".989" stroke-width="1.357"><path d="M40.547 162.9c-1.746 3.485-3.415 7.025-6.97 12.483 4.385-2.225 8.63-5.968 11.676-9.393M32.746 183.65c-1.757 3.309-3.7 7.847-5.663 12.51a98.137 98.137 0 0 0 9-9.963M54.954 198.72c-.153 4.63-.496 9.269-.584 13.55 2.673-4.642 4.816-9.726 7.034-14.748M74.777 195.47l3.538 15.677 2.09-15.151" style="paint-order:normal"/></g><path fill="#ffbc01" stroke="#000" stroke-dashoffset="1.323" stroke-linecap="round" stroke-linejoin="round" stroke-miterlimit="10" stroke-opacity=".989" stroke-width="1.357" d="m93.022 198.01 8.349 13.922-2.754-16.633" style="paint-order:normal"/><g fill="#fd5" stroke="#000" stroke-dashoffset="1.323" stroke-linecap="round" stroke-linejoin="round" stroke-miterlimit="10" stroke-opacity=".989" stroke-width="1.357"><path d="m81.798 179.67 7.845 12.883-1.3-14.918M65.799 171.32l1.641 14.365 5.005-14.918M49.936 181.76c.504 4.865-.172 9.598-.542 14.364 2.547-3.868 4.869-8.45 7.057-13.45" style="paint-order:normal"/></g><path fill="#fff" d="M51.077 21.842c.07.574-.104 1.04-.142 1.604-.038.572-.164 1.095-.253 1.665-.086.536-.229 1.05-.383 1.558-.17.48-.367.867-.594 1.351-.202.517-.334 1.023-.685 1.507-.237.457-.42.923-.757 1.336-.287.419-.592.826-.897 1.24-.32.397-.685.73-1.026 1.138-.316.384-.602.755-1.04 1.087-.404.28-.718.68-1.142.974-.39.32-.917.541-1.362.812-.451.227-.98.291-1.419.539-.464.174-.943.22-1.422.394-.483.12-.867.391-1.384.56a8.559 8.559 0 0 1-1.62.39c-.537.086-.949.155-1.449.174-.543.003-.998.004-1.55-.063-.584-.097-.938-.104-1.49-.226-.514-.11-.953-.29-1.505-.454-.553-.192-.98-.45-1.503-.64-.5-.247-.925-.475-1.384-.738-.464-.278-.92-.591-1.349-.903-.42-.325-.73-.61-1.103-.913-.39-.348-.777-.852-1.14-1.228-.274-.318-.664-.713-.956-1.068-.241-.38-.632-.837-.96-1.253-.264-.388-.471-.78-.716-1.194-.198-.458-.254-.889-.565-1.38-.23-.497-.411-.994-.606-1.506-.2-.528-.339-.998-.49-1.52-.144-.513-.335-1.117-.422-1.649-.079-.534-.098-1.025-.118-1.591 0-.563.217-1.063.189-1.618.053-.558.112-1.126.22-1.665.1-.531.21-1.071.373-1.547.142-.522.31-1.013.512-1.492.235-.468.392-1.014.655-1.441.245-.451.52-.887.796-1.312.285-.429.615-.899.934-1.225.328-.393.63-.826.947-1.205.346-.396.689-.78 1.086-1.101.404-.321.872-.626 1.215-.928.431-.292.867-.568 1.281-.825.479-.237 1.123-.41 1.544-.629.415-.227 1.003-.37 1.458-.507.455-.165 1.076-.282 1.518-.401.486-.141.901-.263 1.382-.312.5-.06 1.053-.063 1.651-.062.58-.002 1.125.03 1.668.11.52.054 1.114.184 1.554.267.483.064.948.156 1.418.303.5.106 1.043.356 1.507.555.456.176.843.31 1.278.55.485.268.919.534 1.365.852.47.32.868.616 1.268.987.365.319.762.694 1.111 1.065.355.372.65.705.962 1.108.335.427.633.863.922 1.322.328.444.774.921.968 1.372.291.46.409.786.594 1.301.212.522.6 1.058.72 1.6.238.516.194.917.26 1.465.081.567.077 1.138.073 1.73.081.562-.01 1.118.003 1.68z" style="paint-order:normal" transform="matrix(.68392 .01316 -.078 .6688 28.982 112.64)"/><path fill="#fff" d="M95.341 24.875c.11.954-.202 1.643-.315 2.572-.119.941-.407 1.761-.657 2.69-.233.847-.58 1.635-.96 2.402-.41.699-.875 1.16-1.405 1.852-.5.746-.9 1.463-1.67 2.114-.564.592-1.046 1.205-1.787 1.683-.66.488-1.356.939-2.056 1.39-.728.399-1.531.635-2.295 1.042-.642.342-1.515.6-2.327.845-.81.201-1.693.185-2.544.323a20.66 20.66 0 0 1-2.625-.217c-.883-.16-1.825-.56-2.608-.733-.798-.356-1.65-1.056-2.367-1.306-.525-.341-1.244-.761-1.914-1.22a20.338 20.338 0 0 1-1.908-1.683c-.505-.578-1.13-1.234-1.623-1.899-.496-.677-.805-1.322-1.231-2.097-.435-.871-.47-1.497-.786-2.378-.307-.921-.324-1.729-.547-2.641-.162-.872-.385-1.715-.378-2.61-.024-.936.037-2.241.118-3.157.2-.73.178-1.65.386-2.35.229-.84.541-1.643.857-2.412.462-.77.765-1.85 1.25-2.438.568-.652.969-1.36 1.553-1.93a6.737 6.737 0 0 1 1.945-1.702c.733-.469 1.71-.807 2.445-1.189a65.483 65.483 0 0 0 2.208-.882c.866-.252 2.066-.434 2.898-.576.821-.182 1.414-.174 2.304-.208.853-.092 1.78.08 2.627.226.83.135 1.585.198 2.354.453.869.31 1.796.75 2.508 1.134.721.4 1.76.856 2.407 1.36.6.462 1.126.929 1.638 1.464.603.62 1.068 1.088 1.557 1.812.613.77.927 1.525 1.32 2.428.48.843.568 1.41.806 2.272.266.9.486 1.865.63 2.85.133.738.193 1.838.192 2.716z" style="paint-order:normal" transform="matrix(.68392 .01294 -.078 .6688 28.982 112.64)"/><path d="M46.777 21.872c0 .811-.19 1.533-.342 2.298-.18.731-.29 1.538-.58 2.25-.203.728-.669 1.35-1.084 1.981a16.135 16.135 0 0 1-1.421 1.722c-.532.505-1.075 1.007-1.675 1.43-.602.422-1.216.805-1.889 1.106-.655.318-1.423.492-2.167.65-.74.156-1.433.302-2.211.302-.782 0-1.546-.082-2.285-.239a10.734 10.734 0 0 1-2.109-.673 11.241 11.241 0 0 1-1.95-1.1 11.724 11.724 0 0 1-1.681-1.442c-.511-.533-1.014-1.21-1.424-1.835-.43-.698-.765-1.296-1.045-1.96-.318-.748-.47-1.403-.617-2.145-.15-.754-.262-1.54-.262-2.37 0-.81.083-1.6.234-2.365.154-.762.38-1.498.667-2.201.294-.698.766-1.364 1.172-1.989.521-.597.817-1.275 1.3-1.792.477-.634 1.04-.995 1.618-1.408.61-.424 1.245-.79 1.923-1.087.68-.291 1.464-.491 2.206-.645.733-.151 1.418-.274 2.206-.274.783 0 1.546.076 2.284.232.738.151 1.441.367 2.12.666a9.924 9.924 0 0 1 1.926 1.076c.592.407 1.169.865 1.686 1.409.513.49.98 1.135 1.392 1.781.394.622.748 1.306 1.034 2.016.28.704.49 1.37.642 2.134.153.77.332 1.667.332 2.472z" style="paint-order:normal" transform="matrix(.68392 .01316 -.078 .6688 28.982 112.64)"/><path d="M91.205 24.906c0 .526-.187.972-.248 1.48-.092.476-.064 1.05-.186 1.549-.029.508-.291.933-.467 1.398-.199.434-.401.901-.63 1.341-.246.41-.478.852-.75 1.255-.271.396-.536.795-.847 1.158-.288.379-.674.66-1.026.985-.38.276-.673.648-1.058.93-.343.306-.797.549-1.22.785-.416.232-.821.453-1.265.634-.423.197-.909.337-1.384.46a11.08 11.08 0 0 1-1.437.276c-.492.062-1.029-.003-1.53-.003-.505 0-1.03-.09-1.518-.153-.502-.118-.898-.148-1.353-.263-.437-.12-.944-.272-1.399-.451a11.55 11.55 0 0 1-2.48-1.346c-.378-.27-.62-.566-.972-.885-.236-.33-.74-.81-1.073-1.194-.305-.444-.55-.672-.804-1.03a14.37 14.37 0 0 1-.76-1.212c-.23-.418-.364-.826-.548-1.278-.109-.43-.362-.96-.504-1.459a12.128 12.128 0 0 1-.324-1.465 10.347 10.347 0 0 1-.13-1.562c0-.526.015-1.067.076-1.575.044-.526.143-1.052.26-1.532a8.89 8.89 0 0 1 .411-1.389c.162-.473.366-.914.588-1.347.22-.438.455-.935.726-1.336.246-.47.633-.73.936-1.08.394-.327.653-.673.996-.987a23.6 23.6 0 0 1 1.142-.873c.419-.247.86-.52 1.27-.75.48-.215.77-.477 1.185-.654.414-.242.932-.33 1.405-.453.491-.105.905-.33 1.386-.393.482-.063 1.012.03 1.527.03.505 0 1.063.035 1.552.098.53.063.907.123 1.356.24.457.096.988.307 1.442.49.472.203.832.353 1.236.575.41.216.828.489 1.22.773.382.276.724.488 1.076.816.337.246.7.677 1.03 1.073.292.338.58.701.852 1.124.246.344.516.814.744 1.283.208.39.41.805.582 1.294.167.371.319.957.438 1.492.11.445.203 1.03.263 1.556.06.528.214 1.078.214 1.575z" style="paint-order:normal" transform="matrix(.68392 .01294 -.078 .6688 28.982 112.64)"/><path d="M49.444 41.414c.58-.084 1.605-.258 2.645-.28 1.237-.028 2.497.141 3.723.306l.05.007c1.191.16 2.483.434 3.491.566.813.106 1.683.136 2.081.166a1.513 1.513 90 0 0 .222-3.018c-.342-.025-1.273-.138-2.057-.164-1.043-.035-2.37.033-3.655.109-.018 0-.035.002-.053.003-1.408.086-2.522.264-3.91.418-.978.108-2.283.223-2.767.293a.805.805 90 0 0 .23 1.594z" style="paint-order:normal" transform="matrix(.67959 .07676 -.078 .6688 28.982 112.64)"/><g stroke-dashoffset="1.323" stroke-linecap="round" stroke-linejoin="round" stroke-miterlimit="10" stroke-opacity=".989"><path fill="#fd5" stroke="#000" stroke-width="2.01" d="M-.45 19.25c-4.53-.938-10.465-1.706-16.204-.36M-3.508 26.251c-1.942-1.801-9.15-1.662-13.061-.668" style="paint-order:normal" transform="matrix(.67959 .07676 -.078 .6688 28.982 112.64)"/><path d="M116.66 52.374c-1.384 1.404-2.902 3.272-3.962 5.418-1.148 2.045-1.592 4.527-1.818 6.393-.221 1.83-.226 3.088.796 3.525 1.032.442 2.493-.092 4.052-.912 1.507-.886 3.172-1.98 4.4-2.93l2.133-1.65a29.655 29.655 0 0 0 2.616 3.18c1.208 1.232 3.086 2.94 5.126 4.18 2 1.217 4.226 2.111 6.885 2.375.289.354.852.99 1.54 1.573.744.616 1.535 1.131 2.548 1.418 1.037.293 2.25.306 3.63-.214 1.283-.484 2.27-1.48 3.23-2.36.854-1.13 1.72-1.967 2.552-2.963.863-1.035 1.888-1.962 2.784-3.08 0 0 .355-.062.848-.114.5-.045 1.139-.08 1.72-.01.584.069 1.124.252 1.398.623 1.583 2.154 3.914 2.442 5.756 1.668 2.177-.745 3.385-2.866 4.34-4.86.976-2.035 1.347-3.956.518-5.535-.232-.441-.915-.547-1.738-.508-.813.052-1.572.327-2.321.51a9.7 9.7 0 0 1-1.503.229c-.702-.938-1.357-1.822-2.04-2.624-.684-.82-1.42-1.598-2.235-2.275a16.32 16.32 0 0 0-2.866-1.886s1.067-.595 2.48-1.29c1.385-.848 3.109-1.624 4.424-2.612 1.336-1.004 2.26-2.074 1.959-3.11-.299-1.026-1.746-1.694-3.487-1.83-1.783-.36-3.578.17-5.208.432-1.632.262-3.004.53-3.004.53.512-1.627.987-3.163 1.115-4.75.229-1.526.198-3.176-.319-4.725-.506-1.515-1.66-3.154-2.953-4.541.757-.952 1.749-2.239 2.607-3.625.936-1.346 1.574-3.166 2.082-4.36.507-1.193.832-1.78.596-2.123-.236-.343-.985-.502-2.257-.465-1.13.044-3.05.207-4.805.681-1.707.462-3.296 1.3-4.765 2.22.128-1.024.365-2.36.644-3.66.237-1.34.552-2.597.701-3.653.152-1.072.082-2.161-.216-2.51-.295-.347-1.276-.474-2.498-.182-1.282.175-2.805.69-4.288 1.578a15.952 15.952 0 0 0-4.006 3.446c-.205-1.134-.422-2.907-.672-4.333-.255-1.688-.524-2.777-.894-3.75-.408-1.072-.912-1.624-1.604-1.703-.661-.075-1.42.829-2.633 2.177-.896 1.433-2.525 3.254-3.786 5.25-1.241 1.966-2.482 3.63-3.014 5.484-.636-1.24-1.572-2.765-2.594-4.203-1.028-1.45-2.056-2.73-3.063-3.674-1.01-.946-2.002-1.551-2.605-1.316-.603.234-1.14 1.576-1.75 3.406-.442 1.88-1.166 4.177-1.437 6.558-.271 2.394-.076 4.862.475 6.817-.517.803-1.184 3.143-1.44 6.138-.262 2.986-.162 6.532.945 9.915 1.106 3.379 3.324 6.657 6.881 8.612z" style="paint-order:stroke fill markers" transform="translate(-197.33 25.54) scale(2.7502)"/></g><g fill="#fff" stroke-dashoffset="1.323" stroke-linecap="round" stroke-linejoin="round" stroke-miterlimit="10" stroke-opacity=".989"><g stroke-width="2"><path d="M117.2 32.86c.187.037 1.607-.624 2.577-.805a37.801 37.801 0 0 1 3.948-.52 35.805 35.805 0 0 1 4.395-.086c1.487.065 2.953.235 4.387.58.807.193.349 1.646.364 2.475.016.811.22 1.64.09 2.442-.119.732-.201 1.513-.522 2.182-.277.578-.652.884-1.002 1.308-.688.835-1.737 1.343-2.739 1.754-1.395.57-2.874.948-4.381.988-1.572.041-3.2-.28-4.513-1.146-1.345-.885-2.64-2.944-3.105-4.788a5.532 5.532 0 0 1-.156-1.375c.005-.475-.007-1.1.056-1.571.046-.346.12-.684.213-1.02.081-.296.201-.455.388-.418zM136.42 32.563c.004.007.49-.372.763-.482.267-.107.536-.21.808-.304.273-.093.549-.178.826-.257.275-.078.533-.307.812-.372.274-.063.552-.114.83-.163.28-.049.57-.08.852-.116.281-.034.563-.074.845-.097.283-.023.561-.058.845-.07.286-.013.584.009.87.006.281-.004.579.02.86.023.28.002.547-.04.827-.037.292.004.564-.15.855-.137.303.013.6-.124.897-.068.285.054.571.305.854.223.022-.006.014.034.024.054l.077.151c.037.072.095.174.132.246.042.084.13.215.172.3.047.095.142.214.187.311.056.12.138.25.19.373.061.144.136.316.191.463.06.154.109.275.16.432.063.187.136.383.19.574.05.182.093.194.134.379.055.248.09.473.125.725.029.208.035.338.053.546.02.227.054.473.065.7.011.214 0 .405.004.607.005.276.008.582-.077.845-.09.279-.224.505-.377.754a4.75 4.75 0 0 1-.591.752c-.227.242-.47.478-.734.68-.274.212-.537.458-.84.628a7.787 7.787 0 0 1-.993.444 8.29 8.29 0 0 1-1.075.327 8.25 8.25 0 0 1-1.127.184c-.382.038-.77.017-1.154-.002a7.42 7.42 0 0 1-1.148-.142 6.633 6.633 0 0 1-1.13-.319c-.386-.154-.773-.41-1.121-.637-.35-.228-.69-.53-.996-.814-.328-.304-.682-.686-.928-1.098-.073-.122-.104-.195-.17-.322-.082-.156-.131-.295-.195-.46-.064-.166-.083-.28-.134-.45a12.585 12.585 0 0 1-.269-1.093c-.038-.184-.062-.343-.094-.528-.032-.187-.043-.338-.07-.525-.027-.182-.033-.321-.057-.504-.022-.171-.045-.413-.065-.585-.014-.116-.018-.217-.032-.334l-.06-.49c-.006-.048-.02-.129-.026-.177-.005-.047-.004-.086-.007-.133-.004-.056.019-.018.023-.01zM137.66 67.002c.115.203.292.107.612-.07.278-.235.856-.474 1.327-.87.585-.363.936-.892 1.474-1.351.53-.527 1.128-.988 1.73-1.384a5.281 5.281 0 0 1 1.824-.869c.588-.151 1.192-.13 1.704.088.316.133.608.3.916.623.277.27.68.8.905 1.335.276.527.345 1.078.376 1.727a7.475 7.475 0 0 1-.225 2.256c-.133.51.08.538.47.29.393-.246.961-.769 1.545-1.355.59-.585 1.137-1.364 1.59-1.868.454-.504.77-.81.77-.81.5-.081 1.092-.088 1.647-.052.605.04 1.102.12 1.663.22.58.103 1.171.229 1.774.35.37-.326.616-.681.774-1.064.158-.383.416-.783.482-1.189 0 0-.09-.246-.216-.42-.135-.304-.258-.363-.463-.624a22.861 22.861 0 0 0-.898-1.094c-.344-.402-.644-.81-1.095-1.28-.358-.442-.995-1.014-1.564-1.525a22.459 22.459 0 0 0-1.72-1.427 20.303 20.303 0 0 0-1.95-1.335 14.504 14.504 0 0 0-2.115-1.095c-.747-.336-1.478-.624-2.24-.791-.782-.247-1.573-.256-2.374-.235-.8.021-1.607.146-2.434.35-1.009.25-1.87.5-2.565.938-.74.345-1.16 1.034-1.595 1.635-.304.624-.703 1.25-.917 1.917-.179.67-.275 1.357-.331 2.029-.004.707.064 1.347.11 1.989.16.662.084 1.202.18 1.773.059.538.266 1.186.386 1.659.154.463.177.65.253.911.077.27.178.596.19.618z" style="paint-order:stroke fill markers" transform="translate(-197.33 25.54) scale(2.7502)"/></g><path d="M200.39 164.95c7.926-3.752 13.234-8.714 18.28-13.972 0 0-1.417 4.592-6.947 8.682-5.53 4.09-11.333 5.29-11.333 5.29z" style="paint-order:stroke fill markers"/></g><ellipse cx="153.57" cy="113.83" rx="4.954" ry="5.034" style="paint-order:stroke fill markers"/><ellipse cx="200.49" cy="111.36" rx="4.954" ry="5.034" style="paint-order:stroke fill markers"/><g fill="#ff0"><path d="M162.48 153.66c.66.648 9.018-7.417 14.597-9.124 3.241-.992 9.922 1.098 10.157.508.339-.852-2.239-8.16-11.331-7.283-9.092.877-14.249 15.089-13.423 15.899z" style="paint-order:stroke fill markers"/><path d="M164.8 159.28c-.35-1.938 11.195-11.067 14.65-11.615 3.456-.547 12.65 3.72 12.998 6.5.318 2.544-27.118 8.05-27.648 5.115zM187.79 225.97c-1.48-2.27-2.642-9.867 1.599-15.78 5.06-6.32 12.047-11.111 13.316-10.677 8.555 2.928 7.015 17.913-1.274 27.84-2.96 3.545-10.65 3.2-13.64-1.383zM239.04 208.83c.9 3.628 6.917 4.309 10.161 2.93 8.678-3.686 16.649-18.612 13.223-25.003-.58-1.084-6.727-.605-11.919 2.82-2.583 1.703-3.013 5.75-4.922 8.426-3.323 4.66-7.148 8.388-6.543 10.827z" style="paint-order:stroke fill markers"/></g><path fill="#fff" d="M187.4 149.39s7.173.774 9.173.86c2 .085 1.588-.008 2.772.097 1.183.105 2.84.363 4.244.51 1.403.147 2.548.142 4.174.263 1.627.121 5.604.703 5.604.703-.756-1.568-2.193-3.415 0-6.234 0 0-3.796-.322-5.672-.348-1.876-.027-3.615.182-5.573.184-1.958.002-4.581-.13-6.088-.095a83.667 83.667 0 0 0-2.946.127l-5.743-.037z" style="paint-order:normal"/><path fill="#ffd42a" d="M187.34 145.42c-1.268 1.561-.821 2.806.056 3.971l5.61.496c-.399-1.51-.713-3.013 0-4.423z" style="paint-order:normal"/><path fill="#f55" d="M215.25 148.7c0 .926-.323 1.539-.712 2.11-.334.49-.697 1.007-1.18 1.007-.702 0-1.122-.887-1.448-1.825-.158-.455-.443-.73-.443-1.292 0-.797-.014-1.777.284-2.329.347-.638 1.047-.788 1.607-.788.546 0 .807.528 1.153 1.137.316.557.739 1.157.739 1.98z"/><g fill="none" stroke="#e6e6e6" stroke-dashoffset="1.323" stroke-linecap="round" stroke-linejoin="round" stroke-miterlimit="10" stroke-opacity=".989" stroke-width="2.044"><path d="M216.13 133.53s-2.094-11.916 13.447-17.105c11.835-3.952 3.636-18.46-2.573-17.673-5.211.66-9.227 9.06-3.617 10.722 5.61 1.662 6.557-3.648 2.954-4.43" style="paint-order:normal" transform="translate(2.938 12.64) scale(.97846)"/><path d="M218.62 130.77s1.438-11.882 17.816-12.317c18.406-.49 16.708-15.909 11.348-19.141-4.05-2.442-9.668.945-8.769 6.727 1.184 7.612 10.21 2.322 6.314-1.306" style="paint-order:normal" transform="translate(2.938 12.64) scale(.97846)"/><path d="M222.2 128.03s3.67-6.993 10.876-5.61c7.206 1.382 5.807 6.965 2.005 9.378-3.38 2.145-8.11-2.078-5.437-5.095" style="paint-order:normal" transform="translate(2.938 12.64) scale(.97846)"/></g><g stroke-dashoffset="1.323" stroke-linecap="round" stroke-linejoin="round" stroke-miterlimit="10" stroke-opacity=".989"><path fill="#ffbc01" stroke="#000" stroke-width="1.368" d="M108.84 189.55c5.844 1.76 10.447 2.333 15.512 3.348-4.578-3.238-9.965-6.34-14.241-10.28M100.05 126.91l11.825-10.59-16.403 4.352" style="paint-order:normal"/><path fill="#2ad4ff" stroke="#fff" stroke-width="3.066" d="M124.37 84.909c.037-.68-.32-1.237-.467-1.536-.121-.26-.37-.423-.546-.429-.24-.024-.58.14-.933.47-.35.283-.73.64-1.14 1.193-.352.555-.57 1.225-1.102 1.978-.37.738-.624 1.579-1.084 2.453-.38.874-.751 1.812-1.077 2.806-.348.978-.722 1.958-1.003 3.023-.236 1.046-.374 2.11-.692 3.15-.26.99-.32 2.076-.482 3.067-.082 1.003-.331 1.914-.377 2.824-.099.88-.196 1.642-.104 2.449a8.48 8.48 0 0 0 .51 2.136c.366.563.55 1.065.778 1.52.317.463.581.855.922 1.22.421.37.709.682 1.094.957.39.275.926.525 1.305.702.338.138 1.035.332 1.406.427.433.098.972.14 1.31.19.339.028.854 0 1.194.018.395-.04.88-.089 1.28-.186a6.078 6.078 0 0 0 1.22-.522c.398-.265.93-.542 1.312-.874.377-.317.688-.785.978-1.19.32-.387.523-.852.764-1.25.195-.467.81-.88.927-1.439.235-.563.614-1.1.68-1.666.192-.565.241-1.13.146-1.708.037-.563.38-1.12.262-1.697-.061-.602-.28-1.25-.492-1.87-.184-.559-.43-1.14-.65-1.686-.257-.566-.44-1.106-.75-1.679-.28-.572-.277-1.105-.711-1.691-.316-.603-.68-1.226-1.01-1.842-.308-.574-.643-1.168-.917-1.728a28.876 28.876 0 0 1-.874-1.788c-.19-.598-.535-1.275-.726-1.88-.163-.627-.362-1.265-.539-1.915-.162-.65-.342-1.324-.412-2.007z" style="paint-order:stroke fill markers" transform="translate(2.938 12.64) scale(.97846)"/></g><g fill="red"><path d="M89.48 87.731c-4.883-3.152-5.905-3.994-7.801-6.423-2.283-2.926-3.48-5.896-3.305-8.209.146-1.939 2.245-4.381 4.381-5.097 2.588-.867 5.083.363 8.866 4.37.29.308.352.213.605-.944 1.026-4.691 3.634-7.862 6.68-8.12 1.365-.115 3.233.308 3.789.858 1.899 1.88 1.491 10.926-.786 17.426-.628 1.793-3.847 10.482-4.434 10.21-3.004-1.392-6.211-2.897-7.995-4.07zM82.106 58.694c-1.148-1.579-1.996-3.74-1.838-4.95.132-1.014 1.304-2.237 2.446-2.552 1.384-.382 2.66.335 4.532 2.547.145.17.18.122.345-.478.673-2.435 2.133-4.026 3.74-4.075.72-.022 1.69.254 1.966.558.944 1.042 1.144 6.176-.237 9.525-.18.437-.86 1.58-1.557 2.647-.776 1.187-1.576 2.28-1.734 2.196-1.204-.799-2.554-1.477-3.84-2.236-1.459-.86-2.836-1.824-3.823-3.182zM102.12 55.743c-2.371-3.538-4.419-5.966-4.99-8.15-.687-2.632-.935-5.176-.146-6.681.66-1.263 2.782-2.297 4.427-2.16 1.993.168 3.315 1.72 4.698 5.514.106.292.175.245.68-.46 2.053-2.859 5.042-4.844 6.853-3.525l2.3 1.676c1.582 1.154-2.167 7.785-5.585 11.498-.943 1.025-5.63 5.938-5.947 5.584z" style="paint-order:stroke fill markers"/></g></svg>