<svg xmlns="http://www.w3.org/2000/svg" viewBox="0 0 1024 1024"><path fill="#fff" d="M558.97 80.949c-.519-.01-1.038.011-1.557.02-3.998.179-7.911 1.407-11.383 3.382-5.518-1.174-11.573-.644-16.447 2.352-.681.615-1.606.131-2.42.15-.933-.092-1.915-.191-2.732-.25-1.517-.114-2.836-.188-4.365-.162-5.074.052-10.168 1.586-14.271 4.608a290.63 290.63 0 0 0-4.691-.596 55.697 55.697 0 0 0-3.534-.287c-5.053-.33-10.19.898-14.518 3.535-2.2 1.285-4.17 2.918-6.025 4.656-4.074-.747-8.365-.63-12.27.84-.974.366-1.922.802-2.82 1.326-.29.171-.902.546-1.297.832-2.909 2.05-5.198 4.831-7.205 7.739-4.78 1.17-9.025 3.9-12.586 7.234-2.76 2.486-5.006 5.454-7.424 8.254-.854.887-1.59 1.975-2.797 2.396-4.728 2.465-8.128 6.736-11.215 10.961-.316.444-.828 1.155-1.156 1.633-6.686 9.61-12.571 19.83-16.98 30.69-.84 2.184-1.499 4.54-1.957 6.73-.836 4.133-1.108 8.352-1.557 12.539-1.338 14.49-1.923 28.986-2.46 43.53-.521 14.45-.85 28.91-1.725 43.343-.198 2.792-.577 5.57-.877 8.357-3.297-2.404-7.297-3.87-11.39-3.748-1.005.027-2.01.028-3.015.04-.062-19.29-.064-38.586-.367-57.872-.645-5.172-4.767-9.503-9.69-10.955-3.736-1.821-7.962-2.616-12.104-2.24l-33.584.012c-4.543 2.27-9.085 4.544-13.629 6.814-1.79-2.2-4.31-3.675-6.957-4.605-3.818-1.87-8.144-2.583-12.369-2.243-10.908.07-21.819-.055-32.725.147-.67-.029-1.168-.669-1.76-.942-4.219-2.475-9.17-3.37-14.013-3.357-19.711-.944-39.425-1.892-59.152-2.398-4.595.077-9.04 2.207-12.197 5.507-10.39-5.934-22.224-9.68-34.271-9.396-10.816-.005-21.343 3.916-30.281 9.848a97.212 97.212 0 0 0-7.8 5.757c-2.352-3.692-6.03-6.495-10.228-7.752-3.12-1-6.436-1.126-9.68-.904-10.598.01-21.195.02-31.793.027l-14.004 7.043-.113 4.041c-2.558 1.184-5.04 2.562-7.25 4.323-1.095 2.985-.684 6.194-.883 9.299-.439 12.108-.386 24.234.22 36.336.987 25.27 1.12 50.615 1.212 75.926.669.305.344.82.2 1.357-.362 1.851-.028 3.746-.097 5.617.224 20.5.733 40.998.733 61.5.029 8.83-.194 17.657-.186 26.486.026 6.127.402 12.26.955 18.342.86 10.622 1.755 21.256 3.383 31.791 1.398 6.034 6.385 10.794 12.119 12.822 4.38 1.547 9.094 1.36 13.668 1.553 6.34.112 12.69.014 19.02-.402 5.815-.516 11.616-2.405 16.225-6.069 1.955-1.448 3.813-3.02 5.658-4.603.115-.567.004-1.264.176-1.762 3.867-2.76 7.102-6.854 7.674-11.691.648-4.575.049-9.199.21-13.795-.036-6.501-.331-13.007-.025-19.506 3.03-1.226 5.917-2.79 8.752-4.412a77.716 77.716 0 0 0 8.188-5.488c1.023 10.073 4.468 19.837 9.572 28.555 3.624 6.241 8.441 11.717 13.84 16.48 5.621 5.1 11.77 9.646 18.471 13.23a91.197 91.197 0 0 0 8.02 3.853c-5.356 19.271-10.888 38.493-16.057 57.814-3.877 14.693-7.338 29.493-10.652 44.32-.858 2.283.434 5.25 2.906 5.787.647.072 1.298.131.445.62-2.953 2.514-5.688 5.271-8.303 8.132-.362.539-.419-.502-.642-.734-3.103-6.984-7.707-13.401-13.844-18.025-5.471-4.198-12.098-6.879-18.967-7.563-6.044-.66-12.13-.215-18.191-.21-19.632.341-39.251 1.571-58.764 3.77-3.249.813-5.405 4.355-4.82 7.618-2.675.196-5.341.51-8.014.738.347 30.327 1.23 60.656.687 90.986a231.23 231.23 0 0 0 1.053 25.24c.82 10.071 1.744 20.144 3.187 30.146 1.068 5.188 4.916 9.478 9.497 11.945 3.227 1.75 6.91 2.5 10.56 2.537 1.576.113 3.154.166 4.733.223-4.988 17.709-9.954 35.426-14.93 53.131a1373.136 1373.136 0 0 0-17.395 69.939c-.732 2.128.216 4.865 2.44 5.639 1.317.503 2.762.318 4.13.586 16.328 1.838 32.722 3.474 49.174 3.314 5.698-.012 11.396-.03 17.094-.043l.385-2.664c4.308.417 8.642.133 12.961.215 8.188 0 16.421-.343 24.465-1.98 4.347-.78 8.68-1.664 13.035-2.378 1.643-.46 2.968-1.913 3.24-3.601a48.921 48.921 0 0 0 12.531 6.535c10.338 3.726 21.518 4.336 32.398 3.504.307.47.53.99.868 1.44-1.38 8.429-3.663 16.67-5.456 25.015-.202.975-.48 2.262-.666 3.227a2518.37 2518.37 0 0 1-4.07 20.543h706.81l-.996-26.355c3.844-2.065 7.417-4.912 9.545-8.791 2.679-4.908 3.137-10.57 3.082-16.088 1.212-.562 2.412-1.177 3.47-1.973a21.876 21.876 0 0 0 4.264-4.152c11.655 5.308 24.537 7.98 37.35 7.535 10.062-.252 20.2-2.125 29.326-6.484 8.197-3.818 15.541-9.402 21.512-16.184 3.562-3.496 7.377-6.828 10.088-11.068 5.9-8.42 9.042-18.635 9.332-28.885.449-9-.733-18.283-4.81-26.412-1.915-3.918-4.338-7.58-7.131-10.926 4.766-8.73 7.374-18.77 6.709-28.738-.143-1.728-.48-3.48-1.45-4.95-1.378-2.382-3.105-4.567-5.04-6.519-3.288-3.04-7.255-5.194-11.088-7.453-11.547-6.398-24.916-9.893-38.146-8.729-8.77.744-17.26 3.792-24.732 8.399a82.252 82.252 0 0 0-13.74 10.342l-.317-4.506c-4.496-2.64-8.797-5.974-14.023-7.008-4.237-.655-8.533-.835-12.812-1.05-3.045-.14-6.091-.235-9.136-.376-.423-1.344-.744-2.708-1.19-4.054-3.253-9.72-6.894-19.401-11.506-28.623-3.95-7.921-8.54-15.532-13.852-22.617a165.317 165.317 0 0 0-12.375-14.54c-5.932-6.23-12.328-12.049-18.904-17.516-23.996-19.857-50.642-36.02-76.639-53.029a17585.153 17585.153 0 0 1-82.355-54.428c4.116-14.8 8.846-29.425 14.012-43.89 1.969-5.422 4.212-10.739 6.278-16.122 3.424-9.912 4.257-20.489 5.14-30.824 1.135-14.425 1.804-28.907 3.22-43.33 1.153-12.294 2.55-24.65 4.538-36.793.643-3.98 1.19-7.976 1.553-11.992.095-1.146.204-2.548.273-3.794.413-7.002.001-14.055-1.383-20.936-.591-3.51-1.373-7.049-1.176-10.627.405-3.414 2.212-6.446 2.936-9.784 2.32-10.196 2.532-20.769 2.543-31.209-.11-9.923-.741-20.036-2.89-29.824-.915-3.848-2.43-7.62-4.915-10.732-1.859-8.045-2.422-16.312-3.011-24.525-1.089-16.572-.963-33.19-.891-49.789-.008-4.923-.07-9.815-.318-14.693a164.142 164.142 0 0 0-.493-6.935c-.21-2.36-.51-4.842-.845-7.264a119.278 119.278 0 0 0-1.022-6.031c-1.57-8.019-4.129-15.955-8.568-22.871-3.467-5.475-7.938-10.363-13.258-14.084-2.986-1.985-6.408-3.568-10.047-3.656-1.351-.086-2.568-.697-3.686-1.412-4.068-2.289-8.265-4.51-12.873-5.477a25.404 25.404 0 0 0-8.105-.566c-2.92-1.468-6.052-2.465-9.239-3.16a61.683 61.683 0 0 0-2.863-.569c-2.92-.462-5.831-1.095-8.79-1.228-2.222-.086-4.438.222-6.624.542-2.283-.244-4.455-1.037-6.695-1.505-4.533-1.126-9.333-2.016-13.953-.85-1.27.302-2.466-.261-3.623-.693-3.936-1.405-8.096-2.116-12.264-2.31-.36-.004-1.16-.041-1.69-.034z" style="paint-order:stroke fill markers"/><g stroke-width="8.935"><path fill="#f1a783" d="M532.31 166.81c-2.587-.088-4.993.352-7.082.371-2.715.024-4.963 1.528-6.644 1.51-4.049-.043-7.052.732-10.8.028-21.65-4.075-24.603 3.245-30.838 7.377-3.765 2.495-8.971 5.715-11.566 7.156-2.594 1.44-8.068 10.744-12.166 20.672-6.867 16.637-7.514 20.551-8.273 49.98-.453 17.561-.529 31.926-.17 31.926s5.943-3.953 12.41-8.781c6.543-4.885 11.756-10.674 11.756-13.057 0-2.421 2.638-5.285 6.067-6.588 7.851-2.986 75.672-3.011 81.242-.03 2.343 1.254 4.9 5.472 5.68 9.366 1.346 6.734 1.76 6.957 8.581 4.58 4.945-1.724 9.333-1.746 14.13-.075 6.674 2.327 6.984 2.12 7.683-5.037 1.112-11.389 7.674-13.4 43.867-13.44l31.322-.032-.027-19.504c-.036-23.13-3.9-39.05-13.209-54.37-5.987-9.855-7.84-11.258-15.117-11.429-7.15-.168-15.54 1.312-25.486 1.553-3.91.094-8.494-1.22-12.684-1.063-4.402.165-9.16 1.687-13.717 1.588-3.91-.085-7.817-1.313-11.76-1.598-4.686-.338-9.61 2.276-14.197 1.262-5.563-1.23-10.792-1.073-15.795-.49-3.721.434-7.269-.906-10.564-1.574a15.958 15.958 0 0 0-2.637-.301zm69.008 95.381.054 20.686c.062 23.155 2.78 38.121 7.457 41.086 3.58 2.27 49.295 2.785 54.939.62h.004c3.141-1.207 3.736-6.301 3.736-31.913v-30.479h-33.096zm-85.785 1.375c-18.673.109-35.204.975-36.73 1.918-3.861 2.386-3.636 45.686.277 53.441 1.965 3.894 5.787 6.457 11.197 7.518 9.834 1.927 46.658.773 52.621-1.649 7.673-3.117 11.146-13.963 11.107-34.71-.018-10.792-1.046-21.215-2.28-23.165-1.832-2.899-8.433-3.515-36.192-3.353zm60.299 17.402c-8.807.269-12.238 6.487-13.426 21.193-2.22 27.496-10.826 33.307-49.307 33.307-26.394 0-38.174-2.686-41.846-9.547-1.273-2.378-2.316-13.435-2.316-24.572 0-11.137-.799-20.18-1.774-20.094-.975.087-6.56 3.626-12.41 7.863-8.246 5.973-10.805 9.425-11.387 15.346-1.075 10.937-5.989 11.417-17.352 1.692-10.693-9.153-13.653-10.083-18.066-5.67-4.875 4.875-2.903 21.189 5.088 42.074 7.666 20.035 7.712 20.095 15.838 19.72 7.819-.36 7.956-.225 3.42 3.339-4.725 3.712-4.721 3.736.348 44.78 2.789 22.588 6.748 51.405 8.798 64.036 3.746 23.07 10.947 74.59 10.947 78.31 0 2.7 20.251 11.232 34.504 14.536 54.667 12.674 99.314 14.4 124.28 4.81 18.874-7.25 24.465-12.378 27.86-25.547 3.603-13.984 17.425-55.686 22.165-66.873 2.232-5.267 4.109-21.159 5.163-43.734.91-19.503 3.137-43.438 4.949-53.189 5.155-27.748 3.227-51.788-4.008-49.998-8.538 2.113-57.658.072-63.322-2.63-7.027-3.353-11.604-16.85-11.922-35.15-.16-9.28-1.008-11.171-5.514-12.38-4.246-1.137-7.775-1.71-10.71-1.62zm-366.4 613.29c-3.228-.135-5.108 5.45-11.191 29.551-.322 1.277-.622 3.753-.941 5.289h120c-.412-5.225-.827-12.377-1.141-15.041l-1.326-11.229-26.373-.071c-24.951-.072-69.061-4.692-77.55-8.126-.532-.215-1.02-.35-1.482-.369zm622.25 1.95c-16.211-.133-34.094 1.453-50.109 4.552l-12.41 2.4-.176 25.937h97.227l-.129-30.508-18.88-1.671c-4.902-.435-10.119-.668-15.522-.712z"/><path fill="#f2f2f2" d="M446.51 557.52c-4.889.669-9.941 4.608-20.633 12.566-10.772 8.019-28.597 19.787-39.611 26.152-36.376 21.021-109.21 71.104-117.95 81.106-11.69 13.377-26.951 23.016-37.641 47.854-10.399 24.162-16.849 48.901-23.824 91.379-2.744 16.712-6.776 43.779-8.61 49.82-1.833 6.042-.723 10.436-.738 12.135-.078 9.442 47.29 20.389 91.768 19.146l27.18-.76 4.9-31.913c2.695-17.552 6.237-37.763 7.872-44.914 9.096-39.79 10.649-45.613 11.492-43.084.509 1.526-2.878 22.217-7.525 45.978-10.611 54.256-12.57 73.722-10.723 106.12h441.82c-1.113-41.651-6.316-73.224-19.006-118.95-3.964-14.28-6.67-26.496-6.016-27.15.655-.655 3.456 6.623 6.227 16.174 2.77 9.55 6.515 22.153 8.32 28.004 1.805 5.85 5.01 20.744 7.123 33.096l5.2 30.387c1.34 7.83 1.478 7.907 11.054 6.302 23.152-3.88 55.4-5.406 75.137-3.554 11.72 1.099 21.913 2.604 22.652 3.343.74.74.106 1.344-1.412 1.344-1.517 0-2.76 1.065-2.76 2.365 0 3.783 4.085 2.728 5.696-1.47.81-2.11-.158-19.397-2.147-38.416-1.99-19.02-4.634-44.714-5.877-57.102-3.119-31.083-12.627-65.888-23.936-87.625-14.326-27.537-27.152-39.14-95.777-86.643-3.736-2.587-16.369-10.875-28.07-18.42-27.537-17.754-62.037-40.737-70.426-46.912-5.46-4.02-7.294-4.348-10.637-1.906-9.97 7.282-34.304 16.982-49.045 19.549-9.477 1.65-23.992 2.2-35.223 1.337-26.455-2.033-78.098-12.618-89.203-18.283-10.04-5.122-14.766-7.723-19.654-7.054z"/><path fill="#fff" d="M529.36 305.61c7.539-4.94 8.541-9.216 3.276-13.981-3.605-3.262-7.05-3.804-16.837-2.644-12.966 1.535-17.626 4.513-18.905 12.08-1.723 10.192 19.346 13.142 32.466 4.545zm134.41 18.973h-.003zm-10.47-16.264c1.605-1.933 2.292-6.006 1.528-9.051-1.091-4.348-4.317-6.36-15.039-9.374-13.462-3.785-13.705-3.766-17.73 1.368-5.179 6.607-4.464 8.703 5.204 15.253 8.982 6.086 21.749 6.97 26.037 1.804z"/><path d="M557.69 94.982c-2.058.182-3.662.758-4.832 1.728-1.954 1.622-6.04 2.257-9.285 1.442-3.28-.823-6.504-.308-7.428 1.187-.974 1.577-5.289 2.153-10.69 1.428-6.104-.818-9.949-.14-11.79 2.078-1.923 2.318-5.479 2.853-12.012 1.809-7.625-1.22-10.293-.532-14.959 3.851-4.137 3.888-7.3 4.928-11.648 3.836-4.699-1.179-6.795-.234-9.857 4.44-2.14 3.265-5.842 5.937-8.227 5.937-2.385 0-7.175 3.723-10.646 8.274s-7.513 8.332-8.984 8.404c-3.89.191-20.463 26.863-23.883 38.434-1.686 5.703-3.553 32.24-4.408 62.625-1.169 41.514-2.247 53.818-5.073 57.852-1.973 2.818-3.578 8.345-3.564 12.281.032 9.601 15.368 53.056 19.926 56.459 2.644 1.975 4.905 13.864 8.37 44.025 2.613 22.726 7.319 57.298 10.458 76.828 3.14 19.53 6.328 41.486 7.088 48.791l1.38 13.281-10.01 6.813c-5.505 3.746-17.276 11.092-25.022 17.268-7.747 6.175-14.934 10.246-15.793 10.627-5.677 2.517-111.64 71.607-126.09 85.027-17.393 16.16-42.34 43.715-52.873 77.113-3.423 10.852-8.982 35.85-12.354 55.553-3.372 19.702-8.431 52.165-10.894 61.81-4.142 16.218.401 18.484 3.957 22.413 3.565 3.94 3.314 6.443-3.467 34.469-.584 2.412-.992 5.465-1.537 8.03h3.75c.32-1.536.619-4.013.941-5.29 6.953-27.543 8.41-30.903 12.67-29.18 8.488 3.433 52.601 8.055 77.553 8.127l26.373.071 1.324 11.23c.315 2.664.73 9.816 1.141 15.042h5.164c-1.848-32.394.112-51.859 10.723-106.12 4.647-23.76 8.034-44.453 7.526-45.978-.844-2.53-2.397 3.294-11.492 43.084-1.635 7.151-5.177 27.362-7.872 44.914l-4.9 31.914-27.18.76c-44.478 1.242-91.846-9.705-91.768-19.146.014-1.699-1.095-6.093.738-12.135 1.834-6.042 5.865-33.11 8.61-49.82 6.975-42.477 13.426-67.217 23.824-91.38 10.689-24.837 25.95-34.475 37.64-47.853 8.74-10.001 81.576-60.084 117.95-81.106 11.015-6.365 28.84-18.134 39.612-26.152 21.383-15.917 20.207-15.756 40.287-5.512 11.105 5.665 62.748 16.25 89.203 18.283 11.23.863 25.746.312 35.223-1.338 14.74-2.567 39.075-12.266 49.045-19.549 3.342-2.441 5.175-2.114 10.637 1.906 8.388 6.176 42.889 29.158 70.426 46.912 11.702 7.545 24.334 15.834 28.07 18.42 68.625 47.503 81.45 59.105 95.777 86.643 11.309 21.737 20.816 56.542 23.936 87.625 1.243 12.387 3.887 38.083 5.876 57.102 1.99 19.02 2.956 36.307 2.147 38.416-1.61 4.199-5.695 5.253-5.695 1.471 0-1.3 1.243-2.365 2.76-2.365 1.517 0 2.151-.604 1.412-1.344s-10.933-2.244-22.652-3.344c-19.738-1.851-51.985-.326-75.137 3.555-9.577 1.605-9.714 1.527-11.055-6.303l-5.2-30.387c-2.113-12.352-5.318-27.245-7.123-33.096-1.805-5.85-5.55-18.453-8.32-28.004-2.77-9.55-5.572-16.829-6.227-16.174s2.053 12.871 6.016 27.15c12.63 45.502 17.605 77.59 18.752 118.95h4.947l.176-25.937 12.412-2.4c21.354-4.132 46.026-5.577 65.631-3.842l18.881 1.672.129 30.508h2.523l-.797-21.043 6.756-3.26c8.218-3.966 8.21-3.549 1.293-69.342-5.767-54.853-8.09-68.301-15.957-92.402-16.025-49.092-37.564-71.766-114.24-120.26-11.127-7.037-100.42-66.023-103.53-68.395-1.723-1.312 14.16-52.029 21.178-67.625 3.714-8.253 5.259-18.851 6.885-47.279 1.153-20.153 3.834-47.039 5.959-59.748 3.123-18.68 3.36-25.82 1.23-37.27-2.175-11.699-2.005-15.666.975-22.799 5.113-12.237 3.77-58.962-1.813-63.037-4.479-3.27-7.355-36.341-6.746-77.559.48-32.354-3.03-49.475-12.307-60.039-3.923-4.468-8.108-7.52-9.3-6.783-1.193.737-5.9-.965-10.46-3.783-4.56-2.818-9.996-4.471-12.077-3.672-2.082.799-5.312.185-7.178-1.364-1.867-1.548-8.424-2.769-14.475-3.623-2.662-.375-5.612 1.017-7.902.655-8.073-1.278-13.387-3.996-17.082-2.739-5.436 1.85-9.606-1.24-13.9-2.11-2.98-.605-5.492-.818-7.55-.636zm-22.736 72.129c3.296.668 6.841 2.012 10.563 1.578 5.003-.583 10.23-.741 15.793.488 4.587 1.014 9.513-1.598 14.199-1.26 3.943.285 7.847 1.511 11.758 1.596 4.558.099 9.318-1.421 13.721-1.586 4.19-.156 8.772 1.156 12.682 1.06 9.947-.24 18.338-1.716 25.488-1.548 7.276.17 9.126 1.57 15.113 11.424 9.308 15.32 13.173 31.238 13.209 54.37l.027 19.503-31.322.035c-36.194.04-42.76 2.052-43.871 13.44-.699 7.158-1.01 7.36-7.684 5.034-4.796-1.672-9.18-1.65-14.125.074-6.82 2.378-7.239 2.155-8.586-4.58-.779-3.894-3.332-8.105-5.675-9.36-5.57-2.98-73.394-2.961-81.246.024-3.43 1.304-6.063 4.167-6.063 6.588 0 2.382-5.217 8.176-11.76 13.06-6.466 4.828-12.049 8.781-12.408 8.782-.359 0-.283-14.368.17-31.93.759-29.43 1.406-33.343 8.273-49.98 4.098-9.928 9.576-19.227 12.17-20.668 2.595-1.44 7.8-4.66 11.564-7.156 6.235-4.132 9.187-11.455 30.838-7.381 3.748.705 6.747-.07 10.795-.028 1.682.018 3.93-1.483 6.645-1.508 2.788-.025 6.141-.8 9.732-.072zm38.848 35.98c-7.375 0-31.586 7.622-31.586 9.943 0 2.37-1.337 2.606 16.098-2.859 14.87-4.662 14.955-4.66 28.883.031 15.057 5.073 21.215 6.005 17.547 2.656-3.306-3.017-24.692-9.771-30.941-9.771zm-.453 25.322-20.295 6.328c-11.162 3.48-20.293 7.243-20.293 8.363s8.02-.51 17.82-3.623c20.728-6.582 26.034-6.84 43.643-2.113 14.787 3.97 19.722 4.407 17.984 1.596-.663-1.073-9.678-3.885-20.033-6.25zm27.967 33.777h66.191v30.479c0 25.612-.598 30.708-3.74 31.914h-.002c-5.644 2.166-51.36 1.65-54.94-.62-4.676-2.964-7.394-17.931-7.456-41.087zm-85.787 1.379c27.759-.162 34.36.45 36.193 3.35 1.233 1.95 2.26 12.375 2.277 23.166.036 20.748-3.43 31.594-11.104 34.71-5.963 2.423-42.789 3.576-52.623 1.649-5.41-1.06-9.23-3.626-11.195-7.52-3.913-7.755-4.138-51.057-.277-53.443 1.527-.943 18.055-1.803 36.73-1.912zm121.17 10.506c-1.255-.077-2.287.552-2.287 1.937 0 1.102 2.393 3.158 5.318 4.569 6.85 3.303 11.23 3.507 11.23.521 0-1.3-2.065-2.365-4.589-2.365-2.523 0-5.245-1.063-6.048-2.363-.89-1.44-2.368-2.222-3.623-2.299zm-114.49 1.068c-1.571-.197-5.54.448-11.547 1.98-6.215 1.586-10.541 3.641-9.613 4.57 1.854 1.853 11.52.021 18.326-3.474 3.579-1.838 4.405-2.878 2.834-3.076zm98.256 1.32c-.396.112-.062 1.298.668 3.651 1.04 3.343.002 6.306-3.232 9.232-2.619 2.37-4.76 5.54-4.76 7.045 0 3.786 11.751 14.675 18.91 17.521v-.002c8.466 3.366 13.467 3.143 21.395-.957 7.785-4.026 8.558-7.748 3.598-17.34-2.628-5.081-6.142-7.168-15.848-9.408-6.86-1.583-14.523-4.71-17.031-6.947-2.18-1.944-3.304-2.907-3.7-2.795zm-86.01.745c-1.07.347-2.306 1.067-3.447 2.076-2.283 2.017-8.94 4.417-14.791 5.334-13.71 2.148-20.125 6.333-23.19 15.125-2.704 7.76-1.216 10.075 9.136 14.209 7.59 3.031 8.896 2.976 19.53-.816 17.3-6.17 23.669-18.002 13.208-24.535-4.776-2.983-4.797-3.214-.594-6.287 2.4-1.755 3.573-3.979 2.608-4.944-.483-.482-1.389-.509-2.46-.162zm41.375 3.763c2.936-.09 6.468.482 10.715 1.62 4.506 1.207 5.349 3.1 5.51 12.379.318 18.3 4.895 31.8 11.922 35.152 5.664 2.702 54.788 4.743 63.326 2.63 7.235-1.79 9.16 22.25 4.006 49.998-1.812 9.752-4.04 33.687-4.95 53.19-1.054 22.574-2.928 38.466-5.16 43.733-4.74 11.187-18.564 52.887-22.168 66.871-3.394 13.17-8.987 18.297-27.86 25.547-24.967 9.59-69.61 7.862-124.28-4.812-14.254-3.304-34.503-11.834-34.503-14.533 0-3.72-7.203-55.239-10.949-78.311-2.05-12.632-6.011-41.446-8.8-64.033-5.07-41.046-5.07-41.071-.344-44.783 4.536-3.564 4.397-3.699-3.422-3.338-8.126.375-8.172.318-15.838-19.717-7.991-20.885-9.964-37.205-5.088-42.08 4.413-4.413 7.375-3.483 18.068 5.67 11.362 9.726 16.273 9.248 17.348-1.69.582-5.921 3.142-9.373 11.389-15.346 5.85-4.237 11.437-7.774 12.412-7.86.975-.088 1.773 8.954 1.773 20.091s1.04 22.194 2.313 24.572c3.671 6.86 15.454 9.551 41.848 9.551 38.48 0 47.084-5.812 49.305-33.309 1.187-14.706 4.618-20.924 13.426-21.193zm97.789 1.897c.109.248.229 1.044.354 2.434h.002c.497 5.56.49 14.07-.018 18.912-.508 4.84-.917.292-.908-10.11.006-7.8.242-11.98.57-11.235zm-46.232 4.365c2.247-.173 5.673.768 12.404 2.66 10.721 3.015 13.948 5.025 15.039 9.373.764 3.045.08 7.118-1.527 9.051-4.288 5.167-17.055 4.283-26.037-1.803-9.668-6.55-10.384-8.645-5.205-15.252 2.012-2.567 3.079-3.855 5.326-4.029zm-100.84 1.414c2.535.398 4.297 1.35 6.1 2.98 5.265 4.766 4.263 9.043-3.276 13.983-13.12 8.596-34.189 5.647-32.467-4.545 1.28-7.567 5.94-10.546 18.906-12.082 4.894-.58 8.201-.734 10.736-.336zm-10.965 4.276c-7.188 0-9.935 5.635-5.102 10.469 1.933 1.932 5.08 2.913 6.993 2.18 4.08-1.567 4.672-5.557.824-5.557-1.833 0-1.744-1.097.29-3.547 2.483-2.992 2.014-3.545-3.004-3.545zm121.17.341c-1.088-.09-2.338.062-3.623.555-4.203 1.613-4.549 10.078-.479 11.721 4.6 1.856 6.117 1.738 7.559-.596.735-1.189 0-2.705-1.633-3.367-2.321-.94-2.27-1.694.236-3.451 3.017-2.115 1.204-4.589-2.06-4.861zm-222.45 11.477c-6.065 0-5.614 3.1.863 5.942 4.496 1.972 5.319 4.162 5.319 14.152 0 6.5.862 13.15 1.914 14.775 3.134 4.843 6.85 3.56 4.174-1.442-1.294-2.417-1.747-8.127-1.006-12.689 1.588-9.786-4.36-20.738-11.264-20.738zm187.32 39.561c-.413.897 2.263 5.493 8.283 13.221 7.111 9.128 8.32 12.266 7.092 18.404-1.278 6.39-.996 7.001 2.064 4.461 6.403-5.314 3.905-14.728-7.199-27.12-6.327-7.063-9.827-9.863-10.24-8.965zm-48.656 3.832c-.703-.446-3.628 1.638-8.195 6.618-8.18 8.917-10.993 16.572-8.34 22.678 1.39 3.198 2.16 2.176 3.389-4.485.874-4.744 4.48-12.059 8.01-16.254 4.32-5.135 5.839-8.11 5.136-8.556zm53.258 19.793c-2.876-.752-6.526.894-9.87 4.452-6.75 7.186-20.246 7.617-28.763.918-6.377-5.017-17.011-6.308-19.45-2.364-.855 1.385 1.625 2.364 5.99 2.364 4.096 0 10.154 2.128 13.46 4.728 3.662 2.88 9.59 4.727 15.17 4.727 6.235 0 10.454-1.509 13.21-4.727 2.226-2.6 6.471-4.728 9.433-4.728 6.56 0 7.128-3.72.82-5.37zm22.309 12.461c-3.026 0 1.831 5.133 6.727 7.108 2.792 1.127 9.864 1.99 15.715 1.92l10.639-.127-10.941-1.85c-6.018-1.017-13.128-3.018-15.801-4.45-2.674-1.43-5.526-2.6-6.338-2.6zm-105.53 2.577c-.725-.792-5.775.524-14.533 4.623-12.749 5.966-16.011 6.617-23.033 4.603-11.629-3.335-16.601-2.557-8.21 1.285 10.673 4.888 21.32 4.115 34.354-2.49 8.546-4.33 12.146-7.23 11.422-8.021zm42.115 38.777c-16.416-.244-41.742 1.507-36.529 3.336 5.252 1.841 102.7 1.787 104.55-.06 2.568-2.567-32.818-4.542-40.668-2.269-4.825 1.397-10.54 1.385-15.365-.03-2.03-.595-6.513-.897-11.984-.978zm17.412 16.52c-15.445.024-27.692.432-27.217.908.475.476 4.377 1.753 8.668 2.838 8.254 2.086 38.843.567 43.738-2.172 1.59-.89-9.745-1.598-25.189-1.574zm-135.32 13.045c-4.003 0 4.375 15.718 13.4 25.137 5.44 5.678 11.139 10.324 12.662 10.324 4.917 0 2.9-3.424-5.049-8.569-4.267-2.762-10.368-9.943-13.559-15.957-3.19-6.014-6.545-10.936-7.455-10.936zm179.37 50.463c-.642-.642-4.413.51-8.38 2.562-17.355 8.974-65.536 10.496-84.286 2.662-4.924-2.057-9.421-3.274-9.992-2.703-2.026 2.026 14.926 9.44 25.404 11.11 11.794 1.879 44.395.419 57.713-2.585 9.078-2.047 21.512-9.076 19.54-11.047z"/><path fill="#5f4530" d="M432.6 294.21c4.48-3.138 5.018-6.477 6.183-38.414 1.236-33.886 1.54-35.557 9.78-53.542 5.581-12.186 7.334-18.116 5.101-17.259-2.266.87-2.963.162-2.088-2.12.723-1.884 3.399-3.425 5.945-3.425s6.832-1.179 9.523-2.619c3.923-2.1 4.243-3.028 1.617-4.691-2.558-1.62-2.597-2.082-.18-2.11 1.734-.02 2.353-1.237 1.408-2.766-1.007-1.629-.652-2.09.879-1.143 1.411.872 3.273.442 4.136-.955.911-1.474 4.453-1.908 8.438-1.033 5.153 1.132 6.866.64 6.866-1.972 0-1.915 1.651-4.115 3.67-4.89 2.335-.895 3.074-.446 2.034 1.237-.744 1.204 6.537 4.32 8.218 5.019 9.842 4.095 16.98 2.571 15.3-1.807-1.535-4.001 3.149-1.932 6.848 1.022 3.384 2.702 16.075 2.395 17.585-1.54 1.179-3.07 1.677-5.535 4.66-1.324 7.917 11.174 19.33.738 20.533-1.295 1.326-2.238 2.829 1.05 2.048 2.833-.78 1.783.155 3.242 2.08 3.242s5.479-3.914 6.89-6.55c2.845-5.317 6.37-1.032 4.262 4.462-1.801 4.693 7.087 4.632 10.994-.076 1.619-1.95 5.795-6.684 7.745-6.684 2.884 0 3.1.933.707 3.816-2.463 2.968-1.816 5.562 2.445 4.876 7.129-1.147 7.377-3.081 10.787-5.084 2.773-2.302 3.442-2.112 3.442.978 0 2.11 1.064 3.835 2.364 3.835s2.133-2.456 2.133-3.833c0-1.377.975-1.901 2.166-1.165 1.19.736 4.863.313 8.16-.941 4.866-1.85 5.746-1.63 4.674 1.165-1.501 3.912 5.116 4.87 7.458 1.08.803-1.3 3.124-2.364 5.157-2.364 3.096 0 3.194.605.603 3.727-2.081 2.507-2.282 4.247-.615 5.318 1.363.876 4.52 5.603 7.015 10.504 4.537 8.911 4.537 8.911 5.05-2.907.77-17.671-3.772-45.335-8.255-50.288-2.161-2.389-5.477-3.749-7.368-3.023-2.562.983-2.803.553-.943-1.69 1.899-2.289 1.097-3.093-3.35-3.358-3.214-.193-7.728-2.054-10.03-4.137-4.64-4.2-8.442-5.09-6.193-1.45 1.67 2.7-5.473.535-10.12-3.07-2.861-2.218-7.45-2.825-37.345-4.943-6.612-.468-14.376-1.598-17.252-2.511-2.977-.945-6.655-.478-8.537 1.085-1.82 1.51-5.757 2.503-8.751 2.207-2.995-.295-7.34.28-9.654 1.278-2.316.998-7.53 1.15-11.588.338-5.77-1.153-8.104-.44-10.705 3.274-2.6 3.71-4.296 4.23-7.76 2.377-6.903-3.695-13.061-2.82-17.916 2.545-3.061 3.382-6.498 4.616-11.008 3.954-4.377-.642-8.523.096-10.66 3.57-3.75 6.099-3.496 5.708-7.75 6.47-4.423.792-16.509 13.496-16.509 18.544 0 1.502-1.862 2.734-4.137 2.736-5.481.006-18.258 19.672-21.499 33.091-1.413 5.851-2.96 33.1-3.44 60.553-.871 49.916-.871 49.916 5.237 52.347 8.379 3.335 8.012 3.348 13.51-.503z"/></g><path d="M126.83 225.51c-3.738 0-8.205 1.067-13.4 3.203-16.313 8.594-24.469 18.693-24.469 30.297 0 7.186 3.108 13.691 9.322 19.518 3.302 3.884 13.11 5.826 29.422 5.826 5.73 0 9.321 3.788 10.777 11.361v2.621c0 .486-.193 1.36-.582 2.621-2.185 3.885-6.262 5.827-12.234 5.827h-1.748c-1.165 0-3.4-.194-6.7-.582-9.711-2.185-17.187-5.583-22.43-10.195l-2.331 2.039c-4.66 6.7-6.992 14.565-6.992 23.596l.29.582c11.168 6.603 22.044 9.904 32.628 9.904h4.078c4.467 0 9.224-.68 14.273-2.039 18.449-6.166 27.676-17.818 27.676-34.957v-2.621c0-8.108-3.108-15.294-9.322-21.557-4.467-3.107-8.448-4.856-11.943-5.244-20.391-1.36-30.588-3.495-30.588-6.408 0-.583.096-1.263.29-2.04 1.651-3.884 5.05-5.826 10.196-5.826 8.01 0 16.556 3.594 25.635 10.78 7.185-7.332 10.779-15.49 10.779-24.472v-.29l-.582-.874c-10.002-7.38-20.101-11.07-30.297-11.07zm48.164 3.787c-.34 0-.535.194-.584.582v98.461c29.131 2.525 48.941 3.787 59.428 3.787h5.826c.583 0 1.36-8.349 2.33-25.05v-.294c-2.136-.388-12.819-1.455-32.045-3.203-.437 0-1.116-4.273-2.039-12.818l20.975-.582c.389-.777.778-5.244 1.166-13.4v-.29c-1.7-.39-9.564-1.069-23.596-2.04-.388-4.37-.584-7.574-.584-9.613l-.29-.582 33.208-1.166c0-.195.097-.291.291-.291-.194-4.321-.874-14.517-2.039-30.588 0-.34-20.68-1.31-62.047-2.912zM41.964 232.5l-.582.293c-.194 5.923-.291 10.291-.291 13.107v6.992c1.165 23.305 1.748 49.62 1.748 78.943l.582.291h30.004l.875-.582c.777-13.74 1.164-21.994 1.164-24.762-.777-27.965-1.164-50.589-1.164-67.873v-5.826c0-.34-.196-.535-.584-.584zm210.62 3.496-.582.291c1.554 49.28 2.33 80.643 2.33 94.092l.291.584c27.383.777 44.862 1.164 52.436 1.164.583 0 .873-.193.873-.582v-.873c0-5.534.097-13.206.291-23.014 0-.34-.193-.533-.582-.582h-7.283c-1.36 0-6.02-.195-13.982-.584h-.291v-34.664c0-8.545-.097-20.393-.291-35.54l-.582-.292zm66.223 0-.582.291c1.554 49.28 2.33 80.643 2.33 94.092l.293.584c27.383.777 44.86 1.164 52.434 1.164.583 0 .875-.193.875-.582v-.873c0-5.534.097-13.206.291-23.014 0-.34-.194-.533-.582-.582h-7.283c-1.36 0-6.02-.195-13.982-.584h-.291v-34.664c0-8.545-.099-20.393-.293-35.54l-.582-.292zm-114.38 118.87c-9.812 0-19.313 1.625-28.5 4.875-24.5 10.937-36.75 32.313-36.75 64.125v4.875c0 10.437 3.5 20.688 10.5 30.75 15.062 17 32.063 25.5 51 25.5h4.5c7.438 0 15.188-1.625 23.25-4.875 24.75-11.812 37.125-33.438 37.125-64.875v-3c0-9-1.5-17.375-4.5-25.125-9.438-21.5-27.688-32.25-54.75-32.25zm-102.88.75c-21.687 0-41.188.875-58.5 2.625 0 2.438.25 16.563.75 42.375 0 6.938-.125 20.688-.375 41.25.75 12.937 2 26.938 3.75 42 0 .75 3.25 1.125 9.75 1.125h7.125c8.25 0 13.125-.625 14.625-1.875v-3.75c0-7.187-.125-14.813-.375-22.875.25-5.625.875-12.625 1.875-21 6-2 11.375-4.125 16.125-6.375 20-8.25 30-22.25 30-42-.25-5.312-.875-9.562-1.875-12.75-4.437-12.5-12.063-18.75-22.875-18.75zm179.88 1.5-.75.375c.5 13.125.75 29 .75 47.625 0 22.937-1 48.938-3 78l.75 1.125c8 .5 15 .75 21 .75h13.875c.5 0 .75-.25.75-.75v-11.625c0-6 .125-14.75.375-26.25 6.75 8.188 15.875 20.688 27.375 37.5 3.25 0 10.125.125 20.625.375l1.125-.75c2.75-33 5.75-74.5 9-124.5 0-.437-.25-.687-.75-.75-9.875 0-22.875.125-39 .375-.438 0-.688.25-.75.75v12.375c0 6.75-.125 16.25-.375 28.5v.375h-.375c-18-27.5-27.875-42-29.625-43.5zm-195.25 30c5.25 0 7.875.75 7.875 2.25v3c0 .75-.375 1.75-1.125 3-3.75 4-8.375 6-13.875 6-.25-4.625-.375-8-.375-10.125v-.75l-.375-2.625c1.688-.5 4.313-.75 7.875-.75zm119.38 11.25c2.563 0 5.813.5 9.75 1.5 10.25 4.188 15.375 11.813 15.375 22.875 0 4.75-1 9.125-3 13.125-6.062 9.5-13.188 14.25-21.375 14.25-1.437 0-3.687-.5-6.75-1.5-10.75-7.187-16.125-15.188-16.125-24 0-1.125.25-3.125.75-6 4.188-13.5 11.313-20.25 21.375-20.25zm10.232 108.62c-4.431 0-13.94.162-28.523.485-2.256 7.976-3.383 12.166-3.383 12.568-7.896 26.75-14.02 49.794-18.37 69.13 8.782.968 16.517 1.452 23.204 1.452h5.319c.322-1.45 1.368-10.233 3.14-26.348h8.219c0 .322.081.484.242.484 1.41 15.953 2.377 23.93 2.9 23.93h11.845c4.149 0 8.34-.403 12.57-1.209-4.029-21.472-6.85-35.976-8.461-43.51-3.384-13.335-6.284-25.662-8.702-36.982zm27.395 1.21-.484.241c.322 8.46.484 18.692.484 30.697 0 14.785-.644 31.544-1.934 50.277l.483.725c5.156.322 9.67.484 13.537.484h8.943c.323 0 .483-.162.483-.484v-7.492c0-3.868.08-9.507.242-16.92 4.35 5.277 10.232 13.333 17.645 24.17 2.095 0 6.527.081 13.295.242l.724-.482c1.773-21.271 3.706-48.021 5.801-80.25 0-.282-.16-.444-.482-.485-6.365 0-14.745.081-25.14.242-.281 0-.441.163-.482.485v7.976c0 4.351-.08 10.473-.242 18.37v.242h-.242c-11.602-17.726-17.968-27.072-19.096-28.04zm85.889 0c-8.138 0-14.262.403-18.371 1.208.322 11.602.484 20.223.484 25.863-.322 9.91-.484 16.114-.484 18.611v4.11c0 12.65.162 23.285.484 31.906 1.571.483 4.311.726 8.22.726h4.833c10.676 0 20.103-2.417 28.281-7.252 13.858-10.595 20.787-23.164 20.787-37.707-.322-5.56-.806-9.266-1.451-11.119-2.578-9.79-6.526-16.558-11.844-20.305-3.867-4.028-13.374-6.043-28.521-6.043zm10.395 23.687c.645 0 1.771.243 3.383.727 3.545 2.014 5.318 5.88 5.318 11.602 0 3.948-.966 8.783-2.9 14.504-2.9 3.706-6.77 5.558-11.604 5.558v-7.01c0-6.083-.08-14.14-.24-24.171 2.538-.806 4.552-1.21 6.043-1.21zm-139.15 2.903h.484c1.934 5.519 2.9 8.66 2.9 9.425v.243h-5.8a105.937 105.937 0 0 0 2.416-9.668zm-4.203 77.803c-9.813 0-19.313 1.625-28.5 4.875-24.5 10.937-36.75 32.313-36.75 64.125v4.875c0 10.437 3.5 20.688 10.5 30.75 15.062 17 32.063 25.5 51 25.5h4.5c7.437 0 15.188-1.625 23.25-4.875 24.75-11.812 37.125-33.438 37.125-64.875v-3c0-9-1.5-17.375-4.5-25.125-9.438-21.5-27.688-32.25-54.75-32.25zm-102.88.75c-21.687 0-41.188.875-58.5 2.625 0 2.437.25 16.563.75 42.375 0 6.937-.125 20.688-.375 41.25.75 12.937 2 26.938 3.75 42 0 .75 3.25 1.125 9.75 1.125h7.125c8.25 0 13.125-.625 14.625-1.875v-3.75c0-7.188-.125-14.812-.375-22.875.25-5.625.875-12.625 1.875-21 6-2 11.375-4.125 16.125-6.375 20-8.25 30-22.25 30-42-.25-5.313-.875-9.563-1.875-12.75-4.438-12.5-12.063-18.75-22.875-18.75zm179.88 1.5-.75.375c.5 13.125.75 29 .75 47.625 0 22.937-1 48.938-3 78l.75 1.125c8 .5 15 .75 21 .75h13.875c.5 0 .75-.25.75-.75v-11.625c0-6 .125-14.75.375-26.25 6.75 8.187 15.875 20.688 27.375 37.5 3.25 0 10.125.125 20.625.375l1.125-.75c2.75-33 5.75-74.5 9-124.5 0-.438-.25-.688-.75-.75-9.875 0-22.875.125-39 .375-.438 0-.688.25-.75.75v12.375c0 6.75-.125 16.25-.375 28.5v.375h-.375c-18-27.5-27.875-42-29.625-43.5zm-195.25 30c5.25 0 7.875.75 7.875 2.25v3c0 .75-.375 1.75-1.125 3-3.75 4-8.375 6-13.875 6-.25-4.625-.375-8-.375-10.125v-.75l-.375-2.625c1.687-.5 4.312-.75 7.875-.75zm119.38 11.25c2.562 0 5.812.5 9.75 1.5 10.25 4.187 15.375 11.813 15.375 22.875 0 4.75-1 9.125-3 13.125-6.063 9.5-13.188 14.25-21.375 14.25-1.438 0-3.688-.5-6.75-1.5-10.75-7.188-16.125-15.188-16.125-24 0-1.125.25-3.125.75-6 4.187-13.5 11.313-20.25 21.375-20.25zm237.93 106.62c-3.946 0-8.66 1.128-14.143 3.382-17.218 9.07-25.828 19.73-25.828 31.977 0 7.585 3.28 14.45 9.84 20.6 3.484 4.1 13.836 6.15 31.055 6.15 6.047 0 9.837 3.997 11.375 11.99v2.768c0 .513-.206 1.436-.616 2.768-2.306 4.1-6.609 6.148-12.912 6.148h-1.845c-1.23 0-3.588-.203-7.073-.613-10.249-2.306-18.139-5.893-23.674-10.762l-2.46 2.152c-4.92 7.072-7.38 15.373-7.38 24.904l.307.616c11.786 6.969 23.266 10.453 34.438 10.453h4.305c4.715 0 9.737-.718 15.066-2.153 19.473-6.508 29.209-18.807 29.209-36.896v-2.765c0-8.558-3.28-16.143-9.84-22.754-4.714-3.28-8.916-5.124-12.605-5.534-21.523-1.434-32.285-3.69-32.285-6.765 0-.615.104-1.333.309-2.152 1.742-4.1 5.33-6.149 10.762-6.149 8.455 0 17.474 3.79 27.057 11.375 7.584-7.738 11.377-16.346 11.377-25.826v-.308l-.615-.922c-10.556-7.79-21.215-11.684-31.977-11.684zm93.88 0c-3.945 0-8.658 1.128-14.142 3.382-17.218 9.07-25.828 19.73-25.828 31.977 0 7.585 3.28 14.45 9.84 20.6 3.484 4.1 13.836 6.15 31.055 6.15 6.047 0 9.837 3.997 11.375 11.99v2.768c0 .513-.204 1.436-.614 2.768-2.306 4.1-6.61 6.148-12.914 6.148h-1.845c-1.23 0-3.588-.203-7.073-.613-10.249-2.306-18.139-5.893-23.674-10.762l-2.46 2.152c-4.92 7.072-7.38 15.373-7.38 24.904l.307.616c11.786 6.969 23.266 10.453 34.438 10.453h4.305c4.715 0 9.737-.718 15.066-2.153 19.473-6.508 29.209-18.807 29.209-36.896v-2.765c0-8.558-3.279-16.143-9.838-22.754-4.714-3.28-8.918-5.124-12.607-5.534-21.523-1.434-32.283-3.69-32.283-6.765 0-.615.102-1.333.307-2.152 1.742-4.1 5.33-6.149 10.762-6.149 8.455 0 17.474 3.79 27.057 11.375 7.584-7.738 11.377-16.346 11.377-25.826v-.308l-.616-.922c-10.556-7.79-21.215-11.684-31.977-11.684zm415.6 0c-3.945 0-8.66 1.128-14.144 3.382-17.218 9.07-25.828 19.73-25.828 31.977 0 7.585 3.28 14.45 9.84 20.6 3.484 4.1 13.836 6.15 31.055 6.15 6.047 0 9.84 3.997 11.377 11.99v2.768c0 .513-.206 1.436-.616 2.768-2.306 4.1-6.61 6.148-12.914 6.148h-1.845c-1.23 0-3.588-.203-7.073-.613-10.249-2.306-18.139-5.893-23.674-10.762l-2.46 2.152c-4.92 7.072-7.38 15.373-7.38 24.904l.31.616c11.785 6.969 23.263 10.453 34.435 10.453h4.305c4.715 0 9.737-.718 15.066-2.153 19.473-6.508 29.209-18.807 29.209-36.896v-2.765c0-8.558-3.279-16.143-9.838-22.754-4.715-3.28-8.918-5.124-12.607-5.534-21.523-1.434-32.283-3.69-32.283-6.765 0-.615.102-1.333.307-2.152 1.742-4.1 5.33-6.149 10.762-6.149 8.455 0 17.474 3.79 27.057 11.375 7.584-7.738 11.377-16.346 11.377-25.826v-.308l-.616-.922c-10.556-7.79-21.215-11.684-31.977-11.684zm-766.53 3.69c-10.607 0-20.651 4.2-30.132 12.604-11.274 12.094-16.91 26.65-16.91 43.662 0 .82.102 1.229.307 1.229 0 9.173 2.87 19.32 8.609 30.44 6.406 13.94 18.808 20.907 37.205 20.907 9.224 0 19.267-1.433 30.13-4.303 0-4.048-.717-8.662-2.151-13.838-2.87-9.583-6.149-15.424-9.838-17.525-5.33 2.87-10.352 4.305-15.066 4.305h-.616c-3.28 0-6.456-.718-9.53-2.153-4.51-2.767-6.764-8.507-6.764-17.219 0-3.536.717-6.712 2.152-9.53 4.356-6.97 9.376-10.454 15.064-10.454h1.537c4.253 0 9.38 1.947 15.375 5.842 6.816-8.763 11.017-18.295 12.605-28.596v-.307c-8.2-10.044-17.833-15.066-28.902-15.066zm89.27 0c-10.607 0-20.651 4.2-30.132 12.604-11.274 12.094-16.91 26.65-16.91 43.662 0 .82.102 1.229.307 1.229 0 9.173 2.87 19.32 8.609 30.44 6.406 13.94 18.806 20.907 37.203 20.907 9.224 0 19.269-1.433 30.133-4.303 0-4.048-.718-8.662-2.152-13.838-2.87-9.583-6.15-15.424-9.84-17.525-5.33 2.87-10.35 4.305-15.064 4.305h-.615c-3.28 0-6.457-.718-9.532-2.153-4.51-2.767-6.765-8.507-6.765-17.219 0-3.536.717-6.712 2.152-9.53 4.356-6.97 9.378-10.454 15.066-10.454h1.537c4.253 0 9.377 1.947 15.373 5.842 6.816-8.763 11.02-18.295 12.607-28.596v-.307c-8.2-10.044-17.833-15.066-28.902-15.066zm42.84.306c-.358 0-.563.205-.614.615v103.93c30.747 2.665 51.656 3.996 62.725 3.996h6.15c.615 0 1.434-8.813 2.46-26.44v-.31c-2.256-.41-13.53-1.536-33.823-3.38-.461 0-1.179-4.51-2.152-13.53l22.139-.615c.41-.82.82-5.533 1.23-14.143v-.308c-1.793-.41-10.096-1.128-24.906-2.153-.41-4.612-.615-7.994-.615-10.146l-.307-.615 35.051-1.228c0-.205.104-.309.309-.309-.205-4.56-.922-15.32-2.152-32.283 0-.359-21.831-1.385-65.492-3.076zm509.48 0c-.358 0-.561.205-.612.615v103.93c30.747 2.665 51.654 3.996 62.723 3.996h6.15c.615 0 1.434-8.813 2.459-26.44v-.31c-2.255-.41-13.529-1.536-33.822-3.38-.461 0-1.177-4.51-2.15-13.53l22.137-.615c.41-.82.82-5.533 1.23-14.143v-.308c-1.793-.41-10.096-1.128-24.906-2.153-.41-4.612-.613-7.994-.613-10.146l-.309-.615 35.053-1.228c0-.205.102-.309.307-.309-.205-4.56-.923-15.32-2.152-32.283 0-.359-21.831-1.385-65.492-3.076zm-186.94 1.845c-8.045 0-15.833 1.334-23.366 3.998-20.088 8.968-30.133 26.492-30.133 52.576v3.998c0 8.558 2.87 16.962 8.61 25.213 12.35 13.94 26.288 20.906 41.815 20.906h3.69c6.098 0 12.452-1.331 19.062-3.996 20.293-9.685 30.439-27.417 30.439-53.193v-2.459c0-7.379-1.23-14.245-3.69-20.6-7.738-17.628-22.702-26.443-44.89-26.443zm97.265 0c-10.198 0-22.291.616-36.281 1.846h-.309c1.845 14.605 2.768 31.617 2.768 51.04v11.683c0 16.091.205 29.62.615 40.586 4.766 1.025 9.685 1.537 14.758 1.537h1.23c3.28 0 6.868-.717 10.763-2.152 0-.769-.206-5.072-.616-12.912.41-8.814.82-15.066 1.23-18.756 3.486 1.793 6.56 4.56 9.226 8.3 1.332 0 2.356 6.97 3.074 20.909 0 1.383 7.892 2.717 23.676 3.998h.306c.615-7.636.922-12.351.922-14.145 0-4.049-1.331-9.48-3.996-16.295-3.638-6.765-9.276-12.403-16.912-16.912v-.616c14.144-5.995 21.217-15.32 21.217-27.979 0-9.429-2.152-16.809-6.457-22.139-3.177-5.33-11.07-7.994-23.676-7.994zm-631.34.307c-5.637 0-17.731.205-36.281.615-2.87 10.147-4.305 15.476-4.305 15.988-10.044 34.027-17.835 63.34-23.369 87.938 11.171 1.23 21.011 1.844 29.518 1.844h6.766c.41-1.845 1.741-13.016 3.996-33.514H85.48c0 .41.102.615.307.615 1.793 20.293 3.023 30.44 3.689 30.44h15.066c5.278 0 10.608-.513 15.988-1.538-5.124-27.314-8.712-45.763-10.762-55.346-4.305-16.962-7.994-32.643-11.068-47.043zm674.49 1.23-.615.31c-.205 6.251-.307 10.863-.307 13.835v7.38c1.23 24.597 1.844 52.371 1.844 83.323l.615.307h31.67l.922-.614c.82-14.502 1.23-23.216 1.23-26.137-.82-29.517-1.23-53.397-1.23-71.64v-6.149c0-.359-.205-.564-.615-.615zm-42.842 23.677c4.1 0 6.15 1.23 6.15 3.689 0 .205-.103.512-.308.922 0 4.868-4.202 7.738-12.605 8.61-.41-4.818-.616-8.405-.616-10.763l-.306-1.228c3.792-.82 6.353-1.23 7.685-1.23zm-651.32 10.453h.613c2.46 7.02 3.692 11.019 3.692 11.992v.306h-7.381c1.23-4.1 2.256-8.199 3.076-12.299zm554.68 0c2.1 0 4.766.41 7.994 1.23 8.404 3.433 12.607 9.686 12.607 18.756 0 3.895-.821 7.482-2.46 10.762-4.972 7.79-10.813 11.684-17.526 11.684-1.179 0-3.022-.41-5.533-1.23-8.814-5.894-13.223-12.452-13.223-19.678 0-.923.205-2.563.615-4.92 3.434-11.07 9.275-16.604 17.525-16.604z" style="paint-order:stroke fill markers"/><path fill="#ff1919" stroke="#000" stroke-dashoffset="1.323" stroke-linecap="round" stroke-miterlimit="10" stroke-width="3.78" d="M134.83 217.51c-3.738 0-8.205 1.067-13.4 3.203-16.313 8.594-24.469 18.693-24.469 30.297 0 7.186 3.108 13.691 9.322 19.518 3.302 3.884 13.11 5.826 29.422 5.826 5.73 0 9.321 3.788 10.777 11.361v2.621c0 .486-.193 1.36-.582 2.621-2.185 3.885-6.262 5.827-12.234 5.827h-1.748c-1.165 0-3.4-.194-6.7-.582-9.711-2.185-17.187-5.583-22.43-10.195l-2.331 2.039c-4.66 6.7-6.992 14.565-6.992 23.596l.29.582c11.168 6.603 22.044 9.904 32.628 9.904h4.078c4.467 0 9.224-.68 14.273-2.039 18.449-6.166 27.676-17.818 27.676-34.957v-2.621c0-8.108-3.108-15.294-9.322-21.557-4.467-3.107-8.448-4.856-11.943-5.244-20.391-1.36-30.588-3.495-30.588-6.408 0-.583.096-1.263.29-2.04 1.651-3.884 5.05-5.826 10.196-5.826 8.01 0 16.556 3.594 25.635 10.78 7.185-7.332 10.779-15.49 10.779-24.472v-.29l-.582-.874c-10.002-7.38-20.101-11.07-30.297-11.07zm48.164 3.787c-.34 0-.535.194-.584.582v98.461c29.131 2.525 48.941 3.787 59.428 3.787h5.826c.583 0 1.36-8.349 2.33-25.05v-.294c-2.136-.388-12.819-1.455-32.045-3.203-.437 0-1.116-4.273-2.039-12.818l20.975-.582c.389-.777.778-5.244 1.166-13.4v-.29c-1.7-.39-9.564-1.069-23.596-2.04-.388-4.37-.584-7.574-.584-9.613l-.29-.582 33.208-1.166c0-.195.097-.291.291-.291-.194-4.321-.874-14.518-2.039-30.588 0-.34-20.68-1.31-62.047-2.912zM49.964 224.5l-.582.293c-.194 5.923-.291 10.291-.291 13.107v6.992c1.165 23.305 1.748 49.62 1.748 78.943l.582.291h30.004l.875-.582c.777-13.74 1.164-21.994 1.164-24.762-.777-27.965-1.164-50.589-1.164-67.873v-5.826c0-.34-.196-.535-.584-.584zm210.62 3.496-.582.291c1.554 49.28 2.33 80.643 2.33 94.092l.291.584c27.383.777 44.862 1.164 52.436 1.164.583 0 .873-.193.873-.582v-.873c0-5.534.097-13.206.291-23.014 0-.34-.193-.533-.582-.582h-7.283c-1.36 0-6.02-.195-13.982-.584h-.291v-34.664c0-8.545-.097-20.393-.291-35.54l-.582-.292zm66.223 0-.582.291c1.554 49.28 2.33 80.643 2.33 94.092l.293.584c27.383.777 44.86 1.164 52.434 1.164.583 0 .875-.193.875-.582v-.873c0-5.534.097-13.206.291-23.014 0-.34-.194-.533-.582-.582h-7.283c-1.36 0-6.02-.195-13.982-.584h-.291v-34.664c0-8.545-.099-20.393-.293-35.54l-.582-.292zm-114.38 118.87c-9.812 0-19.313 1.625-28.5 4.875-24.5 10.937-36.75 32.313-36.75 64.125v4.875c0 10.437 3.5 20.688 10.5 30.75 15.062 17 32.063 25.5 51 25.5h4.5c7.438 0 15.188-1.625 23.25-4.875 24.75-11.812 37.125-33.438 37.125-64.875v-3c0-9-1.5-17.375-4.5-25.125-9.437-21.5-27.688-32.25-54.75-32.25zm-102.88.75c-21.687 0-41.188.875-58.5 2.625 0 2.438.25 16.563.75 42.375 0 6.938-.125 20.688-.375 41.25.75 12.937 2 26.938 3.75 42 0 .75 3.25 1.125 9.75 1.125h7.125c8.25 0 13.125-.625 14.625-1.875v-3.75c0-7.187-.125-14.813-.375-22.875.25-5.625.875-12.625 1.875-21 6-2 11.375-4.125 16.125-6.375 20-8.25 30-22.25 30-42-.25-5.312-.875-9.562-1.875-12.75-4.437-12.5-12.063-18.75-22.875-18.75zm179.88 1.5-.75.375c.5 13.125.75 29 .75 47.625 0 22.937-1 48.938-3 78l.75 1.125c8 .5 15 .75 21 .75h13.875c.5 0 .75-.25.75-.75v-11.625c0-6 .125-14.75.375-26.25 6.75 8.188 15.875 20.688 27.375 37.5 3.25 0 10.125.125 20.625.375l1.125-.75c2.75-33 5.75-74.5 9-124.5 0-.437-.25-.687-.75-.75-9.875 0-22.875.125-39 .375-.438 0-.688.25-.75.75v12.375c0 6.75-.125 16.25-.375 28.5v.375h-.375c-18-27.5-27.875-42-29.625-43.5zm-195.25 30c5.25 0 7.875.75 7.875 2.25v3c0 .75-.375 1.75-1.125 3-3.75 4-8.375 6-13.875 6-.25-4.625-.375-8-.375-10.125v-.75l-.375-2.625c1.688-.5 4.313-.75 7.875-.75zm119.38 11.25c2.563 0 5.813.5 9.75 1.5 10.25 4.188 15.375 11.813 15.375 22.875 0 4.75-1 9.125-3 13.125-6.062 9.5-13.188 14.25-21.375 14.25-1.437 0-3.687-.5-6.75-1.5-10.75-7.187-16.125-15.188-16.125-24 0-1.125.25-3.125.75-6 4.188-13.5 11.313-20.25 21.375-20.25zm10.232 108.62c-4.431 0-13.94.162-28.523.485-2.256 7.976-3.383 12.166-3.383 12.568-7.896 26.75-14.02 49.794-18.37 69.13 8.782.968 16.517 1.452 23.204 1.452h5.319c.322-1.45 1.368-10.233 3.14-26.348h8.219c0 .322.081.484.242.484 1.41 15.953 2.377 23.93 2.9 23.93h11.845c4.149 0 8.34-.403 12.57-1.209-4.029-21.472-6.85-35.976-8.461-43.51-3.384-13.335-6.284-25.662-8.702-36.982zm27.395 1.21-.484.241c.322 8.46.484 18.692.484 30.697 0 14.785-.644 31.544-1.934 50.277l.483.725c5.156.322 9.67.484 13.537.484h8.943c.323 0 .483-.162.483-.484v-7.492c0-3.868.08-9.507.242-16.92 4.35 5.277 10.232 13.333 17.645 24.17 2.095 0 6.527.081 13.295.242l.724-.482c1.773-21.271 3.706-48.021 5.801-80.25 0-.282-.16-.444-.482-.485-6.365 0-14.745.081-25.14.242-.281 0-.441.163-.482.485v7.976c0 4.351-.08 10.473-.242 18.37v.242h-.242c-11.602-17.726-17.968-27.072-19.096-28.04zm85.889 0c-8.138 0-14.262.403-18.371 1.208.322 11.602.484 20.223.484 25.863-.322 9.91-.484 16.114-.484 18.611v4.11c0 12.65.162 23.285.484 31.906 1.571.483 4.311.726 8.22.726h4.833c10.676 0 20.103-2.417 28.281-7.252 13.858-10.595 20.787-23.164 20.787-37.707-.322-5.56-.806-9.266-1.451-11.119-2.578-9.79-6.526-16.558-11.844-20.305-3.867-4.028-13.374-6.043-28.521-6.043zm10.395 23.687c.645 0 1.771.243 3.383.727 3.545 2.014 5.318 5.88 5.318 11.602 0 3.948-.966 8.783-2.9 14.504-2.9 3.706-6.77 5.558-11.604 5.558v-7.01c0-6.083-.08-14.14-.24-24.171 2.538-.806 4.552-1.21 6.043-1.21zm-139.15 2.903h.484c1.934 5.519 2.9 8.66 2.9 9.425v.243h-5.8a105.937 105.937 0 0 0 2.416-9.668zm-4.203 77.803c-9.813 0-19.313 1.625-28.5 4.875-24.5 10.937-36.75 32.313-36.75 64.125v4.875c0 10.437 3.5 20.688 10.5 30.75 15.062 17 32.063 25.5 51 25.5h4.5c7.437 0 15.188-1.625 23.25-4.875 24.75-11.812 37.125-33.438 37.125-64.875v-3c0-9-1.5-17.375-4.5-25.125-9.438-21.5-27.688-32.25-54.75-32.25zm-102.88.75c-21.687 0-41.188.875-58.5 2.625 0 2.437.25 16.563.75 42.375 0 6.937-.125 20.688-.375 41.25.75 12.937 2 26.938 3.75 42 0 .75 3.25 1.125 9.75 1.125h7.125c8.25 0 13.125-.625 14.625-1.875v-3.75c0-7.188-.125-14.812-.375-22.875.25-5.625.875-12.625 1.875-21 6-2 11.375-4.125 16.125-6.375 20-8.25 30-22.25 30-42-.25-5.313-.875-9.563-1.875-12.75-4.438-12.5-12.063-18.75-22.875-18.75zm179.88 1.5-.75.375c.5 13.125.75 29 .75 47.625 0 22.937-1 48.938-3 78l.75 1.125c8 .5 15 .75 21 .75h13.875c.5 0 .75-.25.75-.75v-11.625c0-6 .125-14.75.375-26.25 6.75 8.187 15.875 20.688 27.375 37.5 3.25 0 10.125.125 20.625.375l1.125-.75c2.75-33 5.75-74.5 9-124.5 0-.438-.25-.688-.75-.75-9.875 0-22.875.125-39 .375-.438 0-.688.25-.75.75v12.375c0 6.75-.125 16.25-.375 28.5v.375h-.375c-18-27.5-27.875-42-29.625-43.5zm-195.25 30c5.25 0 7.875.75 7.875 2.25v3c0 .75-.375 1.75-1.125 3-3.75 4-8.375 6-13.875 6-.25-4.625-.375-8-.375-10.125v-.75l-.375-2.625c1.687-.5 4.312-.75 7.875-.75zm119.38 11.25c2.562 0 5.812.5 9.75 1.5 10.25 4.187 15.375 11.813 15.375 22.875 0 4.75-1 9.125-3 13.125-6.063 9.5-13.188 14.25-21.375 14.25-1.438 0-3.688-.5-6.75-1.5-10.75-7.188-16.125-15.188-16.125-24 0-1.125.25-3.125.75-6 4.187-13.5 11.313-20.25 21.375-20.25zm237.93 106.62c-3.946 0-8.66 1.128-14.143 3.382-17.218 9.07-25.828 19.73-25.828 31.977 0 7.585 3.28 14.45 9.84 20.6 3.484 4.1 13.836 6.15 31.055 6.15 6.047 0 9.837 3.997 11.375 11.99v2.768c0 .513-.206 1.436-.616 2.768-2.306 4.1-6.609 6.148-12.912 6.148h-1.845c-1.23 0-3.588-.203-7.073-.613-10.249-2.306-18.139-5.893-23.674-10.762l-2.46 2.152c-4.92 7.072-7.38 15.373-7.38 24.904l.307.616c11.786 6.969 23.266 10.453 34.438 10.453h4.305c4.715 0 9.737-.718 15.066-2.153 19.473-6.508 29.209-18.807 29.209-36.896v-2.765c0-8.558-3.28-16.143-9.84-22.754-4.714-3.28-8.916-5.124-12.605-5.534-21.523-1.434-32.285-3.69-32.285-6.765 0-.615.104-1.333.309-2.152 1.742-4.1 5.33-6.149 10.762-6.149 8.455 0 17.474 3.79 27.057 11.375 7.584-7.738 11.377-16.346 11.377-25.826v-.308l-.615-.922c-10.556-7.79-21.215-11.684-31.977-11.684zm93.88 0c-3.945 0-8.658 1.128-14.142 3.382-17.218 9.07-25.828 19.73-25.828 31.977 0 7.585 3.28 14.45 9.84 20.6 3.484 4.1 13.836 6.15 31.055 6.15 6.047 0 9.837 3.997 11.375 11.99v2.768c0 .513-.204 1.436-.614 2.768-2.306 4.1-6.61 6.148-12.914 6.148h-1.845c-1.23 0-3.588-.203-7.073-.613-10.249-2.306-18.139-5.893-23.674-10.762l-2.46 2.152c-4.92 7.072-7.38 15.373-7.38 24.904l.307.616c11.786 6.969 23.266 10.453 34.438 10.453h4.305c4.715 0 9.737-.718 15.066-2.153 19.473-6.508 29.209-18.807 29.209-36.896v-2.765c0-8.558-3.279-16.143-9.838-22.754-4.714-3.28-8.918-5.124-12.607-5.534-21.523-1.434-32.283-3.69-32.283-6.765 0-.615.102-1.333.307-2.152 1.742-4.1 5.33-6.149 10.762-6.149 8.455 0 17.474 3.79 27.057 11.375 7.584-7.738 11.377-16.346 11.377-25.826v-.308l-.616-.922c-10.556-7.79-21.215-11.684-31.977-11.684zm415.6 0c-3.945 0-8.66 1.128-14.144 3.382-17.218 9.07-25.828 19.73-25.828 31.977 0 7.585 3.28 14.45 9.84 20.6 3.484 4.1 13.836 6.15 31.055 6.15 6.047 0 9.84 3.997 11.377 11.99v2.768c0 .513-.206 1.436-.616 2.768-2.306 4.1-6.61 6.148-12.914 6.148h-1.845c-1.23 0-3.588-.203-7.073-.613-10.249-2.306-18.139-5.893-23.674-10.762l-2.46 2.152c-4.92 7.072-7.38 15.373-7.38 24.904l.31.616c11.785 6.969 23.263 10.453 34.435 10.453h4.305c4.714 0 9.737-.718 15.066-2.153 19.473-6.508 29.209-18.807 29.209-36.896v-2.765c0-8.558-3.279-16.143-9.838-22.754-4.715-3.28-8.918-5.124-12.607-5.534-21.523-1.434-32.283-3.69-32.283-6.765 0-.615.102-1.333.307-2.152 1.742-4.1 5.33-6.149 10.762-6.149 8.455 0 17.474 3.79 27.057 11.375 7.584-7.738 11.377-16.346 11.377-25.826v-.308l-.616-.922c-10.556-7.79-21.215-11.684-31.977-11.684zm-766.53 3.69c-10.607 0-20.651 4.2-30.132 12.604-11.274 12.094-16.91 26.65-16.91 43.662 0 .82.102 1.229.307 1.229 0 9.173 2.87 19.32 8.609 30.44 6.406 13.94 18.808 20.907 37.205 20.907 9.224 0 19.267-1.433 30.13-4.303 0-4.048-.717-8.662-2.151-13.838-2.87-9.583-6.149-15.424-9.838-17.525-5.33 2.87-10.352 4.305-15.066 4.305h-.616c-3.28 0-6.456-.718-9.53-2.153-4.51-2.767-6.764-8.507-6.764-17.219 0-3.536.717-6.712 2.152-9.53 4.356-6.97 9.376-10.454 15.064-10.454h1.537c4.253 0 9.38 1.947 15.375 5.842 6.816-8.763 11.017-18.295 12.605-28.596v-.307c-8.2-10.044-17.833-15.066-28.902-15.066zm89.27 0c-10.607 0-20.651 4.2-30.132 12.604-11.274 12.094-16.91 26.65-16.91 43.662 0 .82.102 1.229.307 1.229 0 9.173 2.87 19.32 8.609 30.44 6.406 13.94 18.806 20.907 37.203 20.907 9.224 0 19.269-1.433 30.133-4.303 0-4.048-.718-8.662-2.152-13.838-2.87-9.583-6.15-15.424-9.84-17.525-5.33 2.87-10.35 4.305-15.064 4.305h-.615c-3.28 0-6.457-.718-9.532-2.153-4.51-2.767-6.765-8.507-6.765-17.219 0-3.536.717-6.712 2.152-9.53 4.356-6.97 9.378-10.454 15.066-10.454h1.537c4.253 0 9.377 1.947 15.373 5.842 6.816-8.763 11.02-18.295 12.607-28.596v-.307c-8.2-10.044-17.833-15.066-28.902-15.066zm42.84.306c-.358 0-.563.205-.614.615v103.93c30.747 2.665 51.656 3.996 62.725 3.996h6.15c.615 0 1.434-8.813 2.46-26.44v-.31c-2.256-.41-13.53-1.536-33.823-3.38-.461 0-1.179-4.51-2.152-13.53l22.139-.615c.41-.82.82-5.533 1.23-14.143v-.308c-1.793-.41-10.096-1.128-24.906-2.153-.41-4.612-.615-7.994-.615-10.146l-.307-.615 35.051-1.228c0-.205.104-.309.309-.309-.205-4.56-.922-15.32-2.152-32.283 0-.359-21.831-1.385-65.492-3.076zm509.48 0c-.358 0-.561.205-.612.615v103.93c30.747 2.665 51.654 3.996 62.723 3.996h6.15c.615 0 1.434-8.813 2.459-26.44v-.31c-2.255-.41-13.529-1.536-33.822-3.38-.461 0-1.177-4.51-2.15-13.53l22.137-.615c.41-.82.82-5.533 1.23-14.143v-.308c-1.793-.41-10.096-1.128-24.906-2.153-.41-4.612-.613-7.994-.613-10.146l-.309-.615 35.053-1.228c0-.205.102-.309.307-.309-.205-4.56-.923-15.32-2.152-32.283 0-.359-21.831-1.385-65.492-3.076zm-186.94 1.845c-8.045 0-15.833 1.334-23.366 3.998-20.088 8.968-30.133 26.492-30.133 52.576v3.998c0 8.558 2.87 16.962 8.61 25.213 12.35 13.94 26.288 20.906 41.815 20.906h3.69c6.098 0 12.452-1.331 19.062-3.996 20.293-9.685 30.439-27.417 30.439-53.193v-2.459c0-7.379-1.23-14.245-3.69-20.6-7.738-17.628-22.702-26.443-44.89-26.443zm97.265 0c-10.198 0-22.291.616-36.281 1.846h-.309c1.845 14.605 2.768 31.617 2.768 51.04v11.683c0 16.091.205 29.62.615 40.586 4.766 1.025 9.685 1.537 14.758 1.537h1.23c3.28 0 6.868-.717 10.763-2.152 0-.769-.206-5.072-.616-12.912.41-8.814.82-15.066 1.23-18.756 3.486 1.793 6.56 4.56 9.226 8.3 1.332 0 2.356 6.97 3.074 20.909 0 1.383 7.892 2.717 23.676 3.998h.306c.615-7.636.922-12.351.922-14.145 0-4.049-1.331-9.48-3.996-16.295-3.638-6.765-9.276-12.403-16.912-16.912v-.616c14.144-5.995 21.217-15.32 21.217-27.979 0-9.429-2.152-16.809-6.457-22.139-3.177-5.33-11.07-7.994-23.676-7.994zm-631.34.307c-5.637 0-17.731.205-36.281.615-2.87 10.147-4.305 15.476-4.305 15.988-10.044 34.027-17.835 63.34-23.369 87.938 11.171 1.23 21.011 1.844 29.518 1.844h6.766c.41-1.845 1.741-13.016 3.996-33.514H93.48c0 .41.102.615.307.615 1.793 20.293 3.023 30.44 3.689 30.44h15.066c5.278 0 10.608-.513 15.988-1.538-5.125-27.314-8.712-45.763-10.762-55.346-4.305-16.962-7.994-32.643-11.068-47.043zm674.49 1.23-.615.31c-.205 6.251-.307 10.863-.307 13.835v7.38c1.23 24.597 1.844 52.371 1.844 83.323l.615.307h31.67l.922-.614c.82-14.502 1.23-23.216 1.23-26.137-.82-29.517-1.23-53.397-1.23-71.64v-6.149c0-.359-.205-.564-.615-.615zm-42.842 23.677c4.1 0 6.15 1.23 6.15 3.689 0 .205-.103.512-.308.922 0 4.868-4.202 7.738-12.605 8.61-.41-4.818-.616-8.405-.616-10.763l-.306-1.228c3.792-.82 6.353-1.23 7.685-1.23zm-651.32 10.453h.613c2.46 7.02 3.692 11.019 3.692 11.992v.306h-7.381c1.23-4.1 2.256-8.199 3.076-12.299zm554.68 0c2.1 0 4.766.41 7.994 1.23 8.404 3.433 12.607 9.686 12.607 18.756 0 3.895-.821 7.482-2.46 10.762-4.972 7.79-10.813 11.684-17.526 11.684-1.179 0-3.022-.41-5.533-1.23-8.814-5.894-13.223-12.452-13.223-19.678 0-.923.205-2.563.615-4.92 3.434-11.07 9.275-16.604 17.525-16.604z" style="paint-order:normal"/></svg>