<svg xmlns="http://www.w3.org/2000/svg" viewBox="0 0 270.93 270.93"><defs><clipPath id="c"><path fill="#6b2325" stroke-dashoffset="1.323" stroke-linecap="round" stroke-miterlimit="10" d="M155.4 2.158c-2.739.03-5.362.187-7.76.449-6.659.727-13.898 1.556-20.092 1.582-6.184.027-11.2-.568-16.844-1.347-8.43-1.163-20.637-.853-29.945 2.312-4.654 1.583-8.57 3.875-10.965 6.992-2.395 3.117-3.323 7.051-1.968 12.15 1.353 5.092 4.073 7.696 7.803 8.895 3.73 1.2 8.52.925 13.832-.019 10.624-1.887 23.276-6.411 33.987-6.408 10.744.003 26.036 5.584 39.639 8.326 6.801 1.372 13.168 2.028 18.254.982 5.086-1.046 8.881-3.714 10.813-9.173 1.945-5.499 1.34-9.79-.917-13.219-2.256-3.428-6.226-6.002-11.083-7.829-7.286-2.74-16.536-3.784-24.752-3.693z" color="#000" style="-inkscape-stroke:none"/></clipPath><clipPath id="b"><path fill="#782121" stroke-dashoffset="1.323" stroke-linecap="round" stroke-miterlimit="10" d="M155.4 2.442c-2.73.03-5.344.184-7.732.445-6.659.727-13.903 1.557-20.121 1.583-6.203.027-11.24-.57-16.885-1.35-8.387-1.157-20.571-.843-29.814 2.3-4.622 1.572-8.489 3.846-10.834 6.898-2.346 3.053-3.257 6.874-1.92 11.905 1.335 5.024 3.965 7.527 7.617 8.701s8.402.913 13.695-.027c10.586-1.88 23.246-6.418 34.037-6.415 10.843.004 26.122 5.596 39.694 8.333 6.785 1.368 13.125 2.014 18.143.982 5.018-1.032 8.703-3.616 10.605-8.992 1.923-5.437 1.32-9.615-.89-12.97-2.208-3.357-6.123-5.906-10.947-7.72-7.235-2.72-16.459-3.763-24.649-3.674z" color="#000" style="-inkscape-stroke:none"/></clipPath><linearGradient id="a" x1="156.51" x2="157.96" y1="32.705" y2="81.919" gradientUnits="userSpaceOnUse"><stop offset="0" stop-color="#fff"/><stop offset="1" stop-color="#fff" stop-opacity="0"/></linearGradient></defs><path fill="#c8dd5d" d="M67.094-238.67c-3.465.68-3.021 4.43-1.05 11.058 5.213 17.737 10.562 35.443 15.683 53.196.637 3.758 1.116 7.586 1.647 11.384-2.612-.038-5.261-.022-7.851-.111-1.565-2.345-4.44-3.504-7.196-3.451-2.944-.213-5.978.146-8.683 1.373-9.698-2.062-19.461-3.955-28.82-7.256-4-1.475-8.736-4.712-11.79-1.455-2.14 2.281 1.447 6.896 2.507 8.765 3.052 4.5 6.533 8.723 10.418 12.53 3.733 3.593 7.754 6.868 11.766 10.142-3.548 2.971-5.74 7.22-7.256 11.516-14.416 3.32-28.595 7.57-42.771 11.777-20.02 6.073-39.91 12.672-59.22 20.75-7.735 3.319-15.444 6.88-22.343 11.748-3.138 2.307-6.222 5.182-7.325 9.043-.938 3.45.103 7.063 1.66 10.164 2.517 5.07 6.46 9.226 10.311 13.302 7.863 7.996 16.716 14.923 25.583 21.755 18.462 14 37.892 26.662 57.46 39.049C21.94 20.495 44.486 33.692 67.387 46.24c-.705 13.185-2.164 26.34-3.504 39.494a1357.946 1357.946 0 0 1-4.935 40.645c-.249 3.749 3.503 7.076 7.192 6.484 21.433 0 42.865-.118 64.296-.357 18.26-.172 36.522-.271 54.782-.479 3.58-.516 5.967-4.477 5.18-7.92-.78-18.654-.876-37.331-.703-55.998.064-5.086.245-10.2.615-15.244 17.9-15.862 35.86-31.658 53.652-47.643 9.557-8.72 18.999-17.568 28.28-26.58 10.754-10.496 21.282-21.248 31.054-32.67 5.14-6.107 10.07-12.488 13.722-19.616 2.109-4.31 3.378-9.379 1.943-14.096-1.516-4.763-5.209-8.414-9.017-11.463-7.62-6.046-16.308-10.535-24.974-14.866-18.58-9.152-37.911-16.644-57.28-23.93 7.993-20.563 9.396-34.978 6.39-37.201-3.09-2.286-1.85 1.072-15.575 6.662a82.424 82.424 0 0 1-10.762 3.566c-.762-4.664-1.311-9.388-2.574-13.949-3.211-5.726-8.114-10.219-12.902-14.607-1.462-1.258-2.938-2.624-4.752-3.338-.614-.043-.268-.995-.461-1.44-1.4-11.318-5.054-22.182-8.575-32.975-.9-2.292-2.858-7.192-5.402-7.006-2.704.066-4.518 4.176-5.953 7.893-3.368 8.569-5.609 17.671-10.453 25.59-3.09 5.085-7.731 8.952-12.336 12.611a204.965 204.965 0 0 1-14.1 10.017c-4.149-7.196-8.537-14.49-14.896-19.972-8.008-6.906-17.823-11.147-26.472-17.124-3.463-2.39-6.65-5.24-9.058-8.715-3.209-3.793-8.449-11.518-12.715-10.68zm117.68 62.828c-.27.043-.214-.265 0 0zM40.944-89.598c5.446 3.08 11.29 5.738 15.808 10.174 1.37 1.414 2.537 3.154 2.807 5.142-3.454 3.196-7.62 5.599-11.768 7.578-4.716 2.272-9.593 4.23-14.515 6.037-2.022.89-7.335 2.906-7.73 5.06-.424 2.323 5.27 4.93 9.42 6.677 7.177 3.44 15.099 4.937 22.96 5.773-1.754 6.375-4.7 12.323-7.227 18.405-.349 1.228-.208 2.568.312 3.726C29.378-36.613 7.17-51.386-14.86-66.39L39.54-90.397zm200.55 6.063c6.205 2.438 12.41 4.879 18.65 7.226-14.566 13.66-28.195 28.266-42.159 42.53l-6.168 6.36a190.953 190.953 0 0 1-5.164-15.136c8.828-2.05 17.915-3.883 25.86-8.453 2.132-1.182 6.16-3.99 5.89-6.571-.17-2.619-4.357-4.216-6.783-5.016-3.564-1.78-6.97-3.837-9.671-6.817-2.47-2.407-4.824-4.942-7.078-7.544 7.754-1.166 15.49-3.67 21.81-8.43.634.056 1.347.513 2.011.724l2.802 1.126z" style="paint-order:normal" transform="translate(63.795 154.49) scale(.63984)"/><path fill="#e3e2db" stroke="#000" stroke-dashoffset="1.323" stroke-linecap="round" stroke-linejoin="round" stroke-miterlimit="10" stroke-width="1.563" d="m112.49 9.378-1.437 15.103 36.36.594.627-17.55z" style="paint-order:normal" transform="translate(63.795 154.49) scale(.63984)"/><path fill="#afdde9" stroke="#000" stroke-dashoffset="1.323" stroke-linecap="round" stroke-miterlimit="10" stroke-width="2.344" d="M56.252-23.214c3.728-8.138 7.37-16.298 8.732-25.005-9.875-1.132-19.75-1.581-29.627-7.022 0 0 17.41-6.202 24.524-11.838 2.317-1.836 5.86-3.95 5.579-6.891-1.345-14.044-20.057-18.747-32.393-27.244 14.043-4.966 28.155-12.022 42.361-21.964 0 0-28.42-22.258-41.008-35.12-2.852-2.914-7.756-9.46-7.756-9.46s7.225 2.482 10.909 3.48c10.103 2.74 30.643 6.872 30.643 6.872l21.837.223-2.618-18.61-14.919-51.299s4.314 5.337 6.878 7.592c10.68 9.395 25.11 14.178 35.016 24.385 5.85 6.028 13.775 21.102 13.775 21.102s22.884-13.827 30.92-24.143c7.023-9.014 9.737-20.887 13.846-31.36 4.81 14.537 10.098 30.095 8.667 45.453-.909 9.76-10.748 27.368-10.748 27.368 18.901 1.074 38.035.496 58.663-10.665-1.53 17.784-10.664 34.016-16.45 50.932L241.06-99.6c-5.36 10.947-17.18 17.431-37.883 17.778 0 0 11.503 14.42 18.65 20.128 2.63 2.101 8.74 5.058 8.74 5.058-8.045 5.341-20.218 7.04-31.112 9.866 2.029 7.878 4.891 16.649 9.096 26.858z" style="paint-order:normal" transform="translate(63.795 154.49) scale(.63984)"/><path d="M172.93-228.23c-1-.015-1.898.606-2.239 1.545-3.519 9.714-6.361 19.915-12.507 27.804-3.852 4.945-11.53 10.979-18.225 15.703-6.144 4.336-10.547 6.993-11.369 7.494-.444-.835-1.728-3.283-4.092-7.224-2.734-4.558-6.15-9.84-9.242-13.027-10.212-10.523-25.018-14.856-35.05-24.416-1.058-1.009-2.975-2.416-4.344-4.232-1.572-2.09-4.128-1.115-3.381 1.391l13.809 47.646 2.416 17.175-20.354-.206c-.173-.035-20.506-4.135-30.47-6.836-2.43-.66-4.808-1.495-7.238-2.311-2.204-.74-4.025 1.834-2.594 3.666 1.698 2.174 3.776 4.778 5.536 6.576 6.052 6.184 15.357 14.21 23.473 20.95.734-1.707 1.423-3.548 2.16-5.424-3.72-3.237-4.282-3.734-8.246-7.177-.628-.546-2.169-.612-2.785-1.153-1.194-1.05-1.882-2.334-3.011-3.354-.923-.833-2.252-1.731-3.115-2.533-1.14-1.058-2.32-1.286-3.324-2.266-.652-.637-1.22-1.728-1.801-2.323-.018-.018-.046-.057-.064-.076 1.763.476 3.78.623 5.954 1.143.997.239 1.973.903 3.018 1.227 1.213.376 2.595-.117 3.819.157 1.616.363 3.134.94 4.69 1.277a431.696 431.696 0 0 1 12.667 2.949 7.534 7.534 0 0 1 1.814-.77c1.145-.312 2.61-.445 3.935-.42a11.04 11.04 0 0 1 1.823.165c.537.102.988.21 1.381.569.233.212.396.466.512.731l3.456.37 4.302-.289 2.991.812 2.787-.753h.001c1.069 0 3.215-.112 3.868-.873.635-.74-.207-2.104-.352-3.133l.106-11.923-2.725-6.687v-.004c-.025-.17-.06-.34-.11-.506v-.004l-1.615-11.41-9.64-26.535c2.828 2.37 6.048 6.061 9.086 7.96 1.723 1.077 4.166 1.27 5.538 1.98 2.65 1.374 3.96 2.973 6.976 4.653 3.14 1.748 8.234 4.904 10.735 7.481 2.446 2.52 4.598 8.395 8.589 12.172 3.752 3.553 4.595 8.12 4.595 8.12.928 1.762 3.23 2.401 4.933 1.37 0 0 1.677-1.012 4.288-2.697 1.196-.77 3.036-.785 4.552-1.805 1.34-.902 2.329-2.787 3.815-3.835 1.793-1.266 4.529-2.513 6.385-3.918 2.4-1.817 4.074-4 6.078-5.976 2.35-2.316 4.953-4.443 6.758-6.76 1.32-1.694 2.667-2.64 3.666-4.058.874-1.24 1.427-2.935 2.188-4.567.325-.699.827-2.854 1.13-3.56.663-1.542.837-3.254 1.418-4.813.71-1.905 1.813-3.658 2.466-5.55.821 2.634 2.01 5.25 2.716 7.892.463 1.733.486 3.494.872 5.226.284 1.275.3 2.589.532 3.86.296 1.62.79 3.196.985 4.807.284 2.346.802 4.74.828 7.061.019 1.8-.398 3.53-.563 5.309-.065.69.036 2.141-.154 2.996-.318 1.428-1.028 2.385-1.604 4.089-.448 1.327-1.433 2.484-1.975 3.854-.684 1.729-.944 3.667-1.677 5.268-2.51 5.483-4.907 9.774-4.907 9.774-1.22 2.182.37 5.08 2.866 5.224h.004c10.895.62 22.1.617 33.68-1.636.771-.15 1.556-.704 2.33-.875 1.545-.34 2.987-.12 4.545-.547 1.03-.283 2.16-.791 3.197-1.115 1.386-.432 2.873-.41 4.27-.92.963-.352 1.834-1.215 2.804-1.605a94.36 94.36 0 0 0 3.535-1.51c-.153.81.067 1.631-.113 2.44-.16.714-.716 1.416-.895 2.127-.284 1.13-.71 2.272-1.039 3.4-.429 1.474-.495 2.933-.987 4.405-.48 1.435-.719 2.948-1.244 4.384-.45 1.231-1.462 2.384-1.937 3.618-.252.654-.82 1.468-.82 1.468s.012.617-.733 2.492c-2.539 6.383-5.232 12.842-7.507 19.493v.004a3.537 3.537 0 0 0 1.517 4.146l24.914 14.988a23.625 23.625 0 0 1-5.123 5.565c-.383.302-1.208.31-1.617.596-.682.475-.974 1.216-1.732 1.65-.742.423-2.035.525-2.853.905-1.095.508-1.745 1.276-2.983 1.699-1.105.377-2.596.525-3.822.828-1.535.38-2.841.893-4.577 1.147-1.033.15-1.503-.125-2.61-.021-.658.06-1.927.516-2.612.56-.206.013-.413.026-.621.037-.743.041-1.702.475-2.476.495-.733.02-1.28-.373-2.042-.373h-.002c-.728 0-2.29-.063-2.823.345-.406.312-1.435.804-1.685 1.251-.359.644 1.081 1.77 1.254 2.44.145.564.143 1.14.565 1.67 0 0 .783.522 1.935 1.932.437.535.556 1.73 1.115 2.402.58.696 1.508 1.225 2.194 2.028.343.402.696 1.211 1.06 1.632.632.73 1.735 1.236 2.417 2 .75.842.76 2.218 1.548 3.07.667.719 1.667.765 2.346 1.468 1.035 1.072 1.378 1.848 2.401 2.819.614.582 1.92 1.402 2.514 1.926.57.502.822 1.217 1.365 1.651.545.435 1.442.598 2.045.985.449.288.906.567 1.359.84-1.255.505-2.53 1.596-3.901 2.041-1.503.489-3.114.328-4.723.768-1.036.284-2.327.16-3.396.432-1.061.27-1.883 1.319-2.967 1.584-1.624.398-2.46-.223-4.108.181-.706.173-2.238.981-2.944 1.158-.706.177-1.412.356-2.115.539h-.002c-1.851.481-2.999 2.431-2.52 4.283.354 1.375.742 2.786 1.162 4.23.326 1.119.028 2.759.392 3.918.596 1.897 1.886 3.345 2.582 5.345a269.476 269.476 0 0 0 3.264 8.861l-141.94-3.08c2.966-6.672 5.771-13.543 6.947-21.056v-.003c.24-1.54-.603-3.034-1.937-3.698a3.415 3.415 0 0 0-1.137-.337h-.002c-.985-.113-1.914-.462-2.886-.572-1.136-.13-2.314-.019-3.433-.156-.707-.087-1.303-.412-2.004-.507-.55-.075-1.205.082-1.752.001-.177-.026-.561.028-.739.001-1.176-.181-2.044-.626-3.206-.854-.82-.16-1.73-.172-2.543-.363-.595-.14-.487-.369-1.078-.528-.094-.025-.888.03-.982.004a52.25 52.25 0 0 1-1.873-.551c.63-.26.663-.238 1.455-.578.81-.35 1.442-1.065 2.282-1.441.812-.364 1.834-.387 2.655-.775.958-.452 2.084-.623 3.027-1.106 1.102-.563 2.014-1.444 3.052-2.046.917-.532 1.95-.703 2.782-1.26.734-.493 1.28-1.37 1.924-1.88.44-.348 1.23-.607 1.856-1.083.762-.577 1.148-1.467 1.955-2.263.443-.438 1.14-.884 1.554-1.46.435-.606 1.199-.929 1.48-1.679.176-.467-.065-1.32.011-1.84.078-.527.096-1.08.04-1.658-.039-.412-.403-.688-.467-1.087-.079-.494.136-1.108.021-1.582-.186-.767.07-1.676-.202-2.393-.38-1-1.326-1.784-1.852-2.691-.325-.56-1.03-.827-1.404-1.355-.35-.493-.366-1.247-.754-1.713-.725-.872-1.378-1.977-2.214-2.762-1.078-1.012-1.956-1.178-3.162-2.064-.162-.12-.74-.736-.904-.853-.743-.53-.848-1.013-1.616-1.504-.167-.107-.99-.24-1.157-.345-1.019-.636-2.367-.855-3.399-1.457-.894-.521-1.472-1.429-2.37-1.932-.838-.468-1.247-1.365-2.083-1.824-.774-.425-1.974-.411-2.742-.832a337.178 337.178 0 0 1-3.53-1.953c3.07-1.23 6.142-2.557 9.219-3.99.843-.393 1.423-1.243 2.267-1.652 1.091-.53 2.445-.623 3.537-1.18 1.752-.896 3.784-1.173 5.538-2.144.907-.502 1.632-1.444 2.474-2.123-1.617-.192-3.458-.574-5.766-1.068a.7.7 0 0 1-.406-.256l-.375-.485c-7.58 4.142-15.137 7.56-22.676 10.347-1.824.674-2.08 3.148-.435 4.184 5.887 3.706 12.596 6.8 18.262 10.342 6.266 3.917 10.905 8.304 11.53 14.82.093.981-.456 1.913-1.472 2.916-1.037 1.024-2.438 1.968-3.668 2.943-3.37 2.67-9.455 5.633-14.666 7.875-3.787 1.629-5.31 2.15-6.9 2.738-1.952.722-2.066 3.44-.181 4.323 8.821 4.131 17.558 4.885 26.164 5.843-1.367 7.505-4.404 14.68-7.692 21.9a2.344 2.344 0 0 0 2.082 3.315l148.83 3.23a2.345 2.345 0 0 0 2.225-3.222c-3.62-8.974-6.209-16.837-8.09-23.926 9.713-2.443 20.236-4.237 28.191-8.668 1.643-.914 1.596-3.292-.081-4.14-1.938-.98-4.758-2.502-6.482-3.88-6.12-4.888-14.86-15.566-16.975-18.171 18.818-.796 30.374-6.969 35.944-17.297a2.344 2.344 0 0 0-.856-3.121l-26.143-15.727c5.517-15.797 13.828-31.211 15.875-48.145.226-1.864-1.722-3.223-3.394-2.369-18.97 9.684-36.65 10.513-54.264 9.625.636-1.163 2.064-3.695 4.224-8.414 2.599-5.68 5.329-12.49 5.816-17.723 1.355-14.543-3.182-29.05-7.666-42.662a2.344 2.344 0 0 0-2.193-1.611z" color="#000" style="-inkscape-stroke:none;mix-blend-mode:soft-light" transform="translate(63.795 154.49) scale(.63984)"/><path fill="#e3e2db" stroke="#000" stroke-dashoffset="1.323" stroke-linecap="round" stroke-linejoin="round" stroke-miterlimit="10" stroke-width="1.563" d="M94.157.388c.554.445 1.047.882 1.635 1.325.542.316 1.556 1.017 2.224 1.487.826.454 1.048.647 1.622 1.028.616.327 1.321.813 2.035 1.253.645.346 1.42.852 2.153 1.268.703.395 1.503.846 2.237 1.227.78.419 1.337.55 2.066.896.713.205 1.753.813 2.579 1.162.872.379 1.474.607 2.224.89.8.3 1.683.635 2.502.9.869.31 1.606.503 2.416.724.847.232 1.695.437 2.548.622.867.187 1.615.003 2.484.141.818-.199 1.762.062 2.696.155.831-.114 1.962.166 2.891.205.981.044 1.721.057 2.585.044a37.014 37.014 0 0 0 2.745-.12c.93-.064 1.866-.159 2.793-.296.952-.12 2.265-.283 3.2-.492 1.234-.157 1.606-.797 2.43-1.04.887-.677 1.902-.565 2.835-.907.991-.33 1.929-.723 2.885-1.154.982-.421 2.175-.798 3.143-1.331 1.18-.396 1.85-1.14 2.759-1.776.933-.7 1.873-1.389 2.823-2.154.926-.746 1.839-1.606 2.813-2.468 0 0 .13-.053.463.003a5.792 5.792 0 0 1 1.467.04c.604-.107 1.348.181 2.199.312.813.09 1.77.258 2.778.4.993.127 2.024-.009 3.137.124 1.085-.155 2.575.38 3.773.513 1.357.224 2.244.289 3.31.362 1.232.145 2.417.214 3.516.197 1.112-.017 2.325-.153 3.375-.264.739-.079 1.385-.39 2.115-.56.647-.358 1.557-.332 2.277-.59.778-.193 1.293-.95 1.96-1.273.564-.728 1.3-.624 1.915-1 .676-.366 1.462-.821 2.072-1.286.764-.436 1.078-1.014 1.617-1.516.503-.628 1.236-.986 1.75-1.577.65-.497.973-1.304 1.432-1.969.409-.724.858-1.369 1.24-2.083.369-.744.629-1.826.932-2.599.165-1.043.439-1.54.64-2.26.149-.931.307-1.87.437-2.683.039-1.072.174-1.788.213-2.588.008-1.063.013-2.121-.049-2.98-.078-1.254-.174-1.847-.335-2.673-.19-1.14-.425-1.866-.75-2.808-.34-1-.412-1.935-.942-2.97-.165-.96-1.075-2.105-1.882-3.222-.56-.952-1.599-2.526-2.515-3.573-.87-.994-1.772-1.512-2.717-2.546.274-.228.653-.475.948-.89.384-.34.587-.953.864-1.538.258-.589.715-1.14.923-1.83.406-.636.382-1.469.479-2.27.099-.788.33-1.56.274-2.406.146-.813-.227-1.78-.506-2.677a13.63 13.63 0 0 0-1.188-2.67c-.537-.939-.927-1.505-1.62-2.242-.64-.735-1.644-1.54-2.734-2.27-1.053-.706-2.224-1.334-3.58-1.93.099-.277.571-1.608.637-2.039.08-.318.047-.88.109-1.308-.015-.783.415-.894.64-2.716-.011-.662.354-1.42.427-2.076.063-.747.14-1.08.202-1.695.04-.71.282-1.346.345-2.068.215-.72.11-1.541.168-2.331.04-.815.1-1.975.15-2.797.032-1.109.098-1.417.133-2.156.058-.867.164-1.728.193-2.652.115-.878.023-2.02.038-2.994a203.53 203.53 0 0 1-.029-2.885c-.048-1.055.249-1.788.23-2.766.24-.93-.086-2.209-.13-3.294a552.91 552.91 0 0 1-.205-3.138c-.11-1.104-.144-2.08-.233-3.128-.094-1.076-.184-2.15-.303-3.235-.107-1.085-.173-2.161-.322-3.255-.07-1.087-.412-2.476-.597-3.582-.261-1.273-.354-2.167-.55-3.17-.21-1.204-.156-1.977-.394-3.02.007-1.036-.561-2.677-.87-3.82-.273-1.346-.543-1.992-.837-2.95a61.358 61.358 0 0 0-1.045-3.157c-.377-1.062-.511-1.978-.934-3.017-.19-.98-.974-2.272-1.486-3.355-.507-1.053-.768-1.843-1.288-2.807-.37-.918-1.186-2.111-1.814-3.12-.608-.969-1.228-2.303-1.866-3.199-.609-1.257-1.254-1.758-1.87-2.524-.752-.992-1.052-1.58-1.767-2.354-.517-.842-1.483-1.648-2.375-2.468-.69-.717-1.745-1.539-2.7-2.282a46.58 46.58 0 0 0-2.74-1.986c-.889-.602-1.938-1.207-2.988-1.79-.978-.52-2.079-1.102-3.178-1.614-1.062-.487-1.939-.896-3.079-1.336-.958-.389-2.213-.813-3.501-1.208-1.027-.307-2.31-.74-3.666-1.063-1.065-.312-2.356-.54-3.789-.788-1.046-.18-2.847-.375-4.389-.554-1.484-.173-3.011-.34-4.393-.415a60.552 60.552 0 0 0-3.508-.11c-1.152-.02-2.27-.046-3.358.026-1.116-.02-2.044.277-3.087.413-.97.242-2.107.345-3.14.55-.98.232-2.07.18-3.037.441-1.034.007-1.914.523-2.835.84-.931.292-1.826.658-2.706 1.03-.883.366-1.793.622-2.631 1.047-.902.278-1.674.884-2.48 1.365-.8.476-1.548 1.005-2.309 1.528-.73.553-1.544 1.013-2.267 1.582-.764.51-1.343 1.232-2.027 1.842-.602.684-1.263 1.322-1.91 1.97a35.075 35.075 0 0 1-1.724 2.101c-.458.798-1.201 1.37-1.776 2.08-.575.704-.789 1.482-1.33 2.218-.228.827-1.07 1.613-1.608 2.417-.453.805-1.03 1.473-1.509 2.252-.519.739-.965 1.58-1.422 2.392-.463.795-.897 1.62-1.325 2.447-.43.822-.808 1.698-1.21 2.54-.364.874-.795 1.657-1.169 2.508a52.622 52.622 0 0 0-1.11 2.535c-.372.819-.763 1.584-1.096 2.484-.403.733-.666 1.878-.985 2.822-.288.895-.602 1.766-.878 2.662-.291.882-.582 1.683-.837 2.587-.3.812-.537 1.833-.774 2.769-.255.874-.186 1.864-.394 2.773.058.948-.42 1.731-.616 2.626-.213.841-.253 1.936-.438 2.84-.037.976-.441 1.47-.614 2.307-.278.69-.067 1.99-.227 2.925.153.98-.336 1.67-.528 2.47-.202.835-.402 1.646-.501 2.464-.189 1.553-.333 3.077-.474 4.552-.122 1.48-.261 2.901-.362 4.28-.102 1.377-.137 2.76-.203 4.029-.02 1.3-.109 2.45-.148 3.573-.032 1.143-.076 1.66-.095 2.647-.032.64-.03 2.284-.03 3.274.001.82-.073 1.424-.066 2.076-.068.552.07 1.335.092 1.826.062.47.167.843.173 1.068.007.232-.157.225-.157.225-.706.127-1.438.213-2.135.463a7.226 7.226 0 0 0-2.095.764c-.715.207-1.412.738-2.036 1.241-.667.401-1.027 1.088-1.543 1.688-.362.643-.96 1.259-1.357 1.952-.361.675-.63 1.443-.877 2.185-.167.79-.122 1.556-.216 2.333.199.857-.18 1.45-.124 2.261 0 .776.214 1.78.494 2.718.268.904.73 1.885 1.25 2.85.584.98 1.264 1.986 2.043 2.973.79 1.001 1.949 1.994 3.076 3.017-.868.317-1.482.806-2.287 1.23-.616.558-1.542 1.019-2.308 1.564-.632.602-1.235 1.209-1.898 1.813-.466.726-1.36 1.147-1.95 1.824-.653.571-.932 1.41-1.44 2.144-.312.777-1.078 1.27-1.51 2.067-.535.578-.91 1.574-1.26 2.452-.4.738-.572 1.722-.81 2.608-.176.862-.19 1.76-.323 2.642.094.898-.236 1.714-.272 2.598-.055.855.007 1.83.075 2.727.097.91.1 1.345.274 2.21.114.594.475 2 .833 3 .305.854.735 1.774 1.164 2.611.481.884.952 1.675 1.485 2.444.61.858 1.098 1.457 1.772 2.174.702.745 1.572 1.58 2.448 2.254.764.587 1.627 1.094 2.57 1.543.94.442 2.06.911 3.127 1.24 1.128.395 2.276.585 3.368.804 1.248.22 2.098.191 3.18.326 1.095-.05 2.357.28 3.475.361 1.107.103 2.217.223 3.19.254 1.052.123 1.914.05 2.707.043.88.006 1.53-.035 2.111-.064.748.1.999-.074 1.28-.13.34-.066.61-.162.61-.162z" style="paint-order:normal" transform="translate(63.795 154.49) scale(.63984)"/><path fill="#afdde9" stroke="#000" stroke-dashoffset="1.323" stroke-linecap="round" stroke-linejoin="round" stroke-miterlimit="10" stroke-width="1.558" d="M99.871-134.46c4.242-.62 21.315 8.075 35.188 8.988 1.714.113 3.441.091 5.154-.049 12.643-1.033 31.374-7.01 36.102-3.67 1.28.906 2.764 3.498 2.112 4.906-1.442 3.116-33.74 7.002-40.983 6.933-5.471-.052-28.794-4.686-42.067-11.414-3.562-1.805.203-5.066 4.494-5.694z" style="paint-order:normal" transform="translate(63.795 154.49) scale(.63984)"/><path fill="#c8beb7" d="M130.69-161.22c-2.325-.009-4.568.679-6.86.976-1.77.35-3.644.26-5.3 1.06a143.93 143.93 0 0 0-6.424 2.503c-2.324 1.33-4.453 2.839-6.636 4.404-1.298 1.177-2.508 2.456-3.695 3.74-1.022 1.234-1.95 2.537-3.085 3.673-1.022 1.281-1.468 2.926-2.59 4.142-1.322 1.87-2.63 3.76-3.686 5.799-1.521 2.729-2.753 5.607-4.055 8.443-.84 1.982-1.828 3.85-2.38 5.961-.917 2.961-2.103 5.859-2.67 8.914-.167 1.424-.192 2.878-.758 4.219-.487 1.742-.344 3.623-1.098 5.297-.474 1.606.095 3.365-.582 4.932-.926 2.715-.946 5.685-1.266 8.498-.465 4.761-.564 9.547-.747 14.324.028 1.825-.084 3.65-.066 5.472-.024.729.27 1.435.188 2.137.04.096.06.199.06.303-.027 4.357.566 8.721.87 13.08.211 3.043-.177 5.689.236 8.473a85.65 85.65 0 0 1 1.814-.536c.086-.024.296-.113.542-.209-.251-2.435-.315-4.852-.517-7.755-.308-4.413-.972-6.98-.944-11.266-.144-1.152-.068-2.87-.313-4.053-.007-5.305-.182-11.899.153-17.158.32-3.524.488-6.657 1.193-10.133.429-1.352.618-2.802.597-4.239-.15-1.483.414-2.557.717-3.977.107-1.549 1.077-3.373 1.487-4.866.303-1.913.956-3.004 1.548-4.862 1.057-2.984 1.835-6.072 3.084-8.985 2.416-5.437 4.648-10.895 8.177-15.738 1.119-1.316 1.832-2.894 2.741-4.347 2.319-2.728 4.376-5.587 7.224-7.778 2.093-1.492 3.73-3.39 6.093-4.435 2.294-.82 4.49-2.357 6.867-2.932 3.134-.292 6.45-1.154 9.591-1.41 2.17-.039 4.661-.245 6.827-.097 3.793.289 7.987 1.062 11.743 1.977 3.374.818 6.862 2.209 10.058 3.691 3.864 1.792 6.91 4.63 10.1 7.548 1.45 1.236 2.542 2.796 3.701 4.288 1.374 1.573 2.324 3.434 3.395 5.213 1.66 2.598 2.876 5.435 4.18 8.22 1.024 3.104 2.615 5.405 3.514 8.55.722 2.287 1.848 3.704 2.169 6.077.472 2.974.658 7.028.905 10.035.388 3.947.592 8.375.902 12.265 0 1.77-.353 3.729-.253 5.506.187 4.257-.681 8.618-.781 12.869-.268 2.558-.702 4.881-1.201 7.398-.407 1.237-.55 2.657-.72 3.946-.425.955-.52 2.157-.798 3.13-.713 4.721-1.735 8.29-2.718 11.988.068.02.14.043.207.062.719.203 1.384.457 2.05.71 1.299-4.19 1.718-8.494 2.513-13.757a.783.783 0 0 1 .063-.177.897.897 0 0 1 .155-.638c.481-1 .377-2.115.576-3.174.44-.932.49-2.02.708-3.053.445-1.516.4-3.122.783-4.654.29-1.5.142-3.046.302-4.563.11-2.953.543-5.892.397-8.852-.028-1.65-.088-3.304.196-4.936.19-1.149-.011-2.296-.115-3.444-.298-4.64-.633-9.285-1.196-13.878-.514-2.786-1.07-5.594-1.345-8.39-.148-1.866-.86-3.622-1.261-5.44-.723-2.432-1.622-4.809-2.295-7.256-.527-1.914-1.674-3.57-2.38-5.417-.94-2.262-2.461-4.206-3.571-6.38-.663-1.119-1.3-2.258-2.233-3.182-1.23-1.61-2.319-3.359-3.916-4.645a41.976 41.976 0 0 0-7.303-5.493 52.35 52.35 0 0 0-12.4-5.285c-4.36-1.397-8.943-1.788-13.472-2.241-2.254-.173-4.678-.21-6.994-.194zM77.48-65.69c-.347.05-.703.089-1.018.225-1.186.286-2.348.724-3.382 1.373-1.078.646-1.866 1.625-2.531 2.672-1.124 1.34-1.901 3.043-1.867 4.817-.024.86.022 1.723-.175 2.575.066 3.347 1.955 6.33 4.042 8.82.694.753 1.464 1.43 2.224 2.115.812-.281 1.602-.55 2.374-.808-.46-.857-1.244-1.564-1.976-2.188a16.26 16.26 0 0 1-3.516-5.063c-.634-1.296-.717-2.756-.53-4.169-.038-1.164.023-2.377.597-3.426.844-1.388 1.777-2.852 3.287-3.59.786-.47 1.668-.643 2.548-.822-.042-.84-.07-1.684-.077-2.531zm109.9 7.103c-.128.88-.25 1.742-.368 2.58.54.273 1.076.555 1.563.917 1.95 1.207 3.387 3.11 4.138 5.265.517 1.16.364 2.422.183 3.636-.052 1.12-.537 2.114-1.05 3.086-.186.504-.527.906-.868 1.306a45.168 45.168 0 0 1 1.904 1.637c.094-.085.18-.167.267-.262.678-.763.898-1.818 1.48-2.654.494-.845.629-1.803.693-2.765.27-1.424.472-2.932-.124-4.307-.824-2.784-2.58-5.306-5.053-6.865-.871-.61-1.809-1.11-2.765-1.574zm8.89 26.513c.523 1.143 1.03 1.741 1.646 3.391.811 2.387 1.324 4.553 1.494 7.086.225 3.74.012 7.205-1.34 10.7-.591 1.213-1.285 2.791-2.14 3.841-.978.844-1.784 2.396-2.676 3.214-1.216 1.237-2.39 1.115-3.69 2.236-.63.713-2.908 2.101-3.808 2.276-2.6.512-2.95 1.06-4.249 1.353-1.307.296-3.22.512-5.103.255-2.046-.28-4.18.064-4.18.064 2.434.472 4.92.663 7.393.761 1.607-.05 3.257-.057 4.81-.508 1.008-.35 2.026-.644 3.08-.826.808-.255 1.4-.934 2.066-1.425.794-.618 1.86-.691 2.66-1.318.987-.558 1.884-1.25 2.601-2.133.934-1.01 2.248-1.69 2.83-3.002.819-1.341 1.739-2.65 2.106-4.205.323-.998.55-2.027.887-3.022.741-4.047.983-8.303-.186-12.296-.493-1.345-.723-2.775-1.29-4.09-.561-1.502-1.76-2.646-2.522-4.043-.94-1.504-2.106-2.854-3.515-3.937 0 0 1.505 1.907 1.88 2.731 0 0 .809 1.94 1.246 2.897zM70.4-38.672c-.885.811-1.7 1.69-2.564 2.516a6.65 6.65 0 0 0-2.27 2.683c-.72 1.41-2.083 2.405-2.597 3.939-.973 2.002-1.333 4.24-1.378 6.447-.28 1.432-.374 2.89-.21 4.344.151 2.738 1.019 5.584 2.395 8.027 1.584 2.873 3.83 5.462 6.666 7.148 3.097 1.736 6.616 2.633 10.15 2.809l-3.088-.991-1.947-1.001c-.89-.45-2.684-.86-3.603-1.315-1.237-.612-1.598-1.283-2.753-2.029-1.862-1.312-2.586-3.57-3.67-5.388-.94-1.579-2.012-3.234-2.36-5.084a18.216 18.216 0 0 1-.29-3.99c.289-2.5.15-4.898 1.142-7.255.523-1.52.979-2.618 1.721-4.007 0 0 .856-1.859 1.456-2.678.638-.873 1.618-1.46 2.248-2.338.402-.56.952-1.837.952-1.837zM99.934.451c-.613.03-1.227.064-1.84.118-.585.052-1.255.2-1.978.338.136.104.268.215.417.293 3.311 2.199 6.667 4.348 10.199 6.181 1.517.633 3.035 1.257 4.512 1.982 3.17 1.302 6.442 2.484 9.845 3.065 1.078.053 2.144-.04 3.217.036 1.277.225 2.6.13 3.898.363 4.018.221 8.068-.15 12.003-.96 1.255-.602 2.42-1.477 3.856-1.6 2.02-.493 3.858-1.522 5.81-2.22 1.088-.473 2.173-.974 3.055-1.792a64.956 64.956 0 0 0 4.732-3.786 84.401 84.401 0 0 1-1.962-.355 42.237 42.237 0 0 1-1.153-.251c-1.314 1.077-2.153 2.126-3.555 3.088-1.935 1.017-2.026 1.545-4.076 2.31-1.618.4-4.11 1.654-5.554 2.515-.93.395-3.538.969-4.384 1.117-3.298.466-5.803.738-9.121.412-1.822-.246-7.288-1.172-9.119-1.273-3.48-.507-5.977-1.919-9.238-3.192-3.616-1.412-5.49-3.47-8.403-5.585a30.735 30.735 0 0 0-1.161-.804z" style="paint-order:normal" transform="translate(63.795 154.49) scale(.63984)"/><g stroke-dashoffset="1.323" stroke-linecap="round" stroke-linejoin="round" stroke-miterlimit="10"><path d="M72.765-155.27c-1.324-.024-2.79.108-3.935.42-1.42.385-2.727 1.218-3.707 2.294-4.25 4.661-5.96 11.285-8.252 16.469-5.19 2.233-6.826 8.029-7.966 10.69a.7.7 0 0 0 .09.705l8.993 11.626a.7.7 0 0 0 .405.255c4.813 1.032 7.627 1.598 10.52.893s5.667-2.62 10.53-6.342a.7.7 0 0 0 .071-.063c5.925-5.961 10.05-11.94 14.727-17.855 2.892 2.355 5.513 3.61 7.537 3.815 1.087.11 2.033-.049 2.753-.524.72-.474 1.146-1.302 1.135-2.199a.7.7 0 0 0-.156-.43c-1.894-2.35-5.176-5.267-7.784-8.743a1.594 1.594 0 0 0-.983-.586c-.363-.067-.725-.033-1.095.048-.741.16-1.538.52-2.37.99-1.45.818-2.88 1.99-4.046 3.068l-3.317-3.639c-.45-.493-.976-.48-1.498-.481-.523 0-1.09.07-1.632.164-.862.149-1.352.293-1.643.371-1.187-1.737-2.769-2.817-4.402-3.635-.08-.266-.341-1.108-.402-1.53-.078-.54.126-1.395.269-2.288.071-.447.124-.91.058-1.39-.066-.48-.279-.99-.695-1.37-.393-.359-.845-.466-1.382-.568a11.028 11.028 0 0 0-1.823-.166z" color="#000" style="-inkscape-stroke:none;mix-blend-mode:soft-light" transform="translate(63.795 154.49) scale(.63984)"/><path fill="#e3e2db" stroke="#000" stroke-width="1.563" d="M51.524-115.02c10.735 2.301 12.029 2.352 22.86-5.94 6.746-6.788 11.392-13.623 16.825-20.44 6.87 5.936 12.178 5.408 12.14 2.288-2.033-2.522-5.734-5.816-8.707-9.78-1.161-1.55-6.396 1.955-8.958 4.509l-4.179-4.586c-.742-.814-5.012.394-5.012.394-1.31-2.228-3.264-3.408-5.326-4.412 0 0-.446-1.385-.55-2.101-.247-1.706 1.11-4.007-.164-5.17-.85-.775-4.909-.807-7.238-.174-1.425.387-2.77 1.241-3.766 2.333-4.606 5.052-6.51 12.453-9.147 18.358-5.709 2.187-7.459 8.574-8.816 11.743z" style="paint-order:normal" transform="translate(63.795 154.49) scale(.63984)"/><path d="M180.78-183.15a.69.69 0 0 0-.46.213c-.452.476-.926 1.067-1.18 1.87-.254.802-.267 1.784.07 2.977.66 2.34 2.682 5.62 7.065 10.706-.404 1.646-.405 3.286-.296 4.902a26.011 26.011 0 0 0-1.131-1.456c-.373-.439-.62-.776-1.1-1.003-.662-.313-1.448-.243-2.262.083-.635.254-1.294.833-1.942 1.444-.912-.885-2.334-2.249-5.15-1.952-2.984.315-4.26.866-6.134 1.159-2.097.328-3.974.512-5.652.568a.69.69 0 0 0-.66.583c-.19 1.217.12 2.285.836 3.013.716.727 1.733 1.118 2.917 1.361 2.28.468 5.292.379 8.445.3.242.395.539.808.947 1.238a50.65 50.65 0 0 0 .75 8.755c-.805-.661-1.603-1.345-3.485-2.748-1.316-.98-2.73-1.983-4.024-2.789-1.295-.805-2.431-1.423-3.4-1.622-.578-.118-1.133.012-1.741.189-.608.177-1.25.43-1.843.69-1.125.493-1.977.964-2.075 1.018-2.613.237-4.635.82-6.723 1.515a.69.69 0 0 0-.47.608c-.084 1.164.399 2.173 1.22 2.818.823.644 1.922.985 3.194 1.178 2.451.373 5.61.156 8.796-.215.713.835 1.418 1.679 2.376 2.453 1.336 3.461 2.916 8.635 4.768 13.452 1.866 4.857 3.929 9.336 6.595 11.412 1.952 1.52 5.121 1.327 7.835.932a36.573 36.573 0 0 0 5.006-1.108.69.69 0 0 0 .433-.393l5.464-13.086a.69.69 0 0 0 .048-.183c.922-7.653-1.622-23.42-3.726-35.118a.69.69 0 0 0-.096-.249c-2.682-4.212-7.039-8.665-12.734-13.358a.69.69 0 0 0-.48-.157z" color="#000" style="-inkscape-stroke:none;mix-blend-mode:soft-light" transform="translate(63.795 154.49) scale(.63984)"/></g><g fill="#b3abac"><path d="M104.244 59.691s-.274-1.077.165-1.478c.597-.546 1.906-.905 1.906-.905l-.1 1.497z"/><path d="m107.096 54.137-1.173 4.545 2.012-1.226c-.734-1.643-.638-2.306-.839-3.319zM111.452 58.597a3.158 3.158 0 0 1-.34.415c-.9.842-1.64 1.303-2.017 1.615-.661.55-.074 1.438-.074 1.438l3.317-2.355a.494.494 0 0 1-.031-.027 5.222 5.222 0 0 0-.855-1.086z"/></g><path fill="#e3e2db" stroke="#000" stroke-dashoffset="1.323" stroke-linecap="round" stroke-linejoin="round" stroke-miterlimit="10" stroke-width="1.563" d="M197.98-122.25s-10.186 3.16-13.822.329c-5.448-4.243-9.575-19.992-12.656-27.93-1.247-.949-2.083-2.044-3.07-3.18-7.432.892-14.79.995-14.476-3.416 2.4-.799 4.637-1.46 7.61-1.708 0 0 4.44-2.45 6.001-2.13 3.486.714 13.568 9.17 13.568 9.17-.912-4.312-1.147-7.845-1.142-12.001-.71-.657-1.09-1.293-1.468-1.928-7.44.18-14.164.43-13.408-4.384 1.937-.065 4.092-.276 6.492-.652 2.21-.345 3.597-.956 6.901-1.305 3.305-.348 4.646 1.412 5.713 2.412 1.707-1.928 3.534-2.44 4.459-2.002s3.802 4.802 3.802 4.802c-.11-2.865-.61-5.788.191-8.516-10.248-11.809-8.88-14.817-6.97-16.822 6.409 5.28 11.288 10.283 14.25 14.937 2.379 13.226 5.217 31.157 4.21 39.513z" style="paint-order:normal" transform="translate(63.795 154.49) scale(.63984)"/><g fill="#b3abac"><path d="M117.508 61.636a2.074 2.074 0 0 0-.14.106c-.2.168-.424.336-.633.492-.33.248-.68.378-1.008.629-.324.247-.41.336-.625.683-.444.718.01 1.24.01 1.24l3.078-2.401zM182.351 34.571c.02.091.034.176.062.276.408 1.446 1.785 3.789 5.043 7.543a.5.5 0 0 1 .102.468c-.47 1.599-.174 3.41-.102 5.289a.5.5 0 0 1-.445.494l2.443 4.054s.776-.085.01-2.2c-.527-1.455-1.234-1.935-1.473-3.033-.348-1.606.192-3.312.119-4.928-.043-.952-1.82-2.273-2.677-3.45-1.073-1.472-3.082-4.513-3.082-4.513zM171.058 55.302c-1.559.218-3.68.7-7.496.468.385.218.923.39 1.59.49 1.65.25 3.994.102 6.354-.181a.5.5 0 0 1 .436.169c.645.741 1.155 1.404 1.89 1.964a.5.5 0 0 1 .164.217c.999 2.573 2.149 6.353 3.482 9.823 1.333 3.47 2.903 6.624 4.458 7.834.913.712 3.04.747 4.915.474a20.856 20.856 0 0 0 2.99-.646l-1.933-3.097s-.326 1.924-2.896 1.78c-1.766-.098-3.319-.672-4.465-2.867-.51-.896-1.033-1.787-1.467-2.722-.515-1.108-.878-2.28-1.346-3.408-.436-1.051-.94-2.073-1.363-3.129-.557-1.388-.67-3-1.548-4.21-.939-1.29-2.507-3.135-3.765-2.96z"/></g><path fill="#d4cac0" stroke="#000" stroke-dashoffset="1.323" stroke-linecap="round" stroke-linejoin="round" stroke-miterlimit="10" stroke-width="1.563" d="m85.683-144.38-4.871 3.696" style="paint-order:normal" transform="translate(63.795 154.49) scale(.63984)"/><path fill="#b3abac" d="M182.652 46.133c-.2.16-.403.344-.606.574a.5.5 0 0 1-.277.133l1.654 3.86 1.406 4.387s.406.243.643-.563c.31-1.055-.838-3.95-1.547-5.831-.336-.892-1.273-2.56-1.273-2.56z"/><path fill="#d4cac0" stroke="#000" stroke-dashoffset="1.323" stroke-linecap="round" stroke-linejoin="round" stroke-miterlimit="10" stroke-width="1.563" d="m76.493-148.57-5.195 3.58" style="paint-order:normal" transform="translate(63.795 154.49) scale(.63984)"/><path fill="#b3abac" d="M121.837 62.871c-.92.199-1.366 1.295-2.026 1.967-.804.818-1.634 1.617-2.353 2.511-.807 1.003-1.372 2.186-2.185 3.184-.73.894-1.572 1.69-2.4 2.495-.626.61-1.258 1.216-1.938 1.765a25.774 25.774 0 0 1-2.279 1.62c-.93.595-1.88 1.17-2.875 1.65-.69.334-1.381.731-2.14.85-.967.154-1.964-.045-2.933-.192-.987-.15-2.912-.7-2.912-.7l.593 2.698c2.446.495 4.052.702 5.545.338 1.791-.437 3.686-1.705 7.118-4.331 4.267-4.299 7.226-8.643 10.711-13.016a.5.5 0 0 1 .717-.066c2.144 1.852 4.027 2.66 5.265 2.785.46.047.824-.002 1.084-.099 0 0-1.79-.265-2.59-.658-1.091-.536-1.806-1.662-2.87-2.25-.475-.262-1.001-.665-1.532-.55z"/><g stroke="#000" stroke-dashoffset="1.323" stroke-linecap="round" stroke-linejoin="round" stroke-miterlimit="10" stroke-width="1.563"><path fill="#d4cac0" d="m71.167-152.98-7.288 4.443M65.842-149.74c.061-.043 1.833-7.103 1.833-7.103" style="paint-order:normal" transform="translate(63.795 154.49) scale(.63984)"/><path fill="#97d8d5" d="m46.42-108.69 7.92-6.381c-.71-5.869-4.25-12.094-12.252-12.469l-.74 1.405z" style="paint-order:normal" transform="translate(63.795 154.49) scale(.63984)"/><path fill="#97d7d6" d="m109.9 14.128 1.953.268c3.337 3.118 7.521 5.732 12.456 6.442 3.266.47 6.984 1.454 11.17.608 5.194-1.05 9.281-2.456 12.351-5.195l3.948.412c10.085 22.94-3.707 86.187-9.46 109.94l-47.415.455c4.372-37.744 1.309-76.68 14.997-112.93" style="paint-order:normal" transform="translate(63.795 154.49) scale(.63984)"/></g><path fill="none" stroke="#c8beb7" stroke-dashoffset="1.323" stroke-linecap="round" stroke-miterlimit="10" stroke-width="1.563" d="M88.279-70.031c3.075 2.455 6.275 3.771 9.371 4.744 4.916 1.545 9.745 1.71 14.703.272 2.164-.627 4.33-1.494 6.5-2.563" style="paint-order:normal" transform="translate(63.795 154.49) scale(.63984)"/><g stroke="#000" stroke-dashoffset="1.323" stroke-linecap="round" stroke-miterlimit="10"><g stroke-linejoin="round"><path fill="#97d8d5" stroke-width="1.563" d="m201.42-117.58-5.989-4.666c-2.136-10.51.72-14.408 3.893-19.59l9.725 5.186z" style="paint-order:normal" transform="translate(63.795 154.49) scale(.63984)"/><path fill="#f9f9f9" stroke-width="2.344" d="M64.661 127.06c1.59-10.364 2.657-29.097 4.528-47.569.418-4.13 1.71-9.838 2.023-13.632.393-4.747.523-9.295.796-13.025.311-4.261 1.303-7.776 1.314-9.95-6.628-3.57-14.017-8.375-21.696-12.746-8.577-4.88-17.545-9.408-26.807-14.968C15.802 9.758 7.56 3.285-1.488-2.457c-6.572-4.17-14.018-7.57-20.33-11.773-16.948-11.287-31.64-22.244-43.596-32.18-3.04-2.526-6.74-5.204-9.274-7.55-9.663-8.946-15.374-16.44-15.068-21.43.294-4.805 10.906-11.066 26.006-17.545 6.69-2.87 14.754-5.156 22.209-8.632 5.142-2.398 10.539-3.692 15.906-5.467a918.805 918.805 0 0 1 23.986-7.55c3.85-1.156 8.858-1.75 12.425-2.776 15.58-4.48 25.96-8.86 29.92-9.532 6.388 6.175 6.802 13.981 5.278 25.557l-25.9 12.458-6.738 2.75c-4.662.982-9.234 3.955-13.491 5.861l-26.582 12.797L19.98-33.12c8.637 6.35 17.964 12.345 27.13 18.828 10.118 7.157 6.394 5.24 31.291 21.115 6.125.54 10.9 2.489 15.056 3.723 8.875 2.635 13.504 2.078 16.443 3.586-9.403 28.145-12.269 93.29-14.997 112.93zM151.8 15.551c-.54 24.334-6.208 87.519-9.486 111.05l42.387-.313c-.415-5.403-1.102-23.336-1.163-41.938-.009-2.866.486-7.985.482-10.714-.004-3.036-.301-6.017-.239-8.722.077-3.35.365-7.027.506-9.545.121-2.166.269-3.963.445-5.29 9.534-8.264 16.566-15.494 25.374-23.292 7.842-6.942 17.544-14.506 24.702-21.009 4.64-4.215 9.892-10.893 14.209-14.9 4.887-4.538 11.382-8.679 15.798-12.862 32.5-30.787 49.926-52.08 48.93-61.754.615-6.863-12.142-15.618-38.183-27.73-3.444-1.603-6.851-3.94-10.77-5.635-4.18-1.808-8.884-4.11-13.606-6.025-6.468-2.622-13.368-4.153-20.86-6.978-6.326-2.385-12.843-5.594-19.904-8.124-6.057 7.188-13.878 11.691-5.599 33.463 5.663 2.323 11.327 4.664 16.991 6.995 5.126 2.11 10.485 3.496 15.606 5.568 4.445 1.797 8.483 3.956 12.921 5.695 2.524.988 5.82 1.74 8.342 2.702 4.322 1.649 8.036 3.811 12.347 5.362-13.46 11.876-25.585 26.955-40.35 42.832a444.708 444.708 0 0 1-5.094 5.39c-9.345 9.72-20.25 19.509-31.33 29.498-4.86 4.381-9.752 8.8-14.562 13.27-8.492-1.255-15.853 2.585-27.894 3.005z" style="paint-order:normal" transform="translate(63.795 154.49) scale(.63984)"/></g><path fill="none" stroke-width="1.563" d="M74.547-42.189c2.75-.958 5.222-1.786 7.631-2.467.308-.087.87-.345 1.175-.427 1.497-.401 2.877-.376 4.4-.656 1.956-.36 3.824-.813 6.02-.957" style="paint-order:stroke fill markers" transform="translate(63.795 154.49) scale(.63984)"/></g><path fill="#f9ff50" d="m110.675 174.783-.52 5.969c.3.166.615.355.91.514a.75.75 0 0 1 .394.663c-.008 1.616-.65 3.778-.843 6.419-.173 2.36-.255 5.278-.508 8.341-.21 2.535-1.038 6.178-1.297 8.736-.961 9.495-1.601 18.8-2.348 25.642l1.314.191 1.298-11.847-.096-2.844.508-2.744.093-2.394.417-2.811.045-4.55 1.199-5.711.846-4.548-.009-6.409.642-4.383.002-2.177-.532-2.385-1.005-2.666z"/><g stroke-dashoffset="1.323" stroke-linecap="round" stroke-miterlimit="10" stroke-width="1.563"><path fill="none" stroke="#000" d="M94.157.388c1.328-.078 2.662-.493 3.864-.6 1.954-.173 3.88-.163 5.66-.354 2.928-.315 5.657-.877 8.935-1.494M159.48 1.977c-1.224-.2-2.4-.393-3.639-.634-.84-.163-3.01-.693-3.895-.875-1.543-.315-1.862-.243-3.663-.607" style="paint-order:stroke fill markers" transform="translate(63.795 154.49) scale(.63984)"/><path fill="#ececec" d="m44.279-119.16-7.608 2.795-5.719 2.484-10.063 1.712-10.244 3.962-13.228 3.265-8.49 2.892-8.17 2.607-10.724 4.736-8.265 4.269-10.819 4.19-11.195 4.963c-6.998 1.926-10.156 4.633-12.603 6.816-3.49 3.113-2.763 6.398-.637 11.016.557 1.21 1.795 4.534 2.49 5.728 1.395 2.402 2.627 4.012 3.536 5.929.773 1.633 2.277 3.27 2.797 4.482 11.92 9.906 26.579 20.84 43.496 32.106 6.2 4.129 13.642 7.529 20.309 11.759C8.255 2.334 16.489 8.8 25.423 14.163c9.217 5.533 18.172 10.056 26.783 14.955 7.72 4.393 15.111 9.197 21.672 12.73.381.205-.18-9.502-.181-9.07 2.415 2.715 5.183 10.98 4.88 15.109-.596 3.074-1.806 9.05-.989 12.632-2.305 7.275-1.752 16.257-2.232 22.76-.205 2.783.103 3.887-.093 6.448-.039.503-1.211 4.406-1.25 4.902-.808 10.52-.897 17.787-1.42 28.71l22.23-6.45c1.057-11.008 2.254-26.71 3.91-43.222 1.783-17.768 3.968-36.069 7.253-50.025l1.107-4.286-1.015.458-4.753 2.791-4.313-.96-7.965-.516-4.99-1.827-8.243-.61-3.924-3.572-7.716-4.78L57.28 6.3 51.457.546 44.341-3.89 35.83-9.258l-7.292-5.971-8.513-7.297-11.542-7.092-5.964-3.4-8.297-6.833-7.004-4.28-4.306-3.834-3.207-3.02-4.276-2.349-5.762-5.639-4.149-5.833 6.99-3.359c.06-.135.143-.258.248-.362L-.663-81.324l.03-.014c4.074-1.824 8.636-4.798 13.54-5.883l6.692-2.73 25.27-12.153c.688-5.442.93-10.022.279-13.84a18.884 18.884 0 0 0-.868-3.215z" color="#000" style="-inkscape-stroke:none" transform="translate(63.795 154.49) scale(.63984)"/></g><path fill="#f9ff50" d="m180.847 183.03-.903 5.31-.182 1.944-.375 2.026.153 6.537.062 4.478-.29 3.478-.177 3.496.307 4.488-.196 4.008.478 5.779-.634 9.992 2.1-.015c-.27-3.965-.673-14.632-.71-26.088-.005-1.923.31-5.202.308-6.857-.003-1.894-.194-3.8-.153-5.598.05-2.174.236-4.537.325-6.132.079-1.396.173-2.56.29-3.442a.75.75 0 0 1 .253-.467c.26-.226.483-.436.737-.66l.196-5.793z"/><path fill="none" stroke="#c8beb7" stroke-dashoffset="1.323" stroke-linecap="round" stroke-miterlimit="10" stroke-width="1.563" d="M145.4-64.29c6.841 4.09 19.414 7.13 29.106.04" style="paint-order:normal" transform="translate(63.795 154.49) scale(.63984)"/><path fill="#f2f2f2" d="m115.907 184.008-1.062-3.094-1.262-2.79-2.398-2.337c1.484 1.974 3.07 6.834 2.886 9.342-.381 1.967-1.156 5.79-.633 8.082-1.475 4.655-1.121 10.402-1.428 14.563-.131 1.781.066 2.487-.06 4.126-.025.321-.775 2.819-.799 3.136-.517 6.73-.574 11.381-.91 18.37l5.228-1.517-2.312-8.23-.036-5.407 1.034-6.871.503-11.41 1.186-9.09.385-3.06z"/><g fill="none" stroke="#000" stroke-dashoffset="1.323" stroke-linecap="round" stroke-miterlimit="10" stroke-width="1.563"><path d="M192.91-39.092c-3.41-3.155-6.893-5.684-11.688-7.04-1.14-.323-2.33-.777-3.635-.96-1.112-.156-2.314-.061-3.569-.106-1.561-.056-3.17.154-4.988.286-1.23.09-2.594.05-3.957.233M186.77-59.815c-.83 5.5-1.246 10.016-2.74 14.513M78.264-66.431c-.028 4.431.569 8.816.87 13.14.217 3.119-.28 5.941.306 9.082" style="paint-order:stroke fill markers" transform="translate(63.795 154.49) scale(.63984)"/></g><path fill="#782121" stroke="#000" stroke-dashoffset="1.323" stroke-linecap="round" stroke-miterlimit="10" stroke-width="1.563" d="M127.54-37.663c-6.15.026-11.138-.563-16.775-1.341-17.011-2.347-48.974 1.212-43.43 22.076s34.968 2.833 56.105 2.84c21.138.007 61.24 22.237 69.177-.197 7.937-22.435-25.714-27.066-45.038-24.956-6.66.727-13.889 1.551-20.039 1.578z" style="paint-order:normal" transform="translate(63.795 154.49) scale(.63984)"/><path fill="#c8beb7" d="M138.88-62.943c-.465 3.987-1.988 7.598-4.055 10.384-2.618 3.528-6.126 5.802-9.59 5.658-.893-.037-1.71-.298-2.361-.788.309 2.225 1.371 3.24 3.22 3.316 1.025.043 2.077-.158 3.116-.57a10.865 10.865 0 0 0 2.11-1.134c1.02-.695 1.999-1.583 2.898-2.629 2.947-3.428 5.034-8.557 4.848-14.158z" style="paint-order:normal" transform="translate(63.795 154.49) scale(.63984)"/><g stroke-dashoffset="1.323" stroke-linecap="round" stroke-miterlimit="10"><path fill="none" stroke="#000" stroke-width="1.563" d="M88.279-69.204c3.075 2.455 6.275 3.771 9.371 4.744 4.916 1.545 9.745 1.71 14.703.272 2.164-.627 4.33-1.494 6.5-2.563M145.4-63.463c6.841 4.09 19.414 7.13 29.106.04" style="paint-order:normal" transform="translate(63.795 154.49) scale(.63984)"/><g stroke-linejoin="round" stroke-width="3.591"><path fill="#ececec" d="M194.265 72.642a9.72 9.72 0 0 0-.358.863c-.981 2.776-.944 6.715 1.549 13.392 3.517 1.443 7.034 2.896 10.55 4.343 3.216 1.324 6.643 2.21 9.981 3.56 2.891 1.17 5.473 2.55 8.26 3.642 1.53.599 3.636 1.079 5.331 1.726 2.836 1.082 5.209 2.463 7.887 3.426a.75.75 0 0 1 .39 1.001l3.345 1.224-2.676 4.92-5.25 5.635-8.466 9.355-7.739 9.557-7.838 6.468-5.733 5.202-4.75 5.784-7.46 6.948-5.548 3.78-4.084 4.021-3.743 1.174-4.604.951-5.851.52-1.76.878-2.552-.19-1.738-.129c-.838 17.1-3.562 47.18-5.449 61.931l-.161 2.116 12.25-.09 7.937-4.53.495-8.976-.286-3.555.266-3.576.387-3.738 1.122-9.429.215-9.857.89-2.948.665-3.27.888-2.892 1.765-2.287-.889 6.377c6.075-5.265 10.57-9.888 16.23-14.899 5.045-4.466 11.252-9.306 15.797-13.435 2.885-2.622 6.242-6.889 9.087-9.53 3.203-2.973 7.364-5.63 10.102-8.223 10.383-9.836 18.351-18.151 23.62-24.745a78.94 78.94 0 0 0 3.246-4.334c1.97-7.226-1.036-9.974-5.494-11.414l-7.676-4.077-6.735-4.92-8.324-3.352-8.187-5.116-5.678-2.546-3.986-1.148-4.811-1.8-5.244-3.069-7.735-1.722z"/><path fill="#f9f9f9" d="m131.157 167.204-19.349 34.355 5.818 12.193-3.138 12.715s2.724.48 2.896.096c.097-.216 1.682-1.788 2.517-5.54.165-.741.473-1.963.63-2.628.16-.681.699-2.383.699-2.383l-1.084-2.425-.921-3.023-1.278-2.851-1.315-2.869-.728-1.655 1.797-5.081 1.532-2.795 1.785-3.355 1.37-2.786.972-2.179.944-1.63 1.158-1.96 1.006-2.06 1.423-3.165 2.051-4.625c.156-.713 2.375-6.68 2.375-6.68s-.816.21-1.16.33z"/><path fill="#fff" d="m131.157 167.204-19.349 34.355 5.818 12.193-3.138 12.715s2.724.48 2.896.096c.097-.216 1.815-8.038 1.815-8.038l.97-2.734-.66-1.566-.87-2.122-.842-2.256-1.008-1.704-.851-2.223-1.42-2.776 1.184-2.92 1.058-2.907.848-1.465.93-1.703 1.446-2.452 1.99-4.552 3.082-5.388 2.03-3.893 1.956-4.168z"/></g><path fill="none" stroke="#000" stroke-width="1.563" d="M126.05-71.387c-.447 1.444-.85 2.811-1.211 4.105-3.939 14.107-3.914 19.42.423 19.6 6.181.258 13.31-8.34 12.972-18.49" style="paint-order:normal" transform="translate(63.795 154.49) scale(.63984)"/><g stroke-linejoin="round"><path fill="#f2f2f2" d="m38.49 114.142.387 1.006.491 1.275 1.97 3.262 1.548 2.03 2.097 1.855 4.212 3.786 2.821 1.611 4.823 4.012 6.212 3.88 5.052 3.419 3.624 3.629 5.208 3.735 4.744 2.954 2.66 2.772 6.095 3.36 3.038 2.819 4.022 2.87 3.235 1.929 3.432 1.835 2.889 1.784 1.72 1.728 2.861 1.54 5.334 1.359 5.12 1.333 3.365.622 1.395.404c1.228-2.271 2.158-3.078 2.692-5.348l1.62-2.4-2.531 1.75-2.76-.615-5.096-.33-3.193-1.17-3.978-1.83-3.807-.846-4.937-3.058-4.411-2.584-3.726-3.683L92.166 152l-5.446-3.435-4.666-3.82-5.447-4.67-7.385-4.537-3.816-2.176-5.31-4.372-4.48-2.738-2.756-2.454-2.052-1.932-1.86-2.016-1.73-1.777c-.126-.574-.962-2.095-.95-2.976a21.17 21.17 0 0 1 .42-3.78z"/><path fill="#fff" stroke="#000" stroke-width="1.0000699199999998" d="M147.441 93.156c-.005.689-.069 1.185-.134 1.76a15.042 15.042 0 0 1-.765 3.297c-.184.511-.438.905-.68 1.391-.251.502-.528.993-.839 1.46-.295.445-.604.879-.951 1.284-.35.41-.726.79-1.124 1.152-.403.367-.842.698-1.288 1.01-.455.32-.906.63-1.397.89-.512.27-1.009.524-1.552.724-.571.212-1.186.351-1.78.484-.607.136-1.264.13-1.882.202-.642.074-1.316.22-1.975.17-.599-.044-1.197-.036-1.792-.112-.585-.074-1.171-.19-1.743-.335a14.681 14.681 0 0 1-3.173-1.21c-.517-.27-.92-.54-1.402-.869-.49-.335-.857-.684-1.305-1.074-.44-.383-.799-.786-1.194-1.216a15.245 15.245 0 0 1-1.042-1.284c-.33-.447-.651-.936-.932-1.416a13.68 13.68 0 0 1-.695-1.422c-.22-.502-.418-1.135-.576-1.66a11.898 11.898 0 0 1-.363-1.504c-.086-.538-.108-1.076-.02-1.604.096-.573.113-1.135.174-1.713.06-.567.15-1.13.267-1.688.112-.54.397-1.055.567-1.58.16-.5.337-1.022.55-1.502.212-.475.446-.948.712-1.395.266-.449.574-.874.896-1.285.324-.414.737-.77 1.114-1.136.379-.367.768-.726 1.192-1.04a11.606 11.606 0 0 1 2.97-1.608 13.56 13.56 0 0 1 1.761-.532c.64-.14 1.297-.23 1.95-.286.675-.057 1.407-.08 2.111-.069.6.01 1.198-.127 1.796-.068.593.058 1.239.172 1.823.287.542.107 1.057.21 1.586.37a17.01 17.01 0 0 1 1.718.612 13.42 13.42 0 0 1 2.788 1.603 10.511 10.511 0 0 1 2.207 2.253c.32.444.632.932.884 1.418.26.501.523 1.047.71 1.58.198.561.394 1.167.513 1.75.128.623.203 1.21.25 1.844.049.663.07 1.377.065 2.067zM180.694 95.659c.066.441-.151.94-.198 1.443-.047.494-.114.984-.201 1.472-.08.453-.18.903-.298 1.347-.114.426-.287.739-.44 1.152-.156.424-.328.844-.525 1.25-.18.37-.364.738-.58 1.088-.21.344-.439.67-.683.991-.243.319-.513.613-.787.905-.272.29-.534.585-.834.846-.304.264-.587.53-.917.76-.339.239-.718.428-1.08.63-.362.2-.776.273-1.155.44-.392.172-.797.196-1.201.34-.426.152-.795.306-1.228.436a17.14 17.14 0 0 1-2.8.574 8.025 8.025 0 0 1-1.522.056c-.509-.038-.922.023-1.432-.014a14.132 14.132 0 0 1-2.874-.497 13.797 13.797 0 0 1-1.314-.424 14.472 14.472 0 0 1-2.325-1.179c-.365-.226-.725-.587-1.066-.846a14.49 14.49 0 0 1-.908-.757 15.068 15.068 0 0 1-.89-.894c-.262-.282-.478-.562-.715-.865-.256-.33-.405-.646-.63-.997-.231-.363-.424-.72-.622-1.103a13.999 13.999 0 0 1-.517-1.135 15.43 15.43 0 0 1-.45-1.24c-.12-.39-.19-.762-.274-1.161-.09-.434-.027-.856-.079-1.296-.051-.435-.22-.88-.198-1.327.022-.444.01-.897.043-1.34a16.41 16.41 0 0 1 .387-2.577c.098-.404.217-.803.35-1.197.133-.394.301-.768.47-1.149.166-.378.321-.791.523-1.152.197-.351.401-.726.632-1.057.23-.33.487-.647.75-.952.269-.312.551-.614.85-.895.304-.284.713-.517 1.045-.767.323-.244.74-.462 1.084-.674.348-.213.798-.404 1.164-.585.375-.185.757-.355 1.146-.506.431-.167.885-.301 1.331-.423.464-.127.905-.292 1.38-.374.51-.087 1.107-.09 1.625-.112.52-.021 1.023-.06 1.535-.072.583-.013 1.186.054 1.767.107.538.049 1.035.033 1.567.122.524.088 1.026.176 1.54.31.478.124.964.274 1.427.443.427.155.858.338 1.268.534.39.187.755.354 1.125.58.37.227.726.473 1.068.74.323.25.741.529 1.034.814.268.261.519.486.758.774.264.319.627.659.852 1.006.206.318.391.568.56.907.192.385.35.77.495 1.176.14.389.394.788.496 1.188.101.396.166.762.223 1.166.062.433.157.875.184 1.312.027.432.138.888.13 1.32-.008.445-.132.896-.066 1.338z"/></g></g><path fill="#f2f2f2" d="m240.941 106.27-2.416 4.468-5.252 5.634-8.465 9.355-7.739 9.557-7.838 6.468-5.732 5.202-4.75 5.784-7.46 6.948-5.547 3.779-4.085 4.022-3.743 1.174-4.604.95-5.851.521-1.76.878-4.29-.319c-.066 1.338-.114 3.14-.201 4.623l1.865.683 7.382-.745 4.36-.187 3.319-1.6c4.18.388 5.872-1.36 7.646-3.038l2.979-2.609 5.885-6.552 4.385-3.252 4.77-5.615 4.753-5.268 4.684-4.342 5.332-5.263 5.517-5.858 3.727-4.629 5.747-6.343 5.643-5.717 2.609-4.059 3.379-3.585z"/><path fill="url(#a)" d="m157.69 21.844-5.038 1.29c-1.214 27.363-5.99 79.994-9.016 102.29l23.055-.17-5.996-29.608 18.25-18.076z" transform="translate(63.795 154.49) scale(.63984)"/><path fill="#f9f9f9" d="m164.947 170.304 3.24 14.161 4.58 12.464 3.502 6.3-2.477 5.553-8.376 6.232 6.04 21.154-7.663-.444.258-14.15-.751-3.302-.423-3.434 2.256-1.701 3.137-2.078 2.273-2.026 1.796-1.443 1.12-2.025 1.019-1.731-1.723-3.218-1.776-3.811-1.674-4.662-1.365-3.04-1.303-3.766-.827-4.217-1.081-4.084z"/><path fill="#fff" d="m164.691 168.467 13.83 36.01-8.511 9.245-3.939 2.079 10.724 31.574-7.391 1.555-4.066-26.271-.8-2.91-.31-2.671-.454-1.904 4.53-3.12 4.833-4.158 2.323-3.998-1.714-3.462-2.401-4.778-1.631-5.096-1.79-3.418-1.108-4.908-1.185-4.164z"/><g stroke="#000" stroke-dashoffset="1.323" stroke-linecap="round" stroke-linejoin="round" stroke-miterlimit="10"><path fill="#d4cac0" stroke-width="1.563" d="M184.23-168.97c2.49 4.573 3.444 8.711 4.801 12.964M192.49-166.17l3.595 6.44" style="paint-order:normal" transform="translate(63.795 154.49) scale(.63984)"/><path fill="#ff2a2a" stroke-width=".781" d="M167.61 36.405c-.643-9.734-8.94-23.852-28.181-21.79-7.753.83-7.57 7.953-1.17 7.46 2.512-.194 8.656-.302 11.42 2.44 2.024 2.007 1.856 8.347 1.856 8.347-.633 7.481 16.446 9.684 16.076 3.543z" clip-path="url(#b)" style="paint-order:normal" transform="translate(63.795 128.031) scale(.63984)"/></g><g fill="#fff" stroke="#000" stroke-dashoffset="1.323" stroke-linecap="round" stroke-linejoin="round" stroke-miterlimit="10"><path stroke-width=".781" d="M120.55-2.085C98.139-1.979 78.44.09 79.891 4.555c4.47 11.137 10.327 7.373 13.201-2.608 2.088 10.809 7.763 9.317 10.466-.188 2.867 10.27 9.287 11.002 11.141 1.105 5.803 13.211 12.343 7.166 13.029.637 4.658 10 11.448 7.613 13.247-.897 6.04 10.51 12.142 6.853 13.983-.805 3.865 15.493 13.095 5.036 13.049.696 5.822 11.908 11.779 10.38 13.252 3.84 1.405-5.443-31.894-8.555-60.708-8.42zM109.541 25.36c-2.503-.046-4.864 2.154-5.374 4.96-.199 5.99 11.787 3.68 9.664-2.095-1.235-2-2.788-2.837-4.29-2.864zm31.369.89c-1.69.077-3.283.967-4.066 2.886-3.803 10.03 61.424 15.298 52.9 2.943-3.812-5.957-11.18-6.73-10.608 4.84-.877-5.1-8.882-13.29-10.676-.39-1.706-8.225-9.087-11.05-11.431-2.28-.714-7.672-7.15-10.34-10.181-2.617-.04-3.385-3.122-5.512-5.938-5.383zm-54.666.622c-2.14.08-4.26 2.276-5.033 7.62-.83 5.839 22.154.573 20.171-3.49-3.003-6.12-8.674-4.004-9.7 2.257-.557-3.848-3.012-6.477-5.438-6.387z" clip-path="url(#c)" style="paint-order:normal" transform="translate(63.795 128.031) scale(.63984)"/><path stroke-width="1.563" d="M100.08-61.481c0 1.141-.719 4.3 0 3.431.724-.875.998-2.02 1.412-3.061.13-.325.405-1.573.277-.59-.21 1.599.181 3.305-.374 4.816-.115.313.162-.87.24-1.123.428-1.387 1.088-5.63 1.252-4.177.066.581-.052 1.517-.1 2.23-.073 1.053-.593 2.178-.21 3.16.363.935.219-.661.267-.95.25-1.495 1.329-5.867 1.28-4.389-.055 1.676-.395 3.412.043 5.03.19.707.379-1.025.452-1.353.201-.9.078-1.84.353-2.732.288-.936.299.766.338 1.085.07.569.153 2.173.236 1.902.088-.283.076-.583.125-.873" style="paint-order:normal" transform="matrix(.53532 0 0 .53532 77.88 125.117)"/><path stroke-width="1.563" d="M154.07-57.997c.237 1.207-.077 2.567.505 3.65.33.616.602-.667.721-.961.301-.745-.286-1.446-.154-2.178.055-.305.255-1.005.317-.264.072.877.271 1.755.223 2.633-.014.256-.15 2.237-.035 1.719.224-1.015.314-2.05.662-3.045.224-.639.439-2.666.443-1.98.008 1.137.268 2.326-.081 3.409-.107.333.204 1.679.236.69.037-1.16-.764-3.876.326-3.473.164.06.154.956.183 1.334.065.868.747 1.85.297 2.593-.24.396-1.04.27-.623-.448.45-.774.89-1.575 1.015-2.494.042-.304.138-1.2.138-1.108.01 1.341-.947 4.971.006 4.027.343-.34.536-.946.674-1.545.08-.347.06-1.416.117-1.267.13.339.25.681.361 1.026" style="paint-order:normal" transform="matrix(.59576 0 0 .59576 72.737 128.289)"/></g><path d="M159.27 25.819c.672 2.185 1.75 6.556 2.889 10.689.17.62.362 1.308.552 1.985.666 2.372 1.658 5.893 2.746 9.161.96 2.884 2.237 6.36 4.363 11.362 1.928 4.535 4.557 10.338 8.393 18.382-3.327 3.903-6.26 7.636-8.9 10.391l-.075.077c-1.439 1.495-3.002 2.948-4.693 4.189-1.593 1.169-3.273 2.13-5.095 2.817a1.093 1.077 68.901 0 0-.617 1.419c4.304 10.906 8.58 21.653 11.054 26.9 1.513 3.208 2.951 5.453 3.541 6.543-.327-1.196-.84-3.812-1.965-7.175-1.786-5.336-5.922-15.58-10.211-26.096 1.627-.748 3.124-1.688 4.528-2.753 1.792-1.359 3.423-2.916 4.902-4.456l.077-.08c2.85-2.978 6.013-6.906 9.532-10.906a1.075 1.062 53.137 0 0 .158-1.164c-3.964-8.369-6.64-14.334-8.591-18.952-2.094-4.953-3.362-8.383-4.344-11.199-1.243-3.565-2.135-6.396-3.071-9.012-.243-.679-.482-1.327-.717-1.946-1.578-4.15-3.442-7.898-4.456-10.177zM105.28 19.87c-1.095 1.845-3.14 4.908-6.708 10.662-2.228 3.592-5.52 8.84-9.587 15.451-4.118 6.694-10 16.394-14.94 27.125a1.115 1.087 40.784 0 0 .094 1.074 53.015 53.015 0 0 1 1.848 2.941 90.934 90.934 0 0 1 1.648 2.98c-.018-.04-.02-.054-.018-.056.002-.002.008.008.016.022.015.03.037.084.06.15.048.129.105.303.163.483.058.179.117.362.174.522a5.37 5.37 0 0 0 .133.34c.016.034.04.084.069.137.857 1.598 1.476 2.71 2 3.917l.036.084c1.355 3.14 2.503 5.945 2.864 6.92-.175.568-.432 1.381-.67 2.168-.423.973-.808 1.905-1.09 2.718a.052.477 22.813 0 0-.046.157c-2.35 10.598-4.105 18.938-4.78 23.175-.534 3.357-.488 5.18-.586 6.216.354-.978 1.175-2.607 2.125-5.87 1.197-4.107 3.166-12.361 5.56-22.902.313-.786.625-1.72.937-2.706a.002.155 17.571 0 0 .04-.135c.151-.85.293-1.741.439-2.602a.117.52 8.08 0 0-.048-.589c-.058.02-1.513-3.323-3.206-7.217l-.039-.088c-.62-1.41-1.073-2.31-1.9-4.07.018.031.023.039.025.036.002-.003 0-.016-.002-.034l-.03-.164c-.67-3.518.573 3.015-.097-.503a29.62 29.62 0 0 0-.108-.544 5.981 5.981 0 0 0-.056-.244 2.24 2.24 0 0 0-.036-.123 1.29 1.29 0 0 0-.062-.16 66.54 66.54 0 0 0-1.614-3.106 35.104 35.104 0 0 0-1.597-2.582c4.772-10.342 10.446-19.875 14.357-26.466 4.341-7.317 6.737-11.339 9.138-15.749 3.172-5.827 4.68-9.578 5.494-11.368z" style="paint-order:normal" transform="translate(63.795 154.49) scale(.63984)"/><path d="m52.993-120.06-6.72 3.746.147 7.624 7.92-6.382zM194.8-128.2l7.698 3.139-.636 7.983-6.655-5.579z" style="mix-blend-mode:soft-light" transform="translate(63.795 154.49) scale(.63984)"/><path fill="#b3abac" d="M178.845 48.033c-.59-.988-4.694.161-7.746-.058.228.086.479.164.77.224 1.507.309 3.762.25 6.144.193a.5.5 0 0 1 .441.245c.24.406.448.75.85 1.122a.5.5 0 0 1 .16.368c-.003 2.64.144 4.853.72 7.575a.5.5 0 0 1-.01.223s.413-.546.383-.858c-.453-4.64-.434-5.522-.367-6.655.057-.985-.553-1.048-1.108-1.98z"/><path fill="#fff" d="M99.984-133.69c-1.986.29-3.89 1.249-4.732 2.162-.421.457-.544.833-.508 1.088 0 0 2.424-2.194 5.078-1.884 1.723.2 3.616.618 5.635 1.169 1.621.442 3.155 1.665 4.915 2.236 1.968.64 4.177.638 6.257 1.324 1.278.422 2.57.84 3.87 1.244 2.529.783 5.407 1.933 7.936 2.49 2.855.629 5.367.443 8.073.505 2.444.057 4.878.026 7.317-.335 1.99-.294 4.042-.31 6.011-.747 1.974-.438 3.867-1.296 5.804-1.753 1.912-.451 3.802-.415 5.662-.766 1.373-.26 2.73-.943 4.067-1.092 1.932-.215 3.824-.29 5.667-.153 1.025.076 2.035.217 3.028.437 2.798.618 3.656 3.15 3.656 3.15.155-.334.069-1.15-.328-1.976-.396-.827-1.057-1.633-1.527-1.965-.895-.632-2.825-.941-5.376-.837-2.552.103-5.71.563-9.124 1.163-6.827 1.202-14.678 2.96-21.09 3.485a35.858 35.858 0 0 1-5.267.049c-7.077-.466-14.857-2.892-21.404-5.108-3.274-1.107-6.238-2.165-8.625-2.898-2.387-.734-4.266-1.095-4.995-.988z" style="mix-blend-mode:soft-light" transform="translate(63.795 154.49) scale(.63984)"/><path fill="#06f" d="M124.416 71.03c.023.162.146.38.63.625 4.182 2.12 10.016 3.936 15.224 5.214 5.207 1.278 9.856 2.02 11.472 2.036 2.221.021 8.727-.395 14.57-1.258 2.922-.431 5.583-1.117 7.696-1.624 1.057-.254 1.943-.51 2.569-.755a4.51 4.51 0 0 0 .722-.345c.162-.102.221-.194.208-.166 0 0-.788-.09-1.171-.013-1.013.201-2.952.052-5.202.442-2.076.36-4.247 1.44-6.92 1.84-2.174.326-4.313.267-6.505.41-2.21.143-4.428.664-6.343.526-2.228-.161-5.115-.883-7.554-1.447-2.402-.556-5.166-.538-7.422-1.261-2.17-.696-3.788-2.263-5.8-2.306-1.893-.041-3.519-1.257-4.801-1.753-.43-.166-1.372-.166-1.372-.166z" opacity=".1"/><path d="m179.376 204.414-8.56 8.618-4.635 2.86c.658 1.984 2.148 5.94 3.074 7.814.571-.45-.198-5.927.35-6.385 2.555-2.135 4.97-2.464 6.135-5.218a94.605 94.605 0 0 1 3.636-7.69zM110.922 201.656l3.848 12.232-.845 7.747 2.267-.414 1.698-7.521-5.221-11.811z" opacity=".1"/><path fill="#c8dd5d" d="M-58.592 94.979c-1.802.04-3.328 1.42-5.176 1.212-2.03.067-4.296.403-6.015 1.253-.613.383-1.269.66-2.008.626-3.77.36-7.562 1.695-10.302 4.392-2.021 1.826-4.034 3.852-5.064 6.42-1.047 3.02-.098 6.857 2.769 8.527.608.39 1.281.668 1.976.861.11.564.72 1.221.118 1.682-1.057 1.46-1.253 3.378-.914 5.103-.169 1.018-.842 1.892-1.092 2.903-.385 1.047-.524 2.176-.624 3.266-.326.851-1.287 1.156-1.843 1.84-1.52 1.536-2.836 3.275-4.024 5.073-2.036 3.522-2.613 8.136-.662 11.816.986 1.72 2.671 2.95 4.495 3.63.663.536.799 1.45 1.073 2.218.185 1.112-.08 2.243.06 3.367.122 2.29.713 4.522 1.532 6.652.99 3.466 1.752 7.313 4.507 9.873 3.01 2.693 8.417 2.31 10.688-1.158 1.971-2.747 1.848-6.332 1.552-9.542-.213-1.911-.728-3.636-1.243-5.52.075-.97.26-1.966.59-2.89 1.246-2.23 2.848-4.607 2.498-7.295-.106-1.162-.685-2.22-1.216-3.21-.168-.875.465-1.578.741-2.369.286-.815 1.187-1.04 1.965-.95 2.238-.06 4.558-.556 6.323-2.01 1.305-.727 2.872-.776 4.147-1.579.799-.333 1.702-.816 2.547-.361.468.87.01 1.85.09 2.784-.006 1.301.137 2.515.698 3.743.359.597.698 1.214.59 1.938.07 2.404 1.074 4.816 2.926 6.38.434.82.532 1.8 1.055 2.594.492.937 1.345 1.908 1.991 2.447 1.576 1.392 3.71 2.118 5.807 1.915 1.305.105 2.204 1.274 3.511 1.403 2.256.52 4.732-.203 6.698-1.03 1.045-.41 1.795-1.179 2.836-1.703 1.773-.628 3.452-1.542 4.894-2.754.565.178 1.356.042 1.52.76 1.401 2.282 3.916 3.737 6.493 4.277 3.186.553 6.528-1.325 7.814-4.271.57-1.126.673-2.401.875-3.617.181-.803 1.23-1.485 1.89-.76.487.88.934 1.82 1.63 2.581 2.649 3.274 7.35 4.887 11.38 3.434.557-.133 1.053-.546 1.578-.662.56.107 1.136.182 1.362.783 1.886 2.56 5.56 3.861 8.524 2.456 1.952-.854 3.339-2.66 4.014-4.641.483-.875 1.577-.95 2.442-.725 1.23.102 2.44-.298 3.545-.545 2.681.461 5.562-.816 7-3.133.533-.778 1.611-.83 2.314-1.423 1.447-.982 2.767-2.17 3.963-3.434.32-.722.953-1.296 1.757-1.366.454-.085.886-.48 1.308-.483.518.273 1.35.496 1.068 1.257-.353 4.629 1.756 9.52 5.68 12.098 3.086 1.887 7.407.875 9.528-1.99.628-.673.675-1.791 1.577-2.174 1.13-.317 2.302-.367 3.461-.405 1.44-.303 2.891-.614 4.289-1.067 1.138-.422 2.098-1.212 2.969-2.016.785-.372 1.695-.04 2.516-.352.835-.135 1.643-.789 2.477-.345 2.041 1.671 5.068 2.017 7.43.837.63-.142 1.153.277 1.207.909.47 2.975 2.924 5.624 5.989 5.916 2.674.359 5.436-.942 6.916-3.188.63-.74.873-1.789 1.693-2.344 1.77-.467 3.276-1.73 4.155-3.322.593-.07 1.52-.292 1.624.544.912 2.764 3.368 5.291 6.421 5.332 2.916.093 5.746-1.952 6.485-4.792.335-.998 1.292-1.614 1.816-2.513.338-.353 1.203-.319 1.587.032.378 1.465 1.212 2.785 2.217 3.907.73 2.092 2.066 4.06 4.08 5.096 2.273 1.3 5.222 1.164 7.38-.31.858-.476 1.417-1.31 2.151-1.921 1.592-.606 2.868-1.877 3.66-3.366.436-.49 1.115-.43 1.52.06 1 1.08 2.305 1.82 3.635 2.4.634.588.998 1.44 1.717 1.969 2.236 1.994 5.797 2.515 8.357.826 1.016-.551 1.79-1.436 2.587-2.233.86-.418 1.866-.546 2.706-1.051 2.247-1.103 3.988-2.99 5.354-5.049.494-.722 1.725-.385 1.726.506-.233 3.41.522 6.958 2.543 9.76 1.26 1.9 3.266 3.393 5.594 3.56 3.354.413 6.616-2.083 7.412-5.308.246-.8.252-1.644.426-2.453.195-.533.986-.707 1.383-.338.579.645.77 1.578 1.31 2.272 1.337 2.198 3.663 3.923 6.314 3.936 3.288.085 6.532-1.624 8.5-4.227.397-.382.442-1.15.92-1.354.576-.122 1.272-.417 1.573.3 2.256 2.535 5.87 4.237 9.266 3.258 2.573-.729 4.627-2.704 5.943-4.978.546.043 1.383-.403 1.619.328.608.979 1.508 1.685 1.983 2.769.816 2.722 3.658 4.578 6.465 4.422 1.794.701 3.912.75 5.624-.221.854-.664 1.966-.084 2.932-.406 1.453-.254 2.739-1.04 3.855-1.968 2.053-.813 3.695-2.565 4.266-4.709.282-.988 1.34-1.412 1.876-2.244.52-.62.952-1.304 1.392-1.98.585-.092 1.315-.1 1.517.556-.069 2.616.672 5.512 2.918 7.095 2.482 1.921 6.346 1.938 8.665-.266 2.683-2.296 3.887-5.75 4.996-8.99.196-.5.375-1.134 1.042-1.011.664-.306 1.045.218 1.324.745 1.555 2.358 3.106 5.049 5.874 6.144 2.69 1.12 5.803.4 8.186-1.116 1.024-.657 1.91-1.515 2.64-2.486.56.079 1.437-.202 1.575.566.434.97 1.43 1.766 1.222 2.929.003 2.863-.121 6.06 1.788 8.42.568.796 1.385 1.37 2.19 1.88.645.75.59 1.837.95 2.732.82 2.89 2.069 5.989 4.738 7.633 3.053 1.774 7.537 1.02 9.413-2.11 1.575-2.402 1.33-5.483.52-8.112-.428-2.01-1.217-4.004-1.144-6.078.744-1.652.805-3.565.252-5.286.022-1.402.222-2.814.01-4.234.322-2.046.906-4.152.292-6.205-.141-.906-.85-1.597-.941-2.498.728-3.196.569-6.662-.89-9.635-.38-1.283-.33-2.647-.407-3.969.173-1.428.502-2.849.34-4.299-.165-2.97-.884-5.877-1.686-8.726-.556-2.434 1.22-4.832.306-7.242-1.051-3.837-5.51-6.52-9.362-5.24-2.482.67-4.505 2.645-5.903 4.788-.597.8-.949 1.767-1.566 2.542-.501.27-1.135.114-1.36-.428a14.502 14.502 0 0 0-4.154-8.473c-2.314-2.185-5.912-3.009-8.863-1.683-3.159 1.295-5.216 4.163-7.282 6.735-.575.773-1.076 1.605-1.435 2.501-.564.084-1.4.54-1.671-.231-1.526-2.461-4.076-4.557-7.09-4.59-4.084-.166-7.913 2.61-9.467 6.316-.163.522-.678 1.15-1.272.858-.895-.488-1.788-1.104-2.83-1.301-2.704-.73-5.531.405-7.583 2.165-.963.798-1.81 1.726-2.599 2.695-.553-.053-1.464.083-1.498-.691-.288-1.654-1.373-2.984-2.387-4.254-1.64-2.571-4.45-4.761-7.646-4.522-2.244.115-4.362 1.2-5.955 2.754-.546-.116-1.278.107-1.535-.524-2.341-3.017-6.613-4.693-10.305-3.37-.473.159-1.244.51-1.763.873-2.035 1.318-3.313 3.461-4.29 5.619-.216.66-.908 1.432-1.638.965-.61-.46-.61-1.364-1.01-1.995-1.872-3.962-5.85-7.12-10.324-7.289-3.688-.027-7.303 2.649-8.034 6.322-.413 1.653-.608 3.36-1.157 4.98-.53.185-1.355.624-1.658-.098-1.023-1.975-2.728-3.695-4.942-4.233-1.346-.244-2.47-1.118-3.842-1.26-1.836-.246-3.703-.246-5.55-.2-2.04.16-3.964.98-5.665 2.082-2.437 1.008-5.14 1.247-7.43 2.595-2.319 1.24-4.232 3.527-4.347 6.242-.115 1.304-.12 2.635-.511 3.896-.54.286-1.239.46-1.621-.116-.326-1.754-1.3-3.376-1.196-5.2-.267-4.333-.483-8.672-.549-13.01-.461-3.642-4.51-6.354-8.05-5.256-2.23.605-3.863 2.451-4.832 4.474-2.3 3.888-4.081 8.045-6.06 12.095-.55.08-1.4.451-1.625-.302-.462-.824-.325-1.762-.164-2.638.166-2.492-1.105-4.843-2.786-6.597-1.198-2.058-2.618-4.494-5.106-5.273-3.517-1.297-7.954.882-8.841 4.584-.175.706-.843 1.575-1.643 1.128-.69-.612-1.347-1.324-2.19-1.769-2.2-1.306-4.822-1.644-7.34-1.565-1.643-.374-3.326-.797-5.018-.464-1.957.266-3.74 1.211-5.666 1.577-1.728.155-3.496.052-5.165.621-3.42.849-6.78 2.306-9.319 4.811-.963.784-2.258.947-3.296 1.621-.722.384-1.393.799-2.014 1.235-.512-.213-1.298-.088-1.43-.768-1.237-2.336-3.448-3.912-5.625-5.297-1.406-1.137-2.926-2.502-4.864-2.41-1.462-.011-2.902-.24-4.313-.607-1.35-.282-2.74-.23-4.093-.047-1.535-.366-3.204-.75-4.866-.764-1.305-.501-2.678-.949-4.102-.868-2.75.03-5.46 1.498-6.842 3.903-.287.503-.901.903-1.452.73-.74-.522-.748-1.533-1.293-2.221-1.441-2.462-4.29-4.092-7.169-3.755-2.372.189-4.523 1.592-5.865 3.522-1.19 1.004-2.745 1.483-3.842 2.61-.752.474-1.504-.199-1.931-.786-2.598-2.27-6.532-3.236-9.73-1.698-2.862 1.271-5.337 3.655-6.257 6.7-.537.176-1.375.582-1.657-.152-1.272-2.553-3.215-5.033-5.988-6.01-.833-.209-1.713-.363-2.327-1.02-1.777-1.264-4.099-1.282-6.153-.853-2.74.029-5.646.082-8.052 1.57-1.535.867-2.795 2.139-4.336 2.998-.51-.206-1.247-.124-1.398-.774-1.258-2.286-3.586-3.616-5.462-5.323-2.387-2.012-5.27-3.978-8.539-3.764-1.038.034-2.095.614-3.098.115a10.331 10.331 0 0 0-3.677-.418z" color="#000" style="paint-order:stroke fill markers" transform="translate(63.795 154.49) scale(.63984)"/><path fill="#12b0c9" stroke="#0b3742" stroke-dashoffset="1.323" stroke-linecap="round" stroke-linejoin="round" stroke-miterlimit="10" stroke-width="4.689" d="M-58.189 101.46c-.606.096-1.27.41-2.029 1.09-4.212.443-5.85-.552-8.733 1.905-1.976-.2-3.262-.004-5.002.635-2.405-.222-10.61 8.365-5.557 6.749 2.87-1.184 3.688-.857 4.991-1.44 3.457-1.592 3.753-.946 1.122 3.028-2.359 3.218-.303 6.876-3.504 10.054 2.208 3.35-3.247 6.055-.942 9.953-.977 3.976-4.374 2.3-5.796 6.114-3.146 2.201-3.411 8.957-.555 7.622 1.9.054 1.4-.045 3.334-1.826 1.353-.84-.776 6.374 1.27 8.098.948 1.135-.561 5.048.83 8.363 1.132 2.696 2.043 9.562 3.985 9.246 1.457-.058.947-6.4.067-8.646-1.851-4.729.551-5.271-.449-6.22 1.278-3.69 2.332-3.797 3.03-6.157-2.127-2.54-1.991-4.56-.953-7.145 2.423-1.784-1.711-4.274 2.065-5.875.875 3.954 1.053-1.353 4.05-2.461 2.852.345-.204 2.013 2.312 1.764 2.07-.426 1.387.49 4.108-1.642 2.035-1.303 3.874-.06 5.708-2.716 2.141 2.181 5.773-4.799 7.513-5.63 2.544-3.34-.614-4.74 1.874-8.45-.82-.266 2.5-3.721 3.493-5.716-2.175-.674.067-3.555-2.064-5.32-2.816-1.78-6.81-7.156-9.21-4.366-1.831.378-3.139-1.298-4.958-1.01zm196.68 1.619c-3.482 5.359-5.774 11.86-7.346 14.238-1.078 2.785-2.496 5.155-4.526 8.019-2.647 1.65-2.762 5.632-5.24 7.622-1.884 5.421-.425-4.234-2.144-2.223.475-.858.431-1.81.317-2.706.132.195.16-.433-.019-.211-.167-1.152-.434-2.17.02-2.64.824-1.969-1.403-3.91.08-5.638-.232-2.601-2.959-6.776-2.604-8.07 1.544-2.388.324-1.519-1.293-4.282-2.73-5.2-1.587-1.018-3.726.92-1.027 1.96-1.563 6.553-2.858 7.94-1.502 3.223-2.874 5.397-4.05 8.336-.088 2.382-2.685 4.297-2.937 7.304-2.28 3.215-2.706 8.77-3.652 12.068-.56 1.774-1.787 11.81 1.111 6.987.967-1.51 1.03-4.004 1.326-4.995.45-1.51 4.477 2.397 3.516.139-.731-4.54.81-7.745.478-9.514 2.766-3.044 2.565-6.238 5.24-8.496.108-3.262.431-3.292 1.906-4.923-.348 2.533.28 7.443 1.746 9.002 2.121 2.973 2.075 3.663 2.22 7.974 2.71 4.732.669 6.174 2.475 9.054.3-3.313 1.664-2.091 3.543-5.846-1.71-1.74 5.07-4.778 3.723-7.552 3.487-2.842 4.313-6.606 5.729-9.806.488 3.135.36 9.61 2.16 10.355-1.996 2.987.337 6.379.634 9.924 1.067 3.056.771-1.046 2.073 2.826-.017 2.304 2.798 5.39 2.814-1.507 1.224-1.343 1 1.478 2.497 1.54 1.235-.783-1.466-4.923.874-4.923 3.013 0-1.007-5.122-.794-7.543.187-3.192-1.66-4.613-1.698-6.65.592-2.037-.875-3.411.268-5.815.335-2.081-.177-3.567-1.295-5.734.213-1.098-.728-8.852-.568-15.174zm145.91.15c-2.071-.381-4.11 3.425-5.714 4.878-1.027 1.961-1.564 6.554-2.858 7.94-1.503 3.224-2.874 5.398-4.05 8.337-.088 2.382-2.685 4.296-2.937 7.304-2.28 3.215-2.706 8.77-3.652 12.068-.56 1.773-1.787 11.809 1.112 6.987 2.437-3.81 1.477-5.41 3.493-7.623-.138-2.334 2.158-4.978 1.826-6.748 2.766-3.043 2.565-6.237 5.24-8.495.108-3.262.431-3.292 1.906-4.923-.348 2.533.28 7.443 1.746 9.001.437 4.008-2.06 8.652 1.27 11.007 2.711 4.732 4.114 5.926 4.367 3.89.44 1.887 2.964-.85 4.843-4.604-1.71-1.74 3.65-2.705 2.303-5.479 3.487-2.842 4.698-6.009 6.114-9.21.488 3.136-.848 7.832.952 8.576-1.996 2.987.338 6.378.635 9.924l3.36 11.234c1.825-2.874 3.095 12.383 5.623 11.425 1.293-.49-3.416-10.487-.935-13.627-1.265-2.044.478-5.202-.664-6.173.286-1.841.738-2.587.873-4.923-2.635-1.461-1.007-5.121-.794-7.542.187-3.192-1.659-4.614-1.697-6.65.592-2.037-.875-3.411.268-5.815.335-2.082-.784-8.249-1.903-10.415.214-1.1.27-6.02.88-5.836-2.21-4.298-6.614 7.205-8.186 9.582-1.078 2.785-2.496 5.154-4.526 8.019-2.647 1.65-2.762 5.632-5.24 7.621-1.884 5.422-.425-4.234-2.144-2.222 1.13-2.044-.51-4.7.317-5.558.825-1.968-1.402-3.909.08-5.637-.231-2.601-.435-6.327-.08-7.622 1.544-2.388 1.856-3.906.239-6.67-.683-1.3-1.377-1.891-2.067-2.018zm-263.96 1.462c-.908.037-1.875 1.805-2.811 2.477-1.91 1.373-3.623 1.584-3.864 3.044 1.079 3.01-1.31 6.376-1.126 7.835-.345.787-1.513 5.792-1.33 7.29-.886.949-.295 10.333-2.932 5.362.278-3.31-.113-8.006-2.407-10.62.394-3.226-.947-5.88-1.008-8.023.335-2.124-1.343-5.146-3.935-4.307-2.905 1.98-2.231 1.379-3.264 4.648-.76 2.857-.857 4.753-1.966 6.327 1.34 1.306.105 3.184-1.269 5.45-.473 2.138-.924 3.788-1.477 5.827-.549.915-2.196 2.696-.705 4.833-1.267-1.204-1.021.89-2.582 3.163.096 2.601-2.063 2.829-2.041 5.845-1.778 1.388-1.188 6.576-.753 10.206 4.815 3.811 1.752-3.128 4.73-4.669 1.647-3.602 1.104-7.092 4.41-8.999 1.042-2.572 2.517-5.047 2.757-7.86.23-.894 2.927-6.955 1.868-7.097 2.606.604 1.019 3.933 1.335 6.747 1.988.96.753 3.495 1.335 6.747 1.844 3.143-1.273 7.713.842 10.907.378 1.654 2.442 3.218 4.189 3.197 1.342-.017 2.497-.968 2.56-3.532 1.004-4.206 1.252-4.683 3.034-8.688 1.064-3.513.457-6.122 1.562-9.802-.128-2.823 2.477-5.817 2.164-8.213 1.589-5.967 4.863-10.223 3.877-16.81-.38-.963-.78-1.303-1.193-1.286zm16.154 1.364c-.821-.07-1.574.442-2.102 2.452-2.229 1.547-9.656 4.493-3.405 5.875 2.126 1.549-1.495 5.617-.99 8.655-1.112 2.645-2.091 6.631-1.448 10.083-.938 2.485-1.772 4.85-1.642 8.416-.106 2.854-2.947 2.653-4.366 4.605-1.65 1.612-2.369 1.559-2.864 4.405-1.981 2.107-.07 5.484.58 5.043.093.194 2.363-5.518 2.876-4.08 1.655-1.546 1.376-3.466 6.483-1.795 2.395-.631.739-1.238 3.936-1.627.44 3.415 1.697-1.914 3.696-2.82 1.27 1.51 1.679-.326 3.707-1.508.521-3.04 1.902-2.533 3.547-4.108 1.948 2.16 3.808-3.14 4.92-3.196 3.346-4.491 2.222-.856 5.351-6.431.016-.23 1.14-5.514 2.196-5.002-1.207 2.063 2.895-3.465 2.742-3.97-1.659-1.84-.408-3.898-.892-6.034.715-3.767-3.28-4.211-5.548-6.749-1.933.658-4.44-.86-6.171-.694-2.287 1.121-3.99-.757-6.649-.566-1.028.893-2.588-.838-3.957-.954zm154.61.52c-.997.014-1.745.732-1.742 2.608-1.13 4.184-1.174 5.142-2.746 8.692-1.73 3.121.462 6.122-1.49 9.232.518 3.508-.505 7.452-.23 10.665-1.318 5.83-3.762 6.986-3.166 14.529 3.311 7.999 2.894.579 3.198-1.934-.695-1.84 1.361-3.308 3.214-4.687 1.236-.92.431-2.694.754-3.951 2.123-3.148 2.564-4.695 2.357-6.336.846-.835-1.559-11.404 1.334-5.933.417 3.278 3.743 6.507 3.01 12.088.016 2.94 2.603 3.65 1.709 7.805 1.78 2.48 2.111 5.57 4.045 4.45 2.827-1.26 1.908-1.24 2.86-4.72.753-2.273.5-4.431 1.827-5.574-1.802-1.806-.286-3.113.809-5.302.451-2.036.702-3.724 1.211-5.723.536-.85 2.082-2.418.48-4.825 1.313 1.154.572-3.839 2.915-2.45.042-2.346 1.444-3.193 1.39-6.053 1.602-1.21 3.513-5.986 2.857-9.758-4.375-4.166-4.914 1.45-6.503 3.576-2.424 2.218-1.592 6.01-3.718 8.542-2.774.36-1.9 4.366-3.141 6.116.754 2.843-3.25 4.393-1.604 8.51-.91-.493-2.831-2.277-1.662-5.299-.065-3.688-2.427-2.944-1.512-7.252-2.205-4.12.322-8.532-1.508-12.555-.232-1.947-3.044-4.488-4.948-4.461zm-212.74.182c-3.595 1.21-6.817-1.35-10.004 3.335-1.88-.644-3.423 4.441-.953 4.764-2.553 2.847-4.804 5.705-7.12 9.548-.673 2.93.402 6.32-2.01 8.316-1.685 3.01-3.188 6.187-3.017 9.765 3.136 2.406-.959 6.24 3.818 6.914.743 2.271-.445 5.193 3.327 4.758.835.326 1.582-.409 4.434 1.577 4.215-.645 2.812-1.415 4.233-2.001 8.023-2.052 5.839-6.14 5.705-7.861 4.183-.17.26-4.53 4.382-6.86-.958-.67-3.46-5.333.698-6.213a97.916 97.916 0 0 0 1.767-6.63c.595-2.237 2.943-6.537 1.508-8.187-.913-1.57 2.49-1.901 1.25-3.127-1.817-1.828-.953-3.11-3.017-5.24-.958-2.43-3.39.575-5.002-2.858zm114.2.1c-1.736.08-3.657 1.237-4.896 1.409-2.395.747-4.404-.074-5.796.775-3.536.727-5.084 1.353-7.621 4.386-2.273.887-5.784 1.66-6.511 4.794-.82 3.154 5.726.796.635 5.258-.546 2.889-5.173 5.605-6.272 9.188 2.23.533-3.83 5.5-2.62 7.785-1.69 3.15-4.703 7.763-1.19 12.123 3.152 4.339 1.992-5.447 4.718-5.688.74.442 2.788 3.502 5.046.17 2.557.717.384 2.116 3.143-.084 1.284.855 1.028.695 1.503.01.018.23.289.562.165-.15-.028-.006-.04.004-.06.006.347-.446 1.001-1.063 2.442-1.763.33-2.06 3.495-.15 3.572.053 1.154-6.198 5.073 1.34 6.123-3.345 2.228 2.218 1.327 4.487 2.376 3.995.097-.34 4.852-6.537 4.363-8.086-.534-2.621-5.492-5.236-7.94-3.444-2.168.983-5.517 1.643-8.574 2.094-2.16-2.815-6.434 4.795-5.954 1.863 2.148-2.741.523-6.825 3.447-8.747 1.069 3.099 2.006.166 2.62 1.276 1.913-3.158 6.028-4.039 5.954-2.101 1.297-2.705 2.954 5.127 3.017.782.69-1.018 1.616-.272 2.282-1.751.33-.025 4.736-1.664 5.453-4.49-1.818-1.126-4.873-5.45-2.858-7.03 1.801 2.38.555-4.181 3.38-.544-.104 1.924 1.336 2.22 2.859.996.427 3.482 2.045-2.315 3.345-3.787l2.06-3.589c.754-1.316-3.436-2.31-6.041-1.614-.63-.601-1.381-.787-2.17-.75zm-152.19.38c.4-.146.65.037 1.366 1.029 2.168.748 1.28 2.368 3.255.953-.199-.811 6.829.126 7.245 4.128l-.602.534-.113.101c-.72 3.589-3.189 8.05-5.682 7.908-1.93-.11-1.402 1.45-3.03 3.542-.526 2.919-1.59 2.226-4.06 4.104-4.042-2.297-7.665 3.654-10.699.633.814-2.554 1.034-5.663 1.697-7.215 2.407-3.486-1.18-6.939 1.985-9.925-1.631-3.842 3.22-6.587 3.256-2.302 1.328-4.347 2.08 1.414 3.124-2.542 1.31-.326 1.859-.802 2.258-.948zm322.53 1.033c-3.98.003-3.845 7.631-5.36 8.73-1.373 2.15-1.513 4.77-3.652 7.78-1.59 2.068-2.336 4.545-1.538 6.034-2.293 3.422-3.772 4.469-6.51 8.01.219 1.356-3.8 6.142-3.782 4.932-2.456-2.124-.4-4.354-1.033-6.828.293-2.3 1.566-7.6 1.668-6.828 2.33-1.344 1.515-4.751 2.461-6.193.4-2.749 2.912-5.73 3.812-8.972-.55-3.712-6.405 3.636-6.67 5.637-3.3 2.895-3.704 6.353-5.717 9.051-1.567 2.388-1.46 6.659-4.048 8.654-.225 3.566-.75 6.028-.318 9.21.412 5.435 3.75 6.398 6.967 7.543 1.372-3.463 1.203.24 3.037-1.588 1.583-1.568 1.2 3.316 2.868-2.204.034 2.86 1.857-3.148 1.657 1.161.556-4.548 3.288-4.043 3.811-6.023 1.587-1.713 3.316-5.53 4.05-3.256-.138-3.471 4.48-7.174 5.398-8.971 2.219-3.207-.745-3.74 2.224-6.67.767-3.141.354-4.05 2.46-6.113-1.341-.013 3.384-3.545 1.192-4.684-.048-3.633 1.28-4.814-2.124-8.307a3.694 3.694 0 0 0-.853-.105zm-34.091 1.266c-2.617-.572-3.485 4.882-6.351 3.732-2.82 1.174-1.22 5.337 1.507 5.24.775 1.305 1.806-1.61 3.624-1.3 1.588-2.187.497 2.363 4.237-4.258-1.419-.34-.64-1.73-3.017-3.414zm-186.56 2.37c.198-.032.64.19 1.99 1.068-.232 1.937 2.67.041 4.895-.259.396 2.57 2.421.442 4.064 2.502-.061.76 1.34 3.795.821 3.85-2.077 2.99-4.744 7.118-6.481 9.607-1.991.956-3.854 2.926-6.401 5.617-3.073-.577-3.757 5.318-5.82 3.95-3.142 4.189-4.811 2.969-2.243-1.707.983-2.192.651-4.37 2.166-6.59-1.454-1.016.246-3.237.415-5.478.47-2.317 1.894-4.613 2.727-6.749-2.237-4.234.944-3.382 1.833-5.398 2.052.401 1.704-.358 2.034-.412zm125.16.102c-1.186-.052-2.328.12-3.453 1.25-2.22 1.485-10.21 2.023-8.722 4.507-.291 1.47-.734 5.515-2.065 8.25-.816 2.195-.128 5.138-1.61 6.436-1.776 2.403.864 4.404.835 7.307 2.43 1.966-1.308 4.572.687 6.5.447.687 1.203 1.726 2.063 1.563 2.293-2.72 2.22 1.507 3.696 3.443 1.049.686 2.049-2.073 3.069-3.1 3.417.946 6.422-2.763 5.554-3.45 2.986-.468 3.047-6.03 5.66-7.966 1.154-1.218-4.136-3.26-.167-4.178.842-.947 1.068-3.122 1.687-4.687-.076-1.707 1.85-4.612 1.876-7.062-2.301-.543 1.397-1.754.374-2.625 0 1.759-.795-2.484-2.148-3.656-.59-2.685-2.742.167-3.625-2.445-1.297.24-2.526-.036-3.711-.087zm81.245 2.213c.276.898-.306.124 0 0zm-275.45.07c.45-.045.953.051 1.514.326.94-1.457 3.363 2.602 2.502 5.816l-1.152 1.092c-.696 2.378-3.309 6.834-.952 7.463 4.77 1.273-3.413 7.983-1.202 11.992-5.472 9.447-11.521 4.92-9.438 1.188-1.1-.738 1.647-3.791 1.112-5.557-.006-2.654.738-2.923.635-5.876 1.815-2.36-.047-4.744 2.302-7.86.878-1.068 1.523-8.275 4.679-8.585zm112.74.534c.914 0 1.706 1.09 2.021 3.054l.059 1.35c.203 4.684-4.389 6.224-8.37 3.51-3.546-2.416-5.61 3.343-5.511.596 2.57-3.48 2.61-5.77 5.59-6.287-.98-.804 1.21-2.828 3.515.153.765-1.656 1.787-2.469 2.696-2.376zm76.853 4.306c.359.054.756.18 1.198.397.805-1.105 6.33.5 5.707 3.058l-3.122 1.948c-.566 1.804 2.673 3.615 1.442 4.787-1.305 1.243 1.256 3.894-.814 9.443-.313 4.874-6.523 4.213-7.24 5.17-1.622-3.728-3.98-7.206-4.38-8.617-.048-2.12 1.927-3.13 1.759-5.452 1.434-1.885-.216-4.636 1.634-7.122.691-.834 1.305-3.994 3.816-3.613zm63.237.12c-.641-.164-1.384.698-2.059 3.386-2.708 3.479-4.459 7.752-4.763 11.59-1.942 1.233-.773 6.157-2.779 5.797-.84 3.607-.142 5.805-1.587 9.21 3.125 4.784 4.858 3.291 6.748-.636.538-1.083 1.515-4.962 2.223-4.525.44-2.091-.377-4.08.556-7.225 1.212.42 1.583-4.92 2.779-6.907-.073-1.116.321-3.97.476-5.002.264-2.285-.525-5.413-1.594-5.688z" style="paint-order:stroke fill markers" transform="translate(63.795 154.49) scale(.63984)"/><path d="M-27.119-68.581c-.427.147-1.447.43-2.562.883-2.238.908-8.224 3.865-9.868 4.638 1.772-.403 8.309-1.76 10.63-2.422 1.158-.33 2.136-.735 2.563-.882zM270.62-77.348c.416.158 1.365.589 2.494.95 2.265.723 8.66 2.25 10.393 2.701-1.593-.815-7.386-3.926-9.559-4.893-1.083-.481-2.078-.79-2.494-.949zM74.493 42.926c.012-.293.114-1.033.11-2.058 0-.17-.004-.368-.01-.59a60.484 60.484 0 0 0-.184-3.157c-.095-1.098-.223-2.143-.403-3.06-.1-.512-.209-.941-.321-1.305a6.206 6.206 0 0 0-.416-1.041c.023.227.041.577.026 1.096-.012.366-.039.792-.085 1.292-.084.9-.219 1.903-.38 2.969-.178 1.17-.368 2.284-.486 3.072-.033.22-.06.415-.08.584-.131 1.057-.1 1.772-.114 2.106zM185.9 50.185c.033-.372.16-1.14.143-2.166-.012-.8-.114-1.996-.246-3.434-.208-2.274-.374-4.65-.373-5.474-.374 1.22-.732 2.616-1.206 5.412-.218 1.285-.444 2.76-.516 3.382-.112.96-.108 1.747-.137 2.072z" style="paint-order:stroke fill markers" transform="translate(63.795 154.49) scale(.63984)"/><path fill="#fff" d="M-58.189 101.46c-.101.016-.215.08-.32.109 1.2.342 2.27 1.18 3.624.901.05-.057.108-.062.158-.112-1.14-.34-2.175-1.101-3.462-.898zm7.014.266a2.068 2.068 0 0 0-1.226.157c2.183.712 4.743 3.7 6.726 4.954 2.13 1.765-.11 4.646 2.064 5.32-.993 1.994-4.313 5.45-3.493 5.716-2.488 3.71.67 5.11-1.874 8.45-1.292.617-3.628 4.617-5.623 5.744 2.163 1.52 5.597-4.942 7.277-5.744 2.544-3.34-.614-4.74 1.874-8.45-.82-.266 2.5-3.722 3.493-5.717-2.175-.673.067-3.554-2.064-5.319-2.112-1.335-4.887-4.693-7.154-5.111zm189.67 1.353c-.59.908-1.101 1.866-1.625 2.814.094 5.62.72 11.42.538 12.36 1.119 2.166 1.63 3.651 1.296 5.733-1.143 2.404.324 3.778-.268 5.816.038 2.036 1.885 3.457 1.697 6.649-.213 2.42 3.808 7.543.794 7.543-1.678 0-.78 2.115-.584 3.608.287.548.604 1.283 1.364 1.314 1.236-.782-1.465-4.922.874-4.922 3.014 0-1.007-5.122-.794-7.543.188-3.192-1.659-4.613-1.697-6.65.592-2.037-.875-3.411.268-5.815.334-2.082-.177-3.567-1.296-5.734.213-1.098-.728-8.852-.567-15.174zm145.91.15c-.407-.074-.811.045-1.212.244.544.264 1.087.753 1.624 1.776 1.618 2.763 1.306 4.281-.238 6.67-.355 1.294-.151 5.02.08 7.621-1.483 1.728.745 3.669-.08 5.637-.828.858.813 3.514-.317 5.558 1.719-2.012.26 7.644 2.143 2.222.171-.137.307-.303.457-.458-.083-1.312-.213-2.622-.946-1.764 1.13-2.044-.51-4.7.317-5.558.825-1.968-1.402-3.909.08-5.637-.231-2.601-.435-6.328-.08-7.622 1.544-2.388 1.856-3.907.238-6.67-.682-1.3-1.376-1.891-2.066-2.019zm-170.48 1.454c-.24.058-.411.618-.625 1.233.247.39.412.56.785 1.272 1.618 2.763 2.838 1.893 1.294 4.281-.355 1.295 2.372 5.47 2.603 8.071-1.482 1.728.745 3.669-.08 5.637-.453.47-.186 1.488-.02 2.64.18-.221.152.407.02.211.114.896.158 1.849-.317 2.707 1.72-2.012.26 7.644 2.143 2.222.171-.137.307-.303.458-.458-.083-1.312-.214-2.622-.947-1.764.475-.858.431-1.811.317-2.707.132.196.16-.432-.019-.21-.167-1.153-.434-2.171.02-2.64.824-1.969-1.403-3.91.08-5.638-.232-2.601-2.959-6.777-2.604-8.07 1.544-2.389.324-1.52-1.294-4.282-1.023-1.95-1.503-2.581-1.814-2.506zm-93.476.008c-.296.012-.6.236-.906.518.15.2.3.402.444.767.987 6.587-2.287 10.842-3.876 16.81.313 2.396-2.293 5.39-2.164 8.213-1.105 3.68-.499 6.29-1.562 9.802-1.783 4.005-2.03 4.482-3.035 8.688-.05 2.03-.792 3.022-1.762 3.367.287.072.577.168.857.165 1.342-.017 2.497-.968 2.559-3.532 1.005-4.206 1.252-4.683 3.035-8.688 1.063-3.513.457-6.122 1.562-9.802-.129-2.823 2.477-5.817 2.164-8.213 1.589-5.967 4.863-10.223 3.876-16.81-.38-.962-.78-1.303-1.192-1.286zm16.154 1.364c-.3-.026-.586.07-.86.244 1.147.467 2.329 1.434 3.163.71.043-.004.076.012.119.01-.781-.327-1.629-.897-2.422-.964zm154.61.52a1.6 1.6 0 0 0-.792.23c1.798.541 3.886 2.556 4.086 4.231 1.83 4.023-.698 8.436 1.508 12.555-.916 4.308 1.446 3.563 1.512 7.252-1.17 3.022.752 4.806 1.661 5.3-.454-1.138-.46-2.068-.271-2.895a4.471 4.471 0 0 1 .264-2.405c-.066-3.688-2.428-2.944-1.512-7.252-2.206-4.12.321-8.532-1.508-12.555-.232-1.947-3.045-4.488-4.948-4.461zm-212.74.182c-.494.167-.98.254-1.46.306 1.607 2.85 3.886.214 4.807 2.553 2.064 2.13 1.2 3.411 3.018 5.24 1.24 1.225-2.164 1.556-1.25 3.126 1.434 1.65-.914 5.95-1.51 8.188a98.004 98.004 0 0 1-1.766 6.63c-4.158.879-1.656 5.542-.698 6.212-4.123 2.33-.199 6.69-4.382 6.86.134 1.721 2.318 5.81-5.705 7.86-1.232.509-.555 1.15-3.038 1.734.167.106.275.14.46.268 4.214-.645 2.81-1.415 4.232-2.001 8.023-2.052 5.839-6.14 5.705-7.861 4.184-.17.26-4.53 4.382-6.86-.958-.67-3.46-5.333.698-6.213a97.916 97.916 0 0 0 1.767-6.63c.595-2.237 2.943-6.537 1.509-8.187-.914-1.57 2.49-1.901 1.25-3.126-1.818-1.83-.954-3.11-3.018-5.24-.957-2.431-3.39.574-5.001-2.859zm326.62.058c-.356-.097-.74.05-1.14.34.142.148.28.332.408.58-.61-.183-.666 4.737-.879 5.836 1.119 2.167 2.238 8.334 1.903 10.415-1.143 2.404.324 3.778-.268 5.816.038 2.036 1.884 3.457 1.697 6.649-.213 2.42-1.841 6.08.794 7.543-.135 2.335-.588 3.081-.873 4.922 1.142.971-.601 4.129.664 6.173-1.945 2.462.496 9.08 1.033 12.086.47 1.07.977 1.761 1.556 1.542 1.293-.49-3.416-10.487-.935-13.627-1.265-2.044.478-5.202-.664-6.173.285-1.841.738-2.587.873-4.923-2.635-1.461-1.007-5.121-.794-7.542.187-3.192-1.659-4.614-1.697-6.65.592-2.037-.875-3.411.268-5.815.335-2.082-.784-8.249-1.903-10.415.213-1.1.269-6.02.879-5.836-.276-.537-.587-.827-.922-.92zm-212.42.042c-.221.01-.449.076-.674.117.423.108.83.29 1.19.633.426-.114.923-.118 1.406-.148a2.864 2.864 0 0 0-1.922-.602zm-52.111.152c-.075.064-.157.088-.237.127 1.662.297 3.023 1.077 4.571.668-1.322-.244-2.633-.918-4.334-.795zm-67.244.113c-.014 0-.027.005-.04.006.336.008.664 0 1.005-.002-.32-.004-.65-.022-.965-.003zm-34.49.115c-.399.146-.947.622-2.258.948a5.006 5.006 0 0 1-.309.87c.696.12 1.267 1.773 1.963-.87a6.705 6.705 0 0 0 1.447-.533c-.322-.347-.573-.513-.842-.415zm158.16.144c-.318-.007-.604.07-.916.096 1.946.19 3.656.871 3.155 1.744l-2.06 3.59c-.719.813-1.529 2.91-2.187 4.07.167-.1.325-.147.496-.284.428 3.482 2.045-2.315 3.345-3.786l2.06-3.59c.566-.986-1.65-1.792-3.892-1.84zm-49.78.194c-.12.058-.231.077-.347.12 1.41.283 3.026.874 4.43.615-1.44-.243-2.932-.846-4.083-.735zm-45.247.032a2.808 2.808 0 0 0-.927.143c1.61.544 2.538 2.68 2.282 4.306.061 2.143 1.402 4.797 1.008 8.023 2.293 2.614 2.685 7.31 2.407 10.62 1.081 2.04 1.608 1.62 1.928.401-.096-.156-.167-.199-.274-.4.278-3.311-.113-8.007-2.407-10.621.394-3.226-.947-5.88-1.008-8.023.293-1.858-.956-4.404-3.01-4.449zm211.21.293c-.34-.013-.64.076-.91.234.547.208 1.15.554 1.895 1.264.655 3.772-1.255 8.547-2.857 9.758.054 2.86-1.349 3.707-1.39 6.053-2.343-1.389-1.602 3.604-2.915 2.45 1.602 2.407.056 3.976-.48 4.825-.51 2-.76 3.687-1.212 5.723-1.094 2.189-2.61 3.496-.808 5.302-1.328 1.143-1.074 3.3-1.828 5.574-.921 3.37-.154 3.475-2.67 4.622.392.352.842.459 1.464.098 2.828-1.26 1.91-1.24 2.86-4.72.754-2.273.5-4.431 1.828-5.574-1.802-1.806-.286-3.113.809-5.302.451-2.036.702-3.724 1.211-5.723.536-.85 2.082-2.418.48-4.826 1.313 1.155.572-3.838 2.915-2.45.042-2.345 1.444-3.192 1.39-6.052 1.602-1.21 3.513-5.986 2.857-9.758-1.094-1.042-1.949-1.472-2.64-1.498zm-159.79.37c-.467.158-.97.18-1.485.14 2.29 2.393 6.077 2.924 5.378 6.608.484 2.136-.767 4.193.893 6.034.152.505-3.95 6.033-2.743 3.97-1.056-.512-2.18 4.771-2.195 5.001-3.13 5.576-2.006 1.94-5.352 6.432-.748.038-1.84 2.415-3.066 3.33 1.875 1.602 3.647-3.275 4.72-3.33 3.346-4.491 2.222-.856 5.352-6.432.016-.23 1.139-5.513 2.195-5.001-1.207 2.063 2.895-3.466 2.743-3.97-1.66-1.84-.409-3.898-.893-6.034.715-3.767-3.28-4.212-5.547-6.749zm209.63 0c-.28 0-.497.116-.739.187 3.29 3.42 2.015 4.625 2.061 8.225 2.193 1.14-2.533 4.671-1.19 4.684-2.107 2.063-1.694 2.972-2.462 6.114-2.968 2.929-.005 3.462-2.223 6.669-.918 1.797-5.536 5.5-5.399 8.971-.734-2.274-2.462 1.544-4.05 3.256-.502 1.903-3.025 1.557-3.717 5.56.378.767 1.735-3.287 1.56.463.557-4.548 3.288-4.043 3.812-6.023 1.587-1.712 3.315-5.53 4.05-3.256-.138-3.471 4.48-7.173 5.398-8.971 2.219-3.206-.745-3.74 2.223-6.669.768-3.142.355-4.05 2.461-6.114-1.342-.013 3.384-3.545 1.192-4.684-.048-3.633 1.28-4.814-2.125-8.307a3.694 3.694 0 0 0-.852-.105zm-331.04.29c-1.287.095-2.8 2.068-1.78 4.47-3.166 2.985.423 6.438-1.985 9.924-.662 1.552-.883 4.66-1.697 7.216.886.882 1.828.96 2.81.74-.394-.131-.78-.366-1.156-.74.814-2.555 1.034-5.664 1.697-7.216 2.407-3.486-1.18-6.939 1.985-9.924-.801-1.888-.034-3.5.954-4.154-.244-.212-.52-.34-.829-.317zm12.469.399c-.638-.036-1.04.057-.99.26-.064.046-.076.032-.135.072.41.501.594.785 1.79-.072-.011-.044.072-.061.101-.094-.244-.04-.563-.154-.766-.166zm-9.85.095c.285.346.504.844.51 1.673.158-.516.306-.869.449-1.133-.308-.133-.62-.495-.96-.54zm294.33.482c-.507-.11-.937.047-1.34.296 1.884 1.543 1.371 2.8 2.703 3.118-3.74 6.62-2.65 2.071-4.238 4.258-1.064-.181-1.84.687-2.47 1.222.166.028.324.084.501.078.774 1.305 1.805-1.61 3.623-1.3 1.589-2.187.497 2.363 4.238-4.258-1.42-.34-.64-1.73-3.018-3.414zm-302.53.074c-.42-.09-1.272.192-2.568.79-1.286.575-2.118.276-4.896 1.405.148.28.624.333 1.559.034 2.869-1.184 3.688-.857 4.991-1.44.512-.235.813-.314 1.187-.448-.024-.174-.097-.303-.273-.341zm114.31 2.297c-.33.054.017.813-2.035.412-.889 2.016-4.07 1.164-1.833 5.398-.833 2.136-2.258 4.433-2.727 6.749-.17 2.241-1.869 4.462-.415 5.478-1.514 2.22-1.183 4.398-2.165 6.59-1.997 3.634-1.417 5.14.407 3.683-.076-.681.29-1.94 1.247-3.683.982-2.192.65-4.37 2.165-6.59-1.453-1.016.246-3.237.415-5.478.47-2.316 1.894-4.613 2.727-6.749-2.236-4.234.944-3.382 1.833-5.398.746.146 1.117.116 1.376.045-.52-.306-.867-.478-.996-.457zm126.81.1c-.251-.01-.494.062-.741.078.674.065 1.364.074 2.073.035-.448-.043-.897-.093-1.333-.112zm3.71.088c-.554.103-1.092.084-1.624.056.897 2.486 3.01-.27 3.595 2.389 1.353 1.172 2.149 5.415 2.149 3.656 1.023.871-2.676 2.082-.375 2.625-.026 2.45-1.952 5.356-1.875 7.062-.62 1.566-.846 3.74-1.688 4.688-3.969.917 1.321 2.96.168 4.178-2.613 1.934-2.675 7.498-5.66 7.965.694.55-1.107 3.003-3.603 3.486 3.29.656 6.098-2.82 5.257-3.486 2.985-.467 3.047-6.03 5.66-7.965 1.153-1.219-4.137-3.261-.168-4.178.842-.948 1.068-3.122 1.688-4.688-.077-1.706 1.85-4.612 1.875-7.062-2.3-.543 1.398-1.754.375-2.625 0 1.759-.796-2.484-2.149-3.656-.59-2.685-2.742.167-3.624-2.445zm-123.64.62c-1.024.138-2.17.6-3.109.885.41.535 1.772-.035 3.223-.495-.039-.128-.088-.225-.113-.39zm200.25 1.254c-.186.058-.407.222-.617.35.089.158.162.352.2.617-.899 3.241-3.411 6.222-3.81 8.971-.947 1.442-.131 4.849-2.461 6.193-.103-.771-1.376 4.528-1.668 6.828.633 2.474-1.423 4.704 1.032 6.828-.006.414.506.014 1.114-.6-1.52-1.944.082-3.985-.492-6.228.292-2.3 1.565-7.6 1.668-6.828 2.33-1.344 1.514-4.751 2.46-6.193.4-2.749 2.912-5.73 3.812-8.971-.137-.929-.607-1.165-1.237-.967zm.92.252c.277.898-.305.124 0 0zm-277.11.07c-3.155.309-3.8 7.516-4.678 8.584-2.35 3.116-.487 5.5-2.302 7.86.103 2.953-.64 3.222-.636 5.876.536 1.766-2.21 4.82-1.11 5.557-1.301 2.33.568 4.967 3.487 4.323-1.897-.446-2.865-2.476-1.834-4.323-1.1-.738 1.647-3.791 1.111-5.557-.005-2.654.739-2.923.636-5.876 1.815-2.36-.047-4.744 2.302-7.86.826-1.005 1.473-7.371 4.17-8.388-.41-.15-.799-.23-1.145-.197zm275.48.078c-.036.023-.069.035-.106.06.037.19.188.316.107-.06zm-157.63.118c-.925.199-.562 3.443-1.913 1.658-.014.01-.015.026-.028.037.214.465.4 1.006.511 1.697l.058 1.35c.02.453-.041.852-.107 1.245.732 1.159 1.662 2.229 2.424 2.7-.717 2.827-5.122 4.466-5.453 4.491-.58 1.29-1.35.947-1.999 1.498.736 1.245 1.334 2.792 1.371.253.69-1.018 1.617-.271 2.282-1.751.331-.025 4.736-1.664 5.453-4.49-1.818-1.125-4.872-5.45-2.858-7.03.964 1.274 1.063.002 1.373-.913-.487-.533-.866-.799-1.113-.745zm-5.105.338c-.694-.07-1.451.393-2.112 1.348.348.246.704.556 1.07 1.028.506-1.095 1.125-1.784 1.748-2.123-.223-.157-.458-.253-.706-.253zm-5.08.806c-1.118-.064-1.743.915-1.13 1.417-2.98.518-3.022 2.807-5.592 6.287-.06 1.679.696.187 2.095-.68 2.076-3.07 2.384-5.126 5.15-5.607-.42-.345-.237-.897.268-1.2a2.277 2.277 0 0 0-.792-.217zm14.51.966c-.244.197-.474.288-.709.405.23.2.516.284.865.248-.058-.173-.117-.336-.156-.653zm67.423 2.534c-2.511-.382-3.125 2.778-3.817 3.612-1.85 2.486-.2 5.237-1.633 7.122.168 2.322-1.807 3.332-1.76 5.452.4 1.411 2.759 4.889 4.381 8.616.179-.238.7-.376 1.385-.525-1.604-3.51-3.732-6.752-4.112-8.09-.047-2.12 1.928-3.13 1.76-5.453 1.434-1.885-.216-4.636 1.633-7.122.562-.677 1.09-2.863 2.61-3.464-.146-.041-.314-.128-.448-.148zm2.516.049c-.224-.013-.406.016-.59.041.291.068.584.14.925.307.065-.09.203-.133.324-.187-.218-.04-.461-.15-.659-.161zm62.374.072c-.316-.081-.656.094-1 .605.705 1.058 1.146 3.304.94 5.082-.155 1.032-.55 3.886-.476 5.002-1.196 1.988-1.567 7.327-2.78 6.907-.932 3.146-.116 5.134-.555 7.225-.708-.437-1.685 3.443-2.223 4.525-.815 1.692-1.606 2.885-2.486 3.366 1.63.793 2.854-.693 4.14-3.366.538-1.082 1.515-4.962 2.223-4.525.44-2.091-.377-4.079.556-7.225 1.212.42 1.583-4.919 2.779-6.907-.073-1.116.321-3.97.476-5.002.264-2.284-.525-5.412-1.594-5.687zm-147.64 2.932c-.504-.101-.953-.019-1.375.122.316.096.635.198.98.433 1.593 1.086 3.27 1.462 4.712 1.257-1-.16-2.048-.568-3.058-1.257-.443-.302-.863-.476-1.259-.555zm31.943.77c-1.474 1.63-1.797 1.66-1.906 4.923-2.675 2.258-2.474 5.452-5.24 8.495.332 1.77-1.209 4.974-.477 9.514.004.01 0 .01.005.02 1.116.576 2.2 1.277 1.649-.02-.731-4.54.81-7.744.477-9.514 2.767-3.043 2.565-6.237 5.24-8.495.035-1.036.11-1.69.218-2.229-.061-1.002-.067-1.954.034-2.694zm166.68 0c-1.474 1.63-1.797 1.66-1.906 4.923-2.675 2.258-2.474 5.452-5.24 8.495.332 1.77-1.964 4.414-1.826 6.748-2.016 2.213-1.055 3.812-3.493 7.623-.053.087-.082.09-.132.168.155 1.296.645 1.73 1.786-.168 2.438-3.81 1.477-5.41 3.493-7.623-.138-2.334 2.158-4.978 1.826-6.748 2.766-3.043 2.565-6.237 5.24-8.495.035-1.036.11-1.69.218-2.229-.061-1.002-.067-1.954.034-2.694zm-278.03 2.47c1.059.142-1.639 6.202-1.868 7.097-.24 2.813-1.715 5.288-2.757 7.86-3.306 1.906-2.763 5.397-4.41 8.998-1.937 1.003-1.344 4.248-2 5.374 3.164 1.789.95-3.975 3.654-5.374 1.647-3.601 1.104-7.092 4.41-8.998 1.042-2.572 2.517-5.047 2.757-7.86.142-.555 1.168-3.015 1.724-4.9-.029-1.084-.334-1.925-1.51-2.197zm130.79.355c-1.415 3.2-2.241 6.964-5.729 9.807 1.347 2.773-5.433 5.81-3.723 7.551-1.136 2.27-2.045 2.763-2.683 3.497.08.737.25 1.481.795 2.35.3-3.313 1.663-2.092 3.542-5.847-1.71-1.74 5.07-4.778 3.724-7.551 2.367-1.93 3.455-4.257 4.387-6.57-.09-1.138-.183-2.402-.313-3.237zm167.89 1.78c-1.415 3.2-2.627 6.368-6.114 9.21 1.347 2.774-4.013 3.738-2.302 5.478-1.021 2.04-2.223 3.748-3.187 4.609.442 1.877 2.963-.857 4.84-4.609-1.71-1.74 3.65-2.704 2.303-5.478 2.237-1.823 3.505-3.786 4.523-5.8.058-1.18.099-2.372-.063-3.41zm-219.42.056c-1.355.063-3.411 1.147-4.607 3.12-.134-.243-.288-.274-.452-.235.853 1.16 1.594-.692 2.106.236.968-1.598 2.496-2.607 3.763-2.97a1.69 1.69 0 0 0-.81-.15zm111.57.29c-.98-.294.479 6.81-.21 7.488.209 1.64-.232 3.188-2.356 6.336-.323 1.257.482 3.03-.754 3.95-1.853 1.38-3.908 2.847-3.214 4.688-.134 1.111-.163 3.075-.4 4.348 2.056 3.612 1.791-2.177 2.054-4.348-.694-1.84 1.361-3.308 3.214-4.687 1.236-.92.431-2.694.754-3.951 2.124-3.148 2.565-4.695 2.357-6.336.387-.381.1-2.778-.056-4.765a7.056 7.056 0 0 1-.264-1.168c-.542-1.025-.899-1.487-1.125-1.555zm-252.55 1.123a4.528 4.528 0 0 0-1.462.066c.43.076.864.192 1.304.442.221-.168.375-.235.574-.366-.138-.033-.28-.124-.416-.142zm133.75.43c-2.923 1.923-1.298 6.007-3.447 8.748-.26 1.59.888.091 2.33-1.175.899-2.132.532-4.675 1.695-6.454-.188-.224-.38-.543-.578-1.118zm-127.61 2.495c-1.833 2.655-3.673 1.412-5.708 2.715-2.16 1.693-2.412 1.52-3.363 1.568.146.082.392.126.909.075 2.071-.426 1.387.489 4.108-1.643 1.954-1.25 3.726-.192 5.487-2.45-.516.17-1.008.167-1.433-.265zm142.54 1.71c-.358-.015-.7.028-1.03.098 2.296.366 4.751 2.13 5.118 3.933.405 1.283-2.376 5.163-3.539 6.853.236.918.258 1.5.83 1.232.097-.34 4.852-6.536 4.363-8.085-.4-1.967-3.29-3.93-5.742-4.031zm-154.67.883c-1.215.45-1.902 1.546-2.424 2.479.012-.005.016-.012.029-.018.81 3.659 1.05-.573 3.451-2.11-.189-.15-.482-.281-1.056-.35zm143 1.19c-.37-.078-.767.03-1.169.213.143.098.281.226.41.394.46-.068.921-.177 1.39-.255-.2-.176-.408-.307-.63-.353zm-147.05 1.271c-3.776 1.602.359 4.092-2.064 5.876-1.039 2.585-1.175 4.605.953 7.145-.7 2.36-1.753 2.467-3.03 6.157 1 .948-1.403 1.49.448 6.22.718 1.832 1.17 6.34.529 7.989.32.434.664.72 1.058.656 1.458-.057.947-6.4.068-8.646-1.852-4.728.55-5.27-.45-6.22 1.278-3.69 2.332-3.796 3.03-6.156-2.127-2.54-1.99-4.56-.952-7.145 1.946-1.433-.28-3.315.703-4.833-.092-.231-.187-.564-.293-1.043zm115.63 2.644c-1.645 1.575-3.026 1.068-3.546 4.108-.902.526-1.465 1.15-1.944 1.583 1.175 1.251 1.636-.44 3.598-1.583.453-2.646 1.573-2.669 2.936-3.652-.343.023-.69-.065-1.044-.456zm40.442 2.133c-.173.772-.443 1.134-.746 1.359.638.257 1.23.362 1.7-.024-.238-.435-.498-.88-.954-1.335zm-3.957.798c-.78-.145-1.465.261-1.926 1.79.724.268 1.38.668 1.414.758.26-1.402.674-2.04 1.153-2.337-.215-.081-.432-.172-.64-.21zm-5.052 1.605c-.345.108-.604.374-.687.89-1.44.7-2.094 1.316-2.441 1.762.02-.002.032-.012.06-.006.02.119-.012.077-.01.143 1.275.849 1.024.691 1.499.007.018.23.288.562.165-.15-.028-.006-.04.004-.06.006.347-.446 1-1.063 2.441-1.763.06-.374.233-.583.444-.73-.493-.173-1.002-.287-1.411-.16zm-38.686 1.08c-.956.433-1.732 1.864-2.34 2.88.127-.019.152-.043.298-.06.384 2.987 1.394-.719 2.98-2.298-.281.023-.574-.088-.938-.521zm-118.22.077c-1.695 1.56-1.605 1.813-2.815 1.82.303.166.66.227 1.134.006 1.226.034 1.616-.186 2.141-.688.013-.825-.057-1.39-.46-1.138zm182.13.068c-.152.042-.263.147-.32.335-.295.992-.358 3.485-1.325 4.996-.052.087-.081.09-.131.168.154 1.296.644 1.73 1.785-.168.955-1.493 1.03-3.925 1.316-4.94-.506-.247-1.01-.479-1.325-.39zm184.88 1.44c-.005.038-.017.055-.022.09.057.064.13.169.183.224-.059-.093-.127-.165-.161-.314zm1.652.005c-.55.49-1.016.7-1.324.511.752.691 1.193.526 1.324-.51zm-224.69.03c-1.795.159-1.92 4.393-2.686 6.072 2.242 2.476 1.952-3.447 3.41-5.442-.297-.27-.553-.528-.724-.63zm93.468.053c-.23-.03-.524.143-.855.428.35.318.748.534 1.173.453.123-.146.215-.199.325-.306-.184-.307-.385-.542-.643-.575zm-85.279.033c-.34.271-.43.344-.639.514.806.569.488.95 1.62.028-.16-.008-.384-.145-.98-.542zm1.503.01c-.125.18-.171.204-.237.303l.276-.223c-.011-.034-.036-.047-.039-.08zm67.096.06c-.174-.076-.39 0-.695.335-.004 1.824-.21 2.917-.502 3.544.757 1.09 1.894 1.077 2.097-2.546-.375-.501-.569-1.187-.9-1.333zm-71.742.014c-.496.732-.98 1.116-1.444 1.327.754.345 1.65.286 2.595-.744-.201-.194-.528-.408-1.15-.583zm-34.504 1.03c-2.734.333-2.05.827-3.255 1.357.317.085.603.15.973.27 1.813-.478 1.322-.94 2.355-1.307-.023-.118-.053-.168-.073-.32zm128.35.077c-.584.589-1.163 1.69-1.748 2.443.116.216.193.474.333.658 1.026.67 2.005-1.927 3.002-3.004-.512.056-1.04.055-1.587-.097zm-135.22.908c-2.154-.092-2.307 1.278-3.548 2.437-.396-1.109-1.608 1.523-2.29 2.932.336.775.796 1.332 1.067 1.148.094.194 2.364-5.518 2.877-4.08 1.015-.947 1.311-2.029 2.559-2.344-.223-.032-.475-.085-.665-.093zm219.89 1.73c-.43-.262-1.461 2.581-1.487.437-.321 1.065-.52 1.48-.717 1.892 1.019-.213.911 2.919 2.362-1.868-.03-.268-.084-.416-.158-.46zm-3.846 2.322c-.144.027-.31.122-.509.318-.06.06-.102.071-.159.12.34.19.72.7 1.475.173-.205-.268-.429-.682-.807-.61zm-2.466.364c-.11-.02-.888.827-1.02.967.766.305 1.586.538 1.595.575.26-.659.34-.872.514-1.1-.563.132-.766-.385-1.089-.442zm64.33 3.47c-.01.004-.022.025-.032.03.108.907.37 1.31.879.84-.277-.601-.555-.993-.848-.87z" style="mix-blend-mode:soft-light;paint-order:stroke fill markers" transform="translate(63.795 154.49) scale(.63984)"/><path fill="#f2f2f2" d="m92.126 78.25-4.867 1.788-3.66 1.59-6.438 1.095-6.555 2.534-8.464 2.09-5.432 1.85-5.228 1.668-6.862 3.03-5.288 2.732-6.922 2.68-2.609 1.157-1.914.848-2.641 1.171c-4.478 1.233-6.498 2.965-8.064 4.362-2.232 1.991-3.26 4.017-1.899 6.972.356.774 1.198 2.906 1.642 3.67.893 1.537 1.17 3.22 2.219 4.083.86.708 2.943 1.874 3.276 2.65.48.4 1.029.823 1.523 1.227l-1.423-2.587-1.587-3.325-1.54-4.494c-2.26-4.584 2.214-7.59 6.19-8.205L31.098 105l3.67-1.146 3.368-1.604c2.918-1.726 5.169-2.391 8.027-3.028l5.668-2.847c1.926-1.227 3.803-1.826 6.001-2.157l2.436-1.21 2.925-1.2 2.76-.83 2.706-1.253 2.806-.947 3.03-1.209 4.07-1.442 4.518-1.18 3.6-.794 3.849-1.103 2.328-1.296c-.001-1.094-.39-2.306-.733-3.504z"/><path fill="#f9ff50" d="M89.56 74.164c-1.18.245-3.233.933-6.265 1.98-3.225 1.113-7.394 2.535-12.398 3.974-2.387.686-5.582 1.066-7.942 1.774a587.207 587.207 0 0 0-15.328 4.825c-3.473 1.149-6.894 1.973-10.096 3.466-4.843 2.258-10.018 3.725-14.231 5.532-4.809 2.063-8.894 4.091-11.758 5.954-1.433.931-2.558 1.824-3.307 2.627-.75.803-1.09 1.497-1.121 2.002-.08 1.289.675 3.176 2.29 5.423 1.614 2.247 4.044 4.851 7.112 7.692.797.738 1.802 1.545 2.858 2.377l-7.383-7.877-2.682-4.106c-.642-2.22-1.727-3.97 1.92-5.367l3.047-2.27 4.756-2.526 6.446-2.952 5.736-2.193 13.54-6.2 14.037-3.89 11.88-3.356 11.695-3.175 7.767-3.035c-.192-.226-.36-.458-.574-.679z"/><path fill="#f2f2f2" d="M195.717 71.637c-.577.113-1.45 1.003-1.45 1.003a9.72 9.72 0 0 0-.357.863c-.085.239-.15.498-.219.755 0 0 1.515-.135 2.251.01 1.19.235 2.278.845 3.373 1.368 1.107.529 2.084 1.317 3.219 1.785 1.401.578 3.003.595 4.376 1.238 1.441.675 2.486 2.05 3.94 2.698 1.61.717 3.503.59 5.14 1.246 1.722.692 3.175 1.926 4.816 2.793 1.866.984 3.876 1.687 5.71 2.729 1.594.905 2.966 2.173 4.577 3.046 1.593.863 3.39 1.303 4.994 2.144 1.458.766 2.723 1.866 4.183 2.628 1.736.906 3.67 1.391 5.406 2.295 1.2.624 2.26 1.493 3.444 2.15 1.11.615 2.28 1.111 3.417 1.672.936.461 2.034.85 2.802 1.392 1.878 1.324 3.01 3.022 2.898 5.565l.562 1.436-.227 1.704c.321-.44.724-.934 1.016-1.356.783-2.873.943-4.216.372-6.151-.017-.058.038-1.127-.018-1.665-.118-1.121-.783-1.728-1.438-2.513-1.072-1.284-3.191-1.376-4.423-2.547 0 0-4.08-1.922-6.083-2.959-2.81-1.455-5.457-3.22-8.315-4.577-2.703-1.281-5.658-1.994-8.324-3.35-2.868-1.46-5.348-3.603-8.188-5.117a44.813 44.813 0 0 0-5.678-2.546c-1.298-.476-2.673-.714-3.986-1.148-1.626-.537-3.265-1.065-4.811-1.8-1.014-.482-1.937-1.133-2.905-1.7-.78-.456-1.499-1.038-2.34-1.369-2.458-.965-5.142-2.229-7.734-1.722z"/><g fill="#f9ff50"><path d="M48.505 115.27c.69.503 1.506.818 2.191 1.328.529.394.978.885 1.467 1.327.665.602 1.278 1.268 1.996 1.807.808.606 1.8.947 2.581 1.587.814.666 1.328 1.654 2.152 2.309 1.017.809 2.257 1.29 3.38 1.946.993.581 2.036 1.09 2.97 1.764.89.644 1.624 1.482 2.485 2.165.994.788 2.06 1.483 3.089 2.225 1.088.783 2.152 1.598 3.262 2.35 1.068.721 2.219 1.317 3.265 2.07 1.056.76 2.005 1.659 3.03 2.462 1.291 1.013 2.572 2.046 3.928 2.971 1.471 1.003 3.096 1.77 4.555 2.79 1.626 1.139 3.006 2.61 4.66 3.705.867.574 1.875.913 2.74 1.49 1.319.878 2.414 2.058 3.705 2.977 1.54 1.098 3.21 2.001 4.804 3.02 1.73 1.106 3.413 2.288 5.167 3.357 1.082.66 2.132 1.394 3.3 1.883 1.382.579 2.905.742 4.326 1.218 1.322.442 2.549 1.164 3.897 1.519 1.545.407 3.178.367 4.744.684 1.495.302 3.08.441 4.427 1.158.663.353 1.69 1.491 1.69 1.491l.289-.744c.2-.707.392-1.447.601-2.103-1.664-.552-4.613-.523-9.827-2.072-2.715-.807-5.69-2.02-9.485-2.355a.75.75 0 0 1-.338-.113c-15.936-10.162-13.596-8.966-20.051-13.53-5.847-4.136-11.818-7.975-17.37-12.057l-29.478-21.673-.089-.065c.17.502.451.992.776 1.48.186.277.326.606.528.882.194.266.449.48.634.746zM198.648 66.94c-.398.457-.761.88-1.153 1.313 0 0 1.994.056 2.943.33.847.245 1.576.792 2.381 1.151 1.227.548 2.505.975 3.728 1.531 1.04.472 2.009 1.094 3.063 1.53 1.227.51 2.504.895 3.78 1.265 1.285.373 2.624.55 3.897.964 1.09.354 2.116.884 3.187 1.293 1.324.507 2.676.938 4.001 1.442 1.377.523 2.781.993 4.104 1.642 1.75.858 3.302 2.079 5.04 2.961 1.936.985 4.016 1.663 5.98 2.592 1.99.94 3.906 2.03 5.873 3.018 1.928.968 3.922 1.806 5.81 2.849a55.364 55.364 0 0 1 4.791 2.96c1.18.819 2.38 1.634 3.406 2.64.66.648 1.74 2.161 1.74 2.161 2.814 3.528.987 6.385-.324 9.557-.308.745-1.07 1.722-1.185 2.484 1.006-1.467 1.837-2.82 2.475-4.042 1.245-2.388 1.75-4.294 1.616-5.592a.719.719 0 0 1 0-.144c.076-.854-.257-1.84-1.157-3.012s-2.353-2.49-4.354-3.923c-4-2.865-10.179-6.195-18.49-10.06-2.285-1.063-4.45-2.55-6.873-3.597-2.7-1.168-5.701-2.636-8.69-3.848-4.06-1.646-8.477-2.63-13.33-4.459-3.947-1.488-7.977-3.433-12.26-5.005zM237.37 105.162c-8.41 7.493-16.082 17.006-25.425 27.053a284.765 284.765 0 0 1-3.268 3.458c-6.007 6.248-12.997 12.52-20.085 18.91-3.109 2.803-6.237 5.629-9.309 8.483a.75.75 0 0 1-.62.193c-4.987-.738-9.615 1.47-17.022 1.863-.01.405-.033.899-.056 1.394 0 0 2.794-.18 4.176-.387 1.59-.237 3.131-.752 4.723-.978 1.371-.195 2.76-.246 4.142-.325 1.484-.085 3.062.355 4.456-.161 2.527-.935 4.31-3.246 6.325-5.035 2.155-1.911 3.98-4.177 6.149-6.072 1.986-1.734 4.315-3.053 6.265-4.827 1.19-1.084 2.165-2.383 3.294-3.531 2.673-2.72 5.643-5.144 8.23-7.946 1.802-1.953 3.235-4.228 5.06-6.16 2.252-2.385 4.93-4.338 7.233-6.672a100.701 100.701 0 0 0 6.59-7.333c.647-.798 1.135-1.72 1.814-2.489.828-.938 1.833-1.702 2.735-2.569 2.132-2.048 6.325-6.216 6.325-6.216z"/></g><path fill="#fff" d="M112.996 150.44c.474.18 1.34.484 2.723.622.5.05 1.047.076 1.64.073.456-.003.963-.022 1.525-.063 1.94-.141 4.118-.506 6.659-1.065 3.473-.783 6.674-1.612 9.626-2.197 3.05-.605 5.695-.917 8.421-.848l.078.002a20.46 20.46 0 0 1 2.228.21c.82.115 1.727.275 2.703.47 1.89.38 3.97.88 6.054 1.415 2.042.524 4.022 1.065 5.694 1.516.846.229 1.606.431 2.26.6.667.17 1.219.303 1.64.388 4.24.877 7.013 1.354 9.234 1.524.842.064 1.529.077 2.098.056a9.937 9.937 0 0 0 1.203-.113c1.313-.209 1.979-.64 2.304-.86-.386.142-1.095.297-2.35.3-.345.001-.725-.009-1.153-.03a29.554 29.554 0 0 1-2.021-.18c-2.206-.264-4.833-.762-9.109-1.677-.394-.087-.927-.22-1.59-.395-.648-.17-1.4-.375-2.247-.605-1.667-.455-3.656-1-5.705-1.527-2.092-.537-4.194-1.04-6.111-1.421a48.382 48.382 0 0 0-2.763-.475 21.222 21.222 0 0 0-2.423-.212c-2.825-.062-5.551.286-8.634.933-2.986.627-6.176 1.5-9.623 2.333-2.518.623-4.623 1.043-6.53 1.275-.55.066-1.042.113-1.487.144-.58.041-1.111.062-1.604.065-1.358.006-2.242-.137-2.74-.258z" opacity=".7"/></svg>